<?xml version="1.0" encoding="UTF-8"?><svg id="Layer_1" xmlns="http://www.w3.org/2000/svg" viewBox="0 0 68.92 77.52"><defs><style>.cls-1{stroke:#fff;stroke-linecap:round;stroke-linejoin:round;}.cls-1,.cls-2{fill:none;stroke-width:1.5px;}.cls-2{stroke:#f47c00;stroke-miterlimit:10;}</style></defs><path class="cls-1" d="M28.96,60.13v16.64h7.53v-7.08c4.14-.81,7.99-2.43,11.36-4.7l5,5,8.53-8.53-5-5c2.27-3.38,3.89-7.23,4.7-11.36h7.08v-12.67h-7.08c-.81-4.14-2.43-7.99-4.7-11.36l5-5-8.53-8.53-5,5c-3.38-2.27-7.23-3.89-11.36-4.7V.75h-7.53v16.79"/><path class="cls-1" d="M28.96,59.83c.4.02.79.06,1.2.06,11.67,0,21.14-9.46,21.14-21.14,0-11.67-9.46-21.14-21.14-21.14-.4,0-.8.04-1.2.06"/><rect class="cls-2" x="13.25" y="14.27" width="9" height="9" rx=".47" ry=".47" transform="translate(35.5 37.53) rotate(180)"/><rect class="cls-2" x="13.25" y="54.27" width="9" height="9" rx=".47" ry=".47" transform="translate(35.5 117.53) rotate(180)"/><rect class="cls-2" x="22.75" y="33.77" width="9" height="9" rx=".47" ry=".47" transform="translate(54.5 76.53) rotate(180)"/><rect class="cls-2" x="6.75" y="35.77" width="5" height="5" rx=".26" ry=".26" transform="translate(18.5 76.53) rotate(180)"/><rect class="cls-2" x=".75" y="48.77" width="7" height="7" rx=".37" ry=".37" transform="translate(8.5 104.53) rotate(180)"/><rect class="cls-2" x=".75" y="20.77" width="7" height="7" rx=".37" ry=".37" transform="translate(8.5 48.53) rotate(180)"/></svg>