<?xml version="1.0" encoding="UTF-8"?><svg id="Layer_1" xmlns="http://www.w3.org/2000/svg" viewBox="0 0 2426.49 873.31"><path d="M1015.55,147.92h119.48l1.43,1.43v519.15l-1.43,1.41h-119.48c-1.41,0-1.41-1.41-1.41-1.41V149.35s0-1.43,1.41-1.43ZM975.72,147.92s1.43,1.43,0,2.85l-157.87,256.01c-1.43,1.43-1.43,4.27,0,7.11l159.31,253.2c1.41,1.41,0,2.84,0,2.84h-147.92c-1.43,0-2.85-1.41-4.27-1.41l-95.3-156.47q-1.43-1.41-2.84,0l-89.61,155.05c-1.43,1.41-2.84,2.84-4.27,2.84h-137.96c-2.85,0-2.85-1.41-1.43-1.41l162.15-268.85c2.84-2.84,2.84-5.69,0-8.53l-142.24-240.37c-1.43-1.43,0-2.85,0-2.85h143.65c1.43,0,2.85,1.43,2.85,2.85l86.75,145.07q1.43,1.43,2.84,0l89.61-145.07c0-1.43,1.41-2.85,2.85-2.85h133.68Z" fill="#272727" fill-rule="evenodd" stroke-width="0"/><path d="M1996.95,0l429.53,669.91h-372.66l-140.81-219.03h-17.04l-9.96-15.65h-167.83L1996.95,0Z" fill="#f3dd34" fill-rule="evenodd" stroke-width="0"/><path d="M1969.93,413.89l164.98,256.02h-524.82l164.98-256.02h194.87Z" fill="#000" fill-rule="evenodd" stroke-width="0"/><path d="M1927.26,413.89l164.98,256.02h-524.82l164.99-256.02h194.86Z" fill="#af4a42" fill-rule="evenodd" stroke-width="0"/><path d="M448.05,147.92h-110.94c-1.43,0-2.85,1.43-2.85,2.85L0,668.5s0,1.41,1.43,1.41h135.12c1.43,0,2.84,0,2.84-1.41l45.52-71.13c1.41,0,1.41-1.41,2.84-1.41h142.24c1.41,0,1.41,1.41,1.41,1.41v69.71c0,1.41,0,2.84,1.43,2.84h116.62l1.43-1.41V150.77c.01-1.43-1.41-2.85-2.83-2.85ZM331.42,493.56v1.39h-88.18q-1.43,0-1.43-1.39l93.88-149.36-4.27,149.36h0ZM1206.15,669.91h157.87c19.91-1.41,39.82-4.28,58.3-9.96,72.55-22.75,110.96-95.3,110.96-156.47,0-98.12-76.81-132.25-167.82-170.66-15.65-7.12-35.56-17.07-35.56-38.4s21.34-32.72,44.08-32.72h123.74q1.41,0,1.41-1.41v-112.37q0-1.4-1.41-1.4h-129.43c-108.09,0-172.11,64.01-172.11,153.61,0,78.22,49.78,116.62,122.33,146.49,51.19,19.91,83.91,28.44,83.91,69.69,0,21.34-12.8,42.66-39.83,42.66h-156.44v109.53c0,1.41,1.39,1.41-.01,1.41ZM1600.12,145.08c-24.18,0-42.67,19.91-42.67,44.1,0,22.75,18.49,42.67,42.67,42.67s44.08-19.92,44.08-42.67c0-24.19-19.9-44.1-44.08-44.1h0ZM1600.12,227.57c-21.12.09-38.31-16.95-38.4-38.07,0-.11,0-.22,0-.32,0-22.76,17.07-39.83,38.4-39.83,22.76,0,39.82,17.07,39.82,39.83,0,21.34-17.06,38.39-39.82,38.39Z" fill="#272727" fill-rule="evenodd" stroke-width="0"/><path d="M1621.45,213.35l-9.95-22.76c5.68-1.41,8.52-7.11,8.52-12.8,0-4.27-1.41-8.53-5.68-11.37-2.84-2.84-7.11-2.84-11.37-2.84h-18.49v49.78h5.68v-21.34h14.23l9.96,21.34h7.11ZM1590.16,186.32v-18.48h12.8c2.84,0,5.68,0,7.11,2.84,2.84,1.43,4.27,2.84,4.27,7.11,0,1.43-1.43,4.27-2.84,5.69-2.85,2.84-5.69,2.84-8.53,2.84h-12.8ZM105.28,863.35c-14.23,7.12-25.6,9.96-41.26,9.96-41.24,0-61.15-25.62-61.15-51.19,0-27.03,22.76-52.64,62.58-52.64,15.64,0,28.44,2.87,38.4,8.53v22.75c-11.37-5.68-22.76-9.93-35.56-9.93-22.75,0-38.4,12.79-38.4,31.28,0,17.04,15.65,29.87,36.99,29.87,14.21,0,22.75-2.84,38.4-9.96v21.34h0ZM254.61,873.31c-38.4,0-59.74-25.62-59.74-51.19s21.34-52.64,59.74-52.64,59.74,28.44,59.74,52.64c0,25.58-21.34,51.19-59.74,51.19ZM254.61,790.83c-19.91,0-32.71,12.79-32.71,31.28s12.8,29.87,32.71,29.87,32.72-11.37,32.72-29.87-12.8-31.28-32.72-31.28ZM494.99,770.88h21.34v101.01h-25.62v-62.61l-28.44,31.31h-2.84l-28.46-31.31v62.61h-25.59v-101.01h21.32l34.15,38.4,34.14-38.4ZM708.33,770.88h22.76v101.01h-25.6v-62.61l-28.46,31.31h-4.27l-28.44-31.31v62.61h-25.6v-101.01h22.76l34.14,38.4,32.71-38.4h0ZM930.22,770.88v58.31c0,32.72-24.19,44.1-52.63,44.1-29.87,0-51.2-12.79-51.2-44.1v-58.31h25.6v58.31c0,14.24,11.37,22.77,25.6,22.77s27.03-5.69,27.03-24.19v-56.9h25.6ZM1130.76,871.89h-21.34l-58.33-64.02v64.02h-25.59v-101.01h24.18l55.47,62.61v-62.61h25.6v101.01Z" fill="#272727" fill-rule="evenodd" stroke-width="0"/><path d="M1230.31,871.89h25.62v-101.01h-25.62v101.01Z" fill="#272727" stroke-width="0"/><path d="M1443.66,863.35c-14.21,7.12-25.6,9.96-41.24,9.96-39.83,0-61.17-25.62-61.17-51.19,0-27.03,22.76-52.64,62.58-52.64,15.64,0,28.44,2.87,38.42,8.53v22.75c-11.4-5.68-22.77-9.93-35.56-9.93-22.76,0-38.4,12.79-38.4,31.28,0,17.04,15.64,29.87,36.98,29.87,14.23,0,22.76-2.84,38.4-9.96v21.34h0ZM1629.99,871.89h-27.02l-8.53-19.91h-46.94l-8.52,19.91h-27.03l41.24-101h31.28l45.51,101ZM1568.84,795.09l-14.24,39.82h31.3l-17.06-39.82ZM1782.18,789.38h-36.98v82.51h-27.02v-82.51h-37v-18.49h101v18.49h0Z" fill="#272727" fill-rule="evenodd" stroke-width="0"/><path d="M1861.84,871.89h25.59v-101.01h-25.59v101.01Z" fill="#272727" stroke-width="0"/><path d="M2026.81,873.31c-38.4,0-59.73-25.62-59.73-51.19s19.9-52.64,59.73-52.64,59.73,28.44,59.73,52.64c.01,25.58-22.74,51.19-59.73,51.19ZM2026.81,790.83c-19.92,0-32.71,12.79-32.71,31.28s12.79,29.87,32.71,29.87,32.71-11.37,32.71-29.87-12.79-31.28-32.71-31.28ZM2268.61,871.89h-21.34l-58.32-64.02v64.02h-25.59v-101.01h24.18l55.46,62.61v-62.61h25.62v101.01ZM2420.78,797.91c-15.64-7.09-24.16-9.96-34.12-9.96-8.53,0-14.23,4.28-14.23,8.53,0,15.65,52.62,11.37,52.62,46.94,0,18.49-17.04,29.87-39.8,29.87-18.51,0-27.04-4.25-38.4-9.96v-21.34c15.63,9.96,24.16,12.79,35.55,12.79,9.96,0,15.64-2.84,15.64-8.53,0-17.07-52.63-11.37-52.63-46.94,0-18.47,15.65-29.87,39.83-29.87,11.37,0,21.34,2.87,35.54,8.53v19.93h.01,0Z" fill="#272727" fill-rule="evenodd" stroke-width="0"/></svg>