<?xml version="1.0" encoding="UTF-8"?><svg id="layer" xmlns="http://www.w3.org/2000/svg" viewBox="0 0 599.8 85.41"><defs><style>.cls-1{fill:#2b6ebc;stroke-width:0px;}.cls-2{fill:none;stroke:#2b6ebc;stroke-miterlimit:10;}</style></defs><path class="cls-1" d="M49.7.06c-15.3,1.2-27,5.8-35.8,14.1C5,22.56,0,34.36,0,47.06c0,6.8,2.2,13.4,6.5,19.9,6.8,10.2,17.5,16.2,31.4,17.7,4.6.5,22.7,0,23.4-.7.1-.1,5.6-21.8,5.6-21.9,0,0-1.4.2-3.1.6-4.4.9-8.6,1.2-13.6,1.1-3.8-.1-4.7-.2-6.7-.8-3.7-1.1-6-2.5-8.5-5-3.6-3.5-4.8-6.7-4.8-12.6,0-11.3,6.6-20.4,17.3-24,4.1-1.4,6.2-1.7,11.9-1.7s8.7.4,13.5,2c1.4.5,2.6.8,2.6.8.3-.4,5.1-19.6,5-19.8-.3-.2-9.3-1.7-13.5-2.1-3.5-.4-14.5-.7-17.2-.5h-.1Z"/><path class="cls-1" d="M350.4.96c-15.6.7-27.1,4.5-33.6,11.1-3.1,3.1-5,6.5-6.2,10.6-.9,3.2-1.1,8.8-.5,11.5.7,2.9,2,5.3,4.3,7.7,2.7,2.9,5.8,4.9,13.4,8.7,8.4,4.2,9.8,5.3,10.1,7.9.4,3.8-2.5,6.8-7.8,8.2-4.7,1.2-17.7.7-26-1.1-1.8-.4-2.4-.5-2.6-.2-.3.5-4.7,18.2-4.6,18.4.2.2,4.6.9,7.9,1.2,4.5.4,21.1.6,25.4.3,16.9-1.3,28.8-6.4,35-14.7,1.6-2.2,3.4-5.9,4.1-8.5.5-1.7.6-2.8.6-6.4,0-4.9-.2-5.8-2-8.9-2.2-3.9-6.1-6.8-14.2-10.8-6.4-3.2-8.6-4.4-10.2-5.8s-2.3-2.7-2.3-4.2.4-2.4,1.3-3.4c2-2.1,5-2.8,11.5-3,5.3-.2,9.4.2,14.8,1.3,1.6.4,3,.6,3.1.5.3-.3,4.6-18.3,4.4-18.5s-8-1.1-12.3-1.5c-4.7-.4-9.2-.5-14-.3l.4-.1Z"/><path class="cls-1" d="M93.4,2.96c0,.2-4.6,18.2-10,40-5.5,21.8-10,39.9-10.1,40.1-.1.4.7.5,14.6.5h14.7l3.9-15.7,4-15.7h9.7c9.1-.1,9.7-.1,9.7.3s-1.7,7.3-3.8,15.8l-3.8,15.3h27.9l.3-1c1-3.8,20.1-79.6,20.1-79.7s-6.3-.2-14-.2h-14l-.2.7c-.1.4-1.8,7-3.8,14.7l-3.6,14h-9.8c-7.4.1-9.8,0-9.8-.2s1.7-6.8,3.7-14.6c2-7.9,3.7-14.4,3.7-14.4,0,0-6.6-.1-14.6-.1-11.5,0-14.7,0-14.7.3l-.1-.1Z"/><path class="cls-1" d="M178.7,26.26c-3.3,12.9-5.8,23.4-5.6,23.3,1.1-.9,57.5-46.2,57.8-46.5s-3.4-.4-23-.4h-23.4l-5.9,23.5.1.1Z"/><path class="cls-1" d="M288.2,8.46c-8.6,3.2-15.7,5.9-15.8,6-.2.2-17.3,68.1-17.3,68.7s3.8.3,14.4.2h14.4l10-39.9c5.5-21.9,10-40,10.1-40.4v-.6c-.1,0-7.2,2.6-15.8,5.8v.2Z"/><path class="cls-1" d="M385.4,11.76c-1.2,5-2.3,9.3-2.4,9.4,0,.3,2,.3,10,.3s10.1,0,10.1.3-3.5,14.1-7.9,30.9c-4.3,16.8-7.9,30.6-7.9,30.7s6.5.1,14.4.1h14.4l7.8-31,7.8-30.9h11.3c0-.1,11.3-.3,11.3-.3l2.2-8.6c1.2-4.8,2.3-8.9,2.4-9.4l.2-.7h-71.3l-2.3,9.1-.1.1Z"/><path class="cls-1" d="M470.8,2.96c0,.2-4.6,18.4-10.1,40.4l-10,40.1h28.9l.3-1c.1-.5,4.7-18.7,10.2-40.4l9.9-39.4h-14.5c-11.4,0-14.5,0-14.6.3h-.1Z"/><path class="cls-1" d="M513.7,3.26c0,.3-4.7,18.5-10.1,40.4l-10,39.9h64.7l.3-1c.2-.5,1.2-4.7,2.3-9.2,1.1-4.6,2.1-8.5,2.2-8.7.1-.4-.8-.4-17.8-.4s-17.9,0-17.8-.5c0-.2.7-2.5,1.3-5.1s1.3-5.3,1.6-6.1l.4-1.3h30.1l2.2-8.8c1.2-4.9,2.3-9,2.4-9.2,0-.2-3-.3-15.1-.3s-15.1,0-15-.5c0-.2.7-2.8,1.5-5.7l1.3-5.3h16.3l16.3-.1,2.2-8.6c1.2-4.8,2.3-8.9,2.4-9.4l.2-.7h-61.5v.5l-.4.1Z"/><path class="cls-1" d="M215.4,35.76c-23.6,8.9-43,16.3-43,16.4s-7.9,30.8-8,31.4h26.2l4.2-15.7,4.2-15.6h6.7l1.2,6c1.6,7.9,4.7,23.3,4.9,24.5l.2,1h14.7c11.7,0,14.7,0,14.6-.3-.3-.8-5.6-19-6.5-22.3-1.2-4.2-3.1-11.8-3-11.8,0,0,1.1-.4,2.5-.9,3.4-1.2,8.1-3.5,10.9-5.4,4.9-3.3,9.2-8.3,11.1-13.1,1.1-2.9,2.6-10.3,2-10.3-.1,0-19.5,7.3-43.1,16.2l.2-.1Z"/><circle class="cls-2" cx="591.5" cy="9.26" r="7.8"/><path class="cls-1" d="M588.3,13.06V4.76h3.7c.7,0,1.3,0,1.7.2.4.1.7.4.9.8s.3.8.3,1.2-.2,1.1-.6,1.5c-.4.4-1,.7-1.8.8.3.1.5.3.7.4.3.3.6.7.9,1.1l1.4,2.3h-1.4l-1.1-1.7c-.3-.5-.6-.9-.8-1.1-.2-.3-.4-.4-.6-.6-.2-.1-.3-.2-.5-.2h-1.9v3.7h-1.1l.2-.1ZM589.4,8.36h2.4c.5,0,.9,0,1.2-.2.3-.1.5-.3.6-.5s.2-.5.2-.7c0-.4-.1-.7-.4-1s-.7-.4-1.3-.4h-2.6v2.7l-.1.1Z"/></svg>