<svg xmlns="http://www.w3.org/2000/svg" viewBox="0 0 100 100"><defs><style>.cls-1,.cls-2{fill:none;stroke-linecap:round;stroke-linejoin:round;stroke-width:1.5px;}.cls-1{stroke:#002d6a;}.cls-2{stroke:#f47c00;}</style></defs><title>Artboard 12 copy</title><g id="Artwork"><path class="cls-1" d="M69.09,69.28h7c4.88,0,9.41-1.43,12.53-5.4A15.69,15.69,0,0,0,78.07,37.93,16.79,16.79,0,1,0,46.69,26.29,16.1,16.1,0,0,0,18.23,36.6c0,.23,0,.44,0,.66a16.53,16.53,0,0,0,5.76,32h7"/><path class="cls-2" d="M75.4,56.77a35.84,35.84,0,0,0-50.8-.13l6.57,6.57a26.53,26.53,0,0,1,37.5,0l-5.93,6a18.11,18.11,0,0,0-25.56,0l5.77,6A9.78,9.78,0,0,1,56.81,75"/><circle class="cls-2" cx="49.9" cy="82.04" r="3.43"/></g></svg>