<svg id="Artwork" xmlns="http://www.w3.org/2000/svg" viewBox="0 0 100 100"><defs><style>.cls-1,.cls-3{fill:none;stroke-linecap:round;stroke-linejoin:round;stroke-width:1.5px;}.cls-1{stroke:#002d6a;}.cls-2{fill:#f47c00;}.cls-3{stroke:#f47c00;}</style></defs><title>Artboard 10</title><path class="cls-1" d="M76.12,69.35c.22,0,.44,0,.67,0s.44,0,.66,0h0c.4,0,.79,0,1.18-.09a13.93,13.93,0,0,0,10-5.31A15.7,15.7,0,0,0,78.07,38,16.79,16.79,0,1,0,46.69,26.35,16.1,16.1,0,0,0,18.23,36.67c0,.22,0,.44,0,.66a16.53,16.53,0,0,0,5.76,32"/><path class="cls-2" d="M34.87,61.54a1.4,1.4,0,0,1,1.39,1.39V76.62a1.39,1.39,0,0,1-2.78,0V62.93a1.39,1.39,0,0,1,1.39-1.39m0-1.5A2.89,2.89,0,0,0,32,62.93V76.62a2.89,2.89,0,0,0,5.78,0V62.93A2.9,2.9,0,0,0,34.87,60Z"/><path class="cls-3" d="M32.71,76.46c-2.26-.81-3.92-3.5-3.92-6.68s1.67-5.9,4-6.7"/><path class="cls-2" d="M65.51,61.54a1.39,1.39,0,0,1,1.38,1.39V76.62a1.39,1.39,0,1,1-2.77,0V62.93a1.39,1.39,0,0,1,1.39-1.39m0-1.5a2.89,2.89,0,0,0-2.89,2.89V76.62a2.89,2.89,0,1,0,5.77,0V62.93A2.89,2.89,0,0,0,65.51,60Z"/><path class="cls-3" d="M67.66,76.46c2.26-.81,3.93-3.5,3.93-6.68s-1.68-5.9-4-6.7"/><path class="cls-3" d="M34.83,60.61a15.34,15.34,0,0,1,30.57,0"/><path class="cls-3" d="M49.85,85.84h9.77a6.91,6.91,0,0,0,5.74-7"/><rect class="cls-3" x="46.66" y="82.5" width="6.83" height="3.32" rx="1.61"/><polyline class="cls-1" points="40.56 69.61 44.78 69.61 47.17 62.81 51.34 75.29 54.06 69.42 59.81 69.42"/></svg>