<svg xmlns="http://www.w3.org/2000/svg" viewBox="0 0 100 100"><defs><style>.cls-1,.cls-2,.cls-3,.cls-4{fill:none;}.cls-1{stroke:#f27d21;}.cls-1,.cls-2{stroke-linecap:round;stroke-linejoin:round;}.cls-1,.cls-2,.cls-3{stroke-width:1.5px;}.cls-2,.cls-3,.cls-4{stroke:#002d6a;}.cls-3,.cls-4{stroke-miterlimit:10;}.cls-4{stroke-width:1.48px;}</style></defs><title>Artboard 26 copy 2</title><g id="Artwork"><polygon class="cls-1" points="49.6 46.67 49.6 31.84 37.86 25.04 37.86 39.87 49.6 46.67"/><polyline class="cls-1" points="37.86 25.04 49.6 18.24 61.96 25.04 50.22 31.84"/><polyline class="cls-1" points="49.6 46.67 61.96 39.25 61.96 25.04"/><path class="cls-2" d="M52.15,53.72A21.12,21.12,0,0,1,32.74,20.64"/><path class="cls-2" d="M42.29,13.08A21.12,21.12,0,0,1,67.34,44.86"/><polyline class="cls-2" points="28.44 20.63 33.45 19.98 34.26 25.01"/><polyline class="cls-2" points="72.09 44.32 67.08 44.96 66.26 39.94"/><path class="cls-3" d="M72.12,29.38H83.19a2.17,2.17,0,0,1,2.17,2.17V72a2.17,2.17,0,0,1-2.17,2.17H16.81A2.17,2.17,0,0,1,14.64,72V31.55a2.17,2.17,0,0,1,2.17-2.17H28"/><polyline class="cls-4" points="72.02 33.29 82.04 33.29 82.04 70.3 18.47 70.3 18.47 33.29 28.17 33.29"/><path class="cls-3" d="M92.69,85.34,85,77.77H15L7.31,85.34a2,2,0,0,0,1.4,3.43H91.29A2,2,0,0,0,92.69,85.34Z"/><line class="cls-2" x1="13.6" y1="84.84" x2="86.11" y2="84.84"/></g></svg>