<?xml version="1.0" encoding="UTF-8"?>
<svg id="Layer_1" data-name="Layer 1" xmlns="http://www.w3.org/2000/svg" version="1.1" viewBox="0 0 720 170.9">
  <g id="surface1">
    <path d="M41.6,98.9v-55.1h102.9V14.4H12.2v114l29,28.2h103.3l.8-28.8H13.6" fill="#441f84" stroke-width="0"/>
    <path d="M70,99.5h56.3v-28.6h-56.3v28.6Z" fill="#441f84" stroke-width="0"/>
    <path d="M199.7,42.8v85.3h61.6v-8.8h-51.4v-29.7h46.2v-8.8h-46.2v-29.2h51.4v-8.8h-51.4" fill="#441f84" stroke-width="0"/>
    <path d="M334.2,65.1h-11l-18.6,24.5-18-24.5h-11.7l24.3,31.5-25.1,31.5h10.7l20.2-24.9,18.5,24.9h11.6l-25.2-32.1" fill="#441f84" stroke-width="0"/>
    <path d="M363,46.2h-9.4v18.9h-9.1v8.9h9.1v38.7c0,13.5,10.6,16.6,17.1,16.6s11.6-2.2,11.6-2.2v-8.6c-5.1,2.8-8.8,2.6-8.8,2.6-9.7,0-10.4-9.5-10.4-9.5v-37.7h19.9v-8.8h-20.1" fill="#441f84" stroke-width="0"/>
    <path d="M408.7,81v-16h-9.7v63h9.5v-28s.6-25.8,25.6-26.1v-10s-15.2-2.9-25.5,17" fill="#441f84" stroke-width="0"/>
    <path d="M471.7,71.8c18.9,0,20.1,21,20.1,21h-40.2s1.2-21,20.1-21M499,118l-5.4-5.7s-6.7,9.4-19.8,9.4-22-11.1-22.1-21.1h50.3s2.5-36.6-29.2-36.6-30.6,33.6-30.6,34.7,1.9,30.6,32.1,30.6c0,0,13.9,1.5,24.8-11.3" fill="#441f84" stroke-width="0"/>
    <path d="M638.9,92.8s1.2-21,20.1-21,20.1,21,20.1,21h-40.2ZM660,63.9c-31.7,0-30.6,33.6-30.6,34.7s1.9,30.6,32.1,30.6c0,0,13.9,1.5,24.8-11.3l-5.4-5.7s-6.7,9.4-19.8,9.4-22-11.1-22.1-21.1h50.3s2.5-36.6-29.2-36.6" fill="#441f84" stroke-width="0"/>
    <path d="M589.8,63.9c-15.4,0-22,12.2-22,12.2-7.6-13.9-20.5-12.2-20.5-12.2-11.3,0-17.4,7.3-19.9,11.4v-10.3h-9.7v62.9h9.7v-38.5c1.4-6.8,5.4-17.5,17-17.5s16.4,15.5,16.4,17.9v38.1h9.7v-37.8c0-3.5,1.6-17.6,17.3-17.6s16.1,15.2,16.1,15.2v40.2h9.7v-41.8h-.1c-.7-11.8-8.9-22.1-23.6-22.1" fill="#441f84" stroke-width="0"/>
  </g>
  <g>
    <path d="M694.5,67.5v-9.4h-3.5v-1.3h8.4v1.3h-3.5v9.4h-1.4Z" fill="#441f84" stroke-width="0"/>
    <path d="M702.3,67.5v-10.6h2.1l2.5,7.5c.2.7.4,1.2.5,1.6.1-.4.3-1,.6-1.7l2.5-7.4h1.9v10.6h-1.4v-8.9l-3.1,8.9h-1.3l-3.1-9.1v9.1h-1.4Z" fill="#441f84" stroke-width="0"/>
  </g>
</svg>