<?xml version="1.0" encoding="UTF-8"?><svg id="Layer_1" xmlns="http://www.w3.org/2000/svg" viewBox="0 0 923.08 105.84"><defs><style>.cls-1{fill:#ee2e24;}.cls-1,.cls-2{stroke-width:0px;}.cls-2{fill:#231f20;}</style></defs><path class="cls-2" d="M598.66,104.87h-25.41V1.17l81.74.07s14.97-.56,24.48,8.85c0,0,9.72,8.12,9.72,27.95v66.82h-25.35V36.3s.31-6.99-2.07-9.45c0,0-2.11-2.67-6.11-2.67h-57.05l.05,80.69h0ZM706.83,104.85V1.21h102.01v23.05h-76.71s0,17.61,0,17.61h53.3v22.26h-53.3v17.68h77.22v23.05h-102.52,0ZM528.98,104.85V1.21h25.3v103.64h-25.3ZM851.76,17.74v-3.49,3.49ZM845.24,104.85V24.25h-23.89V1.21h94.99v23.05h-45.8v80.6h-25.3ZM451.88,17.74v-3.49,3.49ZM445.36,104.85V24.25h-23.89V1.21h94.99v23.05h-45.8v80.6h-25.3ZM369.03,41.85c6.18-.05,9.88,0,11.37-.9,0,0,2.6-1.44,2.63-4.52v-6.78c0-3.1-2.62-4.52-2.62-4.52-1.97-1.07-5.32-.87-13.25-.88h-49.3v17.6h52.31-1.13,0ZM382.66,104.85v-35.37c0-3.18-2.66-4.51-2.66-4.51-1.2-.74-4.79-.88-10.07-.88h1.23-53.31v40.76h-25.3V1.21h78.99c13.64.04,23.06,2.05,29.55,8.35,6.37,6.49,7.22,14.99,7.25,23.83v7.38c.08,7.51-3.86,14.36-8.57,18.35l.95.47c1.92.93,2.97,2.25,2.97,2.25,3.58,4.57,3.54,8.5,3.53,13.34v29.67h-24.55ZM0,1.2v103.64h25.3v-40.72h76.66v-22.26H25.3v-17.61h89.12V1.2H0ZM907.64,86.5v4.76h4.43c1.2,0,2.36-.33,2.54-2.11.25-2.36-1.45-2.65-2.54-2.65h-4.43ZM905.86,84.94h6.17c2.14,0,4.21.4,4.39,3.52.08,1.79-.47,2.43-1.82,3.46,1.42.91,1.46,1.12,1.68,3.52.14,1.82-.11,2.11.66,3.31h-2.11l-.29-1.74c-.29-1.64.51-4.18-2.36-4.18h-4.54v5.92h-1.78v-13.81h0ZM910.51,81.13c-6.1,0-11.07,4.97-11.04,11.12,0,6.1,4.94,11.07,11.07,11.04,6.11,0,11.08-4.94,11.08-11.08s-4.97-11.08-11.12-11.08M910.55,104.73c-6.93,0-12.53-5.59-12.53-12.52-.03-6.9,5.6-12.53,12.53-12.53s12.53,5.63,12.53,12.53-5.63,12.49-12.53,12.52"/><path class="cls-1" d="M257.79,105.84c8.22-2.79,14.62-12.26,16.16-24.16v-3.44h-42.15v27.6h25.99ZM273.95,27.62v-3.11c-1.62-12.42-8.49-22.2-17.25-24.51h-24.89v27.62h42.14ZM125.6,78.24v3.41c1.53,11.91,7.92,21.4,16.17,24.19h25.85v-27.6h-42.02ZM142.85,0c-8.75,2.3-15.64,12.09-17.25,24.53v3.09h42.02V0h-24.77ZM273.96,39.12h-42.15v27.62h42.15v-27.62ZM179.1,105.84h41.23v-27.6h-41.23v27.6ZM220.33,0h-41.23v27.62h41.23V0ZM125.6,66.74h42.02v-27.62h-42.02v27.62Z"/></svg>