<?xml version="1.0" encoding="UTF-8"?><svg id="Layer_1" xmlns="http://www.w3.org/2000/svg" viewBox="0 0 350.49 67.82"><path d="M264.3,26.86c5.7-2.17,11.3-.39,14.99,3.77l-23.39,9.2c-.28-5.61,2.6-10.76,8.41-12.96M179.66,39.79c-.27-5.59,2.62-10.72,8.41-12.93,5.69-2.16,11.28-.4,14.96,3.74l-23.37,9.19ZM77.53,39.66c-.22-5.54,2.67-10.61,8.41-12.79,5.64-2.15,11.19-.43,14.87,3.64l-23.28,9.16ZM337.11,43.46c-.65,4.51-3.43,8.38-8.2,10.2-7.58,2.88-15.04-1.36-18.07-8.94-1.04-2.61-1.42-5.27-1.16-7.76l-27.9,10.97c-1.4,2.49-3.67,4.53-6.77,5.71-6.01,2.29-11.9.19-15.56-4.45l58.37-22.98c1.88-.72,3.52-.91,4.91-.91,5.21-.02,9.9,3.16,12.52,8.16l13.06-5.13c-4.45-9.22-13.88-15.57-24.8-15.57-13.24,0-24.29,9.36-26.93,21.81-2.65-12.44-13.69-21.79-26.92-21.79-8.97,0-16.93,4.29-21.95,10.92v-9.48h-11.99V0l-15.41,6.3v28.25c-2.3-11.99-13.45-21.78-26.88-21.78s-25.56,10.46-27.29,24v-3.19c0-12.38-7.09-21.15-19.19-21.15-9.22,0-12.48,4.63-14.25,7.54v-5.77h-14.51v20.2c-2.7-12.37-13.71-21.64-26.89-21.64s-24.83,9.82-27.1,22.74c-.03-4.62-1.05-9-2.83-12.96l-29.84,11.71,3.66,9.31,14.41-5.67c-.2,6.63-3.91,12.54-10.86,15.19-9.78,3.72-19.33-1.55-23.14-11.09-3.81-9.54-.44-19.74,9.35-23.46,6.47-2.46,12.84-.98,17.51,3.06l14.79-5.81c-5.88-7.4-14.95-12.14-25.13-12.14C14.37,3.64,0,18,0,35.73s14.37,32.09,32.09,32.09c15.98,0,29.23-11.68,31.68-26.97.3,14.94,12.5,26.97,27.51,26.97,13.18,0,24.19-9.27,26.89-21.63v19.71h15.53s-.04-29.31,0-30.06l-30.18,11.88c-1.39,2.59-3.69,4.71-6.89,5.92-6.06,2.31-12.01.15-15.66-4.59,0,0,57.28-22.51,57.44-22.58,1.51-.6,2.93-.83,4.14-.83,8.1,0,8.1,8.4,8.1,12.03v28.22h15.46v-22.07c1.73,13.54,13.29,24,27.29,24,13.17,0,24.18-9.25,26.88-21.61v19.68h15.41v-29.86l-30.14,11.85c-1.39,2.52-3.67,4.56-6.8,5.75-6.02,2.29-11.92.18-15.58-4.48l64.39-25.32c-3.43,4.59-5.46,10.28-5.46,16.45,0,15.2,12.33,27.53,27.53,27.53,13.24,0,24.29-9.34,26.93-21.79,2.65,12.44,13.69,21.77,26.92,21.77s24.49-9.52,27-22.15l-13.38-2.19Z" fill="#005197" stroke-width="0"/></svg>