<svg version="1.1" id="Layer_1" xmlns="http://www.w3.org/2000/svg" xmlns:xlink="http://www.w3.org/1999/xlink" x="0px" y="0px" viewBox="0 0 30 30" style="enable-background:new 0 0 30 30;" xml:space="preserve"><style type="text/css">.st0{fill:#4AC6E9;}</style><path class="st0" d="M23,9.5h-4v-2c0-1.1-0.9-2-2-2h-4c-1.1,0-2,0.9-2,2v2H7c-1.1,0-2,0.9-2,2v11c0,1.1,0.9,2,2,2h16
 c1.1,0,2-0.9,2-2v-11C25,10.4,24.1,9.5,23,9.5 M13,7.5h4v2h-4V7.5 M15,12.5c1.4,0,2.5,1.1,2.5,2.5s-1.1,2.5-2.5,2.5
 s-2.5-1.1-2.5-2.5S13.6,12.5,15,12.5 M20,22.5H10v-1.3c0-1.4,2.2-2.5,5-2.5s5,1.1,5,2.5V22.5z"></path> </svg>