<svg id="Artwork" xmlns="http://www.w3.org/2000/svg" viewBox="0 0 100 100"><defs><style>.cls-1,.cls-2{fill:none;stroke-linecap:round;stroke-linejoin:round;}.cls-1{stroke:#f47c00;stroke-width:1.5px;}.cls-2{stroke:#002d6a;stroke-width:1.64px;}</style></defs><title>Artboard 25</title><path class="cls-1" d="M73.47,40.53a10.64,10.64,0,0,0-6.42-13.68"/><path class="cls-1" d="M70,18.25a19.76,19.76,0,0,1,12.1,25.12"/><path class="cls-1" d="M26.25,40.53a10.64,10.64,0,0,1,6.42-13.68"/><path class="cls-1" d="M29.71,18.25a19.74,19.74,0,0,0-12.1,25.12"/><path class="cls-2" d="M15.9,87.87H84.1a3.29,3.29,0,0,0,3-4.73L53.19,14a3.29,3.29,0,0,0-5.89,0L13,83.13A3.28,3.28,0,0,0,15.9,87.87Z"/><path class="cls-1" d="M47.46,66l-1-25h6.82l-1,25Z"/><circle class="cls-1" cx="50.05" cy="72.55" r="2.87"/></svg>