<?xml version="1.0" encoding="UTF-8"?><svg id="layer" xmlns="http://www.w3.org/2000/svg" viewBox="0 0 600.2 102.1"><defs><style>.cls-1{fill:#003d92;}.cls-1,.cls-2{stroke-width:0px;}.cls-2{fill:#4f81c2;}</style></defs><path class="cls-1" d="M405.4,84.5V17.7h15.3v54.3h45.3v12.5h-60.6ZM185.7,84.5v-12.5h-45.3V17.7h-15.3v66.8h60.6ZM253.4,84.5v-12.5h-44.9v-16.4h22.7v-11.5h-22.7v-14.5h44.2v-11.9h-59.5v66.8h60.2ZM274.4,84.5v-43.2l45.4,43.2h10.5V17.7h-13.8v42.5l-45.5-42.5h-10.5v66.8h13.9ZM398,84.5v-12.5h-44.9v-16.4h22.7v-11.5h-22.7v-14.5h44.2v-11.9h-59.5v66.8h60.2ZM466,44.8c0-4.4-3.5-7.9-7.9-7.9s-7.9,3.5-7.9,7.9,3.5,7.9,7.9,7.9c4.4,0,7.9-3.6,7.9-7.9M49.8,60.4c0-1.8-.7-3.4-2-4.7l-1.5-1.5c-3.3-3.3-5.2-7.8-5.2-12.5s1.9-9.2,5.2-12.6l19.4-19.4-6.1-6.1c-4.7-4.8-12.5-4.8-17.2,0L3.6,42.4c-4.8,4.8-4.8,12.5,0,17.2l24.9,24.9,19.4-19.4c1.2-1.3,1.9-3,1.9-4.7"/><path class="cls-2" d="M522.4,46.9c7.6,2.5,17.7,7.2,17.7,18.9s-12.8,20.8-31.2,20.8c-11.5,0-22.8-3.6-31-10l-.8-.6,10-9.3.5.4c6.2,4.7,14.2,7.5,21.5,7.5,8.7,0,13.9-2.9,13.9-7.8s-4.9-6.4-12.3-8.9l-11.9-4.1c-11.5-3.8-17.7-10.2-17.7-18.6,0-11.3,12.6-19.8,29.2-19.8,10,0,19.7,3.2,26.6,8.7l.8.6-8.9,8.7-.6-.4c-5.7-3.8-11.4-5.6-17.9-5.6-7.6,0-12.4,2.7-12.4,7s5.7,6.3,12.3,8.5l.5.2,11.7,3.8M579.1,72.6c-3.4,0-7.6.2-11.2.5,16.1-13.6,28.1-25.1,28.1-36.5,0-12.9-10.5-21.2-26.8-21.2-10.5,0-18.3,3-26.8,10.5l-.8.7,9.7,7.7.5-.5c5.4-4.8,10.3-7.1,15.5-7.1,8.1,0,12.8,3.8,12.8,10.5,0,9.5-14,19.3-36.8,37.2l-.3.3v9.9h57.2v-11.9h-21.1v-.1ZM98.5,42.4l-24.8-24.8-19.4,19.4c-1.3,1.3-2,2.9-2,4.7s.7,3.4,1.9,4.7l1.5,1.5c3.4,3.3,5.2,7.8,5.2,12.5s-1.9,9.2-5.2,12.6l-19.4,19.4,6.1,6.1c4.7,4.8,12.5,4.8,17.2,0l38.8-38.8c4.8-4.8,4.8-12.5.1-17.3"/></svg>