<svg xmlns="http://www.w3.org/2000/svg" viewBox="0 0 100 100"><defs><style>.cls-1,.cls-2,.cls-3{fill:none;stroke-linecap:round;stroke-linejoin:round;stroke-width:1.5px;}.cls-1{stroke:#002d6a;}.cls-2{stroke:#213366;}.cls-3{stroke:#f27d21;}</style></defs><title>Artboard 28 copy 2</title><g id="Artwork"><path class="cls-1" d="M82.14,69.05A37.26,37.26,0,0,1,14.84,62"/><path class="cls-1" d="M14.11,40.49a37.26,37.26,0,0,1,71.36-2.28"/><polyline class="cls-1" points="10.32 68.06 14.65 60.26 22.64 64.37"/><polyline class="cls-1" points="89.68 30.89 85.35 38.69 77.36 34.58"/><path class="cls-2" d="M70.68,53.31V46.69H66.8a17,17,0,0,0-2.58-6.23L67,37.72,62.28,33l-2.74,2.74a17,17,0,0,0-6.23-2.58V29.32H46.69V33.2a17,17,0,0,0-6.23,2.58L37.72,33,33,37.72l2.74,2.74a17,17,0,0,0-2.58,6.23H29.32v6.62H33.2a17,17,0,0,0,2.58,6.23L33,62.28,37.72,67l2.74-2.74a17,17,0,0,0,6.23,2.58v3.88h6.62V66.8a17,17,0,0,0,6.23-2.58L62.28,67,67,62.28l-2.74-2.74a17,17,0,0,0,2.58-6.23Z"/><circle class="cls-3" cx="50" cy="50" r="10.61"/><circle class="cls-2" cx="50" cy="50" r="3.17"/></g></svg>