<svg id="Layer_1" data-name="Layer 1" xmlns="http://www.w3.org/2000/svg" viewBox="0 0 400 400"><defs><style>.cls-1{fill:#2195f2;opacity:0.05;}.cls-2,.cls-3,.cls-5,.cls-7{fill:#fff;}.cls-2,.cls-4,.cls-6,.cls-7,.cls-9{stroke:#002d6a;}.cls-10,.cls-2,.cls-4,.cls-5,.cls-6,.cls-7,.cls-8,.cls-9{stroke-linecap:round;stroke-linejoin:round;}.cls-2,.cls-4{stroke-width:0.99px;}.cls-10,.cls-4,.cls-6,.cls-8,.cls-9{fill:none;}.cls-10,.cls-5,.cls-8{stroke:#4bc7e9;}.cls-6{stroke-width:0.75px;stroke-dasharray:1.83;}.cls-10{stroke-width:1.08px;}</style></defs><title>Artboard 1 copy 4</title><circle class="cls-1" cx="189.17" cy="222.1" r="151.33"/><path class="cls-2" d="M63.72,198.59a9.63,9.63,0,0,1,4.8-8l.11-.07,3.41-2,7.6-4.37,11-6.33,13.58-7.83,15.38-8.85L136,151.78l16.53-9.54,15.91-9.2,14.49-8.39,4-2.32h0l.16-.09.47-.27h0l14.07-8a5,5,0,0,1,7.48,4.35l0,97.57a9.58,9.58,0,0,1-4.77,7.92l-.11.06-3.39,2-7.55,4.35-5.71,3.28v1.06L71.22,301.15a5,5,0,0,1-7.52-4.38Z"/><path class="cls-3" d="M65.87,199.39a9.63,9.63,0,0,1,4.79-8l.11-.06,3.41-2,7.6-4.37,11-6.33,13.59-7.83L121.74,162l16.35-9.43L154.63,143l15.91-9.19,14.48-8.4,4-2.32h0l.16-.09.48-.27h0l14.07-8a5,5,0,0,1,7.47,4.35l0,97.57a9.58,9.58,0,0,1-4.77,7.92l-.11.06-3.38,1.95-7.56,4.35-5.7,3.28v1.05L73.36,301.94a5,5,0,0,1-7.51-4.38Z"/><path class="cls-4" d="M65.87,199.39a9.63,9.63,0,0,1,4.79-8l.11-.06,3.41-2,7.6-4.37,11-6.33,13.59-7.83L121.74,162l16.35-9.43L154.63,143l15.91-9.19,14.48-8.4,4-2.32h0l.16-.09.48-.27h0l14.07-8a5,5,0,0,1,7.47,4.35l0,97.57a9.58,9.58,0,0,1-4.77,7.92l-.11.06-3.38,1.95-7.56,4.35-5.7,3.28v1.05L73.36,301.94a5,5,0,0,1-7.51-4.38Z"/><polygon class="cls-3" points="72.06 305.89 72.07 300.78 77.17 302.5 75.28 305.45 72.06 305.89"/><polygon class="cls-4" points="72.06 305.89 72.07 300.78 77.17 302.5 75.28 305.45 72.06 305.89"/><polygon class="cls-2" points="294.44 273.35 294.44 268.33 289.42 268.33 291.93 274.35 294.44 273.35"/><polygon class="cls-3" points="207.7 213.77 207.83 124.88 70.89 202.87 70.89 292.81 207.7 213.77"/><polygon class="cls-4" points="207.7 213.77 207.83 124.88 70.89 202.87 70.89 292.81 207.7 213.77"/><path class="cls-2" d="M208.69,224.33,73.36,301.94a5,5,0,0,1-7.16-2.46l145-83.75v1.32C211.19,221.24,210.23,223.39,208.69,224.33Z"/><polygon class="cls-2" points="70.84 202.86 207.9 123.72 207.91 132.31 70.78 211.15 70.84 202.86"/><path class="cls-3" d="M293.51,272.15a1.33,1.33,0,0,1,0,2.51L157.37,353.42a4.81,4.81,0,0,1-4.34,0L73,307.16a1.33,1.33,0,0,1,0-2.51L209.16,226a4.81,4.81,0,0,1,4.34,0Z"/><path class="cls-4" d="M293.51,272.15a1.33,1.33,0,0,1,0,2.51L157.37,353.42a4.81,4.81,0,0,1-4.34,0L73,307.16a1.33,1.33,0,0,1,0-2.51L209.16,226a4.81,4.81,0,0,1,4.34,0Z"/><path class="cls-3" d="M89.68,290c1.2-.68,2.69-.95,3.32-.59s2.11.09,3.31-.6l94.1-54.33c1.19-.69,1.65-1.55,1-1.91s-.18-1.23,1-1.92L209.16,221a4.81,4.81,0,0,1,4.34,0l80,46.18a1.33,1.33,0,0,1,0,2.51L157.37,348.4a4.81,4.81,0,0,1-4.34,0L73,302.14a1.33,1.33,0,0,1,0-2.51Z"/><path class="cls-4" d="M89.68,290c1.2-.68,2.69-.95,3.32-.59s2.11.09,3.31-.6l94.1-54.33c1.19-.69,1.65-1.55,1-1.91s-.18-1.23,1-1.92L209.16,221a4.81,4.81,0,0,1,4.34,0l80,46.18a1.33,1.33,0,0,1,0,2.51L157.37,348.4a4.81,4.81,0,0,1-4.34,0L73,302.14a1.33,1.33,0,0,1,0-2.51Z"/><path class="cls-2" d="M218,279.66,241.05,293a1.06,1.06,0,0,1,0,2l-38.33,22c-1.51.84-2.28,1-3.44.72L176.1,304.23c-.68-.54-.86-1.33-.21-1.77l39.64-22.76A2.3,2.3,0,0,1,218,279.66Z"/><path class="cls-3" d="M201,260.13a.54.54,0,0,1,0,1L194.34,265a1.91,1.91,0,0,1-1.74,0l-5.89-3.44a.53.53,0,0,1,0-1l6.68-3.86a1.91,1.91,0,0,1,1.74,0Z"/><path class="cls-4" d="M201,260.13a.54.54,0,0,1,0,1L194.34,265a1.91,1.91,0,0,1-1.74,0l-5.89-3.44a.53.53,0,0,1,0-1l6.68-3.86a1.91,1.91,0,0,1,1.74,0Z"/><path class="cls-3" d="M210.88,254.43a.53.53,0,0,1,0,1L204.72,259a1.94,1.94,0,0,1-1.74,0l-5.89-3.43a.54.54,0,0,1,0-1l6.16-3.56a1.89,1.89,0,0,1,1.73,0Z"/><path class="cls-4" d="M210.88,254.43a.53.53,0,0,1,0,1L204.72,259a1.94,1.94,0,0,1-1.74,0l-5.89-3.43a.54.54,0,0,1,0-1l6.16-3.56a1.89,1.89,0,0,1,1.73,0Z"/><path class="cls-3" d="M207,249.86a.54.54,0,0,1,0-1l6-3.45a1.92,1.92,0,0,1,1.73,0l5.89,3.43a.53.53,0,0,1,0,1l-6,3.45a1.94,1.94,0,0,1-1.74,0Z"/><path class="cls-4" d="M207,249.86a.54.54,0,0,1,0-1l6-3.45a1.92,1.92,0,0,1,1.73,0l5.89,3.43a.53.53,0,0,1,0,1l-6,3.45a1.94,1.94,0,0,1-1.74,0Z"/><path class="cls-3" d="M190.63,266.13c.48.28.48.73,0,1L184,270.94a1.89,1.89,0,0,1-1.73,0l-5.89-3.44a.53.53,0,0,1,0-1l6.59-3.8a1.89,1.89,0,0,1,1.73,0Z"/><path class="cls-4" d="M190.63,266.13c.48.28.48.73,0,1L184,270.94a1.89,1.89,0,0,1-1.73,0l-5.89-3.44a.53.53,0,0,1,0-1l6.59-3.8a1.89,1.89,0,0,1,1.73,0Z"/><path class="cls-3" d="M180.34,272.07a.53.53,0,0,1,0,1l-6,3.47a1.92,1.92,0,0,1-1.73,0l-5.89-3.44a.53.53,0,0,1,0-1l6-3.47a1.92,1.92,0,0,1,1.73,0Z"/><path class="cls-4" d="M180.34,272.07a.53.53,0,0,1,0,1l-6,3.47a1.92,1.92,0,0,1-1.73,0l-5.89-3.44a.53.53,0,0,1,0-1l6-3.47a1.92,1.92,0,0,1,1.73,0Z"/><path class="cls-3" d="M222.65,262.3a1.92,1.92,0,0,1,1.73,0l5.86,3.42a.53.53,0,0,1,0,1l-6.16,3.56a1.91,1.91,0,0,1-1.74,0l-5.86-3.42a.53.53,0,0,1,0-1Z"/><path class="cls-4" d="M222.65,262.3a1.92,1.92,0,0,1,1.73,0l5.86,3.42a.53.53,0,0,1,0,1l-6.16,3.56a1.91,1.91,0,0,1-1.74,0l-5.86-3.42a.53.53,0,0,1,0-1Z"/><path class="cls-3" d="M186,273.09a.53.53,0,0,1,0-1l6.58-3.81a1.94,1.94,0,0,1,1.74,0l6.11,3.57a.53.53,0,0,1,0,1l-6.58,3.81a1.91,1.91,0,0,1-1.74,0Z"/><path class="cls-4" d="M186,273.09a.53.53,0,0,1,0-1l6.58-3.81a1.94,1.94,0,0,1,1.74,0l6.11,3.57a.53.53,0,0,1,0,1l-6.58,3.81a1.91,1.91,0,0,1-1.74,0Z"/><path class="cls-3" d="M146.62,284.72a.53.53,0,0,1,0-1l6.1-3.52a1.89,1.89,0,0,1,1.73,0l5.89,3.44a.53.53,0,0,1,0,1l-6.1,3.52a1.92,1.92,0,0,1-1.73,0Z"/><path class="cls-4" d="M146.62,284.72a.53.53,0,0,1,0-1l6.1-3.52a1.89,1.89,0,0,1,1.73,0l5.89,3.44a.53.53,0,0,1,0,1l-6.1,3.52a1.92,1.92,0,0,1-1.73,0Z"/><path class="cls-3" d="M136.5,290.56a.54.54,0,0,1,0-1l6.41-3.7a1.89,1.89,0,0,1,1.73,0l5.89,3.44a.53.53,0,0,1,0,1l-6.41,3.7a1.94,1.94,0,0,1-1.74,0Z"/><path class="cls-4" d="M136.5,290.56a.54.54,0,0,1,0-1l6.41-3.7a1.89,1.89,0,0,1,1.73,0l5.89,3.44a.53.53,0,0,1,0,1l-6.41,3.7a1.94,1.94,0,0,1-1.74,0Z"/><path class="cls-3" d="M126.46,296.36c-.48-.28-.48-.73,0-1l6.34-3.67a1.94,1.94,0,0,1,1.74,0l5.89,3.43a.54.54,0,0,1,0,1l-6.34,3.66a1.89,1.89,0,0,1-1.73,0Z"/><path class="cls-4" d="M126.46,296.36c-.48-.28-.48-.73,0-1l6.34-3.67a1.94,1.94,0,0,1,1.74,0l5.89,3.43a.54.54,0,0,1,0,1l-6.34,3.66a1.89,1.89,0,0,1-1.73,0Z"/><path class="cls-3" d="M204.14,270.71a1.91,1.91,0,0,1-1.74,0l-6.1-3.56a.53.53,0,0,1,0-1l6.68-3.86a1.92,1.92,0,0,1,1.73,0l6.11,3.56a.54.54,0,0,1,0,1Z"/><path class="cls-4" d="M204.14,270.71a1.91,1.91,0,0,1-1.74,0l-6.1-3.56a.53.53,0,0,1,0-1l6.68-3.86a1.92,1.92,0,0,1,1.73,0l6.11,3.56a.54.54,0,0,1,0,1Z"/><path class="cls-3" d="M156.2,290.31a.54.54,0,0,1,0-1l6.09-3.52a2,2,0,0,1,1.73,0l6.11,3.57a.53.53,0,0,1,0,1l-6.09,3.52a1.94,1.94,0,0,1-1.74,0Z"/><path class="cls-4" d="M156.2,290.31a.54.54,0,0,1,0-1l6.09-3.52a2,2,0,0,1,1.73,0l6.11,3.57a.53.53,0,0,1,0,1l-6.09,3.52a1.94,1.94,0,0,1-1.74,0Z"/><path class="cls-3" d="M176.29,278.7a.53.53,0,0,1,0-1l6-3.47a1.91,1.91,0,0,1,1.74,0l6.1,3.56a.53.53,0,0,1,0,1l-6,3.47a1.94,1.94,0,0,1-1.74,0Z"/><path class="cls-4" d="M176.29,278.7a.53.53,0,0,1,0-1l6-3.47a1.91,1.91,0,0,1,1.74,0l6.1,3.56a.53.53,0,0,1,0,1l-6,3.47a1.94,1.94,0,0,1-1.74,0Z"/><path class="cls-3" d="M146.09,296.15c-.48-.28-.48-.73,0-1l6.41-3.71a1.94,1.94,0,0,1,1.74,0l6.1,3.56a.53.53,0,0,1,0,1l-6.41,3.7a1.92,1.92,0,0,1-1.73,0Z"/><path class="cls-4" d="M146.09,296.15c-.48-.28-.48-.73,0-1l6.41-3.71a1.94,1.94,0,0,1,1.74,0l6.1,3.56a.53.53,0,0,1,0,1l-6.41,3.7a1.92,1.92,0,0,1-1.73,0Z"/><path class="cls-3" d="M166,284.65a.54.54,0,0,1,0-1l6.59-3.81a1.94,1.94,0,0,1,1.74,0l6.1,3.56a.53.53,0,0,1,0,1l-6.59,3.81a1.92,1.92,0,0,1-1.73,0Z"/><path class="cls-4" d="M166,284.65a.54.54,0,0,1,0-1l6.59-3.81a1.94,1.94,0,0,1,1.74,0l6.1,3.56a.53.53,0,0,1,0,1l-6.59,3.81a1.92,1.92,0,0,1-1.73,0Z"/><path class="cls-3" d="M170.63,277.68a.53.53,0,0,1,0,1L164,282.5a1.92,1.92,0,0,1-1.73,0l-5.89-3.43a.53.53,0,0,1,0-1l6.59-3.81a1.92,1.92,0,0,1,1.73,0Z"/><path class="cls-4" d="M170.63,277.68a.53.53,0,0,1,0,1L164,282.5a1.92,1.92,0,0,1-1.73,0l-5.89-3.43a.53.53,0,0,1,0-1l6.59-3.81a1.92,1.92,0,0,1,1.73,0Z"/><path class="cls-3" d="M191.43,254.54a.53.53,0,0,1,0,1l-6.68,3.86a1.89,1.89,0,0,1-1.73,0L177.21,256a.53.53,0,0,1,0-1l6.68-3.86a1.92,1.92,0,0,1,1.73,0Z"/><path class="cls-4" d="M191.43,254.54a.53.53,0,0,1,0,1l-6.68,3.86a1.89,1.89,0,0,1-1.73,0L177.21,256a.53.53,0,0,1,0-1l6.68-3.86a1.92,1.92,0,0,1,1.73,0Z"/><path class="cls-3" d="M181.05,260.53a.53.53,0,0,1,0,1l-6.59,3.81a1.94,1.94,0,0,1-1.74,0L166.91,262a.53.53,0,0,1,0-1l6.59-3.81a1.91,1.91,0,0,1,1.74,0Z"/><path class="cls-4" d="M181.05,260.53a.53.53,0,0,1,0,1l-6.59,3.81a1.94,1.94,0,0,1-1.74,0L166.91,262a.53.53,0,0,1,0-1l6.59-3.81a1.91,1.91,0,0,1,1.74,0Z"/><path class="cls-3" d="M201.3,248.84a.53.53,0,0,1,0,1l-6.17,3.56a1.89,1.89,0,0,1-1.73,0L187.59,250a.53.53,0,0,1,0-1l6.16-3.56a1.94,1.94,0,0,1,1.74,0Z"/><path class="cls-4" d="M201.3,248.84a.53.53,0,0,1,0,1l-6.17,3.56a1.89,1.89,0,0,1-1.73,0L187.59,250a.53.53,0,0,1,0-1l6.16-3.56a1.94,1.94,0,0,1,1.74,0Z"/><path class="cls-3" d="M170.76,266.48a.54.54,0,0,1,0,1l-6,3.47a1.92,1.92,0,0,1-1.73,0l-5.82-3.39a.54.54,0,0,1,0-1l6-3.46a1.91,1.91,0,0,1,1.74,0Z"/><path class="cls-4" d="M170.76,266.48a.54.54,0,0,1,0,1l-6,3.47a1.92,1.92,0,0,1-1.73,0l-5.82-3.39a.54.54,0,0,1,0-1l6-3.46a1.91,1.91,0,0,1,1.74,0Z"/><path class="cls-3" d="M161.05,272.09a.54.54,0,0,1,0,1l-6.59,3.8a1.91,1.91,0,0,1-1.74,0l-5.81-3.39a.54.54,0,0,1,0-1l6.59-3.81a1.94,1.94,0,0,1,1.74,0Z"/><path class="cls-4" d="M161.05,272.09a.54.54,0,0,1,0,1l-6.59,3.8a1.91,1.91,0,0,1-1.74,0l-5.81-3.39a.54.54,0,0,1,0-1l6.59-3.81a1.94,1.94,0,0,1,1.74,0Z"/><path class="cls-3" d="M150.76,278a.53.53,0,0,1,0,1l-6.09,3.52a1.91,1.91,0,0,1-1.74,0l-5.81-3.39a.54.54,0,0,1,0-1l6.1-3.52a1.92,1.92,0,0,1,1.73,0Z"/><path class="cls-4" d="M150.76,278a.53.53,0,0,1,0,1l-6.09,3.52a1.91,1.91,0,0,1-1.74,0l-5.81-3.39a.54.54,0,0,1,0-1l6.1-3.52a1.92,1.92,0,0,1,1.73,0Z"/><path class="cls-3" d="M149.74,312.23a.53.53,0,0,1,0,1l-6.38,3.67a2,2,0,0,1-1.73,0l-5.89-3.41a.54.54,0,0,1,0-1l6.4-3.68a1.91,1.91,0,0,1,1.74,0Z"/><path class="cls-4" d="M149.74,312.23a.53.53,0,0,1,0,1l-6.38,3.67a2,2,0,0,1-1.73,0l-5.89-3.41a.54.54,0,0,1,0-1l6.4-3.68a1.91,1.91,0,0,1,1.74,0Z"/><path class="cls-3" d="M196.36,235.74a1.91,1.91,0,0,1,1.74,0l3.36,2a.53.53,0,0,1,0,1l-15.83,9.15a4.7,4.7,0,0,1-.94.46s-.1,0-.14.08a6.46,6.46,0,0,1-.94.62L125,282.86a8.36,8.36,0,0,1-.9.48s0,0-.07,0-.43.28-.9.56L104.6,294.59a1.92,1.92,0,0,1-1.73,0l-3.23-1.88a.54.54,0,0,1,0-1Z"/><path class="cls-4" d="M196.36,235.74a1.91,1.91,0,0,1,1.74,0l3.36,2a.53.53,0,0,1,0,1l-15.83,9.15a4.7,4.7,0,0,1-.94.46s-.1,0-.14.08a6.46,6.46,0,0,1-.94.62L125,282.86a8.36,8.36,0,0,1-.9.48s0,0-.07,0-.43.28-.9.56L104.6,294.59a1.92,1.92,0,0,1-1.73,0l-3.23-1.88a.54.54,0,0,1,0-1Z"/><path class="cls-3" d="M197.45,244.31a.54.54,0,0,1,0-1l6-3.44a1.91,1.91,0,0,1,1.74,0l5.81,3.39a.54.54,0,0,1,0,1l-6,3.44a1.89,1.89,0,0,1-1.73,0Z"/><path class="cls-4" d="M197.45,244.31a.54.54,0,0,1,0-1l6-3.44a1.91,1.91,0,0,1,1.74,0l5.81,3.39a.54.54,0,0,1,0,1l-6,3.44a1.89,1.89,0,0,1-1.73,0Z"/><path class="cls-3" d="M232.31,256.72a1.91,1.91,0,0,1,1.74,0l5.86,3.42a.53.53,0,0,1,0,1l-6,3.44a1.91,1.91,0,0,1-1.74,0l-5.86-3.42a.53.53,0,0,1,0-1Z"/><path class="cls-4" d="M232.31,256.72a1.91,1.91,0,0,1,1.74,0l5.86,3.42a.53.53,0,0,1,0,1l-6,3.44a1.91,1.91,0,0,1-1.74,0l-5.86-3.42a.53.53,0,0,1,0-1Z"/><path class="cls-3" d="M152.19,303a1.89,1.89,0,0,1,1.73,0l5.87,3.42a.54.54,0,0,1,0,1l-6.34,3.66a1.89,1.89,0,0,1-1.73,0l-5.87-3.42a.54.54,0,0,1,0-1Z"/><path class="cls-4" d="M152.19,303a1.89,1.89,0,0,1,1.73,0l5.87,3.42a.54.54,0,0,1,0,1l-6.34,3.66a1.89,1.89,0,0,1-1.73,0l-5.87-3.42a.54.54,0,0,1,0-1Z"/><path class="cls-3" d="M158.45,299.39l1-.59,1-.59,1.81-1,1.74-1,15.11-8.73,1.74-1,1.5-.87,1.74-1,9.94-5.74,1.56-.9,1.56-.9,7.17-4.15,1.74-1,6.68-3.86a1.92,1.92,0,0,1,1.73,0l5.87,3.42a.53.53,0,0,1,0,1l-2.06,1.2-1.74,1-4.84,2.8-1.74,1-6.59,3.81-1.73,1L191.73,289,190,290l-6.59,3.8-1.74,1-10,5.79-1.74,1-6.41,3.71a1.94,1.94,0,0,1-1.74,0l-5.86-3.42c-.48-.28-.48-.73,0-1Z"/><path class="cls-4" d="M158.45,299.39l1-.59,1-.59,1.81-1,1.74-1,15.11-8.73,1.74-1,1.5-.87,1.74-1,9.94-5.74,1.56-.9,1.56-.9,7.17-4.15,1.74-1,6.68-3.86a1.92,1.92,0,0,1,1.73,0l5.87,3.42a.53.53,0,0,1,0,1l-2.06,1.2-1.74,1-4.84,2.8-1.74,1-6.59,3.81-1.73,1L191.73,289,190,290l-6.59,3.8-1.74,1-10,5.79-1.74,1-6.41,3.71a1.94,1.94,0,0,1-1.74,0l-5.86-3.42c-.48-.28-.48-.73,0-1Z"/><path class="cls-3" d="M141,283.7a.53.53,0,0,1,0,1l-6.42,3.71a1.92,1.92,0,0,1-1.73,0L127,285a.53.53,0,0,1,0-1l6.41-3.7a2,2,0,0,1,1.74,0Z"/><path class="cls-4" d="M141,283.7a.53.53,0,0,1,0,1l-6.42,3.71a1.92,1.92,0,0,1-1.73,0L127,285a.53.53,0,0,1,0-1l6.41-3.7a2,2,0,0,1,1.74,0Z"/><path class="cls-3" d="M130.38,300.94a.53.53,0,0,1,0,1l-6.5,3.75a1.91,1.91,0,0,1-1.74,0l-5.89-3.43a.53.53,0,0,1,0-1l6.51-3.75a1.89,1.89,0,0,1,1.73,0Z"/><path class="cls-4" d="M130.38,300.94a.53.53,0,0,1,0,1l-6.5,3.75a1.91,1.91,0,0,1-1.74,0l-5.89-3.43a.53.53,0,0,1,0-1l6.51-3.75a1.89,1.89,0,0,1,1.73,0Z"/><path class="cls-3" d="M120.8,295.34a.54.54,0,0,1,0,1l-6.54,3.78a2,2,0,0,1-1.73,0l-5.77-3.35a.53.53,0,0,1,0-1l6.5-3.82a1.91,1.91,0,0,1,1.74,0Z"/><path class="cls-4" d="M120.8,295.34a.54.54,0,0,1,0,1l-6.54,3.78a2,2,0,0,1-1.73,0l-5.77-3.35a.53.53,0,0,1,0-1l6.5-3.82a1.91,1.91,0,0,1,1.74,0Z"/><path class="cls-3" d="M133.21,302.59l.87-.5.23-.14.87-.5.29-.17,1.16-.67.09-.05.87-.5.87-.5,3.93-2.27a1.89,1.89,0,0,1,1.73,0l6.11,3.56a.54.54,0,0,1,0,1l-3.92,2.26c-.48.28-.87.5-.86.51l-.87.5-6.49,3.75-.87.5-.88.49-2.59,1.48a1.94,1.94,0,0,1-1.74,0l-6.13-3.53c-.48-.27-.48-.72,0-1l6.46-3.72Z"/><path class="cls-4" d="M133.21,302.59l.87-.5.23-.14.87-.5.29-.17,1.16-.67.09-.05.87-.5.87-.5,3.93-2.27a1.89,1.89,0,0,1,1.73,0l6.11,3.56a.54.54,0,0,1,0,1l-3.92,2.26c-.48.28-.87.5-.86.51l-.87.5-6.49,3.75-.87.5-.88.49-2.59,1.48a1.94,1.94,0,0,1-1.74,0l-6.13-3.53c-.48-.27-.48-.72,0-1l6.46-3.72Z"/><path class="cls-3" d="M117,290.82a.54.54,0,0,1,0-1l6.35-3.67a1.92,1.92,0,0,1,1.73,0l5.81,3.39a.53.53,0,0,1,0,1l-6.34,3.66a1.91,1.91,0,0,1-1.74,0Z"/><path class="cls-4" d="M117,290.82a.54.54,0,0,1,0-1l6.35-3.67a1.92,1.92,0,0,1,1.73,0l5.81,3.39a.53.53,0,0,1,0,1l-6.34,3.66a1.91,1.91,0,0,1-1.74,0Z"/><path class="cls-3" d="M226.63,257.73l-.86.51-6.5,3.75-.87.49-.88.5-3,1.74a1.92,1.92,0,0,1-1.73,0l-6.11-3.56a.53.53,0,0,1,0-1l6.16-3.56.88-.5.87-.5.23-.13.86-.5.87-.51,6-3.44a1.91,1.91,0,0,1,1.74,0l6.1,3.56a.53.53,0,0,1,0,1l-2.86,1.66Z"/><path class="cls-4" d="M226.63,257.73l-.86.51-6.5,3.75-.87.49-.88.5-3,1.74a1.92,1.92,0,0,1-1.73,0l-6.11-3.56a.53.53,0,0,1,0-1l6.16-3.56.88-.5.87-.5.23-.13.86-.5.87-.51,6-3.44a1.91,1.91,0,0,1,1.74,0l6.1,3.56a.53.53,0,0,1,0,1l-2.86,1.66Z"/><polygon class="cls-3" points="61.32 127.57 74.34 136.96 81.04 128.72 125.08 68.4 143.85 60.94 129.11 52.32 78.55 86.02 61.32 127.57"/><circle class="cls-5" cx="279.86" cy="111.54" r="13.86"/><circle class="cls-5" cx="242.6" cy="150.46" r="10.2"/><circle class="cls-5" cx="348.4" cy="167.82" r="13.37"/><circle class="cls-5" cx="335.75" cy="127.72" r="10.2"/><circle class="cls-5" cx="311.14" cy="209.89" r="10.2"/><circle class="cls-5" cx="257.7" cy="196.06" r="14.9"/><line class="cls-6" x1="268.29" y1="184.46" x2="288" y2="166.81"/><line class="cls-6" x1="253.09" y1="151.31" x2="281.1" y2="156.01"/><line class="cls-6" x1="301.69" y1="159.22" x2="335.06" y2="165.26"/><line class="cls-6" x1="299.68" y1="150.91" x2="327.71" y2="134.96"/><line class="cls-6" x1="288.88" y1="147.17" x2="283.14" y2="125.11"/><line class="cls-6" x1="307.71" y1="200.12" x2="294.98" y2="167.25"/><circle class="cls-7" cx="291.43" cy="157.23" r="10.2"/><circle class="cls-8" cx="291.43" cy="157.23" r="19.81"/><path class="cls-7" d="M167.35,103l-.77-.68-1.69-1.54c-.61-.58-1.24-1.2-1.72-1.69s-.81-.84-.81-.84a8,8,0,0,1-.68-2,11.92,11.92,0,0,1-.25-2.46c0-9.2,9.11-21.92,20.34-28.4C187.57,62,192.8,61,196.5,62l8,4.48"/><path class="cls-7" d="M166.28,98.31c0-9.39,9.53-22.36,21.29-29s21.29-4.37,21.29,5-9.53,22.36-21.29,29A35.89,35.89,0,0,1,184,105.1L175,112l2.45-5C170.78,107.84,166.28,104.76,166.28,98.31Z"/><path class="cls-5" d="M130.92,52.91c-7.58-2.24-18.36-.16-30.32,6.75C77.65,72.91,59,98.89,59,117.69a19.37,19.37,0,0,0,2.75,10.61"/><path class="cls-5" d="M154,76.73c0-18.8-18.6-23.3-41.55-10s-41.56,39.23-41.56,58,18.61,23.29,41.56,10a83.11,83.11,0,0,0,7-4.52l17.62-6.48-4.79-4.56C145.24,106,154,89.64,154,76.73Z"/><line class="cls-5" x1="75.04" y1="137.21" x2="61.89" y2="128.4"/><line class="cls-5" x1="147.3" y1="62.02" x2="131.21" y2="53.09"/><path class="cls-7" d="M102.08,112l.57-3.21c.83-4.76,5-11.18,9.33-15.73l.7,3.1a16.06,16.06,0,0,0-3.9,8.07l-.83,4.38ZM114,105.15l.57-3.21c.83-4.76,5-11.18,9.33-15.73l.7,3.1a16,16,0,0,0-3.89,8.07l-.83,4.37Z"/><polygon class="cls-9" points="132.97 236.07 132.97 195.47 111.9 221.8 111.9 233.29 132.97 236.07"/><path class="cls-10" d="M142.92,219.71c2.62-4.4,4.11-9.17,3.85-13.23s-2.14-6.5-5-7.4"/><path class="cls-10" d="M147.76,186c5.34,1.63,8.88,6.34,9.36,13.75s-2.19,16-6.87,24.05"/><path class="cls-10" d="M156,174.66c7.15,2.18,11.89,8.49,12.52,18.4s-2.92,21.43-9.18,32.18"/></svg>