<svg id="Layer_1" data-name="Layer 1" xmlns="http://www.w3.org/2000/svg" viewBox="0 0 92.21 94.28"><defs><style>.cls-1,.cls-10,.cls-12,.cls-2,.cls-3,.cls-4,.cls-5,.cls-7,.cls-8,.cls-9{fill:none;}.cls-1,.cls-2,.cls-3,.cls-4,.cls-6,.cls-7{stroke:#002d6a;}.cls-1,.cls-2,.cls-7{stroke-miterlimit:10;}.cls-1,.cls-3{stroke-width:1.18px;}.cls-2{stroke-width:1.16px;}.cls-10,.cls-12,.cls-3,.cls-4,.cls-5,.cls-6,.cls-9{stroke-linecap:round;stroke-linejoin:round;}.cls-4{stroke-width:0.96px;}.cls-5{stroke:#f47c00;stroke-width:0.66px;}.cls-6{fill:#fff;}.cls-6,.cls-7{stroke-width:1.78px;}.cls-10,.cls-12,.cls-9{stroke:#f7941d;}.cls-10{stroke-dasharray:3.25 3.25;}.cls-11{fill:#f7941d;}.cls-12{stroke-width:1.5px;}</style></defs><g id="Artwork"><path class="cls-1" d="M59,18.38h6.13a1.72,1.72,0,0,1,1.68,1.68V51.73a1.72,1.72,0,0,1-1.68,1.68H13a1.72,1.72,0,0,1-1.67-1.68V20.06A1.72,1.72,0,0,1,13,18.38H27" transform="translate(-4.46 -3.63)"/><polyline class="cls-2" points="54.63 17.77 59.65 17.77 59.65 46.76 9.79 46.76 9.79 17.77 17.49 17.77 22.5 17.77"/><path class="cls-1" d="M72.47,62.22l-6-5.91H11.57l-6,5.91a1.49,1.49,0,0,0,0,2.23,1.45,1.45,0,0,0,1.12.44h64.8A1.52,1.52,0,0,0,73,63.33,2.07,2.07,0,0,0,72.47,62.22Z" transform="translate(-4.46 -3.63)"/><line class="cls-3" x1="6" y1="58.25" x2="62.88" y2="58.25"/><circle class="cls-3" cx="38.68" cy="16.43" r="15.84"/><path class="cls-4" d="M34,10.91A13,13,0,0,0,34,29.2h0" transform="translate(-4.46 -3.63)"/><path class="cls-4" d="M55,14.7a12.69,12.69,0,0,0-6.8-6.58" transform="translate(-4.46 -3.63)"/><path class="cls-3" d="M30.42,29.87l-2.78,2.79L20.27,40a2.23,2.23,0,0,0-.11,3h0a2.12,2.12,0,0,0,3-.11l7.37-7.36,2.78-2.79" transform="translate(-4.46 -3.63)"/></g><path class="cls-5" d="M39.24,16.82a.29.29,0,0,1,.33-.33h8.81c.23,0,.34.11.34.33v5.91a4.8,4.8,0,1,1-9.6,0V16.82Z" transform="translate(-4.46 -3.63)"/><path class="cls-5" d="M47.27,16.38a3.24,3.24,0,1,0-6.47,0" transform="translate(-4.46 -3.63)"/><circle class="cls-5" cx="34.77" cy="8.73" r="1"/><circle class="cls-5" cx="44.25" cy="8.73" r="1"/><line class="cls-5" x1="43.47" y1="9.4" x2="42.14" y2="10.74"/><line class="cls-5" x1="35.56" y1="9.29" x2="37" y2="10.74"/><line class="cls-5" x1="39.46" y1="23.9" x2="39.46" y2="15.2"/><path class="cls-5" d="M50.72,19.83v-.89a.6.6,0,0,0-.55-.56H39.12" transform="translate(-4.46 -3.63)"/><path class="cls-5" d="M50.72,23v-.9a.59.59,0,0,0-.55-.55H48.72" transform="translate(-4.46 -3.63)"/><path class="cls-5" d="M50.06,26.19V25.3a.61.61,0,0,0-.56-.56H48.38" transform="translate(-4.46 -3.63)"/><path class="cls-5" d="M37.12,19.83v-.89a.6.6,0,0,1,.55-.56h1.45" transform="translate(-4.46 -3.63)"/><path class="cls-5" d="M37.12,23v-.9a.59.59,0,0,1,.55-.55h1.45" transform="translate(-4.46 -3.63)"/><path class="cls-5" d="M37.79,26.19V25.3a.6.6,0,0,1,.55-.56h1.12" transform="translate(-4.46 -3.63)"/><path class="cls-6" d="M92.37,43.26,66.5,34h0L47.23,40.83l-6.46,2.43S34.7,79.23,66.64,97h0C98.43,79.23,92.37,43.26,92.37,43.26Z" transform="translate(-4.46 -3.63)"/><line class="cls-7" x1="62.04" y1="30.33" x2="62.04" y2="93.25"/><line class="cls-8" x1="74.41" y1="42.68" x2="91.71" y2="28.58"/><line class="cls-9" x1="76.71" y1="40.68" x2="77.91" y2="39.78"/><line class="cls-10" x1="80.41" y1="37.78" x2="89.31" y2="30.58"/><line class="cls-9" x1="90.51" y1="29.58" x2="91.71" y2="28.58"/><polygon class="cls-11" points="78.61 41.98 74.41 42.68 75.91 38.68 78.61 41.98"/><line class="cls-8" x1="71.46" y1="81.45" x2="87.66" y2="88.75"/><line class="cls-12" x1="71.46" y1="81.45" x2="83.76" y2="86.95"/><polygon class="cls-11" points="81.66 89.35 87.66 88.75 84.16 83.95 81.66 89.35"/></svg>