<svg xmlns="http://www.w3.org/2000/svg" viewBox="0 0 100 100"><defs><style>.cls-1,.cls-2,.cls-3{fill:none;stroke-linecap:round;stroke-linejoin:round;stroke-width:1.5px;}.cls-1{stroke:#213366;}.cls-2{stroke:#f27d21;}.cls-3{stroke:#002d6a;}</style></defs><title>Artboard 29 copy 2</title><g id="Artwork"><path class="cls-1" d="M88.57,75.25V69.69H85.31a14.21,14.21,0,0,0-2.17-5.24l2.31-2.31-3.93-3.93-2.31,2.3A14.36,14.36,0,0,0,74,58.35V55.09H68.41v3.26a14.36,14.36,0,0,0-5.24,2.16l-2.3-2.3-3.94,3.93,2.31,2.31a14.21,14.21,0,0,0-2.17,5.24H53.81v5.56h3.26a14.21,14.21,0,0,0,2.17,5.24l-2.31,2.3,3.94,3.94,2.3-2.31a14.38,14.38,0,0,0,5.24,2.17v3.26H74V86.59a14.38,14.38,0,0,0,5.24-2.17l2.31,2.31,3.93-3.94-2.31-2.3a14.21,14.21,0,0,0,2.17-5.24Z"/><circle class="cls-2" cx="71.19" cy="72.47" r="8.92"/><circle class="cls-1" cx="71.19" cy="72.47" r="2.67"/><rect class="cls-3" x="19.13" y="12.19" width="51.57" height="8.17" rx="4.09"/><rect class="cls-3" x="19.13" y="40.53" width="51.57" height="8.17" rx="4.09"/><rect class="cls-3" x="10.7" y="26.49" width="38.3" height="8.17" rx="4.09"/><rect class="cls-3" x="10.7" y="54.77" width="38.3" height="8.17" rx="4.09"/><line class="cls-3" x1="24.55" y1="87.26" x2="30.81" y2="72.57"/><polyline class="cls-3" points="33.17 76.28 43.51 80.62 32.91 84.83"/><polyline class="cls-3" points="21.23 76.28 10.89 80.62 21.49 84.83"/></g></svg>