<svg xmlns="http://www.w3.org/2000/svg" viewBox="0 0 685.833 199.411"><defs><style>.cls-1{fill:#4ac7e9;}.cls-2{fill:#002d6a;}.cls-3{fill:#002e6b;}</style></defs><g id="Layer_2" data-name="Layer 2"><g id="LOGO"><path class="cls-1" d="M422.4,93.442a25.629,25.629,0,0,1,7.335-15.089,19.961,19.961,0,0,1,14.449-5.772q8.8,0,13.75,5.494t5.025,15.367Zm52.88,3.686q0-16.064-8.067-25.1t-22.81-9.04A32.655,32.655,0,0,0,419.722,73.45q-9.939,10.467-9.938,27.086,0,17.594,9.094,27.293t25.01,9.7q16.281,0,26.183-6.814V120.007a38.173,38.173,0,0,1-23.323,7.927q-11.295,0-17.748-6.467t-6.748-18.359h53.026ZM403.844,64.376a20.631,20.631,0,0,0-7.188-.974,18.479,18.479,0,0,0-11.808,4.207A24.762,24.762,0,0,0,377,79.326h-.293V64.653H364.679v71.208h12.028v-36.3q0-11.89,5.17-18.775T394.749,73.9q5.94,0,9.095,2.3Zm-63.442.277H328.374v41.029q0,9.945-5.684,16.1a18.846,18.846,0,0,1-14.485,6.155q-18.19,0-18.189-22.531V64.653H278.061v42.559q0,30.318,26.844,30.318,15.695,0,23.176-12.934h.293v11.265H340.4Zm-78.915,57.092A31.2,31.2,0,0,1,243,127.934q-11.661,0-18.592-7.232t-6.931-19.749q0-12.726,7.371-20.549t18.886-7.823a31.729,31.729,0,0,1,17.895,5.563V66.462a41.341,41.341,0,0,0-17.455-3.478q-17.75,0-28.384,10.675T205.16,101.926q0,15.786,9.864,25.695t25.927,9.909q11.88,0,20.536-4.937Zm-122.262-28.3a25.634,25.634,0,0,1,7.334-15.089,19.963,19.963,0,0,1,14.449-5.772q8.8,0,13.752,5.494t5.024,15.367Zm52.88,3.686q0-16.064-8.068-25.1t-22.809-9.04a32.657,32.657,0,0,0-24.68,10.466q-9.939,10.467-9.937,27.086,0,17.594,9.094,27.293t25.01,9.7q16.281,0,26.183-6.814V120.007a38.177,38.177,0,0,1-23.323,7.927q-11.3,0-17.749-6.467t-6.748-18.359h53.027Zm-137.993,37.1a63.69,63.69,0,0,0,7.224,1.807q3.813.73,7.481,1.113a61.381,61.381,0,0,0,6.161.382A68.731,68.731,0,0,0,89.206,136.1a36.993,36.993,0,0,0,11.918-4.624,24.251,24.251,0,0,0,8.215-8.31,24.006,24.006,0,0,0,3.043-12.482,21.139,21.139,0,0,0-2.237-9.875,28.885,28.885,0,0,0-6.05-7.858,48.706,48.706,0,0,0-8.875-6.467q-5.06-2.921-10.707-5.563-5.5-2.573-9.718-4.729a44.363,44.363,0,0,1-7.151-4.45,16.393,16.393,0,0,1-4.438-5.077,13.7,13.7,0,0,1-1.5-6.606,11.893,11.893,0,0,1,1.98-6.954,15.6,15.6,0,0,1,5.134-4.659,23.577,23.577,0,0,1,7.188-2.608,41.467,41.467,0,0,1,8.067-.8q14.6,0,23.91,6.119V38.02q-7.114-3.546-22.663-3.546a56.345,56.345,0,0,0-13.385,1.6,38.645,38.645,0,0,0-11.7,4.868,26.258,26.258,0,0,0-8.287,8.31A21.886,21.886,0,0,0,48.8,61.107a21.884,21.884,0,0,0,2.017,9.7,24.98,24.98,0,0,0,5.537,7.4,44.258,44.258,0,0,0,8.288,5.981q4.765,2.712,10.268,5.354,5.207,2.5,9.717,4.764a51.817,51.817,0,0,1,7.811,4.729A20.366,20.366,0,0,1,97.6,104.5a12.966,12.966,0,0,1,1.87,7.023q0,7.509-5.61,11.508t-16.979,4A45.459,45.459,0,0,1,69.7,126.4a61.147,61.147,0,0,1-7.737-1.773,50.047,50.047,0,0,1-7.335-2.816,28.414,28.414,0,0,1-5.977-3.755v13.768A23.059,23.059,0,0,0,54.112,134.228Z"/><path class="cls-2" d="M491.649,136.083V35.744h33.429q15.279,0,24.208,6.367t8.926,16.583a22.94,22.94,0,0,1-5.068,14.834,27.453,27.453,0,0,1-14.034,8.957v.28q10.875,1.19,17.376,7.662t6.5,16.828q0,12.876-10.653,20.851t-26.889,7.977Zm17.413-86.975V77.657h11.313q9.11,0,14.289-4.094t5.181-11.58q0-12.874-18.073-12.875Zm0,41.913v31.767h14.914q9.769,0,15.1-4.3t5.328-11.86q0-15.6-22.7-15.6Z"/><path class="cls-2" d="M597.741,136.083h-17.12V30.006h17.12Z"/><path class="cls-2" d="M685.538,136.083H668.493V124.748h-.3q-7.422,13.014-23.068,13.014-26.671,0-26.672-30.507V64.432H635.5v41.143q0,19.313,15.648,19.313a16.166,16.166,0,0,0,12.455-5.318q4.886-5.317,4.886-13.925V64.432h17.045Z"/><path class="cls-2" d="M448.023,198.867V164.021h5.129a2.061,2.061,0,0,1,2.14,1.528l.577,2.751a19.13,19.13,0,0,1,2.225-1.97,15.544,15.544,0,0,1,2.479-1.528,12.6,12.6,0,0,1,2.8-.985,14.73,14.73,0,0,1,3.26-.34,12.5,12.5,0,0,1,5.061.968,10.006,10.006,0,0,1,3.685,2.717,11.962,11.962,0,0,1,2.242,4.178,17.767,17.767,0,0,1,.764,5.349v22.178H470V176.689a7.435,7.435,0,0,0-1.478-4.941,5.476,5.476,0,0,0-4.432-1.75,8.738,8.738,0,0,0-4.075.985,14.6,14.6,0,0,0-3.6,2.683v25.2Z"/><path class="cls-2" d="M499.682,163.477a16.937,16.937,0,0,1,6.062,1.053,13.284,13.284,0,0,1,4.772,3.074,14.039,14.039,0,0,1,3.125,4.958,18.734,18.734,0,0,1,1.121,6.708,12.247,12.247,0,0,1-.085,1.58,2.538,2.538,0,0,1-.306.985,1.239,1.239,0,0,1-.594.509,2.538,2.538,0,0,1-.951.153H491.293q.373,5.367,2.887,7.879a8.991,8.991,0,0,0,6.656,2.514,11.5,11.5,0,0,0,3.516-.476,16.379,16.379,0,0,0,2.581-1.053q1.1-.577,1.936-1.053a3.254,3.254,0,0,1,1.613-.475,1.814,1.814,0,0,1,.883.2,1.963,1.963,0,0,1,.646.577l2.445,3.057a13.991,13.991,0,0,1-3.125,2.734,17.462,17.462,0,0,1-3.617,1.766,19.714,19.714,0,0,1-3.838.934,27.5,27.5,0,0,1-3.787.272,18.611,18.611,0,0,1-6.759-1.206,15.117,15.117,0,0,1-5.434-3.566,16.729,16.729,0,0,1-3.634-5.842,22.606,22.606,0,0,1-1.324-8.066,19.264,19.264,0,0,1,1.155-6.708,16.115,16.115,0,0,1,3.311-5.468,15.592,15.592,0,0,1,5.264-3.685A17.338,17.338,0,0,1,499.682,163.477Zm.17,6.012a7.761,7.761,0,0,0-5.74,2.071,10.215,10.215,0,0,0-2.649,5.876h15.759a10.463,10.463,0,0,0-.442-3.073,7.085,7.085,0,0,0-1.359-2.531,6.435,6.435,0,0,0-2.309-1.715A7.868,7.868,0,0,0,499.852,169.489Z"/><path class="cls-2" d="M515.984,164.021h6.656a2.768,2.768,0,0,1,1.6.441,1.905,1.905,0,0,1,.815,1.121l4.993,18.612q.407,1.529.662,2.989t.492,2.921q.374-1.461.8-2.921t.9-2.989l5.774-18.68a2.113,2.113,0,0,1,.815-1.121,2.377,2.377,0,0,1,1.427-.441h3.7a2.543,2.543,0,0,1,1.528.441,2.108,2.108,0,0,1,.815,1.121l5.707,19.02q.439,1.461.8,2.836t.7,2.768q.239-1.461.527-2.921t.73-3.023l5.163-18.612a1.9,1.9,0,0,1,.815-1.121,2.583,2.583,0,0,1,1.494-.441h6.352L558.2,198.867h-6.76q-1.086,0-1.562-1.494L543.6,177.232q-.306-.984-.561-1.986t-.424-1.987q-.2,1.018-.441,2.021t-.544,2.02l-6.351,20.073a1.842,1.842,0,0,1-1.834,1.494h-6.419Z"/><path class="cls-2" d="M594.675,163.477a16.943,16.943,0,0,1,6.063,1.053,13.275,13.275,0,0,1,4.772,3.074,14.039,14.039,0,0,1,3.125,4.958,18.734,18.734,0,0,1,1.121,6.708,12.247,12.247,0,0,1-.085,1.58,2.538,2.538,0,0,1-.306.985,1.239,1.239,0,0,1-.594.509,2.538,2.538,0,0,1-.951.153H586.287q.373,5.367,2.886,7.879a8.993,8.993,0,0,0,6.657,2.514,11.5,11.5,0,0,0,3.516-.476,16.379,16.379,0,0,0,2.581-1.053q1.1-.577,1.936-1.053a3.257,3.257,0,0,1,1.613-.475,1.814,1.814,0,0,1,.883.2,1.95,1.95,0,0,1,.645.577l2.446,3.057a13.991,13.991,0,0,1-3.125,2.734,17.487,17.487,0,0,1-3.617,1.766,19.732,19.732,0,0,1-3.838.934,27.5,27.5,0,0,1-3.787.272,18.611,18.611,0,0,1-6.759-1.206,15.1,15.1,0,0,1-5.433-3.566,16.716,16.716,0,0,1-3.635-5.842,22.606,22.606,0,0,1-1.324-8.066,19.287,19.287,0,0,1,1.155-6.708,16.1,16.1,0,0,1,3.311-5.468,15.582,15.582,0,0,1,5.264-3.685A17.336,17.336,0,0,1,594.675,163.477Zm.17,6.012a7.758,7.758,0,0,0-5.739,2.071,10.222,10.222,0,0,0-2.65,5.876h15.76a10.463,10.463,0,0,0-.442-3.073,7.1,7.1,0,0,0-1.358-2.531,6.447,6.447,0,0,0-2.31-1.715A7.866,7.866,0,0,0,594.845,169.489Z"/><path class="cls-2" d="M615.223,198.867V164.021h4.924a2.64,2.64,0,0,1,1.8.475,2.735,2.735,0,0,1,.679,1.63l.51,4.212a16.528,16.528,0,0,1,4.382-5.094,9.213,9.213,0,0,1,5.637-1.869,7.294,7.294,0,0,1,4.28,1.189l-1.087,6.283a1.3,1.3,0,0,1-.442.866,1.492,1.492,0,0,1-.917.255,5.687,5.687,0,0,1-1.392-.238,9.357,9.357,0,0,0-2.344-.237,7.113,7.113,0,0,0-4.483,1.443,11.129,11.129,0,0,0-3.159,4.229v21.7Z"/><path class="cls-2" d="M667.935,198.867h-3.771a4.038,4.038,0,0,1-1.867-.357,2.285,2.285,0,0,1-1.019-1.443l-.748-2.479a28.687,28.687,0,0,1-2.6,2.089,15.828,15.828,0,0,1-2.632,1.511,13.474,13.474,0,0,1-2.887.917,17.349,17.349,0,0,1-3.4.306,13.382,13.382,0,0,1-4.076-.595,8.759,8.759,0,0,1-3.209-1.783,8.073,8.073,0,0,1-2.089-2.954,10.468,10.468,0,0,1-.747-4.11,8.113,8.113,0,0,1,1.035-3.889,9.751,9.751,0,0,1,3.448-3.464,22.061,22.061,0,0,1,6.419-2.565,45.413,45.413,0,0,1,9.952-1.154v-2.038q0-3.5-1.478-5.179a5.415,5.415,0,0,0-4.3-1.682,10.4,10.4,0,0,0-3.4.476,13.111,13.111,0,0,0-2.36,1.07q-1,.594-1.852,1.069a3.745,3.745,0,0,1-1.867.476,2.424,2.424,0,0,1-1.461-.442,3.47,3.47,0,0,1-.985-1.087l-1.528-2.683a20.72,20.72,0,0,1,14.5-5.5,14.017,14.017,0,0,1,5.452,1,11.589,11.589,0,0,1,4.058,2.785,11.924,11.924,0,0,1,2.53,4.263,16.362,16.362,0,0,1,.867,5.434Zm-16.3-5.23a11.085,11.085,0,0,0,2.377-.238,8.971,8.971,0,0,0,2.055-.713,10.908,10.908,0,0,0,1.868-1.172,16.9,16.9,0,0,0,1.818-1.647v-5.876a46,46,0,0,0-6.131.629,16.294,16.294,0,0,0-3.957,1.171,5.093,5.093,0,0,0-2.123,1.665,3.68,3.68,0,0,0-.628,2.071,3.64,3.64,0,0,0,1.308,3.159A5.664,5.664,0,0,0,651.632,193.637Z"/><path class="cls-1" d="M675.542,194.248a5.211,5.211,0,0,1,.391-2,4.8,4.8,0,0,1,1.086-1.631,5.36,5.36,0,0,1,1.648-1.087,5.122,5.122,0,0,1,2.038-.407,5.053,5.053,0,0,1,2,.407,4.99,4.99,0,0,1,2.716,2.718,5.165,5.165,0,0,1,0,4.024,5.176,5.176,0,0,1-1.086,1.613,4.888,4.888,0,0,1-1.63,1.07,5.239,5.239,0,0,1-2,.391,5.311,5.311,0,0,1-2.038-.391,5.061,5.061,0,0,1-1.648-1.07,4.81,4.81,0,0,1-1.086-1.613A5.171,5.171,0,0,1,675.542,194.248Z"/><path class="cls-3" d="M407.552,182.874H407.5v2.047h-2.268V163.952H407.5v9.3h.056a5.363,5.363,0,0,1,4.9-2.821,5.194,5.194,0,0,1,4.268,1.9,7.85,7.85,0,0,1,1.541,5.1,8.775,8.775,0,0,1-1.729,5.691,5.754,5.754,0,0,1-4.73,2.137A4.658,4.658,0,0,1,407.552,182.874Zm-.056-5.712v1.978a4.209,4.209,0,0,0,1.142,2.98,4.071,4.071,0,0,0,6.127-.352,7.231,7.231,0,0,0,1.169-4.385,5.714,5.714,0,0,0-1.093-3.707,3.617,3.617,0,0,0-2.96-1.342,4.017,4.017,0,0,0-3.181,1.377A5.049,5.049,0,0,0,407.5,177.162Z"/><path class="cls-3" d="M433.154,170.758l-6.515,16.432q-1.741,4.4-4.9,4.4a5.188,5.188,0,0,1-1.48-.18v-2.033a4.206,4.206,0,0,0,1.342.249,2.779,2.779,0,0,0,2.572-2.047l1.135-2.683-5.533-14.136H422.3l3.832,10.9q.069.207.29,1.079h.083q.069-.332.277-1.051l4.025-10.927Z"/><path class="cls-1" d="M152.9,28.7c-.007-.038-.023-.072-.03-.109a3.2,3.2,0,0,0-.085-.309c-.029-.09-.058-.178-.095-.263a2.731,2.731,0,0,0-.131-.259,2.858,2.858,0,0,0-.149-.251c-.054-.079-.115-.152-.176-.225s-.123-.147-.191-.214-.145-.13-.221-.192-.15-.12-.231-.174-.159-.095-.243-.139a2.735,2.735,0,0,0-.289-.138c-.035-.015-.066-.036-.1-.049L78.769.423A3,3,0,0,0,77.357,0c-.08-.009-.159,0-.238,0S76.97,0,76.9,0a3,3,0,0,0-1.412.419L21.932,19.677,3.3,26.378A3.007,3.007,0,0,0,1.354,28.7,135.288,135.288,0,0,0,0,49.227c0,16.339,2.274,40.536,12.863,65.364a139.046,139.046,0,0,0,22.889,36.741A146.165,146.165,0,0,0,74.88,182.889c.057.058.124.106.186.16s.146.129.225.185.163.1.246.147.165.1.253.137.181.067.273.1.183.065.278.087.178.029.268.041a2.957,2.957,0,0,0,.325.033c.028,0,.054.008.081.008s.072-.009.109-.011a2.988,2.988,0,0,0,1.6-.382,3.021,3.021,0,0,0,.653-.507c21.109-11.879,36.454-26.611,47.48-42.2a3,3,0,1,0-4.9-3.465C111.529,151.952,97.1,165.879,77.121,177.26A139.942,139.942,0,0,1,40.283,147.4,136.664,136.664,0,0,1,12.16,94.568,168.225,168.225,0,0,1,6,49.227c0-6.03.323-10.944.643-14.334.138-1.46.274-2.618.385-3.481l16.934-6.088L77.126,6.209l70.1,25.2A139.927,139.927,0,0,1,148.243,47.5a3,3,0,1,0,6-.062A131.5,131.5,0,0,0,152.9,28.7Z"/></g></g></svg>