<?xml version="1.0" encoding="UTF-8"?><svg id="Layer_1" xmlns="http://www.w3.org/2000/svg" viewBox="0 0 75.87 83.5"><defs><style>.cls-1{stroke:#f47c00;}.cls-1,.cls-2,.cls-3{fill:none;}.cls-1,.cls-2,.cls-3,.cls-4{stroke-width:1.5px;}.cls-1,.cls-3{stroke-linejoin:round;}.cls-1,.cls-3,.cls-4{stroke-linecap:round;}.cls-2,.cls-3{stroke:#002d6a;}.cls-2,.cls-4{stroke-miterlimit:10;}.cls-4{fill:#fff;stroke:#f17e21;}</style></defs><rect class="cls-2" x=".75" y=".75" width="57.34" height="66.1" rx="4.93" ry="4.93"/><line class="cls-2" x1="9.61" y1="14.43" x2="48.3" y2="14.43"/><line class="cls-2" x1="9.61" y1="27.43" x2="48.3" y2="27.43"/><line class="cls-2" x1="9.61" y1="39.99" x2="48.3" y2="39.99"/><line class="cls-2" x1="9.61" y1="52.23" x2="48.3" y2="52.23"/><circle class="cls-4" cx="52.27" cy="59.9" r="22.85"/><path class="cls-3" d="M62.37,51.2l-10.09-3.63h0s-.02,0-.02,0h-.02s0,0,0,0l-7.5,2.7-2.59.93s-2.38,14.07,10.09,21.02v.02s.01,0,.02,0c0,0,.01,0,.02,0v-.02c12.47-6.94,10.09-21.02,10.09-21.02Z"/><line class="cls-3" x1="52.29" y1="64.06" x2="52.29" y2="72.19"/><line class="cls-3" x1="52.29" y1="47.83" x2="52.29" y2="54.35"/><circle class="cls-1" cx="52.27" cy="59.2" r="4.86"/><polyline class="cls-3" points="49.62 59.41 51.17 60.97 54.73 57.41"/></svg>