<svg id="Layer_1" data-name="Layer 1" xmlns="http://www.w3.org/2000/svg" viewBox="0 0 400 400"><defs><style>.cls-1{fill:#2195f2;opacity:0.05;}.cls-2,.cls-3,.cls-6,.cls-7{fill:#fff;}.cls-3,.cls-4,.cls-5,.cls-6,.cls-9{stroke:#002d6a;}.cls-10,.cls-3,.cls-4,.cls-5,.cls-6,.cls-7,.cls-8,.cls-9{stroke-linecap:round;stroke-linejoin:round;}.cls-3,.cls-4,.cls-7,.cls-8{stroke-width:0.99px;}.cls-10,.cls-4,.cls-5,.cls-8,.cls-9{fill:none;}.cls-10,.cls-7,.cls-8{stroke:#4bc7e9;}.cls-9{stroke-width:0.75px;stroke-dasharray:1.83;}.cls-10{stroke-width:1.08px;}</style></defs><title>Artboard 1 copy 5</title><circle class="cls-1" cx="189.17" cy="222.1" r="151.33"/><path class="cls-2" d="M102,138l-11.3-6.7a17.37,17.37,0,0,1-.67-6s-.86-6.13,6.51-9L129,104.4l6.32,4.6Z"/><path class="cls-3" d="M63.72,198.59a9.63,9.63,0,0,1,4.8-8l.11-.07,3.41-2,7.6-4.37,11-6.33,13.58-7.83,15.38-8.85L136,151.78l16.53-9.54,15.91-9.2,14.49-8.39,4-2.32h0l.16-.09.47-.27h0l14.07-8a5,5,0,0,1,7.48,4.35l0,97.57a9.58,9.58,0,0,1-4.77,7.92l-.11.06-3.39,2-7.55,4.35-5.71,3.28v1.06L71.22,301.15a5,5,0,0,1-7.52-4.38Z"/><path class="cls-2" d="M65.87,199.39a9.63,9.63,0,0,1,4.79-8l.11-.06,3.41-2,7.6-4.37,11-6.33,13.59-7.83L121.74,162l16.35-9.43L154.63,143l15.91-9.19,14.48-8.4,4-2.32h0l.16-.09.48-.27h0l14.07-8a5,5,0,0,1,7.47,4.35l0,97.57a9.58,9.58,0,0,1-4.77,7.92l-.11.06-3.38,1.95-7.56,4.35-5.7,3.28v1.05L73.36,301.94a5,5,0,0,1-7.51-4.38Z"/><path class="cls-4" d="M65.87,199.39a9.63,9.63,0,0,1,4.79-8l.11-.06,3.41-2,7.6-4.37,11-6.33,13.59-7.83L121.74,162l16.35-9.43L154.63,143l15.91-9.19,14.48-8.4,4-2.32h0l.16-.09.48-.27h0l14.07-8a5,5,0,0,1,7.47,4.35l0,97.57a9.58,9.58,0,0,1-4.77,7.92l-.11.06-3.38,1.95-7.56,4.35-5.7,3.28v1.05L73.36,301.94a5,5,0,0,1-7.51-4.38Z"/><polygon class="cls-2" points="72.06 305.89 72.07 300.78 77.17 302.5 75.28 305.45 72.06 305.89"/><polygon class="cls-4" points="72.06 305.89 72.07 300.78 77.17 302.5 75.28 305.45 72.06 305.89"/><polygon class="cls-3" points="294.44 273.35 294.44 268.33 289.42 268.33 291.93 274.35 294.44 273.35"/><polygon class="cls-2" points="207.7 213.77 207.83 124.88 70.89 202.87 70.89 292.81 207.7 213.77"/><polygon class="cls-4" points="207.7 213.77 207.83 124.88 70.89 202.87 70.89 292.81 207.7 213.77"/><path class="cls-3" d="M208.69,224.33,73.36,301.94a5,5,0,0,1-7.16-2.46l145-83.75v1.32C211.19,221.24,210.23,223.39,208.69,224.33Z"/><polygon class="cls-3" points="70.84 202.86 207.9 123.72 207.91 132.31 70.78 211.15 70.84 202.86"/><path class="cls-2" d="M293.51,272.15a1.33,1.33,0,0,1,0,2.51L157.37,353.42a4.81,4.81,0,0,1-4.34,0L73,307.16a1.33,1.33,0,0,1,0-2.51L209.16,226a4.81,4.81,0,0,1,4.34,0Z"/><path class="cls-4" d="M293.51,272.15a1.33,1.33,0,0,1,0,2.51L157.37,353.42a4.81,4.81,0,0,1-4.34,0L73,307.16a1.33,1.33,0,0,1,0-2.51L209.16,226a4.81,4.81,0,0,1,4.34,0Z"/><path class="cls-2" d="M89.68,290c1.2-.68,2.69-.95,3.32-.59s2.11.09,3.31-.6l94.1-54.33c1.19-.69,1.65-1.55,1-1.91s-.18-1.23,1-1.92L209.16,221a4.81,4.81,0,0,1,4.34,0l80,46.18a1.33,1.33,0,0,1,0,2.51L157.37,348.4a4.81,4.81,0,0,1-4.34,0L73,302.14a1.33,1.33,0,0,1,0-2.51Z"/><path class="cls-4" d="M89.68,290c1.2-.68,2.69-.95,3.32-.59s2.11.09,3.31-.6l94.1-54.33c1.19-.69,1.65-1.55,1-1.91s-.18-1.23,1-1.92L209.16,221a4.81,4.81,0,0,1,4.34,0l80,46.18a1.33,1.33,0,0,1,0,2.51L157.37,348.4a4.81,4.81,0,0,1-4.34,0L73,302.14a1.33,1.33,0,0,1,0-2.51Z"/><path class="cls-3" d="M218,279.66,241.05,293a1.06,1.06,0,0,1,0,2l-38.33,22c-1.51.84-2.28,1-3.44.72L176.1,304.23c-.68-.54-.86-1.33-.21-1.77l39.64-22.76A2.3,2.3,0,0,1,218,279.66Z"/><path class="cls-2" d="M201,260.13a.54.54,0,0,1,0,1L194.34,265a1.91,1.91,0,0,1-1.74,0l-5.89-3.44a.53.53,0,0,1,0-1l6.68-3.86a1.91,1.91,0,0,1,1.74,0Z"/><path class="cls-4" d="M201,260.13a.54.54,0,0,1,0,1L194.34,265a1.91,1.91,0,0,1-1.74,0l-5.89-3.44a.53.53,0,0,1,0-1l6.68-3.86a1.91,1.91,0,0,1,1.74,0Z"/><path class="cls-2" d="M210.88,254.43a.53.53,0,0,1,0,1L204.72,259a1.94,1.94,0,0,1-1.74,0l-5.89-3.43a.54.54,0,0,1,0-1l6.16-3.56a1.89,1.89,0,0,1,1.73,0Z"/><path class="cls-4" d="M210.88,254.43a.53.53,0,0,1,0,1L204.72,259a1.94,1.94,0,0,1-1.74,0l-5.89-3.43a.54.54,0,0,1,0-1l6.16-3.56a1.89,1.89,0,0,1,1.73,0Z"/><path class="cls-2" d="M207,249.86a.54.54,0,0,1,0-1l6-3.45a1.92,1.92,0,0,1,1.73,0l5.89,3.43a.53.53,0,0,1,0,1l-6,3.45a1.94,1.94,0,0,1-1.74,0Z"/><path class="cls-4" d="M207,249.86a.54.54,0,0,1,0-1l6-3.45a1.92,1.92,0,0,1,1.73,0l5.89,3.43a.53.53,0,0,1,0,1l-6,3.45a1.94,1.94,0,0,1-1.74,0Z"/><path class="cls-2" d="M190.63,266.13c.48.28.48.73,0,1L184,270.94a1.89,1.89,0,0,1-1.73,0l-5.89-3.44a.53.53,0,0,1,0-1l6.59-3.8a1.89,1.89,0,0,1,1.73,0Z"/><path class="cls-4" d="M190.63,266.13c.48.28.48.73,0,1L184,270.94a1.89,1.89,0,0,1-1.73,0l-5.89-3.44a.53.53,0,0,1,0-1l6.59-3.8a1.89,1.89,0,0,1,1.73,0Z"/><path class="cls-2" d="M180.34,272.07a.53.53,0,0,1,0,1l-6,3.47a1.92,1.92,0,0,1-1.73,0l-5.89-3.44a.53.53,0,0,1,0-1l6-3.47a1.92,1.92,0,0,1,1.73,0Z"/><path class="cls-4" d="M180.34,272.07a.53.53,0,0,1,0,1l-6,3.47a1.92,1.92,0,0,1-1.73,0l-5.89-3.44a.53.53,0,0,1,0-1l6-3.47a1.92,1.92,0,0,1,1.73,0Z"/><path class="cls-2" d="M222.65,262.3a1.92,1.92,0,0,1,1.73,0l5.86,3.42a.53.53,0,0,1,0,1l-6.16,3.56a1.91,1.91,0,0,1-1.74,0l-5.86-3.42a.53.53,0,0,1,0-1Z"/><path class="cls-4" d="M222.65,262.3a1.92,1.92,0,0,1,1.73,0l5.86,3.42a.53.53,0,0,1,0,1l-6.16,3.56a1.91,1.91,0,0,1-1.74,0l-5.86-3.42a.53.53,0,0,1,0-1Z"/><path class="cls-2" d="M186,273.09a.53.53,0,0,1,0-1l6.58-3.81a1.94,1.94,0,0,1,1.74,0l6.11,3.57a.53.53,0,0,1,0,1l-6.58,3.81a1.91,1.91,0,0,1-1.74,0Z"/><path class="cls-4" d="M186,273.09a.53.53,0,0,1,0-1l6.58-3.81a1.94,1.94,0,0,1,1.74,0l6.11,3.57a.53.53,0,0,1,0,1l-6.58,3.81a1.91,1.91,0,0,1-1.74,0Z"/><path class="cls-2" d="M146.62,284.72a.53.53,0,0,1,0-1l6.1-3.52a1.89,1.89,0,0,1,1.73,0l5.89,3.44a.53.53,0,0,1,0,1l-6.1,3.52a1.92,1.92,0,0,1-1.73,0Z"/><path class="cls-4" d="M146.62,284.72a.53.53,0,0,1,0-1l6.1-3.52a1.89,1.89,0,0,1,1.73,0l5.89,3.44a.53.53,0,0,1,0,1l-6.1,3.52a1.92,1.92,0,0,1-1.73,0Z"/><path class="cls-2" d="M136.5,290.56a.54.54,0,0,1,0-1l6.41-3.7a1.89,1.89,0,0,1,1.73,0l5.89,3.44a.53.53,0,0,1,0,1l-6.41,3.7a1.94,1.94,0,0,1-1.74,0Z"/><path class="cls-4" d="M136.5,290.56a.54.54,0,0,1,0-1l6.41-3.7a1.89,1.89,0,0,1,1.73,0l5.89,3.44a.53.53,0,0,1,0,1l-6.41,3.7a1.94,1.94,0,0,1-1.74,0Z"/><path class="cls-2" d="M126.46,296.36c-.48-.28-.48-.73,0-1l6.34-3.67a1.94,1.94,0,0,1,1.74,0l5.89,3.43a.54.54,0,0,1,0,1l-6.34,3.66a1.89,1.89,0,0,1-1.73,0Z"/><path class="cls-4" d="M126.46,296.36c-.48-.28-.48-.73,0-1l6.34-3.67a1.94,1.94,0,0,1,1.74,0l5.89,3.43a.54.54,0,0,1,0,1l-6.34,3.66a1.89,1.89,0,0,1-1.73,0Z"/><path class="cls-2" d="M204.14,270.71a1.91,1.91,0,0,1-1.74,0l-6.1-3.56a.53.53,0,0,1,0-1l6.68-3.86a1.92,1.92,0,0,1,1.73,0l6.11,3.56a.54.54,0,0,1,0,1Z"/><path class="cls-4" d="M204.14,270.71a1.91,1.91,0,0,1-1.74,0l-6.1-3.56a.53.53,0,0,1,0-1l6.68-3.86a1.92,1.92,0,0,1,1.73,0l6.11,3.56a.54.54,0,0,1,0,1Z"/><path class="cls-2" d="M156.2,290.31a.54.54,0,0,1,0-1l6.09-3.52a2,2,0,0,1,1.73,0l6.11,3.57a.53.53,0,0,1,0,1l-6.09,3.52a1.94,1.94,0,0,1-1.74,0Z"/><path class="cls-4" d="M156.2,290.31a.54.54,0,0,1,0-1l6.09-3.52a2,2,0,0,1,1.73,0l6.11,3.57a.53.53,0,0,1,0,1l-6.09,3.52a1.94,1.94,0,0,1-1.74,0Z"/><path class="cls-2" d="M176.29,278.7a.53.53,0,0,1,0-1l6-3.47a1.91,1.91,0,0,1,1.74,0l6.1,3.56a.53.53,0,0,1,0,1l-6,3.47a1.94,1.94,0,0,1-1.74,0Z"/><path class="cls-4" d="M176.29,278.7a.53.53,0,0,1,0-1l6-3.47a1.91,1.91,0,0,1,1.74,0l6.1,3.56a.53.53,0,0,1,0,1l-6,3.47a1.94,1.94,0,0,1-1.74,0Z"/><path class="cls-2" d="M146.09,296.15c-.48-.28-.48-.73,0-1l6.41-3.71a1.94,1.94,0,0,1,1.74,0l6.1,3.56a.53.53,0,0,1,0,1l-6.41,3.7a1.92,1.92,0,0,1-1.73,0Z"/><path class="cls-4" d="M146.09,296.15c-.48-.28-.48-.73,0-1l6.41-3.71a1.94,1.94,0,0,1,1.74,0l6.1,3.56a.53.53,0,0,1,0,1l-6.41,3.7a1.92,1.92,0,0,1-1.73,0Z"/><path class="cls-2" d="M166,284.65a.54.54,0,0,1,0-1l6.59-3.81a1.94,1.94,0,0,1,1.74,0l6.1,3.56a.53.53,0,0,1,0,1l-6.59,3.81a1.92,1.92,0,0,1-1.73,0Z"/><path class="cls-4" d="M166,284.65a.54.54,0,0,1,0-1l6.59-3.81a1.94,1.94,0,0,1,1.74,0l6.1,3.56a.53.53,0,0,1,0,1l-6.59,3.81a1.92,1.92,0,0,1-1.73,0Z"/><path class="cls-2" d="M170.63,277.68a.53.53,0,0,1,0,1L164,282.5a1.92,1.92,0,0,1-1.73,0l-5.89-3.43a.53.53,0,0,1,0-1l6.59-3.81a1.92,1.92,0,0,1,1.73,0Z"/><path class="cls-4" d="M170.63,277.68a.53.53,0,0,1,0,1L164,282.5a1.92,1.92,0,0,1-1.73,0l-5.89-3.43a.53.53,0,0,1,0-1l6.59-3.81a1.92,1.92,0,0,1,1.73,0Z"/><path class="cls-2" d="M191.43,254.54a.53.53,0,0,1,0,1l-6.68,3.86a1.89,1.89,0,0,1-1.73,0L177.21,256a.53.53,0,0,1,0-1l6.68-3.86a1.92,1.92,0,0,1,1.73,0Z"/><path class="cls-4" d="M191.43,254.54a.53.53,0,0,1,0,1l-6.68,3.86a1.89,1.89,0,0,1-1.73,0L177.21,256a.53.53,0,0,1,0-1l6.68-3.86a1.92,1.92,0,0,1,1.73,0Z"/><path class="cls-2" d="M181.05,260.53a.53.53,0,0,1,0,1l-6.59,3.81a1.94,1.94,0,0,1-1.74,0L166.91,262a.53.53,0,0,1,0-1l6.59-3.81a1.91,1.91,0,0,1,1.74,0Z"/><path class="cls-4" d="M181.05,260.53a.53.53,0,0,1,0,1l-6.59,3.81a1.94,1.94,0,0,1-1.74,0L166.91,262a.53.53,0,0,1,0-1l6.59-3.81a1.91,1.91,0,0,1,1.74,0Z"/><path class="cls-2" d="M201.3,248.84a.53.53,0,0,1,0,1l-6.17,3.56a1.89,1.89,0,0,1-1.73,0L187.59,250a.53.53,0,0,1,0-1l6.16-3.56a1.94,1.94,0,0,1,1.74,0Z"/><path class="cls-4" d="M201.3,248.84a.53.53,0,0,1,0,1l-6.17,3.56a1.89,1.89,0,0,1-1.73,0L187.59,250a.53.53,0,0,1,0-1l6.16-3.56a1.94,1.94,0,0,1,1.74,0Z"/><path class="cls-2" d="M170.76,266.48a.54.54,0,0,1,0,1l-6,3.47a1.92,1.92,0,0,1-1.73,0l-5.82-3.39a.54.54,0,0,1,0-1l6-3.46a1.91,1.91,0,0,1,1.74,0Z"/><path class="cls-4" d="M170.76,266.48a.54.54,0,0,1,0,1l-6,3.47a1.92,1.92,0,0,1-1.73,0l-5.82-3.39a.54.54,0,0,1,0-1l6-3.46a1.91,1.91,0,0,1,1.74,0Z"/><path class="cls-2" d="M161.05,272.09a.54.54,0,0,1,0,1l-6.59,3.8a1.91,1.91,0,0,1-1.74,0l-5.81-3.39a.54.54,0,0,1,0-1l6.59-3.81a1.94,1.94,0,0,1,1.74,0Z"/><path class="cls-4" d="M161.05,272.09a.54.54,0,0,1,0,1l-6.59,3.8a1.91,1.91,0,0,1-1.74,0l-5.81-3.39a.54.54,0,0,1,0-1l6.59-3.81a1.94,1.94,0,0,1,1.74,0Z"/><path class="cls-2" d="M150.76,278a.53.53,0,0,1,0,1l-6.09,3.52a1.91,1.91,0,0,1-1.74,0l-5.81-3.39a.54.54,0,0,1,0-1l6.1-3.52a1.92,1.92,0,0,1,1.73,0Z"/><path class="cls-4" d="M150.76,278a.53.53,0,0,1,0,1l-6.09,3.52a1.91,1.91,0,0,1-1.74,0l-5.81-3.39a.54.54,0,0,1,0-1l6.1-3.52a1.92,1.92,0,0,1,1.73,0Z"/><path class="cls-2" d="M149.74,312.23a.53.53,0,0,1,0,1l-6.38,3.67a2,2,0,0,1-1.73,0l-5.89-3.41a.54.54,0,0,1,0-1l6.4-3.68a1.91,1.91,0,0,1,1.74,0Z"/><path class="cls-4" d="M149.74,312.23a.53.53,0,0,1,0,1l-6.38,3.67a2,2,0,0,1-1.73,0l-5.89-3.41a.54.54,0,0,1,0-1l6.4-3.68a1.91,1.91,0,0,1,1.74,0Z"/><path class="cls-2" d="M196.36,235.74a1.91,1.91,0,0,1,1.74,0l3.36,2a.53.53,0,0,1,0,1l-15.83,9.15a4.7,4.7,0,0,1-.94.46s-.1,0-.14.08a6.46,6.46,0,0,1-.94.62L125,282.86a8.36,8.36,0,0,1-.9.48s0,0-.07,0-.43.28-.9.56L104.6,294.59a1.92,1.92,0,0,1-1.73,0l-3.23-1.88a.54.54,0,0,1,0-1Z"/><path class="cls-4" d="M196.36,235.74a1.91,1.91,0,0,1,1.74,0l3.36,2a.53.53,0,0,1,0,1l-15.83,9.15a4.7,4.7,0,0,1-.94.46s-.1,0-.14.08a6.46,6.46,0,0,1-.94.62L125,282.86a8.36,8.36,0,0,1-.9.48s0,0-.07,0-.43.28-.9.56L104.6,294.59a1.92,1.92,0,0,1-1.73,0l-3.23-1.88a.54.54,0,0,1,0-1Z"/><path class="cls-2" d="M197.45,244.31a.54.54,0,0,1,0-1l6-3.44a1.91,1.91,0,0,1,1.74,0l5.81,3.39a.54.54,0,0,1,0,1l-6,3.44a1.89,1.89,0,0,1-1.73,0Z"/><path class="cls-4" d="M197.45,244.31a.54.54,0,0,1,0-1l6-3.44a1.91,1.91,0,0,1,1.74,0l5.81,3.39a.54.54,0,0,1,0,1l-6,3.44a1.89,1.89,0,0,1-1.73,0Z"/><path class="cls-2" d="M232.31,256.72a1.91,1.91,0,0,1,1.74,0l5.86,3.42a.53.53,0,0,1,0,1l-6,3.44a1.91,1.91,0,0,1-1.74,0l-5.86-3.42a.53.53,0,0,1,0-1Z"/><path class="cls-4" d="M232.31,256.72a1.91,1.91,0,0,1,1.74,0l5.86,3.42a.53.53,0,0,1,0,1l-6,3.44a1.91,1.91,0,0,1-1.74,0l-5.86-3.42a.53.53,0,0,1,0-1Z"/><path class="cls-2" d="M152.19,303a1.89,1.89,0,0,1,1.73,0l5.87,3.42a.54.54,0,0,1,0,1l-6.34,3.66a1.89,1.89,0,0,1-1.73,0l-5.87-3.42a.54.54,0,0,1,0-1Z"/><path class="cls-4" d="M152.19,303a1.89,1.89,0,0,1,1.73,0l5.87,3.42a.54.54,0,0,1,0,1l-6.34,3.66a1.89,1.89,0,0,1-1.73,0l-5.87-3.42a.54.54,0,0,1,0-1Z"/><path class="cls-2" d="M158.45,299.39l1-.59,1-.59,1.81-1,1.74-1,15.11-8.73,1.74-1,1.5-.87,1.74-1,9.94-5.74,1.56-.9,1.56-.9,7.17-4.15,1.74-1,6.68-3.86a1.92,1.92,0,0,1,1.73,0l5.87,3.42a.53.53,0,0,1,0,1l-2.06,1.2-1.74,1-4.84,2.8-1.74,1-6.59,3.81-1.73,1L191.73,289,190,290l-6.59,3.8-1.74,1-10,5.79-1.74,1-6.41,3.71a1.94,1.94,0,0,1-1.74,0l-5.86-3.42c-.48-.28-.48-.73,0-1Z"/><path class="cls-4" d="M158.45,299.39l1-.59,1-.59,1.81-1,1.74-1,15.11-8.73,1.74-1,1.5-.87,1.74-1,9.94-5.74,1.56-.9,1.56-.9,7.17-4.15,1.74-1,6.68-3.86a1.92,1.92,0,0,1,1.73,0l5.87,3.42a.53.53,0,0,1,0,1l-2.06,1.2-1.74,1-4.84,2.8-1.74,1-6.59,3.81-1.73,1L191.73,289,190,290l-6.59,3.8-1.74,1-10,5.79-1.74,1-6.41,3.71a1.94,1.94,0,0,1-1.74,0l-5.86-3.42c-.48-.28-.48-.73,0-1Z"/><path class="cls-2" d="M141,283.7a.53.53,0,0,1,0,1l-6.42,3.71a1.92,1.92,0,0,1-1.73,0L127,285a.53.53,0,0,1,0-1l6.41-3.7a2,2,0,0,1,1.74,0Z"/><path class="cls-4" d="M141,283.7a.53.53,0,0,1,0,1l-6.42,3.71a1.92,1.92,0,0,1-1.73,0L127,285a.53.53,0,0,1,0-1l6.41-3.7a2,2,0,0,1,1.74,0Z"/><path class="cls-2" d="M130.38,300.94a.53.53,0,0,1,0,1l-6.5,3.75a1.91,1.91,0,0,1-1.74,0l-5.89-3.43a.53.53,0,0,1,0-1l6.51-3.75a1.89,1.89,0,0,1,1.73,0Z"/><path class="cls-4" d="M130.38,300.94a.53.53,0,0,1,0,1l-6.5,3.75a1.91,1.91,0,0,1-1.74,0l-5.89-3.43a.53.53,0,0,1,0-1l6.51-3.75a1.89,1.89,0,0,1,1.73,0Z"/><path class="cls-2" d="M120.8,295.34a.54.54,0,0,1,0,1l-6.54,3.78a2,2,0,0,1-1.73,0l-5.77-3.35a.53.53,0,0,1,0-1l6.5-3.82a1.91,1.91,0,0,1,1.74,0Z"/><path class="cls-4" d="M120.8,295.34a.54.54,0,0,1,0,1l-6.54,3.78a2,2,0,0,1-1.73,0l-5.77-3.35a.53.53,0,0,1,0-1l6.5-3.82a1.91,1.91,0,0,1,1.74,0Z"/><path class="cls-2" d="M133.21,302.59l.87-.5.23-.14.87-.5.29-.17,1.16-.67.09-.05.87-.5.87-.5,3.93-2.27a1.89,1.89,0,0,1,1.73,0l6.11,3.56a.54.54,0,0,1,0,1l-3.92,2.26c-.48.28-.87.5-.86.51l-.87.5-6.49,3.75-.87.5-.88.49-2.59,1.48a1.94,1.94,0,0,1-1.74,0l-6.13-3.53c-.48-.27-.48-.72,0-1l6.46-3.72Z"/><path class="cls-4" d="M133.21,302.59l.87-.5.23-.14.87-.5.29-.17,1.16-.67.09-.05.87-.5.87-.5,3.93-2.27a1.89,1.89,0,0,1,1.73,0l6.11,3.56a.54.54,0,0,1,0,1l-3.92,2.26c-.48.28-.87.5-.86.51l-.87.5-6.49,3.75-.87.5-.88.49-2.59,1.48a1.94,1.94,0,0,1-1.74,0l-6.13-3.53c-.48-.27-.48-.72,0-1l6.46-3.72Z"/><path class="cls-2" d="M117,290.82a.54.54,0,0,1,0-1l6.35-3.67a1.92,1.92,0,0,1,1.73,0l5.81,3.39a.53.53,0,0,1,0,1l-6.34,3.66a1.91,1.91,0,0,1-1.74,0Z"/><path class="cls-4" d="M117,290.82a.54.54,0,0,1,0-1l6.35-3.67a1.92,1.92,0,0,1,1.73,0l5.81,3.39a.53.53,0,0,1,0,1l-6.34,3.66a1.91,1.91,0,0,1-1.74,0Z"/><path class="cls-2" d="M226.63,257.73l-.86.51-6.5,3.75-.87.49-.88.5-3,1.74a1.92,1.92,0,0,1-1.73,0l-6.11-3.56a.53.53,0,0,1,0-1l6.16-3.56.88-.5.87-.5.23-.13.86-.5.87-.51,6-3.44a1.91,1.91,0,0,1,1.74,0l6.1,3.56a.53.53,0,0,1,0,1l-2.86,1.66Z"/><path class="cls-4" d="M226.63,257.73l-.86.51-6.5,3.75-.87.49-.88.5-3,1.74a1.92,1.92,0,0,1-1.73,0l-6.11-3.56a.53.53,0,0,1,0-1l6.16-3.56.88-.5.87-.5.23-.13.86-.5.87-.51,6-3.44a1.91,1.91,0,0,1,1.74,0l6.1,3.56a.53.53,0,0,1,0,1l-2.86,1.66Z"/><line class="cls-5" x1="103.06" y1="138.78" x2="91.24" y2="131.64"/><path class="cls-6" d="M95.6,116.28l-16.09-9.39A20.72,20.72,0,0,1,75.87,101c-.28-.66-.56-1.37-.81-2.13a24.53,24.53,0,0,1-.67-2.44,28.94,28.94,0,0,1-.56-3.76c0-.68-.08-1.37-.07-2.09s0-1.47.08-2.24c1.16-17,9.88-33.26,22.61-44.83a69.94,69.94,0,0,1,5.69-4.65c6.38-4.67,14.62-9.12,22.77-9.68,8.61-.6,15.8,4.85,23,8.78"/><ellipse class="cls-7" cx="160.31" cy="72.28" rx="8.19" ry="4.63" transform="translate(6.19 156.95) rotate(-53.05)"/><ellipse class="cls-7" cx="162.13" cy="74.09" rx="8.19" ry="4.63" transform="translate(5.46 159.13) rotate(-53.05)"/><path class="cls-8" d="M162.09,80.28v9.6c0,5-4.1,11.49-9.12,14.38l-16,9.24"/><path class="cls-6" d="M133.06,122.54l-27.25,15.73c-2.09,1.21-3.78.49-3.78-1.6v-5.91a7.83,7.83,0,0,1,3.78-6l27.25-15.74c2.09-1.2,3.78-.49,3.78,1.6v5.92A7.85,7.85,0,0,1,133.06,122.54Z"/><path class="cls-5" d="M91.38,131.74a2.17,2.17,0,0,1-1.26-2.15v-5.92a7.86,7.86,0,0,1,3.79-6L121.16,102c2.09-1.21,3.78-.49,3.78,1.6v5"/><line class="cls-5" x1="103.64" y1="126.23" x2="92.02" y2="120.11"/><line class="cls-5" x1="135.43" y1="108.49" x2="123.94" y2="101.47"/><ellipse class="cls-6" cx="120.52" cy="76.31" rx="47.01" ry="26.6" transform="translate(-12.91 126.75) rotate(-53.05)"/><ellipse class="cls-6" cx="120.52" cy="76.31" rx="25.13" ry="14.22" transform="translate(-12.91 126.75) rotate(-53.05)"/><ellipse class="cls-6" cx="120.52" cy="76.31" rx="30.07" ry="17.01" transform="translate(-12.91 126.75) rotate(-53.05)"/><polyline class="cls-8" points="110.82 83.02 116.81 85.55 130.51 63.93"/><line class="cls-9" x1="119.72" y1="130.45" x2="119.72" y2="161.22"/><path class="cls-8" d="M175.76,181l-32.6,18.82c-1.69,1-3.07.39-3.07-1.29h0a6.37,6.37,0,0,1,3.07-4.84l32.6-18.82c1.69-1,3.07-.39,3.07,1.29h0A6.37,6.37,0,0,1,175.76,181Z"/><path class="cls-8" d="M175.76,202.33l-32.6,18.82c-1.69,1-3.07.39-3.07-1.3h0a6.41,6.41,0,0,1,3.07-4.84l32.6-18.82c1.69-1,3.07-.39,3.07,1.3h0A6.39,6.39,0,0,1,175.76,202.33Z"/><path class="cls-8" d="M159.46,201.19l-22.63,13.07c-1.68,1-3.06.39-3.06-1.3h0a6.39,6.39,0,0,1,3.06-4.84l22.63-13.06c1.69-1,3.07-.39,3.07,1.29h0A6.37,6.37,0,0,1,159.46,201.19Z"/><path class="cls-8" d="M159.46,222.43l-22.63,13.06c-1.68,1-3.06.39-3.06-1.29h0a6.39,6.39,0,0,1,3.06-4.84l22.63-13.07c1.69-1,3.07-.39,3.07,1.3h0A6.37,6.37,0,0,1,159.46,222.43Z"/><line class="cls-5" x1="105.44" y1="239.46" x2="111.61" y2="221.43"/><polyline class="cls-5" points="113.94 223.73 124.13 222.13 113.68 232.31"/><polyline class="cls-5" points="102.17 230.53 91.98 240.69 102.42 238.81"/><path class="cls-2" d="M268.46,144l-7.36-4,2.77-.9,3-1,2.94,2.24,6.55-6.5L274.47,128l.46-2.25,5.19-2.28,4.22,6.78,4.88,0,.31-2.52,5.2-2.19s2.08,1.2,4.86,2.54A15.63,15.63,0,0,1,301,129c.31.18.63.35,1,.5l1,.44a6.86,6.86,0,0,1,.94.47,7.65,7.65,0,0,1,1.26,1c.26.29.39.46.39.46l.11,1.46a8.1,8.1,0,0,1-.13,1.4,7.37,7.37,0,0,0-.11,1.44,6.64,6.64,0,0,0,.23,1.44,3.23,3.23,0,0,0,.35.4,9.12,9.12,0,0,0,1.23,1l1,.7a9,9,0,0,1,1,.88c.25.27.48.55.69.81a9,9,0,0,0,.66.74c.23.25.48.49.75.74s.54.5.81.74a12.13,12.13,0,0,1,1.47,1.5,25,25,0,0,0,1.85,2.13l4.47-1.9,7.72,12-4.3,2.18,4.11,12.28,6.29,3.6-.11,10.72-5,1.82-2.58-1.06-2.88,3.46,4.34,6.3-.28.83-11.69,5.11-1.27-.17L310.11,196l-4.59-.22.05,2.85L300,200.89Z"/><path class="cls-5" d="M294.7,131.8a22.34,22.34,0,0,0-10.11-1.42l-4.45-6.92-7.59,3.39,4.45,6.91a14.79,14.79,0,0,0-4.19,7.79l-6.29-3.49"/><path class="cls-5" d="M333.62,186V175.26l-6.3-3.49a47.09,47.09,0,0,0-4.18-12.43l4.45-2-7.6-11.8-4.44,2a58.42,58.42,0,0,0-10.11-9.79v-6.3L294.7,125.5"/><path class="cls-5" d="M305.44,198.55v-6.3a22.48,22.48,0,0,0,10.11,1.43l4.44,6.91,7.6-3.38-4.45-6.92a14.71,14.71,0,0,0,4.18-7.79"/><path class="cls-5" d="M266.52,148.8l6.29,3.49A47.73,47.73,0,0,0,277,164.72l-4.45,2,7.59,11.8,4.45-2a58.37,58.37,0,0,0,10.11,9.78v6.3"/><ellipse class="cls-5" cx="300.07" cy="162.03" rx="13.09" ry="22.63" transform="translate(-36.86 214.71) rotate(-37.25)"/><ellipse class="cls-5" cx="300.07" cy="162.03" rx="3.92" ry="6.77" transform="matrix(0.8, -0.61, 0.61, 0.8, -36.86, 214.71)"/><path class="cls-10" d="M347,224c-10.54,11.83-29.85,13-51.93.73C268.51,210,245.93,180.31,237.85,152"/><path class="cls-10" d="M236.66,116.48c6.82-22.11,30.4-28.13,58.43-12.59,26.69,14.79,49.33,44.64,57.33,73.07"/><polyline class="cls-10" points="230.51 159.34 237.54 150.59 250.51 164.44"/><polyline class="cls-10" points="359.26 168.88 352.23 177.63 339.26 163.78"/><path class="cls-6" d="M328.43,188.16V177.42l-6.29-3.49A47.33,47.33,0,0,0,318,161.5l4.44-2-7.59-11.8-4.45,2a58,58,0,0,0-10.11-9.78v-6.3l-10.73-6V134a22.51,22.51,0,0,0-10.11-1.43L275,125.63,267.37,129l4.44,6.92a14.71,14.71,0,0,0-4.18,7.79l-6.29-3.49V151l6.29,3.49a47.33,47.33,0,0,0,4.18,12.43l-4.44,2,7.59,11.8,4.45-2a58,58,0,0,0,10.11,9.78v6.3l10.73,5.95v-6.3a22.51,22.51,0,0,0,10.11,1.43l4.45,6.91,7.59-3.38L318,192.46a14.71,14.71,0,0,0,4.18-7.79Z"/><ellipse class="cls-8" cx="294.89" cy="164.2" rx="13.09" ry="22.63" transform="translate(-39.23 212.01) rotate(-37.25)"/><ellipse class="cls-6" cx="294.89" cy="164.2" rx="3.92" ry="6.77" transform="matrix(0.8, -0.61, 0.61, 0.8, -39.23, 212.01)"/><line class="cls-6" x1="279.41" y1="132.54" x2="284.59" y2="130.38"/><line class="cls-6" x1="266.52" y1="138.06" x2="261.34" y2="140.23"/><line class="cls-6" x1="300.25" y1="200.72" x2="305.44" y2="198.55"/><line class="cls-6" x1="328.45" y1="188.09" x2="333.62" y2="186.07"/><line class="cls-6" x1="328.43" y1="177.42" x2="333.04" y2="176.02"/><line class="cls-6" x1="300.25" y1="133.62" x2="305.09" y2="132.17"/><line class="cls-6" x1="289.52" y1="127.67" x2="294.7" y2="125.5"/></svg>