<svg id="Artwork" xmlns="http://www.w3.org/2000/svg" viewBox="0 0 100 100"><defs><style>.cls-1,.cls-2{fill:none;stroke-linecap:round;stroke-linejoin:round;stroke-width:1.5px;}.cls-1{stroke:#002d6a;}.cls-2{stroke:#f47c00;}</style></defs><title>Artboard 11</title><path class="cls-1" d="M75.43,69.16a24.39,24.39,0,0,0,3.2-.11,14,14,0,0,0,10-5.32A15.69,15.69,0,0,0,78.07,37.78,16.79,16.79,0,1,0,46.69,26.14,16.1,16.1,0,0,0,18.23,36.46c0,.22,0,.43,0,.65a16.53,16.53,0,0,0,5.76,32h2.5"/><polyline class="cls-2" points="58.26 66.98 70.19 66.98 70.19 86.06 31.09 86.06 31.09 66.98 42.94 66.98"/><polyline class="cls-2" points="43.18 67.05 45.51 74.71 56.06 74.71 58.2 67.05"/><polyline class="cls-2" points="31.09 66.5 38.3 48.76 61.83 48.76 70.19 66.5"/><line class="cls-2" x1="33.68" y1="60.5" x2="66.72" y2="60.5"/><polyline class="cls-2" points="36.28 54.09 43.08 54.09 64.13 54.09"/></svg>