<svg xmlns="http://www.w3.org/2000/svg" viewBox="0 0 100 100"><defs><style>.cls-1,.cls-2,.cls-3,.cls-4,.cls-5{fill:none;}.cls-1,.cls-2,.cls-3,.cls-4{stroke:#002d6a;}.cls-1,.cls-2{stroke-miterlimit:10;}.cls-1,.cls-3,.cls-5{stroke-width:1.5px;}.cls-2{stroke-width:1.48px;}.cls-3,.cls-4,.cls-5{stroke-linecap:round;stroke-linejoin:round;}.cls-4{stroke-width:1.23px;}.cls-5{stroke:#f47c00;}</style></defs><title>Artboard 29 copy 3</title><g id="Artwork"><path class="cls-1" d="M75.43,29.38h7.76a2.17,2.17,0,0,1,2.17,2.17V72a2.17,2.17,0,0,1-2.17,2.17H16.81A2.17,2.17,0,0,1,14.64,72V31.55a2.17,2.17,0,0,1,2.17-2.17H34.57"/><polyline class="cls-2" points="75.62 33.29 82.04 33.29 82.04 70.3 18.47 70.3 18.47 33.29 28.17 33.29 34.7 33.29"/><path class="cls-1" d="M92.69,85.34,85,77.77H15L7.31,85.34a2,2,0,0,0,1.4,3.43H91.29A2,2,0,0,0,92.69,85.34Z"/><line class="cls-3" x1="13.6" y1="84.84" x2="86.11" y2="84.84"/><circle class="cls-3" cx="55.32" cy="31.57" r="20.17"/><path class="cls-4" d="M43.63,19.88a16.53,16.53,0,0,0,0,23.38"/><path class="cls-4" d="M70.35,24.67a16.56,16.56,0,0,0-8.7-8.37"/><polyline class="cls-5" points="44.44 32.67 49.99 38.23 62.71 25.52"/><path class="cls-3" d="M39,44l-3.58,3.59L26.08,57A2.74,2.74,0,0,0,26,60.82h0a2.74,2.74,0,0,0,3.86-.13l9.35-9.35,3.59-3.59"/></g></svg>