<svg xmlns="http://www.w3.org/2000/svg" viewBox="0 0 100 100"><defs><style>.cls-1,.cls-2{fill:none;stroke-linecap:round;stroke-linejoin:round;stroke-width:1.5px;}.cls-1{stroke:#002d6a;}.cls-2{stroke:#f47c00;}</style></defs><title>Artboard 30 copy</title><g id="Artwork"><path class="cls-1" d="M91.55,48.4c0-18.8-18.6-34-41.55-34S8.45,29.6,8.45,48.4s18.6,34,41.55,34A51.7,51.7,0,0,0,57,82l17.62,3.69-4.78-7.32C82.77,72.55,91.55,61.31,91.55,48.4Z"/><path class="cls-2" d="M29.67,49.22c0-9.2,9.1-16.66,20.33-16.66S70.33,40,70.33,49.22,61.23,65.87,50,65.87a24,24,0,0,1-3.42-.24L38,67.44l2.34-3.58C34,61,29.67,55.54,29.67,49.22Z"/></g></svg>