<svg id="Artwork" xmlns="http://www.w3.org/2000/svg" viewBox="0 0 100 100"><defs><style>.cls-1,.cls-2{fill:none;stroke-linecap:round;stroke-linejoin:round;stroke-width:1.5px;}.cls-1{stroke:#f47c00;}.cls-2{stroke:#002d6a;}</style></defs><title>Artboard 30</title><path class="cls-1" d="M25.51,66.66l5.3,5.3-3,3a1.71,1.71,0,0,1-2.41,0L17.5,67.09"/><rect class="cls-1" x="17.98" y="66.24" width="2.91" height="9.88" rx="1.13" transform="translate(83.51 107.77) rotate(135)"/><path class="cls-2" d="M25.4,66.55l9,9a3.2,3.2,0,0,0,4.51,0L53.37,61.09"/><path class="cls-2" d="M64.47,50l20.3-20.29a3.2,3.2,0,0,0,0-4.51L68.42,8.83a3.19,3.19,0,0,0-4.5,0L19.72,53"/><path class="cls-2" d="M33.79,65.45a2.38,2.38,0,0,0,1.46-.69L78,22a2.84,2.84,0,0,0-.36-4L68.33,8.74a2.84,2.84,0,0,0-4-.36L8.94,63.81a2.13,2.13,0,0,0-.53.87,2.34,2.34,0,0,0,2.53,2.94Z"/><circle class="cls-2" cx="61.95" cy="58.84" r="8.94"/><circle class="cls-1" cx="61.95" cy="58.84" r="3.79"/><rect class="cls-2" x="86.34" y="49.12" width="5.36" height="43.15" rx="2.68"/><polyline class="cls-2" points="65.66 67.12 71.97 73.44 86.21 73.44"/><polyline class="cls-2" points="69.29 64.12 73.79 68.62 85.67 68.62"/></svg>