<?xml version="1.0" encoding="utf-8"?>
<!-- Generator: Adobe Illustrator 24.1.1, SVG Export Plug-In . SVG Version: 6.00 Build 0)  -->
<svg version="1.1" id="Artwork" xmlns="http://www.w3.org/2000/svg" xmlns:xlink="http://www.w3.org/1999/xlink" x="0px" y="0px"
	 viewBox="0 0 100 100" style="enable-background:new 0 0 100 100;" xml:space="preserve">
<style type="text/css">
	.st0{fill:none;stroke:#002D6A;stroke-width:1.5;stroke-linecap:round;stroke-linejoin:round;}
	.st1{fill:none;stroke:#F47C00;stroke-width:1.5;stroke-linecap:round;stroke-linejoin:round;}
	.st2{fill:none;stroke:#F47C00;stroke-width:1.3;stroke-linecap:round;stroke-linejoin:bevel;}
</style>
<path class="st0" d="M75.4,69.2c1.1,0,2.1,0,3.2-0.1c3.9-0.3,7.6-2.2,10-5.3c5.7-6.5,5-16.4-1.5-22.1c-2.5-2.2-5.7-3.5-9-3.8
	c3.9-8.4,0.3-18.4-8.1-22.3c-8.4-3.9-18.4-0.3-22.3,8.1c-0.4,0.8-0.7,1.7-0.9,2.6c-5.7-6.8-15.9-7.7-22.7-2
	c-3.7,3.1-5.8,7.6-5.8,12.4c0,0.2,0,0.4,0,0.7C9.7,40.3,5.4,49.9,8.6,58.4C11,64.8,17.1,69.1,24,69.1h2.5"/>
<path class="st1" d="M36.3,65.9l2.9,2.9l-1.6,1.6c-0.4,0.4-0.9,0.4-1.3,0l-4.3-4.3"/>
<path class="st2" d="M35,70.1l-0.3,0.3c-0.2,0.2-0.6,0.2-0.9,0l-2.9-2.9c-0.2-0.2-0.2-0.6,0-0.9l0.3-0.3c0.2-0.2,0.6-0.2,0.9,0
	l2.9,2.9C35.2,69.5,35.2,69.9,35,70.1z"/>
<path class="st1" d="M36.2,65.8l4.9,4.9c0.7,0.7,1.8,0.7,2.5,0l7.9-7.9"/>
<path class="st1" d="M57.5,56.8l11.1-11.1c0.7-0.7,0.7-1.8,0-2.5l-8.9-8.9c-0.7-0.7-1.8-0.7-2.5,0L33.1,58.4"/>
<path class="st1" d="M40.8,65.2c0.3,0,0.6-0.2,0.8-0.4l23.3-23.3c0.5-0.7,0.5-1.6-0.2-2.2l-5.1-5c-0.5-0.7-1.5-0.7-2.2-0.2
	L27.2,64.3c-0.1,0.1-0.2,0.3-0.3,0.5c-0.2,0.7,0.2,1.4,0.9,1.6c0.2,0,0.3,0.1,0.5,0L40.8,65.2z"/>
<circle class="st1" cx="56.1" cy="61.6" r="4.9"/>
<circle class="st1" cx="56.1" cy="61.6" r="2.1"/>
<path class="st1" d="M70.9,56.3L70.9,56.3c0.8,0,1.5,0.7,1.5,1.5v20.6c0,0.8-0.7,1.5-1.5,1.5l0,0c-0.8,0-1.5-0.7-1.5-1.5V57.8
	C69.4,57,70.1,56.3,70.9,56.3z"/>
<polyline class="st1" points="58.1,66.1 61.6,69.6 69.3,69.6 "/>
<polyline class="st1" points="60.1,64.5 62.6,66.9 69,66.9 "/>
</svg>
