<svg id="Artwork" xmlns="http://www.w3.org/2000/svg" viewBox="0 0 100 100"><defs><style>.cls-1,.cls-2{fill:none;stroke-linecap:round;stroke-linejoin:round;stroke-width:1.5px;}.cls-1{stroke:#f47c00;}.cls-2{stroke:#002d6a;}</style></defs><title>Artboard 26</title><path class="cls-1" d="M38.05,76.8A43.39,43.39,0,0,0,52.69,60.4C54,57.83,55,54.44,52.9,52a4.84,4.84,0,0,0-6.42-.88A10.12,10.12,0,0,0,43.88,54C42,57,40.23,60.22,37.76,62.82a20.54,20.54,0,0,1-6,4.2"/><path class="cls-1" d="M45.14,79.11A67.29,67.29,0,0,0,56.33,65.9c2.3-3.73,4-8.05,3.18-12.49a10.8,10.8,0,0,0-8.26-8.57,12.31,12.31,0,0,0-1.81-.17,10.92,10.92,0,0,0-7.73,3.58c-1.9,1.9-3,4.26-4.62,6.34A51.26,51.26,0,0,1,32,60.38a25.18,25.18,0,0,1-2.23,1.88"/><path class="cls-1" d="M56.35,77c.41-.43.81-.93,1.21-1.41,4.83-6,9-13,8.06-21A21.94,21.94,0,0,0,65.17,52a17.76,17.76,0,0,0-7.28-10.79c-5.65-3.71-13.62-3.69-18.74.92a35.52,35.52,0,0,0-5.09,6.23,34.76,34.76,0,0,1-5.9,6.95"/><path class="cls-1" d="M68.82,69c3.84-9.64,3.6-22-3.67-29.86-6.93-7.5-18.47-7.93-26.93-2.84-4,2.42-6.55,5.85-9.19,9.48"/><path class="cls-1" d="M71.84,40a21.91,21.91,0,0,0-4.69-6.71c-7.73-7.52-20.59-8-30-2.85a23.13,23.13,0,0,0-4.29,3"/><path class="cls-1" d="M63.56,24.34c-6.76-4.15-15.73-4.43-23.29-1.51"/><path class="cls-1" d="M35,72.23s11.54-6.62,13.83-16"/><rect class="cls-2" x="10.84" y="10.84" width="78.32" height="78.32" rx="6.97"/><polyline class="cls-2" points="17.85 24.83 17.85 17.3 25.77 17.3"/><polyline class="cls-2" points="81.94 24.83 81.94 17.3 74.02 17.3"/><polyline class="cls-2" points="17.85 74.75 17.85 82.28 25.77 82.28"/><polyline class="cls-2" points="81.94 74.75 81.94 82.28 74.02 82.28"/></svg>