<?xml version="1.0" encoding="UTF-8"?><svg id="Layer_1" xmlns="http://www.w3.org/2000/svg" viewBox="0 0 89.5 84.1"><defs><style>.cls-1{stroke:#002d6a;}.cls-1,.cls-2{fill:none;stroke-linecap:round;stroke-linejoin:round;stroke-width:1.5px;}.cls-2{stroke:#f27d21;}</style></defs><path class="cls-2" d="m72.77,46.85v-8.97h-5.26c-.6-3.08-1.81-5.93-3.49-8.44l3.72-3.72-6.34-6.34-3.72,3.72c-2.51-1.69-5.37-2.89-8.44-3.49v-5.26h-8.97v5.26c-3.08.6-5.93,1.81-8.44,3.49l-3.72-3.72-6.34,6.34,3.72,3.72c-1.69,2.51-2.89,5.37-3.49,8.44h-5.26v8.97h5.26c.6,3.08,1.81,5.93,3.49,8.44l-3.72,3.72,6.34,6.34,3.72-3.72c2.51,1.69,5.37,2.89,8.44,3.49v5.26h8.97v-5.26c3.08-.6,5.93-1.81,8.44-3.49l3.72,3.72,6.34-6.34-3.72-3.72c1.69-2.51,2.89-5.37,3.49-8.44h5.26Z"/><circle class="cls-1" cx="44.75" cy="42.37" r="16.79"/><path class="cls-1" d="m80.39,63.18c-7.21,12.08-20.41,20.18-35.5,20.18-18.17,0-33.6-11.74-39.13-28.05"/><path class="cls-1" d="m4.95,31.5C9.61,13.8,25.73.75,44.89.75s33.72,11.82,39.19,28.23"/><polyline class="cls-1" points=".75 62.07 5.56 53.43 14.42 57.99"/><polyline class="cls-1" points="88.75 20.87 83.94 29.51 75.08 24.95"/><rect class="cls-2" x="37.25" y="45.37" width="3" height="5"/><rect class="cls-2" x="43.25" y="41.37" width="3" height="9"/><rect class="cls-2" x="49.25" y="34.37" width="3" height="16"/></svg>