<?xml version="1.0" encoding="UTF-8"?><svg id="Layer_1" xmlns="http://www.w3.org/2000/svg" viewBox="0 0 342.26 347.97"><rect x="108.45" y="148.45" width=".38" height="1.53" fill="#203367" stroke-width="0"/><rect x="108.45" y="151.52" width=".38" height="1.53" fill="#203367" stroke-width="0"/><rect x="108.45" y="154.58" width=".38" height="1.53" fill="#203367" stroke-width="0"/><rect x="108.45" y="157.64" width=".38" height="1.53" fill="#203367" stroke-width="0"/><rect x="108.45" y="160.7" width=".38" height="1.53" fill="#203367" stroke-width="0"/><rect x="108.45" y="169.89" width=".38" height="1.53" fill="#203367" stroke-width="0"/><rect x="108.45" y="166.83" width=".38" height="1.53" fill="#203367" stroke-width="0"/><rect x="108.45" y="145.39" width=".38" height="1.53" fill="#203367" stroke-width="0"/><rect x="108.45" y="163.77" width=".38" height="1.53" fill="#203367" stroke-width="0"/><rect x="108.45" y="136.2" width=".38" height="1.53" fill="#203367" stroke-width="0"/><rect x="108.45" y="120.89" width=".38" height="1.53" fill="#203367" stroke-width="0"/><rect x="108.45" y="127.02" width=".38" height="1.53" fill="#203367" stroke-width="0"/><rect x="108.45" y="130.08" width=".38" height="1.53" fill="#203367" stroke-width="0"/><rect x="108.45" y="123.95" width=".38" height="1.53" fill="#203367" stroke-width="0"/><rect x="108.45" y="142.33" width=".38" height="1.53" fill="#203367" stroke-width="0"/><path d="M108.45,119.36h.38v-.38c-.13.03-.25.06-.38.09v.29Z" fill="#203367" stroke-width="0"/><rect x="108.45" y="139.27" width=".38" height="1.53" fill="#203367" stroke-width="0"/><rect x="108.45" y="133.14" width=".38" height="1.53" fill="#203367" stroke-width="0"/><polygon points="108.83 173.38 108.83 172.95 108.45 172.95 108.45 174.03 109.38 173.49 109.2 173.17 108.83 173.38" fill="#203367" stroke-width="0"/><rect x="159.66" y="143.69" width="1.49" height=".38" transform="translate(-50.45 99.47) rotate(-30)" fill="#203367" stroke-width="0"/><rect x="167.42" y="139.21" width="1.49" height=".38" transform="translate(-47.17 102.75) rotate(-30)" fill="#203367" stroke-width="0"/><rect x="164.83" y="140.7" width="1.49" height=".38" transform="translate(-48.26 101.65) rotate(-30)" fill="#203367" stroke-width="0"/><rect x="162.25" y="142.2" width="1.49" height=".38" transform="translate(-49.35 100.56) rotate(-30)" fill="#203367" stroke-width="0"/><rect x="172.59" y="136.22" width="1.49" height=".38" transform="translate(-44.98 104.93) rotate(-30)" fill="#203367" stroke-width="0"/><rect x="170.01" y="137.72" width="1.49" height=".38" transform="translate(-46.07 103.84) rotate(-30)" fill="#203367" stroke-width="0"/><rect x="182.94" y="130.25" width="1.49" height=".38" transform="translate(-40.61 109.3) rotate(-29.99)" fill="#203367" stroke-width="0"/><rect x="185.53" y="128.76" width="1.49" height=".38" transform="translate(-39.51 110.39) rotate(-29.99)" fill="#203367" stroke-width="0"/><rect x="175.18" y="134.73" width="1.49" height=".38" transform="translate(-43.89 106.03) rotate(-30)" fill="#203367" stroke-width="0"/><rect x="177.77" y="133.24" width="1.49" height=".38" transform="translate(-42.8 107.12) rotate(-30)" fill="#203367" stroke-width="0"/><rect x="180.36" y="131.74" width="1.49" height=".38" transform="translate(-41.7 108.21) rotate(-30)" fill="#203367" stroke-width="0"/><rect x="157.07" y="145.18" width="1.49" height=".38" transform="translate(-51.54 98.37) rotate(-30)" fill="#203367" stroke-width="0"/><rect x="138.96" y="155.63" width="1.49" height=".38" transform="translate(-59.11 90.49) rotate(-29.93)" fill="#203367" stroke-width="0"/><rect x="136.37" y="157.12" width="1.49" height=".38" transform="translate(-60.2 89.4) rotate(-29.93)" fill="#203367" stroke-width="0"/><rect x="133.78" y="158.61" width="1.49" height=".38" transform="translate(-61.29 88.3) rotate(-29.93)" fill="#203367" stroke-width="0"/><rect x="131.19" y="160.1" width="1.49" height=".38" transform="translate(-62.38 87.21) rotate(-29.93)" fill="#203367" stroke-width="0"/><rect x="141.55" y="154.14" width="1.49" height=".38" transform="translate(-58.02 91.58) rotate(-29.93)" fill="#203367" stroke-width="0"/><rect x="146.72" y="151.16" width="1.49" height=".38" transform="translate(-55.91 94) rotate(-30)" fill="#203367" stroke-width="0"/><rect x="151.9" y="148.17" width="1.49" height=".38" transform="translate(-53.73 96.19) rotate(-30)" fill="#203367" stroke-width="0"/><rect x="144.14" y="152.65" width="1.49" height=".38" transform="translate(-56.94 92.67) rotate(-29.93)" fill="#203367" stroke-width="0"/><rect x="154.49" y="146.68" width="1.49" height=".38" transform="translate(-52.63 97.28) rotate(-30)" fill="#203367" stroke-width="0"/><rect x="149.31" y="149.66" width="1.49" height=".38" transform="translate(-54.82 95.09) rotate(-30)" fill="#203367" stroke-width="0"/><rect x="188.12" y="127.27" width="1.49" height=".38" transform="translate(-38.42 111.48) rotate(-29.99)" fill="#203367" stroke-width="0"/><rect x="206.23" y="116.81" width="1.49" height=".38" transform="translate(-30.77 119.14) rotate(-29.99)" fill="#203367" stroke-width="0"/><rect x="123.43" y="164.57" width="1.49" height=".38" transform="translate(-65.65 83.93) rotate(-29.93)" fill="#203367" stroke-width="0"/><rect x="120.84" y="166.06" width="1.49" height=".38" transform="translate(-66.74 82.84) rotate(-29.93)" fill="#203367" stroke-width="0"/><rect x="221.75" y="107.85" width="1.49" height=".38" transform="translate(-24.21 125.7) rotate(-29.99)" fill="#203367" stroke-width="0"/><rect x="126.02" y="163.08" width="1.49" height=".38" transform="translate(-64.56 85.03) rotate(-29.93)" fill="#203367" stroke-width="0"/><rect x="219.16" y="109.35" width="1.49" height=".38" transform="translate(-25.31 124.6) rotate(-29.99)" fill="#203367" stroke-width="0"/><rect x="118.25" y="167.55" width="1.49" height=".38" transform="translate(-67.82 81.75) rotate(-29.93)" fill="#203367" stroke-width="0"/><rect x="110.49" y="172.02" width="1.49" height=".38" transform="translate(-71.09 78.47) rotate(-29.93)" fill="#203367" stroke-width="0"/><rect x="128.61" y="161.59" width="1.49" height=".38" transform="translate(-63.47 86.12) rotate(-29.93)" fill="#203367" stroke-width="0"/><rect x="115.66" y="169.04" width="1.49" height=".38" transform="translate(-68.91 80.65) rotate(-29.93)" fill="#203367" stroke-width="0"/><rect x="113.07" y="170.53" width="1.49" height=".38" transform="translate(-70 79.56) rotate(-29.93)" fill="#203367" stroke-width="0"/><rect x="201.05" y="119.8" width="1.49" height=".38" transform="translate(-32.96 116.95) rotate(-29.99)" fill="#203367" stroke-width="0"/><rect x="216.57" y="110.84" width="1.49" height=".38" transform="translate(-26.4 123.51) rotate(-29.99)" fill="#203367" stroke-width="0"/><rect x="198.46" y="121.29" width="1.49" height=".38" transform="translate(-34.05 115.86) rotate(-29.99)" fill="#203367" stroke-width="0"/><rect x="193.29" y="124.28" width="1.49" height=".38" transform="translate(-36.24 113.67) rotate(-29.99)" fill="#203367" stroke-width="0"/><rect x="195.88" y="122.79" width="1.49" height=".38" transform="translate(-35.14 114.76) rotate(-29.99)" fill="#203367" stroke-width="0"/><rect x="203.64" y="118.31" width="1.49" height=".38" transform="translate(-31.86 118.04) rotate(-29.99)" fill="#203367" stroke-width="0"/><rect x="190.7" y="125.77" width="1.49" height=".38" transform="translate(-37.33 112.58) rotate(-29.99)" fill="#203367" stroke-width="0"/><rect x="213.99" y="112.33" width="1.49" height=".38" transform="translate(-27.49 122.42) rotate(-29.99)" fill="#203367" stroke-width="0"/><rect x="208.81" y="115.32" width="1.49" height=".38" transform="translate(-29.68 120.23) rotate(-29.99)" fill="#203367" stroke-width="0"/><rect x="211.4" y="113.83" width="1.49" height=".38" transform="translate(-28.59 121.32) rotate(-29.99)" fill="#203367" stroke-width="0"/><polygon points="224.9 106.44 224.34 106.76 224.53 107.08 225.27 106.65 225.27 105.79 224.9 105.79 224.9 106.44" fill="#203367" stroke-width="0"/><polygon points="224.53 107.08 224.53 107.08 224.53 107.08 224.53 107.08" fill="#203367" stroke-width="0"/><rect x="224.9" y="78.7" width=".38" height="1.5" fill="#203367" stroke-width="0"/><rect x="224.9" y="72.68" width=".38" height="1.5" fill="#203367" stroke-width="0"/><rect x="224.9" y="66.66" width=".38" height="1.5" fill="#203367" stroke-width="0"/><rect x="224.9" y="63.65" width=".38" height="1.5" fill="#203367" stroke-width="0"/><rect x="224.9" y="69.67" width=".38" height="1.5" fill="#203367" stroke-width="0"/><rect x="224.9" y="60.64" width=".38" height="1.5" fill="#203367" stroke-width="0"/><rect x="224.9" y="57.63" width=".38" height="1.5" fill="#203367" stroke-width="0"/><path d="M224.9,53.12h.38v-1.46c-.13.12-.25.24-.38.36v1.1Z" fill="#203367" stroke-width="0"/><rect x="224.9" y="54.62" width=".38" height="1.5" fill="#203367" stroke-width="0"/><rect x="224.9" y="93.75" width=".38" height="1.5" fill="#203367" stroke-width="0"/><rect x="224.9" y="102.78" width=".38" height="1.5" fill="#203367" stroke-width="0"/><rect x="224.9" y="90.74" width=".38" height="1.5" fill="#203367" stroke-width="0"/><rect x="224.9" y="75.69" width=".38" height="1.5" fill="#203367" stroke-width="0"/><rect x="224.9" y="99.77" width=".38" height="1.5" fill="#203367" stroke-width="0"/><rect x="224.9" y="96.76" width=".38" height="1.5" fill="#203367" stroke-width="0"/><rect x="224.9" y="87.73" width=".38" height="1.5" fill="#203367" stroke-width="0"/><rect x="224.9" y="81.71" width=".38" height="1.5" fill="#203367" stroke-width="0"/><rect x="224.9" y="84.72" width=".38" height="1.5" fill="#203367" stroke-width="0"/><path d="M224.9,51.61v.4c.13-.12.25-.24.38-.36v-.04h-.38Z" fill="#203367" stroke-width="0"/><rect x="224.9" y="49.36" width=".38" height=".75" fill="#203367" stroke-width="0"/><rect x="171.28" y="98.83" width=".38" height="1.5" fill="#203367" stroke-width="0"/><rect x="171.28" y="95.82" width=".38" height="1.5" fill="#203367" stroke-width="0"/><rect x="171.28" y="86.79" width=".38" height="1.5" fill="#203367" stroke-width="0"/><rect x="171.28" y="89.8" width=".38" height="1.5" fill="#203367" stroke-width="0"/><polygon points="171.28 85.29 171.66 85.29 171.66 83.78 171.42 83.78 171.28 83.86 171.28 85.29" fill="#203367" stroke-width="0"/><rect x="171.28" y="110.87" width=".38" height="1.5" fill="#203367" stroke-width="0"/><rect x="171.28" y="101.84" width=".38" height="1.5" fill="#203367" stroke-width="0"/><rect x="171.28" y="107.86" width=".38" height="1.5" fill="#203367" stroke-width="0"/><rect x="171.28" y="104.85" width=".38" height="1.5" fill="#203367" stroke-width="0"/><rect x="171.28" y="92.81" width=".38" height="1.5" fill="#203367" stroke-width="0"/><rect x="171.28" y="80.77" width=".38" height="1.5" fill="#203367" stroke-width="0"/><rect x="171.28" y="77.76" width=".38" height="1.5" fill="#203367" stroke-width="0"/><polygon points="171.28 83.86 171.42 83.78 171.28 83.78 171.28 83.86" fill="#203367" stroke-width="0"/><circle cx="169.35" cy="196.63" r="151.33" fill="#478ecc" opacity=".05" stroke-width="0"/><path d="M317.25,224.13c0,2-1.62,2.69-3.63,1.52s-3.63-3.73-3.63-5.73,1.62-2.69,3.63-1.52,3.63,3.73,3.63,5.73Z" fill="#fff" stroke="#4dc7e9" stroke-linecap="round" stroke-linejoin="round"/><path d="M269.99,50.3l-6.28-3.41c-.75-.47-1.8-.43-2.97.25l-178.19,103.64c-2.27,1.32-4.11,4.52-4.11,7.15v159.78c0,1.34.48,2.27,1.25,2.69v.02s6.44,3.45,6.44,3.45l-.37-5.62,174.97-100.88c2.28-1.31,4.12-4.5,4.12-7.13V53.49l5.14-3.2Z" fill="#fff" stroke="#203367" stroke-linecap="round" stroke-linejoin="round"/><path d="M90.9,160.53v-6.97l-7.69-3.16-.67.39c-2.27,1.32-4.11,4.52-4.11,7.15v3.55l6.25,2.38,6.22-3.33Z" fill="#fff" stroke="#203367" stroke-linecap="round" stroke-linejoin="round"/><path d="M88.8,323.48l178.17-102.72c2.28-1.31,4.12-4.5,4.12-7.13V52.89c0-2.63-1.84-3.69-4.11-2.36l-178.19,103.64c-2.27,1.32-4.11,4.52-4.11,7.15v159.78c0,2.63,1.84,3.69,4.12,2.38Z" fill="#fff" stroke="#203367" stroke-linecap="round" stroke-linejoin="round"/><polygon points="97.36 156.96 97.36 310.73 258.1 218.06 258.1 63.47 97.36 156.96" fill="#fff" stroke="#203367" stroke-linecap="round" stroke-linejoin="round"/><circle cx="90.9" cy="234.12" r="1.15" fill="#fff" stroke="#203367" stroke-linecap="round" stroke-linejoin="round"/><path d="M267.61,145.02c-.18,1.84-1.81,3.33-3.65,3.33s-3.19-1.49-3.01-3.33c.18-1.84,1.81-3.33,3.65-3.33s3.19,1.49,3.01,3.33Z" fill="#fff" stroke="#203367" stroke-linecap="round" stroke-linejoin="round"/><line x1="232.56" y1="146.31" x2="247.36" y2="137.64" fill="none" stroke="#fff" stroke-linecap="round" stroke-linejoin="round"/><path d="M169.98,241.26c0,2.31-1.87,5.25-4.17,6.59s-4.17.54-4.17-1.76,1.87-5.25,4.17-6.59,4.17-.54,4.17,1.76Z" fill="none" stroke="#4dc7e9" stroke-linecap="round" stroke-linejoin="round"/><path d="M184.24,233.37c0,2.31-1.87,5.25-4.17,6.59s-4.17.54-4.17-1.76,1.87-5.25,4.17-6.59,4.17-.54,4.17,1.76Z" fill="none" stroke="#4dc7e9" stroke-linecap="round" stroke-linejoin="round"/><path d="M197.23,226.3c0,2.31-1.87,5.25-4.17,6.59s-4.17.54-4.17-1.76,1.87-5.25,4.17-6.59,4.17-.54,4.17,1.76Z" fill="none" stroke="#203367" stroke-linecap="round" stroke-linejoin="round"/><path d="M209.75,218.99c0,2.31-1.87,5.25-4.17,6.59s-4.17.54-4.17-1.76,1.87-5.25,4.17-6.59,4.17-.54,4.17,1.76Z" fill="none" stroke="#203367" stroke-linecap="round" stroke-linejoin="round"/><line x1="255.92" y1="64.7" x2="255.92" y2="216.87" fill="#fff" stroke="#203367" stroke-linecap="round" stroke-linejoin="round"/><line x1="97.37" y1="308.27" x2="255.92" y2="217.25" fill="#fff" stroke="#203367" stroke-linecap="round" stroke-linejoin="round" stroke-width="1"/><path d="M231.02,150.06l-14.65-8.44c-.57-.44-1.19-.8-1.85-1.06h-.02s0,0,0,0c-2.21-.89-4.87-.77-7.76.52l-12.11-6.99c-.47-.34-.97-.62-1.49-.86h-.02s0,0,0,0c-2.85-1.28-6.42-.96-10.29,1.28-2.64,1.52-5.13,3.78-7.35,6.5l-6.25-3.64c-4.48-2.72-10.37-2.55-16.84,1.18-14.01,8.09-25.36,29.79-25.36,48.46,0,.07,0,.13,0,.19-7.64,5.79-13.53,17.91-13.53,28.47,0,6.19,2.03,10.58,5.24,12.54h0s14.55,8.39,14.55,8.39l4.84-13.36-1.23-.23,68.34-39.45c8.35-4.82,15.17-17.49,15.62-28.73l10.16-4.76Z" fill="#fff" stroke="#4dc7e9" stroke-miterlimit="10" stroke-width="1.07"/><path d="M220.38,150.63c-1.94,1.12-3.8,2.67-5.51,4.52-.36-11.82-7.78-17.13-16.89-11.88-3.14,1.81-6.07,4.65-8.59,8.08-4.41-7.42-12.54-9.41-21.85-4.04-14.01,8.09-25.36,29.79-25.36,48.46,0,.07,0,.13,0,.19-7.64,5.79-13.53,17.91-13.53,28.47,0,10.95,6.33,16.27,14.37,12.48v.07l77.36-44.66c8.64-4.99,15.64-18.37,15.64-29.89s-7-16.81-15.64-11.82Z" fill="#fff" stroke="#4dc7e9" stroke-miterlimit="10" stroke-width="1.07"/><path d="M236.61,14.37l-11.55-6.65c-.45-.35-.94-.63-1.45-.84h-.01s0,0,0,0c-1.74-.71-3.84-.61-6.11.41l-9.55-5.51c-.37-.27-.76-.49-1.17-.68h-.02s0,0,0,0c-2.25-1.01-5.06-.76-8.11,1.01-2.08,1.2-4.04,2.98-5.79,5.12l-4.93-2.86c-3.53-2.15-8.17-2.01-13.27.93-11.04,6.37-19.99,23.47-19.99,38.19,0,.05,0,.1,0,.15-6.02,4.56-10.66,14.11-10.66,22.44,0,4.88,1.6,8.34,4.13,9.89h0s11.46,6.62,11.46,6.62l3.81-10.53-.97-.18,53.86-31.09c6.58-3.8,11.96-13.78,12.31-22.64l8-3.75Z" fill="#fff" stroke="#4dc7e9" stroke-miterlimit="10"/><path d="M228.22,14.82c-1.53.88-2.99,2.1-4.34,3.56-.29-9.31-6.13-13.5-13.31-9.36-2.47,1.43-4.78,3.66-6.77,6.37-3.48-5.84-9.89-7.42-17.22-3.18-11.04,6.37-19.99,23.47-19.99,38.19,0,.05,0,.1,0,.15-6.02,4.56-10.66,14.11-10.66,22.44,0,8.63,4.99,12.82,11.33,9.84v.06s60.97-35.2,60.97-35.2c6.81-3.93,12.33-14.47,12.33-23.55s-5.52-13.25-12.33-9.32Z" fill="#fff" stroke="#4dc7e9" stroke-miterlimit="10"/><path d="M91.06,76.73v20.27c0,3.61,6.54,10.32,14.6,14.97,8.06,4.66,14.6,5.5,14.6,1.89v-20.27" fill="#fff" stroke="#203367" stroke-linecap="round" stroke-linejoin="round"/><path d="M120.26,100.07c0,3.61-6.54,2.77-14.6-1.89-8.06-4.66-14.6-11.36-14.6-14.97" fill="none" stroke="#203367" stroke-linecap="round" stroke-linejoin="round"/><path d="M120.26,107c0,3.61-6.54,2.77-14.6-1.89s-14.6-11.36-14.6-14.97" fill="none" stroke="#203367" stroke-linecap="round" stroke-linejoin="round"/><path d="M120.26,113.86c0,3.61-6.54,2.77-14.6-1.89-8.06-4.66-14.6-11.36-14.6-14.97" fill="none" stroke="#203367" stroke-linecap="round" stroke-linejoin="round"/><path d="M120.26,93.19c0,3.75-6.54,3.01-14.6-1.65-8.06-4.66-14.6-11.47-14.6-15.21s6.54-3.01,14.6,1.65,14.6,11.47,14.6,15.21Z" fill="#fff" stroke="#203367" stroke-linecap="round" stroke-linejoin="round"/><path d="M91.06,56.37v20.27c0,3.61,6.54,10.32,14.6,14.97s14.6,5.5,14.6,1.89v-20.27" fill="#fff" stroke="#203367" stroke-linecap="round" stroke-linejoin="round"/><path d="M120.26,79.71c0,3.61-6.54,2.77-14.6-1.89s-14.6-11.36-14.6-14.97" fill="none" stroke="#203367" stroke-linecap="round" stroke-linejoin="round"/><path d="M120.26,86.64c0,3.61-6.54,2.77-14.6-1.89s-14.6-11.36-14.6-14.97" fill="none" stroke="#203367" stroke-linecap="round" stroke-linejoin="round"/><path d="M120.26,93.5c0,3.61-6.54,2.77-14.6-1.89s-14.6-11.36-14.6-14.97" fill="none" stroke="#203367" stroke-linecap="round" stroke-linejoin="round"/><path d="M120.26,72.83c0,3.75-6.54,3.01-14.6-1.65s-14.6-11.47-14.6-15.21,6.54-3.01,14.6,1.65c8.06,4.66,14.6,11.47,14.6,15.21Z" fill="#fff" stroke="#203367" stroke-linecap="round" stroke-linejoin="round"/><path d="M313.54,103.25c-1.61-.58-3.11-.78-4.42-.62l-1.94-3.02-3.32,1.48,1.94,3.02c-.88.82-1.51,1.97-1.83,3.41l-2.75-1.53" fill="none" stroke="#203367" stroke-linecap="round" stroke-linejoin="round"/><path d="M330.55,126.94v-4.69l-2.75-1.53c-.32-1.78-.94-3.63-1.83-5.43l1.94-.87-3.32-5.16-1.94.87c-1.31-1.61-2.81-3.07-4.42-4.28v-2.75l-4.69-2.6" fill="none" stroke="#203367" stroke-linecap="round" stroke-linejoin="round"/><path d="M318.23,132.43v-2.75c1.61.58,3.11.78,4.42.62l1.94,3.02,3.32-1.48-1.94-3.02c.88-.82,1.51-1.97,1.83-3.41" fill="none" stroke="#203367" stroke-linecap="round" stroke-linejoin="round"/><path d="M301.23,110.68l2.75,1.53c.32,1.78.94,3.63,1.83,5.43l-1.94.87,3.32,5.16,1.94-.87c1.31,1.61,2.81,3.07,4.42,4.28v2.75" fill="none" stroke="#203367" stroke-linecap="round" stroke-linejoin="round"/><path d="M323.41,120.63c0,4.15-3.37,5.65-7.52,3.35-4.15-2.3-7.52-7.54-7.52-11.69s3.37-5.65,7.52-3.35c4.15,2.3,7.52,7.54,7.52,11.69Z" fill="none" stroke="#203367" stroke-linecap="round" stroke-linejoin="round"/><path d="M318.14,117.71c0,1.24-1.01,1.69-2.25,1s-2.25-2.26-2.25-3.5,1.01-1.69,2.25-1,2.25,2.26,2.25,3.5Z" fill="none" stroke="#203367" stroke-linecap="round" stroke-linejoin="round"/><path d="M336.41,143.55c-4.61,5.17-13.05,5.67-22.7.32-11.62-6.44-21.49-19.41-25.02-31.8" fill="none" stroke="#4dc7e9" stroke-linecap="round" stroke-linejoin="round"/><path d="M288.18,96.56c2.98-9.66,13.28-12.3,25.54-5.51,11.66,6.46,21.56,19.51,25.06,31.93" fill="none" stroke="#4dc7e9" stroke-linecap="round" stroke-linejoin="round"/><polyline points="285.49 115.29 288.56 111.47 294.23 117.52" fill="none" stroke="#4dc7e9" stroke-linecap="round" stroke-linejoin="round"/><polyline points="341.76 119.46 338.68 123.28 333.02 117.23" fill="none" stroke="#4dc7e9" stroke-linecap="round" stroke-linejoin="round"/><path d="M328.28,127.88v-4.69l-2.75-1.53c-.32-1.78-.94-3.63-1.83-5.43l1.94-.87-3.32-5.16-1.94.87c-1.31-1.61-2.81-3.07-4.42-4.28v-2.75l-4.69-2.6v2.75c-1.61-.58-3.11-.78-4.42-.62l-1.94-3.02-3.32,1.48,1.94,3.02c-.88.82-1.51,1.97-1.83,3.41l-2.75-1.53v4.69l2.75,1.53c.32,1.78.94,3.63,1.83,5.43l-1.94.87,3.32,5.16,1.94-.87c1.31,1.61,2.81,3.07,4.42,4.28v2.75l4.69,2.6v-2.75c1.61.58,3.11.78,4.42.62l1.94,3.02,3.32-1.48-1.94-3.02c.88-.82,1.51-1.97,1.83-3.41l2.75,1.53Z" fill="#fff" stroke="#203367" stroke-linecap="round" stroke-linejoin="round"/><path d="M321.14,121.58c0,4.15-3.37,5.65-7.52,3.35s-7.52-7.54-7.52-11.69,3.37-5.65,7.52-3.35,7.52,7.54,7.52,11.69Z" fill="none" stroke="#4dc7e9" stroke-linecap="round" stroke-linejoin="round"/><path d="M315.87,118.66c0,1.24-1.01,1.69-2.25,1s-2.25-2.26-2.25-3.5,1.01-1.69,2.25-1,2.25,2.26,2.25,3.5Z" fill="#fff" stroke="#203367" stroke-linecap="round" stroke-linejoin="round"/><line x1="306.86" y1="103.58" x2="309.12" y2="102.63" fill="#fff" stroke="#203367" stroke-linecap="round" stroke-linejoin="round"/><line x1="301.23" y1="105.99" x2="298.96" y2="106.94" fill="#fff" stroke="#203367" stroke-linecap="round" stroke-linejoin="round"/><line x1="315.97" y1="133.37" x2="318.23" y2="132.43" fill="#fff" stroke="#203367" stroke-linecap="round" stroke-linejoin="round"/><line x1="328.29" y1="127.85" x2="330.55" y2="126.97" fill="#fff" stroke="#203367" stroke-linecap="round" stroke-linejoin="round"/><line x1="328.28" y1="123.19" x2="330.3" y2="122.58" fill="#fff" stroke="#203367" stroke-linecap="round" stroke-linejoin="round"/><line x1="315.97" y1="104.05" x2="318.08" y2="103.42" fill="#fff" stroke="#203367" stroke-linecap="round" stroke-linejoin="round"/><line x1="311.28" y1="101.45" x2="313.54" y2="100.5" fill="#fff" stroke="#203367" stroke-linecap="round" stroke-linejoin="round"/><path d="M244.94,317.72c.79.03,1.59.13,2.37.23,1.53.2,3.03.14,4.57.24,1.22.09,2.52.52,3.15,1.56,1.53,2.52-1.84,4.1-3.55,5.03-2.59,1.41-5.44,2.54-8.41,2.77-1.71.13-3.65-.18-5.02-1.18-.69-.5-1.24-1.18-1.55-2.11-.21-.64-.31-1.36-.36-2.09,0-.09,0-.41,0-.85,0-.44.02-1.03.05-1.66s.06-1.29.11-1.8.13-.84.24-.83c0,0,.57.1,1.41.32.31.08.66.18,1.03.26s.76.16,1.15.21c.2.02.4.04.6.05.2.01.4.02.6.02.2,0,.39,0,.57-.02.19-.01.36-.02.54-.04.41-.04.83-.08,1.25-.1s.84-.02,1.26,0Z" fill="#fff" stroke="#203367" stroke-linecap="round" stroke-linejoin="round"/><path d="M252.9,322.55c.79.03,1.59.13,2.37.23,1.53.2,3.03.14,4.57.24,1.22.09,2.52.52,3.15,1.56,1.53,2.52-1.84,4.1-3.55,5.03-2.59,1.41-5.44,2.54-8.41,2.77-1.71.13-3.65-.18-5.02-1.18-.69-.5-1.24-1.18-1.55-2.11-.21-.64-.31-1.36-.36-2.09,0-.09,0-.41,0-.85,0-.44.02-1.03.05-1.66s.06-1.29.11-1.8.13-.84.24-.83c0,0,.57.1,1.41.32.31.08.66.18,1.03.26s.76.16,1.15.21c.2.02.4.04.6.05.2.01.4.02.6.02.2,0,.39,0,.57-.02.19-.01.36-.02.54-.04.41-.04.83-.08,1.25-.1s.84-.02,1.26,0Z" fill="#fff" stroke="#203367" stroke-linecap="round" stroke-linejoin="round"/><path d="M245.33,321.34s-.47.28-1.23.64c-.33.15-.66.28-.99.37s-.67.16-1.01.2-.68.04-1.02.02-.68-.08-1.01-.17c-.29-.08-.57-.18-.85-.31s-.54-.29-.8-.48-.49-.41-.71-.66-.42-.52-.6-.81c-.21-.34-.38-.68-.52-1.01-.14-.34-.24-.67-.32-1.01s-.14-.68-.18-1.01c-.03-.25-.05-.51-.07-.76s-.02-.49-.03-.74c0-.24,0-.48,0-.72,0-.24,0-.48,0-.71-.02-2.64.13-5.29.09-7.93,0,0,.37-.4.98-1,.33-.3.75-.65,1.23-1.03.53-.38,1.13-.79,1.76-1.21.65-.43,1.32-.86,1.94-1.27.47-.31.92-.6,1.32-.86,1.22-.79,2.06-1.35,2.06-1.35,0,0-.05,4.7-.11,9.79l-.02,1.39c0,.47-.01.93-.02,1.38s0,.89-.01,1.3c0,.42,0,.81,0,1.21,0,.39,0,.78.02,1.17s.02.77.03,1.15.02.73.02,1.07.01.66.02.96,0,.58.01.83c0,.5,0,.89,0,1.15s0,.4,0,.4Z" fill="#fff" stroke="#203367" stroke-linecap="round" stroke-linejoin="round"/><path d="M255.47,295.85c0,4.19,0,8.37,0,12.56v10.12c0,.73,0,1.46,0,2.2,0,1.81-.17,3.96-1.48,5.35-1.78,1.89-4.35,1.64-6.27.11-2.96-2.36-2.83-6.55-2.87-9.97-.05-4.67.27-9.34.27-14.01" fill="#fff" stroke="#203367" stroke-linecap="round" stroke-linejoin="round"/><ellipse cx="220.1" cy="334.89" rx="22.61" ry="8.27" fill="#fff" stroke="#203367" stroke-linecap="round" stroke-linejoin="round"/><rect x="217.48" y="306.75" width="6.45" height="26.97" rx="3.22" ry="3.22" transform="translate(441.4 640.47) rotate(180)" fill="#fff" stroke="#203367" stroke-linecap="round" stroke-linejoin="round"/><polygon points="220.13 232.14 219.93 275.16 184.84 296.67 184.98 251.75 220.13 232.14" fill="#fff" stroke="#203367" stroke-linecap="round" stroke-linejoin="round"/><path d="M205.11,307.63s.26.15.78.46,1.28.76,2.25,1.36c.92.57,1.79,1.08,2.58,1.51s1.52.78,2.18,1.06c4.47,1.88,9.65,1.35,14.11-.28,5.39-1.96,10.21-5.4,15.11-8.31,3.65-2.17,7.24-4.51,10.98-6.52,0,0,16.37-8.81.03-11.35l-1.39.46c-.44.15-.98.33-1.59.53-.61.21-1.3.43-2.04.64s-1.51.4-2.32.57-1.64.33-2.5.49c-.57.1-1.16.21-1.76.33s-1.21.24-1.84.4c-.63.16-1.27.36-1.94.61-.33.12-.67.26-1.03.41s-.75.29-1.19.4c-.22.05-.46.08-.71.1s-.53.01-.81,0-.57-.04-.88-.12-.61-.21-.92-.37c-.32-.18-.66-.39-1-.63-.17-.12-.34-.24-.52-.37s-.35-.26-.53-.4c-.17-.13-.34-.27-.51-.4s-.34-.27-.5-.41c-.32-.27-.62-.51-.89-.71s-.5-.34-.71-.43-.4-.14-.56-.13c-.33.02-.59.22-.76.69-.08.23-.15.5-.2.78-.06.25-.1.5-.13.76s-.04.51-.03.8.04.6.06.92c.02.32.02.67.01,1.02s-.04.72-.08,1.08-.11.68-.17.99-.14.59-.21.83c-.16.49-.34.85-.55,1.08s-.43.37-.65.47-.43.18-.63.25c-.2.06-.39.12-.57.16-.36.08-.69.16-.97.22-.86.19-1.34.3-1.34.3,0,0-1.31.04-2.78.69-.49.22-1,.51-1.49.91-.66.54-1.27,1.25-1.71,2.15-.25.5-.5,1.02-.77,1.58-.14.22-.29.43-.46.65-.2.2-.46.38-.82.52s-.86.22-1.47.24c-.67,0-1.45-.07-2.37-.19s-1.91-.26-2.91-.39c-.66-.08-1.3-.13-1.89-.15s-1.12,0-1.59.04-.85.14-1.14.26-.48.3-.53.53.1.56.54,1.04c.22.24.61.57,1.2,1.03s1.46,1.08,2.52,1.85Z" fill="#fff" stroke="#203367" stroke-linecap="round" stroke-linejoin="round"/><polygon points="302.62 281.7 267.39 302.22 184.98 254.6 184.98 251.75 302.62 278.84 302.62 281.7" fill="#fff" stroke="#203367" stroke-linecap="round" stroke-linejoin="round"/><polygon points="184.98 251.75 220.25 231.55 302.62 278.84 267.39 299.37 184.98 251.75" fill="#fff" stroke="#203367" stroke-linecap="round" stroke-linejoin="round"/><path d="M276.1,227.43l-.19-.74s.02.36.19.74Z" fill="#fff" stroke="#203367" stroke-linecap="round" stroke-linejoin="round"/><path d="M277.05,228.27c0-.51-.36-1.13-.8-1.39l-39.19-22.65c-.44-.26-.8-.05-.8.46v35.63l7.15,4.37-.3,2.15c.83.44,1.68.85,2.55,1.26,3.24,1.52,6.36,3.32,9.28,5.4.2.14.4.28.6.42.25.1.49.2.74.31,1.5.64,2.96,1.39,4.31,2.32.34.24.66.49.99.74.86.42,1.72.84,2.58,1.27,1.6.79,3.13,1.69,4.71,2.52,1.55.82,3.13,1.6,4.64,2.49.09.05.18.11.27.16.09.05.18.11.28.17.05.03.1.06.14.09.05.03.09.06.13.09s.08.06.12.08.07.05.1.07c.04.03.08.07.1.1.02.03.04.06.05.1,0,.03,0,.06-.01.1-.01.04-.03.07-.05.12-.02.04-.04.09-.06.13-.02.05-.03.1-.04.15,0,.05,0,.1.02.16.03.06.07.12.14.18.04.03.08.07.14.11s.13.08.21.12c.09.04.19.09.29.13.05.02.11.05.17.07s.11.05.17.07c0,0-.04-.02-.12-.05-.04-.02-.09-.04-.15-.06s-.12-.05-.19-.09-.14-.07-.21-.11-.14-.08-.2-.12-.11-.09-.14-.13-.06-.09-.07-.13-.01-.09,0-.14.04-.1.08-.15.11-.11.2-.18c.05-.03.11-.06.18-.09s.15-.06.23-.09c.05-.02.09-.03.14-.05s.1-.03.16-.04.11-.03.17-.04.12-.02.19-.03c.06,0,.11-.02.17-.02s.11-.02.17-.02c.12-.01.23-.03.34-.04.08-.02.16-.04.22-.06s.11-.05.14-.08c.05-.06.06-.13.06-.2,0-.07,0-.15,0-.23,0-8.1,0-35.3,0-35.3Z" fill="#fff" stroke="#203367" stroke-linecap="round" stroke-linejoin="round"/><path d="M243.97,256.47s.09-.03.13-.05l7.99-3.81c.9-.38,1.94-.31,2.39.15.05.05.11.1.17.14l9.2,5.25c.15.09.33.1.51.1.31,0,.74.54.36,1.39-.08.17-.21.31-.37.41-2.02,1.26-4.05,2.51-6.06,3.78-.54.34-1.11.81-1.77.83-.34.01-.61-.14-.89-.3-.43-.25-.86-.49-1.29-.74-1.48-.85-2.96-1.7-4.44-2.55l-4.43-2.54-1.52-.87c-.72-.44-.7-.96.03-1.2Z" fill="#fff" stroke="#203367" stroke-linecap="round" stroke-linejoin="round"/><path d="M264.18,258.34l-9.63-5.5c-.4-.53-1.51-.63-2.46-.23l-2.8,1.34c.09.09.2.19.35.28l12.12,6.95c.32.05.6.04.84-.03.66-.41,1.32-.82,1.98-1.23.74-1.2-.12-1.93-.39-1.58Z" fill="#fff" stroke="#203367" stroke-linecap="round" stroke-linejoin="round"/><polygon points="238.04 239.2 238.04 207.02 275.13 228.47 275.13 260.66 238.04 239.2" fill="#fff" stroke="#203367" stroke-linecap="round" stroke-linejoin="round"/><path d="M237.06,245.03l39.19,22.67c.44.26.8.05.8-.46v-3.45s-40.79-23.48-40.79-23.48v3.33c0,.51.36,1.13.8,1.39Z" fill="#fff" stroke="#203367" stroke-linecap="round" stroke-linejoin="round"/><path d="M230.33,257.38c.21-.12.55-.12.76,0l2.33,1.34c.21.12.38.22.38.22s.17.1.38.22l13.67,7.89c.21.12.38.22.38.22s.17.1.38.22l2.33,1.34c.21.12.21.32,0,.44l-7.37,4.26c-.21.12-.55.12-.76,0l-19.81-11.48c-.21-.12-.21-.32,0-.44l7.34-4.24Z" fill="#fff" stroke-width="0"/><path d="M230.33,257.38c.21-.12.55-.12.76,0l2.33,1.34c.21.12.38.22.38.22s.17.1.38.22l13.67,7.89c.21.12.38.22.38.22s.17.1.38.22l2.33,1.34c.21.12.21.32,0,.44l-7.37,4.26c-.21.12-.55.12-.76,0l-19.81-11.48c-.21-.12-.21-.32,0-.44l7.34-4.24Z" fill="none" stroke="#203367" stroke-linecap="round" stroke-linejoin="round"/><path d="M258.15,282.41l-10.36-5.98c-.6-.34-.52-.95.17-1.35l10.02-5.79c.69-.4,1.74-.44,2.33-.1l10.36,5.98c.6.34.52.95-.17,1.35l-10.02,5.79c-.69.4-1.74.44-2.33.1Z" fill="#fff" stroke="#203367" stroke-linecap="round" stroke-linejoin="round"/><path d="M255.32,279.87h0c-1.5-.86-1.31-2.38.42-3.38l3.83-2.21c1.73-1,4.36-1.11,5.86-.24h0c1.5.86,1.31,2.38-.42,3.38l-3.83,2.21c-1.73,1-4.36,1.11-5.86.24Z" fill="#fff" stroke="#203367" stroke-linecap="round" stroke-linejoin="round"/><path d="M265.67,275.54c.56-.47,1-.99,1.22-1.55.06-.15.05-.26,0-.36.32-.22.3-.55-.05-.75-.12-.07-.27-.12-.43-.14l.17-.1c.21-.12.32-.29.32-.45,0-.71-1.52-.56-1.94-.5.31-.04.61-.13.89-.26.05-.03.11-.06.14-.11.04-.07,0-.16-.05-.22s-.14-.08-.22-.1c-2.95-.86-6.33-1.18-8.87.42-.39.24-.8.47-1.24.78-1.28.9-2.38,2.2-3.81,3.17-.19.14-.38.27-.59.4-.2.13-.41.25-.64.36-.25.13-.49.26-.73.39-.36.2-.71.41-1.07.61l-1.06.61c-.91.52-1.82,1.05-2.73,1.57-.25.15-.87.68-1.17.68-.33.19-.33.5,0,.69l4.91,2.84c.33.19.87.19,1.19,0l8.39-4.85c.42-.05.85-.13,1.26-.24,1.34-.36,2.73-.85,3.82-1.43.83-.44,1.63-.92,2.27-1.46Z" fill="#fff" stroke="#203367" stroke-linecap="round" stroke-linejoin="round"/><path d="M222.4,275.54l8.59,16.24c.33.62.78,1.17,1.32,1.61s1.16.77,1.84.96c.48.14.97.21,1.46.21.45,0,.9-.06,1.33-.17s.86-.29,1.25-.51l18.32-11.43c2.5-1.43,2.74-4.08,1.31-6.58-1.43-2.5-4.34-2.7-6.85-1.27l-13.27,7.56s-9.17-17.34-9.17-17.34c-.9-1.7-2.41-2.99-3.95-4.11-1.62-1.18-3.31-2.33-5.07-3.28-5.1-2.9-12.34-6.77-17.36-.29-2.17,2.8-2.47,5.2-2.75,8.65-.72,8.87.71,17.59.71,26.43,0,.47.05.96.14,1.45.45,2.44,1.96,4.92,3.73,5.95,3.08,1.78,6.09,3.7,9.3,5.23,1.22.58,2.35,1.07,3.6,1.33.42.09.84.15,1.29.19,3.4.26,8.84-2.48,9.27-5.97.89-7.29-.13-12-1.17-17.44" fill="#fff" stroke="#203367" stroke-linecap="round" stroke-linejoin="round"/><path d="M216.39,310.73c.82-.37,1.35-1.39,1.35-2.87v-28.42c0-2.53-1.55-5.5-3.45-6.6l-15.72-9.07c-.87-.5-1.67-.53-2.28-.16l-3.43,2.06,19.88,47.23,3.66-2.16Z" fill="#fff" stroke="#203367" stroke-linecap="round" stroke-linejoin="round"/><path d="M210.56,312.67l-15.72-9.07c-1.9-1.1-3.45-4.07-3.45-6.6v-28.42c0-2.53,1.55-3.71,3.45-2.61l15.72,9.07c1.9,1.1,3.45,4.07,3.45,6.6v28.42c0,2.53-1.55,3.71-3.45,2.61Z" fill="#fff" stroke="#203367" stroke-linecap="round" stroke-linejoin="round"/><path d="M221.06,254.03c1.14.41,2.79.64,5.26.75,2.29.1,3.54-4.11,3.64-8.41l.64-.66s1.01-1.07,1.01-1.07c-.53-.56-1.37-1.17-1.75-1.84-1.23-2.16-.2-5.39-2.66-6.83-1.82-1.07-4.18-.12-6.02.39-2.12.59-3.67,3.25-4.04,6.46" fill="#fff" stroke="#203367" stroke-linecap="round" stroke-linejoin="round"/><circle cx="228.18" cy="243" r=".68" fill="#203367" stroke-width="0"/><path d="M212.43,250.49l-1.13,4.47s2.83,4.56,8.93,2.93l.84-3.85" fill="#fff" stroke="#203367" stroke-linecap="round" stroke-linejoin="round"/><path d="M217.45,248.25c-.11.12-.22.24-.33.35s-.23.2-.35.3c-.66.5-1.38.83-2.06,1.12-.49.2-1,.31-1.5.13-.41-.15-.73-.5-1.01-.95-1.32-2.17-2.12-5.17-2.64-7.63-.47-2.28-.78-5.37.62-7.41.72-1.05,1.9-1.71,3.1-2.16,2.05-.76,4.16-1.34,6.31-1.73,1.41-.26,2.81-.4,4.16-.72.23-.05.45-.11.67-.17.22-.07.42-.14.59-.24.16-.1.28-.24.35-.41s.09-.37.08-.6c0-.14-.02-.29-.02-.43s.02-.26.09-.36c.09-.13.25-.18.47-.16.11.01.24.04.38.09.15.06.31.13.5.24s.39.23.6.37.43.29.62.45.37.3.52.43c.15.14.27.27.38.39.21.25.38.48.49.7.12.21.21.42.29.62.08.2.15.39.21.57.06.18.11.34.16.48.53,1.72.46,3.58-1.18,4.65-1.23.8-2.61,1.55-4.01,2.09-.75.29-1.52.52-2.3.69-.64.14-1.86-.06-2.33.43.33.41.86.64,1.26.99,1.32,1.13.52,3.11.26,4.55.11-.63-.7.45-.71.46-.43.49-.7,0-.84-.4-.06-.16-.11-.32-.15-.46s-.08-.25-.11-.33c-.05-.14-.1-.27-.16-.39s-.11-.21-.17-.3c-.12-.14-.23-.25-.35-.33-.12-.07-.23-.13-.35-.16-.12-.03-.23-.06-.35-.07-.12-.02-.23-.03-.34-.03-.34,0-.66.07-.92.3-.1.09-.2.19-.28.3-.19.25-.34.55-.44.87s-.16.67-.18,1.02c-.03.71.12,1.44.43,2.06s.78,1.13,1.41,1.38c.15.06.31.1.47.13s.32.04.49.03" fill="#fff" stroke="#203367" stroke-linecap="round" stroke-linejoin="round"/><path d="M227.66,248.93s.77.87,1.78.66" fill="#fff" stroke="#203367" stroke-linecap="round" stroke-linejoin="round"/><path d="M227.8,240.74s-1.15.14-1.55,1.1" fill="#fff" stroke="#203367" stroke-linecap="round" stroke-linejoin="round"/><path d="M221.2,258.37c.21.58.01,1.19-.47,1.57-1.29,1.03-3.61.82-5.11.52-2.03-.42-4.25-1.49-5.45-3.24-.33-.49-.82-1.24-.38-1.88.32-.47,1.01-.54,1.46-.36" fill="#fff" stroke="#203367" stroke-linecap="round" stroke-linejoin="round"/><polygon points="243.02 237.74 243.02 213.99 270.38 229.83 270.38 253.58 243.02 237.74" fill="#fff" stroke="#4dc7e9" stroke-linecap="round" stroke-linejoin="round"/><polygon points="302.62 281.7 302.7 324.67 267.53 344.85 267.53 302.22 302.62 281.7" fill="#fff" stroke="#203367" stroke-linecap="round" stroke-linejoin="round"/><path d="M286.01,273.32v8c0,1.34-1.91,2.43-4.26,2.43-2.35,0-4.26-1.09-4.26-2.43v-8h8.52Z" fill="#fff" stroke="#4dc7e9" stroke-linecap="round" stroke-linejoin="round"/><ellipse cx="281.75" cy="273.32" rx="4.26" ry="2.43" fill="#fff" stroke="#4dc7e9" stroke-linecap="round" stroke-linejoin="round"/><path d="M285.77,274.18c-.65-.87-2.16-1.48-3.92-1.48s-3.16.56-3.84,1.38" fill="#fff" stroke="#4dc7e9" stroke-linecap="round" stroke-linejoin="round"/><polyline points="277.12 280.37 275.65 281.12 275.65 276.49 277.09 275.67" fill="#fff" stroke="#4dc7e9" stroke-linecap="round" stroke-linejoin="round"/><path d="M52.59,228.35c3.72-2.15,7.14-5.34,9.49-10.19,1.82-3.49,2.96-7.29,2.96-10.69,0-7.23-4.86-10.26-10.94-7.37.76-2.27,1.22-4.62,1.22-6.8,0-8.1-5.7-11.35-12.76-7.27-5.85,3.38-10.71,10.71-12.23,17.69-2.28-1.73-5.62-1.81-9.42.38-6.76,3.9-12.23,13.33-12.23,21.09v.61c-4.78,4.77-8.2,11.97-8.2,18.15,0,7.93,5.62,11.13,12.53,7.14l-.99.57" fill="#fff" stroke="#203467" stroke-linecap="round" stroke-linejoin="round"/><path d="M24.72,243.48l-3.65,2.1c-.61.35-1.06.09-1.06-.61v-4.18c0-.7.46-1.48,1.06-1.83l3.65-2.1c.61-.35,1.06-.09,1.06.61v4.18c0,.61-.46,1.48-1.06,1.83Z" fill="none" stroke="#4dc7e9" stroke-linecap="round" stroke-linejoin="round" stroke-width="1.08"/><path d="M34.6,237.78l-3.65,2.1c-.61.35-1.06.09-1.06-.61v-4.18c0-.7.46-1.48,1.06-1.83l3.65-2.1c.61-.35,1.06-.09,1.06.61v4.18c0,.61-.46,1.48-1.06,1.83Z" fill="none" stroke="#4dc7e9" stroke-linecap="round" stroke-linejoin="round" stroke-width="1.08"/><path d="M44.47,232.09l-3.65,2.1c-.61.35-1.06.09-1.06-.61v-4.18c0-.7.46-1.48,1.06-1.83l3.65-2.1c.61-.35,1.06-.09,1.06.61v4.18c0,.61-.46,1.48-1.06,1.83Z" fill="none" stroke="#4dc7e9" stroke-linecap="round" stroke-linejoin="round" stroke-width="1.08"/><path d="M24.72,254.99l-3.65,2.1c-.61.35-1.06.09-1.06-.61v-4.18c0-.7.46-1.48,1.06-1.83l3.65-2.1c.61-.35,1.06-.09,1.06.61v4.18c0,.7-.46,1.48-1.06,1.83Z" fill="none" stroke="#4dc7e9" stroke-linecap="round" stroke-linejoin="round" stroke-width="1.08"/><path d="M34.6,249.29l-3.65,2.1c-.61.35-1.06.09-1.06-.61v-4.18c0-.7.46-1.48,1.06-1.83l3.65-2.1c.61-.35,1.06-.09,1.06.61v4.18c0,.7-.46,1.48-1.06,1.83Z" fill="none" stroke="#4dc7e9" stroke-linecap="round" stroke-linejoin="round" stroke-width="1.08"/><path d="M44.47,243.59l-3.65,2.1c-.61.35-1.06.09-1.06-.61v-4.18c0-.7.46-1.48,1.06-1.83l3.65-2.1c.61-.35,1.06-.09,1.06.61v4.18c0,.7-.46,1.48-1.06,1.83Z" fill="none" stroke="#4dc7e9" stroke-linecap="round" stroke-linejoin="round" stroke-width="1.08"/><path d="M24.72,266.58l-3.65,2.1c-.61.35-1.06.09-1.06-.61v-4.18c0-.7.46-1.48,1.06-1.83l3.65-2.1c.61-.35,1.06-.09,1.06.61v4.18c0,.7-.46,1.48-1.06,1.83Z" fill="none" stroke="#4dc7e9" stroke-linecap="round" stroke-linejoin="round" stroke-width="1.08"/><path d="M34.6,260.88l-3.65,2.1c-.61.35-1.06.09-1.06-.61v-4.18c0-.7.46-1.48,1.06-1.83l3.65-2.1c.61-.35,1.06-.09,1.06.61v4.18c0,.7-.46,1.48-1.06,1.83Z" fill="none" stroke="#4dc7e9" stroke-linecap="round" stroke-linejoin="round" stroke-width="1.08"/></svg>