<svg id="Artwork" xmlns="http://www.w3.org/2000/svg" viewBox="0 0 100 100"><defs><style>.cls-1,.cls-2{fill:none;stroke-linecap:round;stroke-linejoin:round;stroke-width:1.5px;}.cls-1{stroke:#002d6a;}.cls-2{stroke:#f47c00;}</style></defs><title>Artboard 8</title><path class="cls-1" d="M72.78,69.26h3.34a21.44,21.44,0,0,0,2.51-.09,13.93,13.93,0,0,0,10-5.31A15.69,15.69,0,0,0,78.07,37.91,16.79,16.79,0,1,0,46.69,26.26,16.1,16.1,0,0,0,18.23,36.58c0,.22,0,.44,0,.66a16.53,16.53,0,0,0,5.76,32h3.36"/><path class="cls-2" d="M61.1,53.62c3.6,1.23,5.88,3,5.88,5.05,0,3.69-7.68,6.69-17.15,6.69s-17.15-3-17.15-6.69c0-1.88,2-3.57,5.14-4.78"/><path class="cls-2" d="M67,65.13c0,3.69-7.68,6.69-17.15,6.69s-17.15-3-17.15-6.69"/><path class="cls-2" d="M67,72.21c0,3.7-7.68,6.7-17.15,6.7s-17.15-3-17.15-6.7"/><path class="cls-2" d="M67,79.23c0,3.7-7.68,6.7-17.15,6.7s-17.15-3-17.15-6.7"/><path class="cls-2" d="M32.68,58.67V79.23c0,3.7,7.68,6.7,17.15,6.7S67,82.93,67,79.23V58.67"/><path class="cls-1" d="M57.33,52a8.51,8.51,0,1,1-.85-6.09"/><polyline class="cls-1" points="49.54 46.47 56.85 46.47 56.85 39.16"/></svg>