<?xml version="1.0" encoding="UTF-8"?><svg id="Layer_1" xmlns="http://www.w3.org/2000/svg" viewBox="0 0 83.5 83.5"><defs><style>.cls-1{stroke:#f47c00;}.cls-1,.cls-2{fill:none;stroke-linecap:round;stroke-linejoin:round;stroke-width:1.5px;}.cls-2{stroke:#002d6a;}</style></defs><path class="cls-2" d="m63.08.75h10.26c1.14,0,2.06.92,2.06,2.06v38.5c0,1.14-.92,2.06-2.06,2.06H10.21c-1.14,0-2.06-.92-2.06-2.06V2.81c0-1.14.92-2.06,2.06-2.06h53.89"/><path class="cls-2" d="m82.18,53.37l-7.32-7.17H8.64l-7.32,7.17c-1.21,1.19-.37,3.25,1.33,3.25h78.2c1.7,0,2.54-2.06,1.33-3.25Z"/><polyline class="cls-2" points="61.29 4.54 71.88 4.54 71.88 39.58 11.68 39.58 11.68 4.54 62.6 4.54"/><line class="cls-1" x1="3.82" y1="30.95" x2="11.21" y2="30.95"/><line class="cls-1" x1="17.17" y1="6.61" x2="11.21" y2="30.95"/><line class="cls-1" x1="21.85" y1="37.51" x2="17.17" y2="6.61"/><line class="cls-1" x1="27.04" y1="12.7" x2="21.85" y2="37.51"/><line class="cls-1" x1="28.86" y1="22.06" x2="27.04" y2="12.7"/><line class="cls-1" x1="38.48" y1="22.06" x2="28.86" y2="22.06"/><circle class="cls-2" cx="41.78" cy="22.06" r="3.3"/><circle class="cls-2" cx="16.35" cy="79.86" r="2.89"/><line class="cls-2" x1="24.79" y1="79.86" x2="19.24" y2="79.86"/><line class="cls-2" x1="26.16" y1="76.98" x2="24.79" y2="79.86"/><line class="cls-2" x1="39.35" y1="76.98" x2="26.16" y2="76.98"/><circle class="cls-2" cx="67.15" cy="79.86" r="2.89"/><circle class="cls-2" cx="16.35" cy="72.4" r="2.89"/><circle class="cls-2" cx="67.15" cy="72.4" r="2.89"/><line class="cls-2" x1="58.71" y1="79.86" x2="64.26" y2="79.86"/><line class="cls-2" x1="57.34" y1="76.98" x2="58.71" y2="79.86"/><line class="cls-2" x1="44.15" y1="76.98" x2="57.34" y2="76.98"/><circle class="cls-2" cx="67.15" cy="64.63" r="2.89"/><line class="cls-2" x1="58.71" y1="64.63" x2="64.26" y2="64.63"/><line class="cls-2" x1="57.34" y1="67.52" x2="58.71" y2="64.63"/><line class="cls-2" x1="44.15" y1="67.52" x2="57.34" y2="67.52"/><circle class="cls-2" cx="16.35" cy="64.63" r="2.89"/><line class="cls-2" x1="24.79" y1="64.63" x2="19.24" y2="64.63"/><line class="cls-2" x1="26.16" y1="67.52" x2="24.79" y2="64.63"/><line class="cls-2" x1="39.35" y1="67.52" x2="26.16" y2="67.52"/><line class="cls-2" x1="32.07" y1="72.4" x2="19.19" y2="72.4"/><line class="cls-2" x1="50.89" y1="72.4" x2="64.26" y2="72.4"/><polyline class="cls-1" points="39.35 75.15 39.35 81.89 44.15 81.89 44.15 75.15"/><polyline class="cls-1" points="44.15 70.36 44.15 63.62 39.35 63.62 39.35 70.36"/><polyline class="cls-1" points="39.35 70.36 32.61 70.36 32.61 75.15 39.35 75.15"/><polyline class="cls-1" points="44.15 75.15 50.89 75.15 50.89 70.36 44.15 70.36"/></svg>