<svg id="Artwork" xmlns="http://www.w3.org/2000/svg" viewBox="0 0 100 100"><defs><style>.cls-1,.cls-2{fill:none;stroke-width:1.5px;}.cls-1{stroke:#f47c00;stroke-miterlimit:10;}.cls-2{stroke:#002d6a;stroke-linecap:round;stroke-linejoin:round;}</style></defs><title>Artboard 1</title><line class="cls-1" x1="17.91" y1="63.02" x2="17.91" y2="36.98"/><circle class="cls-1" cx="50" cy="12.53" r="5.87"/><circle class="cls-1" cx="50" cy="87.47" r="5.87"/><line class="cls-1" x1="50" y1="36.91" x2="50" y2="18.4"/><line class="cls-1" x1="50" y1="81.6" x2="50" y2="63.05"/><circle class="cls-1" cx="17.71" cy="69.01" r="5.87"/><circle class="cls-1" cx="82.29" cy="30.99" r="5.87"/><line class="cls-1" x1="30.35" y1="61.57" x2="22.77" y2="66.03"/><line class="cls-1" x1="77.23" y1="33.97" x2="66.27" y2="40.42"/><circle class="cls-1" cx="82.29" cy="69.01" r="5.87"/><circle class="cls-1" cx="17.71" cy="30.99" r="5.87"/><line class="cls-1" x1="70.1" y1="61.83" x2="77.23" y2="66.03"/><line class="cls-1" x1="22.77" y1="33.97" x2="33.9" y2="40.52"/><line class="cls-1" x1="82.35" y1="63.15" x2="82.35" y2="37.11"/><line class="cls-1" x1="55.09" y1="84.54" x2="77.19" y2="71.83"/><line class="cls-1" x1="44.92" y1="84.45" x2="22.75" y2="71.7"/><line class="cls-1" x1="55.02" y1="15.59" x2="76.94" y2="28.2"/><line class="cls-1" x1="45.23" y1="15.54" x2="23.02" y2="28.32"/><path class="cls-2" d="M71.53,60.44a8.64,8.64,0,0,0-5.83-14.3,9.15,9.15,0,0,0,.86-3.88,9.25,9.25,0,0,0-18.15-2.53,8.87,8.87,0,0,0-15.68,5.68c0,.12,0,.24,0,.36a9.11,9.11,0,0,0,3.17,17.65H64.63l.36,0,.37,0h0c.22,0,.44,0,.65-.05A7.67,7.67,0,0,0,71.53,60.44Z"/></svg>