<?xml version="1.0" encoding="UTF-8"?>
<svg id="Layer_1" data-name="Layer 1" xmlns="http://www.w3.org/2000/svg" version="1.1" viewBox="0 0 591.8 187.1">
  <g id="Layer_2" data-name="Layer 2">
    <g id="Layer_1-2" data-name="Layer 1-2">
      <path d="M315.8,20.6c7.3-7.5,16.3-13.2,26.1-16.7,9.2-3.3,19-4.5,28.7-3.5,2.2.2,3.5,1.7,3.3,3.4-.2,1.9-1.9,3-4.1,2.8-19.8-1.5-36.6,5.2-50.3,19.4-2.3,2.3-3.2,2.4-6,.8-22.2-13.3-44.8-14.5-67.6-1.5-7.3,4.2-12.5,10.6-17.3,17.3-3,4.2-2.9,5.6-9.4,2.5-11.5-5.5-23.9-8.8-36.6-9.8-13.2-.9-26,1-37.6,7.8-2.8,1.8-5.5,3.9-8,6.1-1.6,1.4-3.2,1.6-4.6.4-1.3-1-1.5-2.8-.6-4,.1-.2.3-.4.5-.5,2.6-2.5,5.3-4.8,8.3-6.8,10.1-6.3,21.3-9,33-9.4,16.5-.6,32,3.5,46.9,10.1,1.9.8,2.7.4,3.8-1.1,8.2-12.1,19.1-20.6,33.1-24.7,19.6-5.8,38.3-3.5,56.1,6.3.7.4,1.3.7,2.1,1.2Z" fill="#fff" stroke-width="0"/>
      <path d="M372.4,95.5c-.7,8.8-6.4,17.4-13.2,22.6-13.3,10.3-36,10.7-47.6-2.4-5.7-6.4-8.5-15.1-8.5-26.2,0-11.8,3.1-21.3,9.4-28.5,6.3-7.1,14.6-10.7,25.1-10.7,10.3,0,17.9,3.9,22.6,11.6h.3V17.5h12.1v32.4c0,14.4-.3,28.9,0,43.3,0,.7,0,1.5,0,2.2ZM360.4,91.2v-10.6c.1-5.5-2.1-10.8-6-14.7-4-4-9.6-6.2-15.3-6-7.3,0-13.1,2.6-17.3,7.7-4.2,5.1-6.3,12.2-6.3,21.3,0,8.3,2,14.8,6.1,19.6,4,4.8,9.5,7.2,16.3,7.2s12.2-2.3,16.3-6.9,6.3-10.4,6.3-17.5Z" fill="#fff" stroke-width="0"/>
      <path d="M78.6,119.6c-7.8,3.9-17.5,5.9-29.1,5.9-15,0-27-4.6-36-13.8S0,90.5,0,75.5c0-16,5.1-29,15.2-38.9,10.1-9.9,23-14.8,38.6-14.8,10,0,18.3,1.4,24.8,4.1v12.5c-7.7-4-16.3-6.1-25-6-12.1,0-21.9,3.8-29.4,11.5s-11.3,18-11.3,30.9c0,12.2,3.5,22,10.5,29.2s16.2,10.9,27.7,10.9c10.6,0,19.7-2.2,27.5-6.7v11.4Z" fill="#fff" stroke-width="0"/>
      <path d="M110.5,123.8h-12.1V17.7h12.1v106.1Z" fill="#fff" stroke-width="0"/>
      <path d="M166.3,125.5c-11.1,0-20-3.3-26.6-10-6.6-6.7-10-15.6-10-26.6,0-12,3.5-21.4,10.4-28.2s16.2-10.1,28-10.1c11.2,0,20,3.3,26.3,9.9s9.4,15.7,9.4,27.4c0,11.4-3.4,20.6-10.2,27.5-6.8,6.9-15.9,10.3-27.3,10.3ZM167.2,60.1c-7.7,0-13.9,2.5-18.4,7.5-4.5,5-6.8,11.9-6.8,20.7,0,8.5,2.3,15.2,6.8,20.1,4.6,4.9,10.7,7.3,18.3,7.3s13.8-2.4,18-7.2c4.2-4.8,6.3-11.6,6.3-20.5,0-9-2.1-15.9-6.3-20.7-4.2-4.9-10.2-7.3-18-7.3h0Z" fill="#fff" stroke-width="0"/>
      <path d="M283.9,123.8h-12v-11.3h-.3c-5,8.7-12.7,13-23.2,13-17.9,0-26.9-10.2-26.9-30.5v-42.8h12v41c0,15.1,6.1,22.7,18.2,22.7,5.5.2,10.8-2.1,14.5-6.2,3.8-4.1,5.7-9.5,5.7-16.2v-41.3h12v71.7Z" fill="#fff" stroke-width="0"/>
      <path d="M397.6,123.8V23.5h33.4c10.2,0,18.3,2.1,24.2,6.4,6,4.2,8.9,9.8,8.9,16.6.1,5.4-1.7,10.6-5.1,14.8-3.6,4.4-8.5,7.5-14,9v.3c7.2.8,13,3.3,17.4,7.7,4.3,4.3,6.5,9.9,6.5,16.8,0,8.6-3.6,15.5-10.7,20.9-7.1,5.3-16.1,8-26.9,8h-33.8ZM415,36.8v28.5h11.3c6.1,0,10.8-1.4,14.3-4.1,3.5-2.7,5.2-6.6,5.2-11.6,0-8.6-6-12.9-18.1-12.9h-12.7ZM415,78.7v31.8h14.9c6.5,0,11.5-1.4,15.1-4.3s5.3-6.8,5.3-11.9c0-10.4-7.6-15.6-22.7-15.6h-12.6Z" fill="#fff" stroke-width="0"/>
      <path d="M503.7,123.8h-17.1V17.7h17.1v106.1Z" fill="#fff" stroke-width="0"/>
      <path d="M591.5,123.8h-17v-11.3h-.3c-4.9,8.7-12.6,13-23.1,13-17.8,0-26.7-10.2-26.7-30.5v-42.8h17v41.1c0,12.9,5.2,19.3,15.6,19.3,4.7.1,9.3-1.8,12.5-5.3,3.3-3.5,4.9-8.2,4.9-13.9v-41.2h17v71.7Z" fill="#fff" stroke-width="0"/>
      <path d="M354,186.6v-34.8h5.1c1,0,1.9.6,2.1,1.5l.6,2.8c.7-.7,1.4-1.4,2.2-2,.8-.6,1.6-1.1,2.5-1.5.9-.4,1.8-.8,2.8-1,1.1-.2,2.2-.3,3.3-.3,1.7,0,3.5.3,5.1,1,1.4.6,2.7,1.5,3.7,2.7,1,1.2,1.8,2.6,2.2,4.2.5,1.7.8,3.5.8,5.4v22.2h-8.4v-22.2c.1-1.8-.4-3.5-1.5-4.9-1.1-1.2-2.8-1.9-4.4-1.7-1.4,0-2.8.3-4.1,1-1.3.7-2.5,1.6-3.6,2.7v25.2h-8.4Z" fill="#fff" stroke-width="0"/>
      <path d="M405.7,151.2c2.1,0,4.1.3,6.1,1.1,1.8.7,3.4,1.7,4.8,3.1,1.4,1.4,2.4,3.1,3.1,5,.8,2.1,1.2,4.4,1.1,6.7,0,.5,0,1.1,0,1.6,0,.3-.1.7-.3,1-.1.2-.3.4-.6.5-.3.1-.6.2-1,.2h-21.5c.2,3.6,1.2,6.2,2.9,7.9,1.8,1.7,4.2,2.6,6.7,2.5,1.2,0,2.4-.1,3.5-.5.9-.3,1.8-.6,2.6-1.1.7-.4,1.4-.7,1.9-1.1.5-.3,1-.5,1.6-.5.3,0,.6,0,.9.2.3.1.5.3.6.6l2.4,3.1c-.9,1.1-2,2-3.1,2.7-1.1.7-2.3,1.3-3.6,1.8-1.2.4-2.5.8-3.8.9-1.3.2-2.5.3-3.8.3-2.3,0-4.6-.4-6.8-1.2-2-.8-3.9-2-5.4-3.6-1.6-1.7-2.8-3.7-3.6-5.8-.9-2.6-1.4-5.3-1.3-8.1,0-2.3.4-4.6,1.2-6.7.7-2,1.9-3.9,3.3-5.5,1.5-1.6,3.3-2.8,5.3-3.7,2.2-.9,4.6-1.4,7-1.4ZM405.8,157.2c-2.1-.1-4.2.6-5.7,2.1-1.5,1.6-2.4,3.7-2.6,5.9h15.8c0-1-.1-2.1-.4-3.1-.3-.9-.7-1.8-1.4-2.5-.6-.7-1.4-1.3-2.3-1.7-1-.4-2.1-.7-3.3-.6h0Z" fill="#fff" stroke-width="0"/>
      <path d="M422,151.7h6.7c.6,0,1.1.1,1.6.4.4.3.7.7.8,1.1l5,18.6c.3,1,.5,2,.7,3,.2,1,.3,1.9.5,2.9.2-1,.5-1.9.8-2.9s.6-2,.9-3l5.8-18.7c.1-.5.4-.8.8-1.1.4-.3.9-.5,1.4-.4h3.7c.5,0,1.1.1,1.5.4.4.3.7.7.8,1.1l5.7,19c.3,1,.6,1.9.8,2.8.2.9.5,1.8.7,2.8.2-1,.3-1.9.5-2.9.2-1,.4-2,.7-3l5.2-18.6c.1-.5.4-.9.8-1.1.4-.3,1-.5,1.5-.4h6.4l-11,34.8h-6.8c-.7,0-1.2-.5-1.6-1.5l-6.3-20.1c-.2-.7-.4-1.3-.6-2s-.3-1.3-.4-2c-.1.7-.3,1.4-.4,2-.2.7-.3,1.3-.5,2l-6.4,20.1c-.2.9-.9,1.5-1.8,1.5h-6.4l-11-34.8Z" fill="#fff" stroke-width="0"/>
      <path d="M500.6,151.2c2.1,0,4.1.3,6.1,1.1,1.8.7,3.4,1.7,4.8,3.1,1.4,1.4,2.4,3.1,3.1,5,.8,2.1,1.2,4.4,1.1,6.7,0,.5,0,1.1,0,1.6,0,.3-.1.7-.3,1-.1.2-.3.4-.6.5-.3.1-.6.2-1,.2h-21.5c.2,3.6,1.2,6.2,2.9,7.9,1.8,1.7,4.2,2.6,6.7,2.5,1.2,0,2.4-.1,3.5-.5.9-.3,1.8-.6,2.6-1.1.7-.4,1.4-.7,1.9-1.1.5-.3,1-.5,1.6-.5.3,0,.6,0,.9.2.3.1.5.3.6.6l2.4,3.1c-.9,1.1-2,2-3.1,2.7-1.1.7-2.3,1.3-3.6,1.8-1.2.4-2.5.8-3.8.9-1.3.2-2.5.3-3.8.3-2.3,0-4.6-.4-6.8-1.2-2-.8-3.9-2-5.4-3.6-1.6-1.7-2.8-3.7-3.6-5.8-.9-2.6-1.4-5.3-1.3-8.1,0-2.3.4-4.6,1.2-6.7.7-2,1.9-3.9,3.3-5.5,1.5-1.6,3.3-2.8,5.3-3.7,2.2-.9,4.6-1.4,7-1.4ZM500.8,157.2c-2.1-.1-4.2.6-5.7,2.1-1.5,1.6-2.4,3.7-2.6,5.9h15.8c0-1-.1-2.1-.4-3.1-.3-.9-.7-1.8-1.4-2.5-.6-.7-1.4-1.3-2.3-1.7-1-.4-2.1-.7-3.3-.6h0Z" fill="#fff" stroke-width="0"/>
      <path d="M521.2,186.6v-34.8h4.9c.6,0,1.3.1,1.8.5.4.5.6,1,.7,1.6l.5,4.2c1.1-2,2.6-3.7,4.4-5.1,1.6-1.2,3.6-1.9,5.6-1.9,1.5,0,3,.4,4.3,1.2l-1.1,6.3c0,.3-.2.6-.4.9-.3.2-.6.3-.9.3-.5,0-.9-.1-1.4-.2-.8-.2-1.6-.3-2.3-.2-1.6,0-3.2.5-4.5,1.4-1.4,1.1-2.5,2.6-3.2,4.2v21.7h-8.4Z" fill="#fff" stroke-width="0"/>
      <path d="M573.9,186.6h-3.8c-.6,0-1.3,0-1.9-.4-.5-.3-.9-.8-1-1.4l-.7-2.5c-.8.7-1.7,1.4-2.6,2.1-.8.6-1.7,1.1-2.6,1.5-.9.4-1.9.7-2.9.9-1.1.2-2.3.3-3.4.3-1.4,0-2.8-.2-4.1-.6-1.2-.4-2.3-1-3.2-1.8-.9-.8-1.6-1.8-2.1-3-.5-1.3-.8-2.7-.7-4.1,0-1.4.4-2.7,1-3.9.8-1.4,2-2.6,3.4-3.5,2-1.2,4.2-2.1,6.4-2.6,3.3-.8,6.6-1.1,10-1.2v-2c0-2.3-.5-4.1-1.5-5.2-1.1-1.2-2.7-1.8-4.3-1.7-1.2,0-2.3.1-3.4.5-.8.3-1.6.6-2.4,1.1-.7.4-1.3.8-1.9,1.1-.6.3-1.2.5-1.9.5-.5,0-1-.1-1.5-.4-.4-.3-.7-.7-1-1.1l-1.5-2.7c3.9-3.6,9.1-5.6,14.5-5.5,1.9,0,3.7.3,5.5,1,1.5.6,2.9,1.6,4.1,2.8,1.1,1.2,2,2.7,2.5,4.3.6,1.7.9,3.6.9,5.4v22ZM557.6,181.4c.8,0,1.6,0,2.4-.2.7-.2,1.4-.4,2.1-.7.7-.3,1.3-.7,1.9-1.2.6-.5,1.3-1.1,1.8-1.6v-5.9c-2.1,0-4.1.3-6.1.6-1.4.2-2.7.6-4,1.2-.8.4-1.6.9-2.1,1.7-.4.6-.6,1.3-.6,2.1-.1,1.2.4,2.4,1.3,3.2,1,.7,2.2,1,3.4,1h0Z" fill="#fff" stroke-width="0"/>
      <path d="M581.5,182c0-.7.1-1.4.4-2,.2-.6.6-1.2,1.1-1.6.5-.5,1-.8,1.6-1.1.6-.3,1.3-.4,2-.4.7,0,1.4.1,2,.4,1.2.5,2.2,1.5,2.7,2.7.5,1.3.5,2.7,0,4-.3.6-.6,1.1-1.1,1.6-.5.5-1,.8-1.6,1.1-.6.3-1.3.4-2,.4-.7,0-1.4-.1-2-.4-.6-.2-1.2-.6-1.6-1.1-.5-.5-.8-1-1.1-1.6-.3-.6-.4-1.3-.4-2Z" fill="#fff" stroke-width="0"/>
      <path d="M313.5,170.6h0v2h-2.3v-21h2.3v9.3h0c1-1.8,2.9-2.9,4.9-2.8,1.6,0,3.2.6,4.3,1.9,1.1,1.5,1.6,3.3,1.5,5.1.1,2-.5,4.1-1.7,5.7-1.1,1.4-2.9,2.2-4.7,2.1-1.8,0-3.4-.8-4.3-2.4ZM313.5,164.9v2c0,1.1.4,2.2,1.1,3,1.6,1.6,4.1,1.6,5.8,0,.1-.1.3-.3.4-.4.9-1.3,1.3-2.8,1.2-4.4,0-1.3-.3-2.6-1.1-3.7-.7-.9-1.8-1.4-3-1.3-1.2,0-2.4.5-3.2,1.4-.8,1-1.2,2.2-1.2,3.5h0Z" fill="#fff" stroke-width="0"/>
      <path d="M339.1,158.5l-6.5,16.4c-1.2,2.9-2.8,4.4-4.9,4.4-.5,0-1,0-1.5-.2v-2c.4.2.9.2,1.3.2,1.2,0,2.3-.9,2.6-2l1.1-2.7-5.5-14.1h2.5l3.8,10.9c0,.1.1.5.3,1.1h0c0-.2.1-.6.3-1.1l4-10.9h2.4Z" fill="#fff" stroke-width="0"/>
    </g>
  </g>
</svg>