<?xml version="1.0" encoding="UTF-8"?><svg id="Layer_1" xmlns="http://www.w3.org/2000/svg" viewBox="0 0 76.35 83.5"><defs><style>.cls-1{fill:#002d6a;}.cls-1,.cls-2{stroke:#f98e2c;}.cls-1,.cls-2,.cls-3{stroke-linecap:round;stroke-linejoin:round;stroke-width:1.5px;}.cls-2,.cls-3{fill:none;}.cls-3{stroke:#fff;}</style></defs><path class="cls-3" d="M67.06,47.16c2.08-.77,3.89-2.11,5.25-3.83,2.05-2.36,3.3-5.43,3.3-8.81,0-7.06-5.44-12.83-12.35-13.39.85-1.83,1.33-3.87,1.33-6.02,0-7.93-6.43-14.37-14.37-14.37-6.57,0-12.09,4.41-13.81,10.43-2.53-3.02-6.32-4.95-10.57-4.95-7.61,0-13.77,6.17-13.77,13.77,0,.19.02.37.03.56-5.38,2-9.22,7.17-9.22,13.24,0,7.81,6.33,14.14,14.14,14.14"/><path class="cls-1" d="M22.14,16.85v-3.42h-2.01c-.23-1.17-.69-2.27-1.33-3.22l1.42-1.42-2.42-2.42-1.42,1.42c-.96-.64-2.05-1.1-3.22-1.33v-2.01h-3.42v2.01c-1.17.23-2.27.69-3.22,1.33l-1.42-1.42-2.42,2.42,1.42,1.42c-.64.96-1.1,2.05-1.33,3.22H.75v3.42h2.01c.23,1.17.69,2.27,1.33,3.22l-1.42,1.42,2.42,2.42,1.42-1.42c.96.64,2.05,1.1,3.22,1.33v2.01h3.42v-2.01c1.17-.23,2.27-.69,3.22-1.33l1.42,1.42,2.42-2.42-1.42-1.42c.64-.96,1.1-2.05,1.33-3.22h2.01Z"/><circle class="cls-3" cx="11.45" cy="15.14" r="5.49"/><rect class="cls-2" x="32.26" y="48.73" width="13.96" height="34.02"/><polygon class="cls-2" points="46.22 48.73 32.26 48.73 33.8 41.75 44.68 41.75 46.22 48.73"/><line class="cls-2" x1="35.81" y1="54.2" x2="41.79" y2="54.2"/><line class="cls-2" x1="35.81" y1="58.82" x2="41.79" y2="58.82"/><line class="cls-2" x1="35.81" y1="63.43" x2="41.79" y2="63.43"/><line class="cls-2" x1="35.81" y1="68.05" x2="41.79" y2="68.05"/><line class="cls-2" x1="35.81" y1="72.66" x2="41.79" y2="72.66"/><line class="cls-2" x1="35.81" y1="77.28" x2="41.79" y2="77.28"/><rect class="cls-2" x="46.11" y="48.73" width="13.96" height="34.02"/><line class="cls-2" x1="49.65" y1="54.2" x2="55.64" y2="54.2"/><line class="cls-2" x1="49.65" y1="58.82" x2="55.64" y2="58.82"/><line class="cls-2" x1="49.65" y1="63.43" x2="55.64" y2="63.43"/><line class="cls-2" x1="49.65" y1="68.05" x2="55.64" y2="68.05"/><line class="cls-2" x1="49.65" y1="72.66" x2="55.64" y2="72.66"/><line class="cls-2" x1="49.65" y1="77.28" x2="55.64" y2="77.28"/><rect class="cls-2" x="18.41" y="48.73" width="13.96" height="34.02"/><line class="cls-2" x1="21.96" y1="54.2" x2="27.94" y2="54.2"/><line class="cls-2" x1="21.96" y1="58.82" x2="27.94" y2="58.82"/><line class="cls-2" x1="21.96" y1="63.43" x2="27.94" y2="63.43"/><line class="cls-2" x1="21.96" y1="68.05" x2="27.94" y2="68.05"/><line class="cls-2" x1="21.96" y1="72.66" x2="27.94" y2="72.66"/><line class="cls-2" x1="21.96" y1="77.28" x2="27.94" y2="77.28"/><polyline class="cls-2" points="32.38 48.73 18.41 48.73 19.95 43.8"/><line class="cls-2" x1="20.28" y1="43.8" x2="28.72" y2="43.8"/><polyline class="cls-2" points="46.11 48.73 60.07 48.73 58.53 43.8"/><line class="cls-2" x1="58.2" y1="43.8" x2="49.76" y2="43.8"/></svg>