<?xml version="1.0" encoding="utf-8"?>
<!-- Generator: Adobe Illustrator 24.3.0, SVG Export Plug-In . SVG Version: 6.00 Build 0)  -->
<svg version="1.1" id="Layer_1" xmlns="http://www.w3.org/2000/svg" xmlns:xlink="http://www.w3.org/1999/xlink" x="0px" y="0px"
	 viewBox="0 0 100 100" style="enable-background:new 0 0 100 100;" xml:space="preserve">
<style type="text/css">
	.st0{fill:#F47C00;}
	.st1{fill:#FFFFFF;}
	.st2{fill:#F47C00;stroke:#FFFFFF;stroke-width:0.5;stroke-miterlimit:10;}
	.st3{fill:#F47C00;stroke:#FFFFFF;stroke-width:0.25;stroke-miterlimit:10;}
	.st4{fill:none;stroke:#002D6A;stroke-width:1.5;stroke-linecap:round;stroke-linejoin:round;}
</style>
<g>
	<g>
		<circle class="st0" cx="50" cy="68.3" r="17"/>
		<g>
			<path class="st1" d="M42.8,63c-0.3,0.1-0.3-0.1-0.5-0.3l0,0c0-0.2-0.2-0.2-0.3-0.2c-0.3,0-0.6-0.1-0.9-0.1
				c-0.1,0-0.3-0.2-0.5-0.5c-0.2,0.1-0.5,0.1-0.6,0.2L40,62.2c0,0.1-0.1,0.1-0.1,0.1c-0.3,0.1-0.7,0.2-1,0.2
				c0.2-0.2,0.6-0.3,0.8-0.6l0,0c-0.6,0.2-1,0.3-1.6,0.6h-0.1c0,0.1-0.1,0.1-0.2,0.2c-0.8,0.3-1.5,0.6-2.3,0.9
				c-0.1,0-0.2,0.1-0.2,0.1c-0.1,0.1-0.2,0.1-0.3,0c0.3-0.1,0.6-0.3,0.9-0.5c0.3-0.1,0.7-0.3,1-0.5c0.1,0,0.1-0.1,0.1-0.1l0,0
				c-0.3,0-0.7,0-1.2,0c0.1-0.1,0.2-0.2,0.3-0.5c-0.2,0-0.3,0.1-0.5,0.1c0-0.1-0.1-0.2,0-0.3V62c0-0.1,0.1-0.2,0.2-0.3
				c0.2-0.1,0.6-0.2,0.8-0.3c0.1,0,0.2,0,0.2-0.1H37c0.2-0.1,0.6-0.1,0.8-0.2c0.2-0.1,0.5-0.2,0.7-0.3c-0.5,0-0.9,0-1.4,0
				c0-0.1,0.1-0.2,0.1-0.3l0.1-0.1c0.3-0.1,0.7-0.1,1.2-0.2l0,0c0.1,0,0.1,0.1,0.2,0.1c0.2,0,0.5-0.1,0.7-0.1c0-0.1,0-0.1-0.1-0.1
				c-0.1-0.1-0.2-0.2-0.3-0.3c-0.1-0.1-0.1-0.2,0.1-0.2s0.3-0.1,0.6-0.1s0.5-0.1,0.6-0.2c0.3-0.1,0.7-0.2,1-0.3c0,0,0,0,0.1,0
				c0.3,0,0.7,0,0.9,0s0.5,0,0.7-0.1c0.1,0,0.1,0,0.2,0c0.9,0.2,1.8,0.3,2.8,0.3c0.1,0,0.2,0.1,0.3,0.1c0,0,0.1,0.1,0.1,0
				c0.2-0.1,0.3,0,0.5,0.1c0.1,0,0.2,0.1,0.2,0c0.2-0.2,0.6-0.1,0.9-0.2c0.2,0,0.3-0.1,0.6-0.1s0.3,0,0.6,0c0.1,0,0.2,0,0.3-0.1
				c0,0,0.1,0,0.2,0l0,0c0,0.1,0,0.2,0.2,0.2c0.1,0,0.2,0.1,0.3-0.1c0,0,0,0,0.1,0c0.2,0,0.3,0,0.6,0s0.5,0.1,0.7,0.2h0.1
				c0.1,0,0.2,0,0.5,0c0.1,0,0.2,0.1,0.1,0.2c-0.1,0-0.1,0-0.2,0c0,0.1,0.1,0.2,0.2,0.2c0.3,0,0.7-0.1,0.9-0.1h0.1
				c0.1,0,0.2,0,0.3,0c0.1-0.2,0.5-0.2,0.6-0.2c0.2,0,0.3,0,0.5,0.1c0.1,0.2,0.3,0.1,0.6,0.1s0.5,0,0.7,0c0.1,0,0.2-0.1,0.3-0.1
				s0.3,0,0.5,0v0.1c0.3-0.2,0.7-0.2,0.9-0.6c-0.1-0.1-0.1-0.1-0.2-0.2c0.1-0.2,0.3-0.5,0.6-0.6c0.1-0.1,0.2,0,0.3-0.1
				c0,0,0.1,0,0.1,0.1c0.1,0.1,0,0.3-0.1,0.5c0,0,0,0-0.1,0.1h0.1c0.1,0.1,0.2,0.1,0.1,0.3v0.1h0.1c0.1,0,0.1-0.1,0.2-0.1
				c0.1,0,0.1,0,0.2,0c0,0.1,0,0.1,0,0.2c0,0,0,0,0,0.1c-0.1,0.1-0.1,0.1,0,0.2c0,0,0.1,0.1,0.2,0c0.1,0,0.2-0.1,0.3-0.2
				c0.2-0.1,0.3-0.3,0.6-0.6c0.1,0,0.1-0.1,0.2-0.1h0.1c0.2,0,0.3,0,0.5,0.2c-0.1,0.1-0.1,0.1-0.2,0.2c-0.1,0.1-0.1,0.1-0.1,0.2
				c0,0,0,0.1-0.1,0.1c-0.2,0.1-0.3,0.2-0.6,0.3c0,0-0.1,0-0.2,0c-0.2-0.1-0.5,0-0.8,0l0,0c-0.1,0.2-0.2,0.2-0.5,0.2
				c-0.1,0-0.2,0.1-0.3,0.2c-0.3,0.1-0.6,0.3-0.9,0.5c-0.1,0.1-0.2,0.1-0.3,0.2h-0.2c-0.8,0.1-1.5,0.6-2,1.4c0,0,0,0,0,0.1
				c0.1,0,0.2,0,0.3,0c-0.1,0.2-0.1,0.5-0.2,0.7c0.1,0,0.2-0.1,0.3-0.1c0.1,0,0.2,0,0.2,0c0.3,0.2,0.7,0.5,1,0.6
				c0.1,0.1,0.3,0.1,0.5,0.1c0.1,0,0.2,0.1,0.5,0.1c-0.5,0.3-0.6,0.8-0.3,1.3c0.1,0.2,0.1,0.2,0.3,0.1c0.3-0.1,0.5-0.3,0.6-0.6
				c0-0.2,0.1-0.5,0.2-0.6c0.1-0.1,0.3-0.1,0.6-0.2c0.2-0.1,0.3-0.2,0.6-0.3c0.3-0.3,0.5-0.6,0.2-1c0.1-0.1,0.2-0.1,0.3-0.2
				c0.1-0.1,0.2-0.3,0.2-0.6c0,0,0-0.1,0.1-0.1c0-0.1,0.1-0.1,0.1-0.2c0-0.2,0.2-0.3,0.5-0.3c0.1,0,0.3,0.1,0.5,0.1
				c0.1,0,0.2,0,0.3,0h0.1c0.1,0.1,0.3,0.1,0.2,0.3l0.1,0.1c0.2,0.1,0.2,0.1,0.1,0.3c-0.1,0.3-0.1,0.3,0.2,0.6
				c0.1,0.1,0.3,0.1,0.5,0c0.2-0.1,0.5-0.3,0.8-0.5c0.1,0.3,0.2,0.7,0.3,1v0.1c-0.1,0.1,0,0.2,0,0.3c0.1,0.3,0.2,0.5,0.6,0.6
				c0.1,0,0.2,0.1,0.1,0.2c0,0.1,0,0.1,0.1,0.2c0.2,0.1,0.2,0.1,0.1,0.3c-0.1,0.3-0.2,0.5-0.6,0.5c-0.2,0-0.5,0.1-0.6,0.2
				c-0.2,0.2-0.6,0.3-0.9,0.2c-0.2,0-0.5,0-0.6,0c-0.3,0-0.7,0-1,0c-0.1,0-0.1,0-0.2,0.1c0,0.1-0.1,0.1-0.2,0.1
				c-0.3,0.1-0.8,0.3-0.9,0.7c0.2-0.1,0.3-0.2,0.6-0.2c0.2-0.1,0.6-0.2,0.9-0.2c0.2,0,0.2,0,0.5,0.2c-0.1,0.1-0.3,0.1-0.5,0.2
				c0.1,0.1,0.1,0.1,0,0.2c0,0,0,0,0,0.1s0,0.1,0,0.2c0,0.2,0.1,0.3,0.3,0.3c0.1,0,0.3,0,0.5,0.1c-0.2,0.1-0.5,0.2-0.8,0.2
				s-0.5,0.2-0.7,0.3c-0.1,0.1-0.1,0.1-0.3,0c0.1-0.1,0.1-0.2,0.2-0.2c0.1-0.1,0.2-0.2,0.5-0.3c0.1-0.1,0.1-0.1,0.1-0.2h-0.1
				c-0.3,0.1-0.8,0.2-1.2,0.5l0,0c-0.3,0-0.5,0.2-0.8,0.3c-0.2,0.1-0.5,0.3-0.5,0.6c0,0,0,0.1-0.1,0.1C58.4,68.9,58.2,69,58,69
				c-0.2,0-0.5,0.1-0.7,0.2l0,0c-0.1,0.1-0.2,0.3-0.3,0.5c-0.1,0.2-0.3,0.3-0.5,0.6c0-0.1,0-0.1,0-0.2l0,0c0,0.2-0.1,0.5-0.2,0.7
				c0,0.1-0.1,0.3-0.1,0.5c0,0,0,0.1-0.1,0.1s-0.1,0.1-0.1,0.2c0,0,0,0.1-0.1,0.1c-0.2,0.1-0.5,0.1-0.6,0.3h-0.1
				c-0.6,0.3-1.2,0.7-1.4,1.4c0,0.1,0,0.1,0,0.2c0.1,0.3,0.1,0.7,0.2,1c0,0.2,0,0.5-0.2,0.6c-0.1,0.1-0.2,0.1-0.3-0.1
				c0-0.1-0.1-0.2-0.1-0.3c-0.1-0.2-0.1-0.5-0.1-0.7c0-0.2,0-0.3-0.2-0.5l-0.1-0.1c-0.1,0-0.2,0.1-0.3,0.1c-0.2-0.3-0.3-0.3-0.7-0.3
				c-0.3,0.1-0.7,0.1-0.9,0.1c0.1,0,0.1,0.1,0.1,0.2c-0.1,0-0.2,0-0.3,0c-0.1,0-0.2,0-0.3,0c-0.2,0-0.5,0-0.7-0.1h-0.1
				c-0.3,0.1-0.7,0.2-1,0.5c-0.2,0.2-0.6,0.3-0.6,0.8c0,0.1,0,0.3-0.1,0.5c-0.3,0.6-0.3,1.2-0.3,1.7c0,0.3,0.2,0.7,0.5,0.9
				c0.1,0.1,0.2,0.2,0.3,0.3h0.1c0.2-0.1,0.6-0.1,0.8-0.1s0.3-0.1,0.5-0.2c0.1-0.2,0.2-0.5,0.2-0.7c0-0.1,0-0.1,0.1-0.1
				s0.3-0.1,0.5-0.1c0.2,0,0.5,0,0.7,0.1c-0.3,0.2-0.2,0.6-0.3,0.8c0,0.1-0.1,0.2-0.1,0.3c-0.1,0.2-0.3,0.5-0.3,0.8
				c0,0.1-0.1,0.1-0.2,0.2c0.1,0.1,0.2,0.1,0.3,0.1c0.2,0,0.5,0,0.7-0.1c0.3,0,0.6,0,0.8,0.2c0.1,0.1,0,0.3,0,0.5
				c0,0.1-0.1,0.3-0.1,0.5c0,0.2-0.1,0.5-0.1,0.7c0,0.1,0,0.3,0.1,0.5s0.2,0.2,0.5,0.3c0.1,0.1,0.3,0.1,0.5,0c0.1,0,0.1,0,0.2-0.1
				c0.3-0.2,0.6-0.1,0.9,0.1c0.1,0.1,0.1,0.2,0.1,0.3c0,0.1-0.1,0.1-0.1,0.2c-0.2-0.1-0.1-0.2-0.1-0.3c0,1-0.1,0.9-0.2,0.9
				c0,0-0.1-0.1-0.2,0c-0.1,0-0.2,0.1-0.2,0.1c-0.1,0-0.1,0.1-0.1,0.2v0.1c-0.1,0-0.2,0-0.2,0c-0.1-0.2-0.3-0.2-0.6-0.3
				c0,0-0.1,0-0.1-0.1c-0.1-0.2-0.3-0.3-0.5-0.5c0,0,0,0-0.1,0s-0.2,0-0.2-0.2c0-0.1,0.1-0.3,0.3-0.3c-0.1-0.1-0.2-0.2-0.3-0.3
				l-0.1,0.1c0-0.1-0.1-0.1-0.1-0.2s0-0.1-0.1-0.2s-0.2-0.2-0.3-0.2c-0.2,0-0.5-0.1-0.7-0.2l0,0c-0.1-0.2-0.2-0.1-0.3-0.1
				s-0.1,0-0.2-0.1c-0.2-0.2-0.5-0.6-0.8-0.7c-0.1,0-0.1,0-0.2,0c-0.1,0-0.1,0-0.2,0.1c-0.2,0.1-0.5,0-0.7-0.1
				c-0.3-0.1-0.7-0.3-0.9-0.5c-0.1,0-0.2-0.1-0.2-0.1c-0.1-0.1-0.3-0.1-0.5-0.2c0,0,0,0-0.1,0c-0.2-0.1-0.2-0.3-0.5-0.3
				s-0.2-0.3-0.2-0.5v-0.1c0.1-0.2,0.1-0.5,0.1-0.7l0,0c-0.3-0.3-0.5-0.9-0.9-1.2c0,0-0.1-0.1-0.1-0.2c0-0.1,0-0.2-0.1-0.3
				c-0.1-0.1-0.1-0.2-0.1-0.3c0,0,0-0.1-0.1-0.1c-0.3-0.3-0.5-0.7-0.3-1.2v-0.1c0-0.1-0.1-0.1-0.1-0.1c-0.1,0-0.1,0-0.2-0.1
				c-0.1,0-0.2,0-0.2,0.1s-0.1,0.2-0.1,0.5c0,0.1,0,0.2,0.1,0.2c0.3,0.5,0.3,0.9,0.6,1.5c0.1,0.2,0.1,0.5,0.1,0.6s0.1,0.1,0.1,0.2
				c0.1,0.1,0.1,0.2,0,0.5c-0.1-0.1-0.1-0.2-0.2-0.3C43.1,77,43.1,77,43,76.9c-0.1-0.1-0.1-0.2-0.1-0.3c0-0.2-0.1-0.3-0.2-0.5
				c-0.1-0.1-0.2-0.2-0.3-0.3c0-0.1,0-0.2,0.1-0.2c0.2-0.1,0.2-0.2,0.1-0.3c0,0,0,0,0-0.1c-0.2-0.2-0.2-0.6-0.2-0.8
				c0-0.3-0.1-0.6-0.1-0.9v-0.1c-0.2-0.1-0.3-0.3-0.7-0.5c-0.1,0-0.1-0.1-0.1-0.1c0-0.3,0-0.7,0-0.9c0-0.1,0-0.3-0.1-0.5
				s-0.1-0.3,0-0.5c0,0,0.1-0.1,0-0.1c-0.1-0.2,0.1-0.2,0.1-0.3c0.1-0.1,0.1-0.3,0.2-0.5c0-0.1,0.1-0.2,0.2-0.3
				c0.6-0.7,1-1.3,1.4-2.1l0.1-0.1c-0.1-0.2-0.5-0.5-0.5-0.8c0.1,0,0.3,0,0.5,0.1l0.1,0.1c0.1,0.1,0.1,0.3,0.2,0.5
				c0,0,0.1,0.1,0.2,0.1c0.1-0.3-0.1-0.5-0.2-0.7c-0.1-0.1-0.1-0.2-0.2-0.2h-0.1c-0.1,0-0.2-0.1-0.1-0.2c0.1-0.2,0.1-0.6,0-0.8
				c0-0.2,0-0.3,0.2-0.5v-0.1c-0.1-0.2-0.1-0.6-0.2-0.8v-0.1C42.8,63.2,42.8,63.2,42.8,63z"/>
		</g>
	</g>
	<g>
		<path class="st2" d="M45,63.8c0,0-1.2,1.2-1.4,2.7c-0.3,1.7,2.7,5.2,4.2,6.7c1.4,1.4,6.4,5.7,8.3,5c1.8-0.7,2.3-1.4,2.3-1.4
			l-3.9-3.8c0,0-0.8,1.2-1.4,0.5c-0.5-0.5-3.9-3.9-4.6-4.6c-0.5-0.5,0.6-1.4,0.6-1.4L45,63.8z"/>
		<path class="st3" d="M45.6,63.3l3.7,3.7c0.8-1,1.2-0.7-0.7-2.5C46.9,62.7,46.7,62.3,45.6,63.3z"/>
		<path class="st2" d="M54.9,72.6l3.8,3.8c0.8-1.2,1-0.7-0.8-2.5C56.1,71.9,56,71.5,54.9,72.6z"/>
	</g>
</g>
<path class="st4" d="M69.3,72.5h7c4.9,0,9.4-1.4,12.5-5.4c5.7-6.5,5-16.4-1.5-22.1c-2.5-2.2-5.7-3.5-9-3.8
	c3.9-8.4,0.3-18.4-8.1-22.3S51.8,18.6,47.9,27c-0.4,0.8-0.7,1.7-0.9,2.6c-5.7-6.8-15.9-7.7-22.7-2c-3.7,3.1-5.8,7.6-5.8,12.4
	c0,0.2,0,0.4,0,0.7c-8.6,3-12.9,12.5-9.7,21.1c2.4,6.4,8.5,10.7,15.4,10.7h7"/>
</svg>
