<?xml version="1.0" encoding="utf-8"?>
<!-- Generator: Adobe Illustrator 23.0.3, SVG Export Plug-In . SVG Version: 6.00 Build 0)  -->
<svg version="1.1" id="Layer_1" xmlns="http://www.w3.org/2000/svg" xmlns:xlink="http://www.w3.org/1999/xlink" x="0px" y="0px"
	 viewBox="0 0 400 400" style="enable-background:new 0 0 400 400;" xml:space="preserve">
<style type="text/css">
	.st0{opacity:5.000000e-02;fill:#2195F2;}
	.st1{fill:#002D6A;}
	.st2{fill:#FFFFFF;stroke:#4BC7E9;stroke-miterlimit:10;}
	.st3{fill:#FFFFFF;stroke:#002D6A;stroke-linecap:round;stroke-linejoin:round;stroke-miterlimit:10;}
	.st4{fill:#FFFFFF;}
	.st5{fill:none;stroke:#002D6A;stroke-linecap:round;stroke-linejoin:round;stroke-miterlimit:10;}
	.st6{fill:none;stroke:#4BC7E9;stroke-linecap:round;stroke-linejoin:round;stroke-miterlimit:10;}
</style>
<g>
	<circle class="st0" cx="189.2" cy="222.1" r="151.3"/>
	<g>
		<g>
			<rect x="119.7" y="268.8" class="st1" width="0.5" height="2.1"/>
			<rect x="119.7" y="273.1" class="st1" width="0.5" height="2.1"/>
			<rect x="119.7" y="277.3" class="st1" width="0.5" height="2.1"/>
			<rect x="119.7" y="281.5" class="st1" width="0.5" height="2.1"/>
			<rect x="119.7" y="285.8" class="st1" width="0.5" height="2.1"/>
			<rect x="119.7" y="298.5" class="st1" width="0.5" height="2.1"/>
			<rect x="119.7" y="294.2" class="st1" width="0.5" height="2.1"/>
			<rect x="119.7" y="264.6" class="st1" width="0.5" height="2.1"/>
			<rect x="119.7" y="290" class="st1" width="0.5" height="2.1"/>
			<rect x="119.7" y="251.9" class="st1" width="0.5" height="2.1"/>
			<rect x="119.7" y="230.7" class="st1" width="0.5" height="2.1"/>
			<rect x="119.7" y="239.2" class="st1" width="0.5" height="2.1"/>
			<rect x="119.7" y="243.4" class="st1" width="0.5" height="2.1"/>
			<rect x="119.7" y="235" class="st1" width="0.5" height="2.1"/>
			<rect x="119.7" y="260.4" class="st1" width="0.5" height="2.1"/>
			<path class="st1" d="M119.7,228.6h0.5v-0.5c-0.2,0-0.3,0.1-0.5,0.1V228.6z"/>
			<rect x="119.7" y="256.1" class="st1" width="0.5" height="2.1"/>
			<rect x="119.7" y="247.7" class="st1" width="0.5" height="2.1"/>
			<polygon class="st1" points="120.3,303.3 120.3,302.7 119.7,302.7 119.7,304.2 121,303.5 120.8,303 			"/>
			
				<rect x="190.5" y="262.3" transform="matrix(0.8661 -0.5 0.5 0.8661 -105.5904 130.9346)" class="st1" width="2.1" height="0.5"/>
			
				<rect x="201.3" y="256.1" transform="matrix(0.8661 -0.5 0.5 0.8661 -101.0579 135.4684)" class="st1" width="2.1" height="0.5"/>
			
				<rect x="197.7" y="258.1" transform="matrix(0.8661 -0.5 0.5 0.8661 -102.5687 133.9571)" class="st1" width="2.1" height="0.5"/>
			
				<rect x="194.1" y="260.2" transform="matrix(0.8661 -0.5 0.5 0.8661 -104.0796 132.4458)" class="st1" width="2.1" height="0.5"/>
			<rect x="208.4" y="251.9" transform="matrix(0.8661 -0.5 0.5 0.8661 -98.0363 138.4909)" class="st1" width="2.1" height="0.5"/>
			<rect x="204.8" y="254" transform="matrix(0.8661 -0.5 0.5 0.8661 -99.5471 136.9796)" class="st1" width="2.1" height="0.5"/>
			
				<rect x="222.7" y="243.7" transform="matrix(0.8661 -0.4999 0.4999 0.8661 -91.9877 144.5192)" class="st1" width="2.1" height="0.5"/>
			
				<rect x="226.3" y="241.6" transform="matrix(0.8661 -0.4999 0.4999 0.8661 -90.4771 146.0303)" class="st1" width="2.1" height="0.5"/>
			<rect x="212" y="249.9" transform="matrix(0.8661 -0.5 0.5 0.8661 -96.5254 140.0021)" class="st1" width="2.1" height="0.5"/>
			<rect x="215.6" y="247.8" transform="matrix(0.8661 -0.5 0.5 0.8661 -95.0146 141.5134)" class="st1" width="2.1" height="0.5"/>
			<rect x="219.1" y="245.8" transform="matrix(0.8661 -0.5 0.5 0.8661 -93.5038 143.0246)" class="st1" width="2.1" height="0.5"/>
			<rect x="187" y="264.3" transform="matrix(0.8661 -0.5 0.5 0.8661 -107.1012 129.4233)" class="st1" width="2.1" height="0.5"/>
			
				<rect x="161.9" y="278.8" transform="matrix(0.8666 -0.499 0.499 0.8666 -117.4885 118.5178)" class="st1" width="2.1" height="0.5"/>
			
				<rect x="158.3" y="280.8" transform="matrix(0.8666 -0.499 0.499 0.8666 -118.9936 117.0073)" class="st1" width="2.1" height="0.5"/>
			
				<rect x="154.8" y="282.9" transform="matrix(0.8666 -0.499 0.499 0.8666 -120.4987 115.4968)" class="st1" width="2.1" height="0.5"/>
			
				<rect x="151.2" y="284.9" transform="matrix(0.8666 -0.499 0.499 0.8666 -122.0038 113.9863)" class="st1" width="2.1" height="0.5"/>
			
				<rect x="165.5" y="276.7" transform="matrix(0.8666 -0.499 0.499 0.8666 -115.9835 120.0283)" class="st1" width="2.1" height="0.5"/>
			
				<rect x="172.6" y="272.6" transform="matrix(0.8661 -0.5 0.5 0.8661 -113.1445 123.3783)" class="st1" width="2.1" height="0.5"/>
			
				<rect x="179.8" y="268.5" transform="matrix(0.8661 -0.5 0.5 0.8661 -110.1229 126.4008)" class="st1" width="2.1" height="0.5"/>
			
				<rect x="169.1" y="274.6" transform="matrix(0.8666 -0.499 0.499 0.8666 -114.4784 121.5388)" class="st1" width="2.1" height="0.5"/>
			<rect x="183.4" y="266.4" transform="matrix(0.8661 -0.5 0.5 0.8661 -108.612 127.9121)" class="st1" width="2.1" height="0.5"/>
			
				<rect x="176.2" y="270.5" transform="matrix(0.8661 -0.5 0.5 0.8661 -111.6337 124.8896)" class="st1" width="2.1" height="0.5"/>
			
				<rect x="229.9" y="239.6" transform="matrix(0.8661 -0.4999 0.4999 0.8661 -88.9664 147.5415)" class="st1" width="2.1" height="0.5"/>
			
				<rect x="254.9" y="225.1" transform="matrix(0.8661 -0.4999 0.4999 0.8661 -78.392 158.1195)" class="st1" width="2.1" height="0.5"/>
			
				<rect x="140.4" y="291.1" transform="matrix(0.8666 -0.499 0.499 0.8666 -126.5191 109.4548)" class="st1" width="2.1" height="0.5"/>
			
				<rect x="136.9" y="293.2" transform="matrix(0.8666 -0.499 0.499 0.8666 -128.0241 107.9443)" class="st1" width="2.1" height="0.5"/>
			
				<rect x="276.3" y="212.7" transform="matrix(0.8661 -0.4999 0.4999 0.8661 -69.3282 167.1863)" class="st1" width="2.1" height="0.5"/>
			
				<rect x="144" y="289.1" transform="matrix(0.8666 -0.499 0.499 0.8666 -125.014 110.9653)" class="st1" width="2.1" height="0.5"/>
			
				<rect x="272.8" y="214.8" transform="matrix(0.8661 -0.4999 0.4999 0.8661 -70.8389 165.6752)" class="st1" width="2.1" height="0.5"/>
			
				<rect x="133.3" y="295.2" transform="matrix(0.8666 -0.499 0.499 0.8666 -129.5292 106.4338)" class="st1" width="2.1" height="0.5"/>
			
				<rect x="122.6" y="301.4" transform="matrix(0.8666 -0.499 0.499 0.8666 -134.0445 101.9023)" class="st1" width="2.1" height="0.5"/>
			
				<rect x="147.6" y="287" transform="matrix(0.8666 -0.499 0.499 0.8666 -123.5089 112.4758)" class="st1" width="2.1" height="0.5"/>
			
				<rect x="129.7" y="297.3" transform="matrix(0.8666 -0.499 0.499 0.8666 -131.0343 104.9233)" class="st1" width="2.1" height="0.5"/>
			
				<rect x="126.1" y="299.4" transform="matrix(0.8666 -0.499 0.499 0.8666 -132.5394 103.4128)" class="st1" width="2.1" height="0.5"/>
			
				<rect x="247.7" y="229.2" transform="matrix(0.8661 -0.4999 0.4999 0.8661 -81.4133 155.0972)" class="st1" width="2.1" height="0.5"/>
			
				<rect x="269.2" y="216.9" transform="matrix(0.8661 -0.4999 0.4999 0.8661 -72.3495 164.164)" class="st1" width="2.1" height="0.5"/>
			
				<rect x="244.2" y="231.3" transform="matrix(0.8661 -0.4999 0.4999 0.8661 -82.9239 153.586)" class="st1" width="2.1" height="0.5"/>
			
				<rect x="237" y="235.4" transform="matrix(0.8661 -0.4999 0.4999 0.8661 -85.9452 150.5638)" class="st1" width="2.1" height="0.5"/>
			
				<rect x="240.6" y="233.4" transform="matrix(0.8661 -0.4999 0.4999 0.8661 -84.4345 152.0749)" class="st1" width="2.1" height="0.5"/>
			
				<rect x="251.3" y="227.2" transform="matrix(0.8661 -0.4999 0.4999 0.8661 -79.9026 156.6083)" class="st1" width="2.1" height="0.5"/>
			
				<rect x="233.4" y="237.5" transform="matrix(0.8661 -0.4999 0.4999 0.8661 -87.4558 149.0526)" class="st1" width="2.1" height="0.5"/>
			
				<rect x="265.6" y="218.9" transform="matrix(0.8661 -0.4999 0.4999 0.8661 -73.8601 162.6529)" class="st1" width="2.1" height="0.5"/>
			
				<rect x="258.5" y="223" transform="matrix(0.8661 -0.4999 0.4999 0.8661 -76.8814 159.6306)" class="st1" width="2.1" height="0.5"/>
			
				<rect x="262" y="221" transform="matrix(0.8661 -0.4999 0.4999 0.8661 -75.3708 161.1418)" class="st1" width="2.1" height="0.5"/>
			<polygon class="st1" points="280.7,210.8 279.9,211.2 280.2,211.7 281.2,211.1 281.2,209.9 280.7,209.9 			"/>
			<polygon class="st1" points="280.2,211.7 280.2,211.7 280.2,211.7 			"/>
			<rect x="280.7" y="172.4" class="st1" width="0.5" height="2.1"/>
			<rect x="280.7" y="164.1" class="st1" width="0.5" height="2.1"/>
			<rect x="280.7" y="155.8" class="st1" width="0.5" height="2.1"/>
			<rect x="280.7" y="151.6" class="st1" width="0.5" height="2.1"/>
			<rect x="280.7" y="160" class="st1" width="0.5" height="2.1"/>
			<rect x="280.7" y="147.5" class="st1" width="0.5" height="2.1"/>
			<rect x="280.7" y="143.3" class="st1" width="0.5" height="2.1"/>
			<path class="st1" d="M280.7,137.1h0.5v-2c-0.2,0.2-0.3,0.3-0.5,0.5V137.1z"/>
			<rect x="280.7" y="139.2" class="st1" width="0.5" height="2.1"/>
			<rect x="280.7" y="193.2" class="st1" width="0.5" height="2.1"/>
			<rect x="280.7" y="205.7" class="st1" width="0.5" height="2.1"/>
			<rect x="280.7" y="189.1" class="st1" width="0.5" height="2.1"/>
			<rect x="280.7" y="168.3" class="st1" width="0.5" height="2.1"/>
			<rect x="280.7" y="201.6" class="st1" width="0.5" height="2.1"/>
			<rect x="280.7" y="197.4" class="st1" width="0.5" height="2.1"/>
			<rect x="280.7" y="184.9" class="st1" width="0.5" height="2.1"/>
			<rect x="280.7" y="176.6" class="st1" width="0.5" height="2.1"/>
			<rect x="280.7" y="180.8" class="st1" width="0.5" height="2.1"/>
			<path class="st1" d="M280.7,135v0.6c0.2-0.2,0.3-0.3,0.5-0.5V135H280.7z"/>
			<rect x="280.7" y="131.9" class="st1" width="0.5" height="1"/>
		</g>
		<g>
			<rect x="206.6" y="200.3" class="st1" width="0.5" height="2.1"/>
			<rect x="206.6" y="196.1" class="st1" width="0.5" height="2.1"/>
			<rect x="206.6" y="183.6" class="st1" width="0.5" height="2.1"/>
			<rect x="206.6" y="187.8" class="st1" width="0.5" height="2.1"/>
			<polygon class="st1" points="206.6,181.5 207.1,181.5 207.1,179.5 206.8,179.5 206.6,179.6 			"/>
			<rect x="206.6" y="216.9" class="st1" width="0.5" height="2.1"/>
			<rect x="206.6" y="204.4" class="st1" width="0.5" height="2.1"/>
			<rect x="206.6" y="212.7" class="st1" width="0.5" height="2.1"/>
			<rect x="206.6" y="208.6" class="st1" width="0.5" height="2.1"/>
			<rect x="206.6" y="191.9" class="st1" width="0.5" height="2.1"/>
			<rect x="206.6" y="175.3" class="st1" width="0.5" height="2.1"/>
			<rect x="206.6" y="171.1" class="st1" width="0.5" height="2.1"/>
			<polygon class="st1" points="206.6,179.6 206.8,179.5 206.6,179.5 			"/>
		</g>
	</g>
	<path class="st2" d="M295.3,181.4v23.9c0,2.4,1.3,4.7,3.4,5.9l21.2,12.3c3.3,1.9,7.5-0.5,7.5-4.3v-23.9c0-2.4-1.3-4.7-3.4-5.9
		l-21.2-12.3C299.5,175.1,295.3,177.5,295.3,181.4z"/>
	<path class="st2" d="M323.4,163.3v11c0,2.1,1.1,4,2.9,5l9.9,5.7c3.1,1.8,6.9-0.4,6.9-4v-11c0-2.1-1.1-4-2.9-5l-9.9-5.7
		C327.3,157.5,323.4,159.8,323.4,163.3z"/>
	<path class="st2" d="M302.1,228.3v15.9c0,1.3,0.7,2.5,1.8,3.1l14.1,8.2c1.7,1,3.8-0.2,3.8-2.2v-15.9c0-1.3-0.7-2.5-1.8-3.1
		l-14.1-8.2C304.2,225.2,302.1,226.4,302.1,228.3z"/>
	<path class="st2" d="M337.6,205.1v16.1c0,2.2,1.2,4.2,3.1,5.3l14.4,8.3c3.1,1.8,7.1-0.5,7.1-4.1v-16.1c0-2.2-1.2-4.2-3.1-5.3
		l-14.4-8.3C341.6,199.2,337.6,201.5,337.6,205.1z"/>
	<g>
		<g>
			<g>
				<path class="st3" d="M165.2,245.3c0-2.2,1.3-4.4,3.4-5.7c0,0,0.1,0,0.1,0c0.8-0.5,1.6-0.9,2.4-1.4c1.8-1,3.6-2.1,5.5-3.1
					c2.6-1.5,5.3-3,7.9-4.5c3.2-1.9,6.5-3.7,9.7-5.6c3.7-2.1,7.3-4.2,11-6.4c3.9-2.3,7.8-4.5,11.7-6.8c4-2.3,7.9-4.6,11.9-6.8
					c3.8-2.2,7.6-4.4,11.4-6.6c3.5-2,6.9-4,10.4-6c1-0.6,1.9-1.1,2.9-1.7v0l0.1-0.1c0.1-0.1,0.2-0.1,0.3-0.2v0l10.1-5.8
					c2.4-1.4,5.4,0.3,5.4,3.1l0,69.9c0,2.2-1.3,4.4-3.4,5.7c0,0-0.1,0-0.1,0c-0.8,0.5-1.6,0.9-2.4,1.4c-1.8,1-3.6,2.1-5.4,3.1
					c-1.4,0.8-2.7,1.6-4.1,2.4v0.8l-83.4,47.8c-2.4,1.4-5.4-0.3-5.4-3.1L165.2,245.3z"/>
				<g>
					<path class="st4" d="M166.8,245.9c0-2.2,1.3-4.4,3.4-5.7c0,0,0.1,0,0.1,0c0.8-0.5,1.6-0.9,2.4-1.4c1.8-1,3.6-2.1,5.5-3.1
						c2.6-1.5,5.3-3,7.9-4.5c3.2-1.9,6.5-3.7,9.7-5.6c3.7-2.1,7.3-4.2,11-6.4c3.9-2.3,7.8-4.5,11.7-6.8c4-2.3,7.9-4.6,11.9-6.8
						c3.8-2.2,7.6-4.4,11.4-6.6c3.5-2,6.9-4,10.4-6c1-0.6,1.9-1.1,2.9-1.7v0l0.1-0.1c0.1-0.1,0.2-0.1,0.3-0.2v0l10.1-5.8
						c2.4-1.4,5.4,0.3,5.4,3.1l0,69.9c0,2.2-1.3,4.4-3.4,5.7c0,0-0.1,0-0.1,0c-0.8,0.5-1.6,0.9-2.4,1.4c-1.8,1-3.6,2.1-5.4,3.1
						c-1.4,0.8-2.7,1.6-4.1,2.4v0.8l-83.4,47.8c-2.4,1.4-5.4-0.3-5.4-3.1L166.8,245.9z"/>
					<path class="st5" d="M166.8,245.9c0-2.2,1.3-4.4,3.4-5.7c0,0,0.1,0,0.1,0c0.8-0.5,1.6-0.9,2.4-1.4c1.8-1,3.6-2.1,5.5-3.1
						c2.6-1.5,5.3-3,7.9-4.5c3.2-1.9,6.5-3.7,9.7-5.6c3.7-2.1,7.3-4.2,11-6.4c3.9-2.3,7.8-4.5,11.7-6.8c4-2.3,7.9-4.6,11.9-6.8
						c3.8-2.2,7.6-4.4,11.4-6.6c3.5-2,6.9-4,10.4-6c1-0.6,1.9-1.1,2.9-1.7v0l0.1-0.1c0.1-0.1,0.2-0.1,0.3-0.2v0l10.1-5.8
						c2.4-1.4,5.4,0.3,5.4,3.1l0,69.9c0,2.2-1.3,4.4-3.4,5.7c0,0-0.1,0-0.1,0c-0.8,0.5-1.6,0.9-2.4,1.4c-1.8,1-3.6,2.1-5.4,3.1
						c-1.4,0.8-2.7,1.6-4.1,2.4v0.8l-83.4,47.8c-2.4,1.4-5.4-0.3-5.4-3.1L166.8,245.9z"/>
				</g>
				<g>
					<g>
						<g>
							<polygon class="st4" points="171.2,322.3 171.2,318.6 174.9,319.8 173.5,321.9 							"/>
							<polygon class="st5" points="171.2,322.3 171.2,318.6 174.9,319.8 173.5,321.9 							"/>
						</g>
						<polygon class="st3" points="330.6,298.9 330.6,295.3 327,295.3 328.8,299.7 						"/>
						<g>
							<g>
								<polygon class="st4" points="268.4,256.2 268.5,192.5 170.4,248.4 170.4,312.9 								"/>
								<polygon class="st5" points="268.4,256.2 268.5,192.5 170.4,248.4 170.4,312.9 								"/>
							</g>
							<path class="st3" d="M269.1,263.8l-97,55.6c-2,1.2-4.4,0.2-5.1-1.8l103.9-60v0.9C270.9,261.6,270.2,263.1,269.1,263.8z"/>
							<polygon class="st3" points="170.3,248.4 268.6,191.7 268.6,197.8 170.3,254.4 							"/>
						</g>
						<g>
							<path class="st4" d="M330,298.1c0.9,0.5,0.9,1.3,0,1.8l-97.6,56.5c-0.9,0.5-2.3,0.5-3.1,0l-57.4-33.2c-0.9-0.5-0.9-1.3,0-1.8
								l97.7-56.4c0.9-0.5,2.3-0.5,3.1,0L330,298.1z"/>
							<path class="st5" d="M330,298.1c0.9,0.5,0.9,1.3,0,1.8l-97.6,56.5c-0.9,0.5-2.3,0.5-3.1,0l-57.4-33.2c-0.9-0.5-0.9-1.3,0-1.8
								l97.7-56.4c0.9-0.5,2.3-0.5,3.1,0L330,298.1z"/>
						</g>
						<g>
							<g>
								<g>
									<path class="st4" d="M183.8,310.8c0.9-0.5,1.9-0.7,2.4-0.4s1.5,0.1,2.4-0.4L256,271c0.9-0.5,1.2-1.1,0.7-1.4
										c-0.5-0.3-0.1-0.9,0.7-1.4l12-6.9c0.9-0.5,2.3-0.5,3.1,0l57.4,33.1c0.9,0.5,0.9,1.3,0,1.8l-97.6,56.5
										c-0.9,0.5-2.3,0.5-3.1,0l-57.4-33.2c-0.9-0.5-0.9-1.3,0-1.8L183.8,310.8z"/>
									<path class="st5" d="M183.8,310.8c0.9-0.5,1.9-0.7,2.4-0.4s1.5,0.1,2.4-0.4L256,271c0.9-0.5,1.2-1.1,0.7-1.4
										c-0.5-0.3-0.1-0.9,0.7-1.4l12-6.9c0.9-0.5,2.3-0.5,3.1,0l57.4,33.1c0.9,0.5,0.9,1.3,0,1.8l-97.6,56.5
										c-0.9,0.5-2.3,0.5-3.1,0l-57.4-33.2c-0.9-0.5-0.9-1.3,0-1.8L183.8,310.8z"/>
								</g>
							</g>
						</g>
						<g>
							<path class="st3" d="M275.8,303.5l16.5,9.6c0.7,0.4,0.7,1,0,1.4l-27.5,15.8c-1.1,0.6-1.6,0.7-2.5,0.5l-16.6-9.7
								c-0.5-0.4-0.6-1-0.2-1.3l28.4-16.3C274.5,303.2,275.2,303.1,275.8,303.5z"/>
						</g>
						<g>
							<g>
								<g>
									<path class="st4" d="M263.6,289.5c0.3,0.2,0.3,0.5,0,0.7l-4.8,2.8c-0.3,0.2-0.9,0.2-1.2,0l-4.2-2.5c-0.3-0.2-0.3-0.5,0-0.7
										l4.8-2.8c0.3-0.2,0.9-0.2,1.2,0L263.6,289.5z"/>
									<path class="st5" d="M263.6,289.5c0.3,0.2,0.3,0.5,0,0.7l-4.8,2.8c-0.3,0.2-0.9,0.2-1.2,0l-4.2-2.5c-0.3-0.2-0.3-0.5,0-0.7
										l4.8-2.8c0.3-0.2,0.9-0.2,1.2,0L263.6,289.5z"/>
								</g>
								<g>
									<path class="st4" d="M270.7,285.4c0.3,0.2,0.3,0.5,0,0.7l-4.4,2.6c-0.3,0.2-0.9,0.2-1.2,0l-4.2-2.5c-0.3-0.2-0.3-0.5,0-0.7
										l4.4-2.6c0.3-0.2,0.9-0.2,1.2,0L270.7,285.4z"/>
									<path class="st5" d="M270.7,285.4c0.3,0.2,0.3,0.5,0,0.7l-4.4,2.6c-0.3,0.2-0.9,0.2-1.2,0l-4.2-2.5c-0.3-0.2-0.3-0.5,0-0.7
										l4.4-2.6c0.3-0.2,0.9-0.2,1.2,0L270.7,285.4z"/>
								</g>
								<g>
									<path class="st4" d="M267.9,282.1c-0.3-0.2-0.3-0.5,0-0.7l4.3-2.5c0.3-0.2,0.9-0.2,1.2,0l4.2,2.5c0.3,0.2,0.3,0.5,0,0.7
										l-4.3,2.5c-0.3,0.2-0.9,0.2-1.2,0L267.9,282.1z"/>
									<path class="st5" d="M267.9,282.1c-0.3-0.2-0.3-0.5,0-0.7l4.3-2.5c0.3-0.2,0.9-0.2,1.2,0l4.2,2.5c0.3,0.2,0.3,0.5,0,0.7
										l-4.3,2.5c-0.3,0.2-0.9,0.2-1.2,0L267.9,282.1z"/>
								</g>
								<g>
									<path class="st4" d="M256.2,293.8c0.3,0.2,0.3,0.5,0,0.7l-4.7,2.7c-0.3,0.2-0.9,0.2-1.2,0l-4.2-2.5c-0.3-0.2-0.3-0.5,0-0.7
										l4.7-2.7c0.3-0.2,0.9-0.2,1.2,0L256.2,293.8z"/>
									<path class="st5" d="M256.2,293.8c0.3,0.2,0.3,0.5,0,0.7l-4.7,2.7c-0.3,0.2-0.9,0.2-1.2,0l-4.2-2.5c-0.3-0.2-0.3-0.5,0-0.7
										l4.7-2.7c0.3-0.2,0.9-0.2,1.2,0L256.2,293.8z"/>
								</g>
								<g>
									<path class="st4" d="M248.8,298c0.3,0.2,0.3,0.5,0,0.7l-4.3,2.5c-0.3,0.2-0.9,0.2-1.2,0l-4.2-2.5c-0.3-0.2-0.3-0.5,0-0.7
										l4.3-2.5c0.3-0.2,0.9-0.2,1.2,0L248.8,298z"/>
									<path class="st5" d="M248.8,298c0.3,0.2,0.3,0.5,0,0.7l-4.3,2.5c-0.3,0.2-0.9,0.2-1.2,0l-4.2-2.5c-0.3-0.2-0.3-0.5,0-0.7
										l4.3-2.5c0.3-0.2,0.9-0.2,1.2,0L248.8,298z"/>
								</g>
								<g>
									<path class="st4" d="M279.1,291c0.3-0.2,0.9-0.2,1.2,0l4.2,2.5c0.3,0.2,0.3,0.5,0,0.7l-4.4,2.6c-0.3,0.2-0.9,0.2-1.2,0
										l-4.2-2.5c-0.3-0.2-0.3-0.5,0-0.7L279.1,291z"/>
									<path class="st5" d="M279.1,291c0.3-0.2,0.9-0.2,1.2,0l4.2,2.5c0.3,0.2,0.3,0.5,0,0.7l-4.4,2.6c-0.3,0.2-0.9,0.2-1.2,0
										l-4.2-2.5c-0.3-0.2-0.3-0.5,0-0.7L279.1,291z"/>
								</g>
								<g>
									<path class="st4" d="M252.9,298.8c-0.3-0.2-0.3-0.5,0-0.7l4.7-2.7c0.3-0.2,0.9-0.2,1.2,0l4.4,2.6c0.3,0.2,0.3,0.5,0,0.7
										l-4.7,2.7c-0.3,0.2-0.9,0.2-1.2,0L252.9,298.8z"/>
									<path class="st5" d="M252.9,298.8c-0.3-0.2-0.3-0.5,0-0.7l4.7-2.7c0.3-0.2,0.9-0.2,1.2,0l4.4,2.6c0.3,0.2,0.3,0.5,0,0.7
										l-4.7,2.7c-0.3,0.2-0.9,0.2-1.2,0L252.9,298.8z"/>
								</g>
								<g>
									<path class="st4" d="M224.6,307.1c-0.3-0.2-0.3-0.5,0-0.7l4.4-2.5c0.3-0.2,0.9-0.2,1.2,0l4.2,2.5c0.3,0.2,0.3,0.5,0,0.7
										l-4.4,2.5c-0.3,0.2-0.9,0.2-1.2,0L224.6,307.1z"/>
									<path class="st5" d="M224.6,307.1c-0.3-0.2-0.3-0.5,0-0.7l4.4-2.5c0.3-0.2,0.9-0.2,1.2,0l4.2,2.5c0.3,0.2,0.3,0.5,0,0.7
										l-4.4,2.5c-0.3,0.2-0.9,0.2-1.2,0L224.6,307.1z"/>
								</g>
								<g>
									<path class="st4" d="M217.4,311.3c-0.3-0.2-0.3-0.5,0-0.7l4.6-2.7c0.3-0.2,0.9-0.2,1.2,0l4.2,2.5c0.3,0.2,0.3,0.5,0,0.7
										l-4.6,2.7c-0.3,0.2-0.9,0.2-1.2,0L217.4,311.3z"/>
									<path class="st5" d="M217.4,311.3c-0.3-0.2-0.3-0.5,0-0.7l4.6-2.7c0.3-0.2,0.9-0.2,1.2,0l4.2,2.5c0.3,0.2,0.3,0.5,0,0.7
										l-4.6,2.7c-0.3,0.2-0.9,0.2-1.2,0L217.4,311.3z"/>
								</g>
								<g>
									<path class="st4" d="M210.2,315.4c-0.3-0.2-0.3-0.5,0-0.7l4.5-2.6c0.3-0.2,0.9-0.2,1.2,0l4.2,2.5c0.3,0.2,0.3,0.5,0,0.7
										l-4.5,2.6c-0.3,0.2-0.9,0.2-1.2,0L210.2,315.4z"/>
									<path class="st5" d="M210.2,315.4c-0.3-0.2-0.3-0.5,0-0.7l4.5-2.6c0.3-0.2,0.9-0.2,1.2,0l4.2,2.5c0.3,0.2,0.3,0.5,0,0.7
										l-4.5,2.6c-0.3,0.2-0.9,0.2-1.2,0L210.2,315.4z"/>
								</g>
								<g>
									<path class="st4" d="M265.9,297c-0.3,0.2-0.9,0.2-1.2,0l-4.4-2.6c-0.3-0.2-0.3-0.5,0-0.7l4.8-2.8c0.3-0.2,0.9-0.2,1.2,0
										l4.4,2.6c0.3,0.2,0.3,0.5,0,0.7L265.9,297z"/>
									<path class="st5" d="M265.9,297c-0.3,0.2-0.9,0.2-1.2,0l-4.4-2.6c-0.3-0.2-0.3-0.5,0-0.7l4.8-2.8c0.3-0.2,0.9-0.2,1.2,0
										l4.4,2.6c0.3,0.2,0.3,0.5,0,0.7L265.9,297z"/>
								</g>
								<g>
									<path class="st4" d="M231.5,311.1c-0.3-0.2-0.3-0.5,0-0.7l4.4-2.5c0.3-0.2,0.9-0.2,1.2,0l4.4,2.6c0.3,0.2,0.3,0.5,0,0.7
										l-4.4,2.5c-0.3,0.2-0.9,0.2-1.2,0L231.5,311.1z"/>
									<path class="st5" d="M231.5,311.1c-0.3-0.2-0.3-0.5,0-0.7l4.4-2.5c0.3-0.2,0.9-0.2,1.2,0l4.4,2.6c0.3,0.2,0.3,0.5,0,0.7
										l-4.4,2.5c-0.3,0.2-0.9,0.2-1.2,0L231.5,311.1z"/>
								</g>
								<g>
									<path class="st4" d="M245.9,302.8c-0.3-0.2-0.3-0.5,0-0.7l4.3-2.5c0.3-0.2,0.9-0.2,1.2,0l4.4,2.6c0.3,0.2,0.3,0.5,0,0.7
										l-4.3,2.5c-0.3,0.2-0.9,0.2-1.2,0L245.9,302.8z"/>
									<path class="st5" d="M245.9,302.8c-0.3-0.2-0.3-0.5,0-0.7l4.3-2.5c0.3-0.2,0.9-0.2,1.2,0l4.4,2.6c0.3,0.2,0.3,0.5,0,0.7
										l-4.3,2.5c-0.3,0.2-0.9,0.2-1.2,0L245.9,302.8z"/>
								</g>
								<g>
									<path class="st4" d="M224.3,315.3c-0.3-0.2-0.3-0.5,0-0.7l4.6-2.7c0.3-0.2,0.9-0.2,1.2,0l4.4,2.6c0.3,0.2,0.3,0.5,0,0.7
										l-4.6,2.7c-0.3,0.2-0.9,0.2-1.2,0L224.3,315.3z"/>
									<path class="st5" d="M224.3,315.3c-0.3-0.2-0.3-0.5,0-0.7l4.6-2.7c0.3-0.2,0.9-0.2,1.2,0l4.4,2.6c0.3,0.2,0.3,0.5,0,0.7
										l-4.6,2.7c-0.3,0.2-0.9,0.2-1.2,0L224.3,315.3z"/>
								</g>
								<g>
									<path class="st4" d="M238.5,307c-0.3-0.2-0.3-0.5,0-0.7l4.7-2.7c0.3-0.2,0.9-0.2,1.2,0l4.4,2.6c0.3,0.2,0.3,0.5,0,0.7
										l-4.7,2.7c-0.3,0.2-0.9,0.2-1.2,0L238.5,307z"/>
									<path class="st5" d="M238.5,307c-0.3-0.2-0.3-0.5,0-0.7l4.7-2.7c0.3-0.2,0.9-0.2,1.2,0l4.4,2.6c0.3,0.2,0.3,0.5,0,0.7
										l-4.7,2.7c-0.3,0.2-0.9,0.2-1.2,0L238.5,307z"/>
								</g>
								<g>
									<path class="st4" d="M241.9,302c0.3,0.2,0.3,0.5,0,0.7l-4.7,2.7c-0.3,0.2-0.9,0.2-1.2,0l-4.2-2.5c-0.3-0.2-0.3-0.5,0-0.7
										l4.7-2.7c0.3-0.2,0.9-0.2,1.2,0L241.9,302z"/>
									<path class="st5" d="M241.9,302c0.3,0.2,0.3,0.5,0,0.7l-4.7,2.7c-0.3,0.2-0.9,0.2-1.2,0l-4.2-2.5c-0.3-0.2-0.3-0.5,0-0.7
										l4.7-2.7c0.3-0.2,0.9-0.2,1.2,0L241.9,302z"/>
								</g>
								<g>
									<path class="st4" d="M256.8,285.5c0.3,0.2,0.3,0.5,0,0.7l-4.8,2.8c-0.3,0.2-0.9,0.2-1.2,0l-4.2-2.4c-0.3-0.2-0.3-0.5,0-0.7
										l4.8-2.8c0.3-0.2,0.9-0.2,1.2,0L256.8,285.5z"/>
									<path class="st5" d="M256.8,285.5c0.3,0.2,0.3,0.5,0,0.7l-4.8,2.8c-0.3,0.2-0.9,0.2-1.2,0l-4.2-2.4c-0.3-0.2-0.3-0.5,0-0.7
										l4.8-2.8c0.3-0.2,0.9-0.2,1.2,0L256.8,285.5z"/>
								</g>
								<g>
									<path class="st4" d="M249.3,289.8c0.3,0.2,0.3,0.5,0,0.7l-4.7,2.7c-0.3,0.2-0.9,0.2-1.2,0l-4.2-2.4c-0.3-0.2-0.3-0.5,0-0.7
										l4.7-2.7c0.3-0.2,0.9-0.2,1.2,0L249.3,289.8z"/>
									<path class="st5" d="M249.3,289.8c0.3,0.2,0.3,0.5,0,0.7l-4.7,2.7c-0.3,0.2-0.9,0.2-1.2,0l-4.2-2.4c-0.3-0.2-0.3-0.5,0-0.7
										l4.7-2.7c0.3-0.2,0.9-0.2,1.2,0L249.3,289.8z"/>
								</g>
								<g>
									<path class="st4" d="M263.8,281.4c0.3,0.2,0.3,0.5,0,0.7l-4.4,2.6c-0.3,0.2-0.9,0.2-1.2,0l-4.2-2.4c-0.3-0.2-0.3-0.5,0-0.7
										l4.4-2.6c0.3-0.2,0.9-0.2,1.2,0L263.8,281.4z"/>
									<path class="st5" d="M263.8,281.4c0.3,0.2,0.3,0.5,0,0.7l-4.4,2.6c-0.3,0.2-0.9,0.2-1.2,0l-4.2-2.4c-0.3-0.2-0.3-0.5,0-0.7
										l4.4-2.6c0.3-0.2,0.9-0.2,1.2,0L263.8,281.4z"/>
								</g>
								<g>
									<path class="st4" d="M241.9,294c0.3,0.2,0.3,0.5,0,0.7l-4.3,2.5c-0.3,0.2-0.9,0.2-1.2,0l-4.2-2.4c-0.3-0.2-0.3-0.5,0-0.7
										l4.3-2.5c0.3-0.2,0.9-0.2,1.2,0L241.9,294z"/>
									<path class="st5" d="M241.9,294c0.3,0.2,0.3,0.5,0,0.7l-4.3,2.5c-0.3,0.2-0.9,0.2-1.2,0l-4.2-2.4c-0.3-0.2-0.3-0.5,0-0.7
										l4.3-2.5c0.3-0.2,0.9-0.2,1.2,0L241.9,294z"/>
								</g>
								<g>
									<path class="st4" d="M235,298c0.3,0.2,0.3,0.5,0,0.7l-4.7,2.7c-0.3,0.2-0.9,0.2-1.2,0l-4.2-2.4c-0.3-0.2-0.3-0.5,0-0.7
										l4.7-2.7c0.3-0.2,0.9-0.2,1.2,0L235,298z"/>
									<path class="st5" d="M235,298c0.3,0.2,0.3,0.5,0,0.7l-4.7,2.7c-0.3,0.2-0.9,0.2-1.2,0l-4.2-2.4c-0.3-0.2-0.3-0.5,0-0.7
										l4.7-2.7c0.3-0.2,0.9-0.2,1.2,0L235,298z"/>
								</g>
								<g>
									<path class="st4" d="M227.6,302.3c0.3,0.2,0.3,0.5,0,0.7l-4.4,2.5c-0.3,0.2-0.9,0.2-1.2,0l-4.2-2.4c-0.3-0.2-0.3-0.5,0-0.7
										l4.4-2.5c0.3-0.2,0.9-0.2,1.2,0L227.6,302.3z"/>
									<path class="st5" d="M227.6,302.3c0.3,0.2,0.3,0.5,0,0.7l-4.4,2.5c-0.3,0.2-0.9,0.2-1.2,0l-4.2-2.4c-0.3-0.2-0.3-0.5,0-0.7
										l4.4-2.5c0.3-0.2,0.9-0.2,1.2,0L227.6,302.3z"/>
								</g>
								<g>
									<path class="st4" d="M226.9,326.8c0.3,0.2,0.3,0.5,0,0.7l-4.6,2.6c-0.3,0.2-0.9,0.2-1.2,0l-4.2-2.4c-0.3-0.2-0.3-0.5,0-0.7
										l4.6-2.6c0.3-0.2,0.9-0.2,1.2,0L226.9,326.8z"/>
									<path class="st5" d="M226.9,326.8c0.3,0.2,0.3,0.5,0,0.7l-4.6,2.6c-0.3,0.2-0.9,0.2-1.2,0l-4.2-2.4c-0.3-0.2-0.3-0.5,0-0.7
										l4.6-2.6c0.3-0.2,0.9-0.2,1.2,0L226.9,326.8z"/>
								</g>
								<g>
									<path class="st4" d="M260.3,272c0.3-0.2,0.9-0.2,1.2,0l2.4,1.4c0.3,0.2,0.3,0.5,0,0.7l-11.3,6.6c-0.3,0.2-0.6,0.3-0.7,0.3
										c0,0-0.1,0-0.1,0.1c0,0-0.3,0.2-0.7,0.4l-42,24.3c-0.3,0.2-0.6,0.4-0.6,0.3c0,0,0,0,0,0c0,0-0.3,0.2-0.6,0.4l-13.3,7.6
										c-0.3,0.2-0.9,0.2-1.2,0l-2.3-1.4c-0.3-0.2-0.3-0.5,0-0.7L260.3,272z"/>
									<path class="st5" d="M260.3,272c0.3-0.2,0.9-0.2,1.2,0l2.4,1.4c0.3,0.2,0.3,0.5,0,0.7l-11.3,6.6c-0.3,0.2-0.6,0.3-0.7,0.3
										c0,0-0.1,0-0.1,0.1c0,0-0.3,0.2-0.7,0.4l-42,24.3c-0.3,0.2-0.6,0.4-0.6,0.3c0,0,0,0,0,0c0,0-0.3,0.2-0.6,0.4l-13.3,7.6
										c-0.3,0.2-0.9,0.2-1.2,0l-2.3-1.4c-0.3-0.2-0.3-0.5,0-0.7L260.3,272z"/>
								</g>
								<g>
									<path class="st4" d="M261.1,278.1c-0.3-0.2-0.3-0.5,0-0.7l4.3-2.5c0.3-0.2,0.9-0.2,1.2,0l4.2,2.4c0.3,0.2,0.3,0.5,0,0.7
										l-4.3,2.5c-0.3,0.2-0.9,0.2-1.2,0L261.1,278.1z"/>
									<path class="st5" d="M261.1,278.1c-0.3-0.2-0.3-0.5,0-0.7l4.3-2.5c0.3-0.2,0.9-0.2,1.2,0l4.2,2.4c0.3,0.2,0.3,0.5,0,0.7
										l-4.3,2.5c-0.3,0.2-0.9,0.2-1.2,0L261.1,278.1z"/>
								</g>
								<g>
									<path class="st4" d="M286.1,287c0.3-0.2,0.9-0.2,1.2,0l4.2,2.5c0.3,0.2,0.3,0.5,0,0.7l-4.3,2.5c-0.3,0.2-0.9,0.2-1.2,0
										l-4.2-2.5c-0.3-0.2-0.3-0.5,0-0.7L286.1,287z"/>
									<path class="st5" d="M286.1,287c0.3-0.2,0.9-0.2,1.2,0l4.2,2.5c0.3,0.2,0.3,0.5,0,0.7l-4.3,2.5c-0.3,0.2-0.9,0.2-1.2,0
										l-4.2-2.5c-0.3-0.2-0.3-0.5,0-0.7L286.1,287z"/>
								</g>
								<g>
									<path class="st4" d="M228.6,320.2c0.3-0.2,0.9-0.2,1.2,0l4.2,2.5c0.3,0.2,0.3,0.5,0,0.7l-4.5,2.6c-0.3,0.2-0.9,0.2-1.2,0
										l-4.2-2.5c-0.3-0.2-0.3-0.5,0-0.7L228.6,320.2z"/>
									<path class="st5" d="M228.6,320.2c0.3-0.2,0.9-0.2,1.2,0l4.2,2.5c0.3,0.2,0.3,0.5,0,0.7l-4.5,2.6c-0.3,0.2-0.9,0.2-1.2,0
										l-4.2-2.5c-0.3-0.2-0.3-0.5,0-0.7L228.6,320.2z"/>
								</g>
								<g>
									<path class="st4" d="M233.1,317.6c0.3-0.2,0.7-0.4,0.7-0.4c0.1,0,0.4-0.2,0.7-0.4l1.3-0.7c0.3-0.2,0.9-0.5,1.2-0.7L248,309
										c0.3-0.2,0.9-0.5,1.2-0.7l1.1-0.6c0.3-0.2,0.9-0.5,1.2-0.7l7.1-4.1c0.3-0.2,0.8-0.5,1.1-0.6c0.3-0.2,0.8-0.4,1.1-0.6l5.1-3
										c0.3-0.2,0.9-0.5,1.2-0.7l4.8-2.8c0.3-0.2,0.9-0.2,1.2,0l4.2,2.5c0.3,0.2,0.3,0.5,0,0.7l-1.5,0.9c-0.3,0.2-0.9,0.5-1.2,0.7
										l-3.5,2c-0.3,0.2-0.9,0.5-1.2,0.7l-4.7,2.7c-0.3,0.2-0.9,0.5-1.2,0.7l-7.1,4.1c-0.3,0.2-0.9,0.5-1.2,0.7l-4.7,2.7
										c-0.3,0.2-0.9,0.5-1.2,0.7l-7.2,4.2c-0.3,0.2-0.9,0.5-1.2,0.7l-4.6,2.7c-0.3,0.2-0.9,0.2-1.2,0l-4.2-2.5
										c-0.3-0.2-0.3-0.5,0-0.7L233.1,317.6z"/>
									<path class="st5" d="M233.1,317.6c0.3-0.2,0.7-0.4,0.7-0.4c0.1,0,0.4-0.2,0.7-0.4l1.3-0.7c0.3-0.2,0.9-0.5,1.2-0.7L248,309
										c0.3-0.2,0.9-0.5,1.2-0.7l1.1-0.6c0.3-0.2,0.9-0.5,1.2-0.7l7.1-4.1c0.3-0.2,0.8-0.5,1.1-0.6c0.3-0.2,0.8-0.4,1.1-0.6l5.1-3
										c0.3-0.2,0.9-0.5,1.2-0.7l4.8-2.8c0.3-0.2,0.9-0.2,1.2,0l4.2,2.5c0.3,0.2,0.3,0.5,0,0.7l-1.5,0.9c-0.3,0.2-0.9,0.5-1.2,0.7
										l-3.5,2c-0.3,0.2-0.9,0.5-1.2,0.7l-4.7,2.7c-0.3,0.2-0.9,0.5-1.2,0.7l-7.1,4.1c-0.3,0.2-0.9,0.5-1.2,0.7l-4.7,2.7
										c-0.3,0.2-0.9,0.5-1.2,0.7l-7.2,4.2c-0.3,0.2-0.9,0.5-1.2,0.7l-4.6,2.7c-0.3,0.2-0.9,0.2-1.2,0l-4.2-2.5
										c-0.3-0.2-0.3-0.5,0-0.7L233.1,317.6z"/>
								</g>
								<g>
									<path class="st4" d="M220.6,306.4c0.3,0.2,0.3,0.5,0,0.7l-4.6,2.7c-0.3,0.2-0.9,0.2-1.2,0l-4.2-2.4c-0.3-0.2-0.3-0.5,0-0.7
										l4.6-2.7c0.3-0.2,0.9-0.2,1.2,0L220.6,306.4z"/>
									<path class="st5" d="M220.6,306.4c0.3,0.2,0.3,0.5,0,0.7l-4.6,2.7c-0.3,0.2-0.9,0.2-1.2,0l-4.2-2.4c-0.3-0.2-0.3-0.5,0-0.7
										l4.6-2.7c0.3-0.2,0.9-0.2,1.2,0L220.6,306.4z"/>
								</g>
								<g>
									<path class="st4" d="M213,318.7c0.3,0.2,0.3,0.5,0,0.7l-4.7,2.7c-0.3,0.2-0.9,0.2-1.2,0l-4.2-2.5c-0.3-0.2-0.3-0.5,0-0.7
										l4.7-2.7c0.3-0.2,0.9-0.2,1.2,0L213,318.7z"/>
									<path class="st5" d="M213,318.7c0.3,0.2,0.3,0.5,0,0.7l-4.7,2.7c-0.3,0.2-0.9,0.2-1.2,0l-4.2-2.5c-0.3-0.2-0.3-0.5,0-0.7
										l4.7-2.7c0.3-0.2,0.9-0.2,1.2,0L213,318.7z"/>
								</g>
								<g>
									<path class="st4" d="M206.1,314.7c0.3,0.2,0.3,0.5,0,0.7l-4.7,2.7c-0.3,0.2-0.9,0.2-1.2,0l-4.1-2.4c-0.3-0.2-0.3-0.5,0-0.7
										l4.7-2.7c0.3-0.2,0.9-0.2,1.2,0L206.1,314.7z"/>
									<path class="st5" d="M206.1,314.7c0.3,0.2,0.3,0.5,0,0.7l-4.7,2.7c-0.3,0.2-0.9,0.2-1.2,0l-4.1-2.4c-0.3-0.2-0.3-0.5,0-0.7
										l4.7-2.7c0.3-0.2,0.9-0.2,1.2,0L206.1,314.7z"/>
								</g>
								<g>
									<path class="st4" d="M215,319.9c0,0,0.3-0.2,0.6-0.4l0.2-0.1c0.3-0.2,0.6-0.4,0.6-0.4s0.1-0.1,0.2-0.1
										c0.1-0.1,0.5-0.3,0.8-0.5l0.1,0c0.3-0.2,0.6-0.4,0.6-0.4c0,0,0.3-0.2,0.6-0.4l2.8-1.6c0.3-0.2,0.9-0.2,1.2,0l4.4,2.6
										c0.3,0.2,0.3,0.5,0,0.7l-2.8,1.6c-0.3,0.2-0.6,0.4-0.6,0.4c0,0-0.3,0.2-0.6,0.4l-4.7,2.7c-0.3,0.2-0.6,0.4-0.6,0.4
										c0,0-0.3,0.2-0.6,0.4l-1.9,1.1c-0.3,0.2-0.9,0.2-1.2,0l-4.4-2.5c-0.3-0.2-0.3-0.5,0-0.7l4.6-2.7
										C214.7,320.1,215,319.9,215,319.9z"/>
									<path class="st5" d="M215,319.9c0,0,0.3-0.2,0.6-0.4l0.2-0.1c0.3-0.2,0.6-0.4,0.6-0.4s0.1-0.1,0.2-0.1
										c0.1-0.1,0.5-0.3,0.8-0.5l0.1,0c0.3-0.2,0.6-0.4,0.6-0.4c0,0,0.3-0.2,0.6-0.4l2.8-1.6c0.3-0.2,0.9-0.2,1.2,0l4.4,2.6
										c0.3,0.2,0.3,0.5,0,0.7l-2.8,1.6c-0.3,0.2-0.6,0.4-0.6,0.4c0,0-0.3,0.2-0.6,0.4l-4.7,2.7c-0.3,0.2-0.6,0.4-0.6,0.4
										c0,0-0.3,0.2-0.6,0.4l-1.9,1.1c-0.3,0.2-0.9,0.2-1.2,0l-4.4-2.5c-0.3-0.2-0.3-0.5,0-0.7l4.6-2.7
										C214.7,320.1,215,319.9,215,319.9z"/>
								</g>
								<g>
									<path class="st4" d="M203.4,311.5c-0.3-0.2-0.3-0.5,0-0.7l4.5-2.6c0.3-0.2,0.9-0.2,1.2,0l4.2,2.4c0.3,0.2,0.3,0.5,0,0.7
										l-4.5,2.6c-0.3,0.2-0.9,0.2-1.2,0L203.4,311.5z"/>
									<path class="st5" d="M203.4,311.5c-0.3-0.2-0.3-0.5,0-0.7l4.5-2.6c0.3-0.2,0.9-0.2,1.2,0l4.2,2.4c0.3,0.2,0.3,0.5,0,0.7
										l-4.5,2.6c-0.3,0.2-0.9,0.2-1.2,0L203.4,311.5z"/>
								</g>
								<g>
									<path class="st4" d="M282,287.7c0,0-0.3,0.2-0.6,0.4l-4.7,2.7c-0.3,0.2-0.6,0.4-0.6,0.4s-0.3,0.2-0.6,0.4l-2.2,1.2
										c-0.3,0.2-0.9,0.2-1.2,0l-4.4-2.6c-0.3-0.2-0.3-0.5,0-0.7l4.4-2.6c0.3-0.2,0.6-0.4,0.6-0.4s0.3-0.2,0.6-0.4l0.2-0.1
										c0.3-0.2,0.6-0.4,0.6-0.4c0,0,0.3-0.2,0.6-0.4l4.3-2.5c0.3-0.2,0.9-0.2,1.2,0l4.4,2.6c0.3,0.2,0.3,0.5,0,0.7l-2.1,1.2
										C282.3,287.6,282,287.7,282,287.7z"/>
									<path class="st5" d="M282,287.7c0,0-0.3,0.2-0.6,0.4l-4.7,2.7c-0.3,0.2-0.6,0.4-0.6,0.4s-0.3,0.2-0.6,0.4l-2.2,1.2
										c-0.3,0.2-0.9,0.2-1.2,0l-4.4-2.6c-0.3-0.2-0.3-0.5,0-0.7l4.4-2.6c0.3-0.2,0.6-0.4,0.6-0.4s0.3-0.2,0.6-0.4l0.2-0.1
										c0.3-0.2,0.6-0.4,0.6-0.4c0,0,0.3-0.2,0.6-0.4l4.3-2.5c0.3-0.2,0.9-0.2,1.2,0l4.4,2.6c0.3,0.2,0.3,0.5,0,0.7l-2.1,1.2
										C282.3,287.6,282,287.7,282,287.7z"/>
								</g>
							</g>
						</g>
					</g>
				</g>
			</g>
		</g>
		<path class="st6" d="M232.6,239.9c-0.6,0.3-1.1,0.8-1.7,1.4c-0.1-3.6-2.4-5.2-5.1-3.6c-0.9,0.5-1.8,1.4-2.6,2.4
			c-1.3-2.2-3.8-2.8-6.6-1.2c-4.2,2.4-7.7,9-7.7,14.6c0,0,0,0,0,0.1c-2.3,1.7-4.1,5.4-4.1,8.6c0,3.3,1.9,4.9,4.3,3.8v0l23.4-13.5
			c2.6-1.5,4.7-5.6,4.7-9C237.3,239.9,235.2,238.3,232.6,239.9z"/>
		<g>
			<g>
				<polygon class="st3" points="207,276.9 207,273.9 242.5,253.5 242.5,256.4 				"/>
			</g>
		</g>
		<g>
			<g>
				<polygon class="st3" points="225.8,263.1 207,273.9 207,276.9 225.8,266 				"/>
			</g>
		</g>
	</g>
	<path class="st2" d="M293.6,60.2l-28-16.1c-1.1-0.8-2.3-1.5-3.5-2l0,0l0,0c-4.2-1.7-9.3-1.5-14.8,1l-23.2-13.4
		c-0.9-0.6-1.8-1.2-2.8-1.6l0,0l0,0c-5.5-2.4-12.3-1.8-19.7,2.4c-5,2.9-9.8,7.2-14.1,12.4l-12-7c-8.6-5.2-19.8-4.9-32.2,2.3
		c-26.8,15.5-48.5,57-48.5,92.7c0,0.1,0,0.2,0,0.4c-14.6,11.1-25.9,34.2-25.9,54.4c0,11.8,3.9,20.2,10,24l0,0l27.8,16.1l9.2-25.6
		l-2.3-0.4l130.7-75.4c16-9.2,29-33.4,29.9-54.9L293.6,60.2z"/>
	<path class="st2" d="M273.3,61.3c-3.7,2.1-7.3,5.1-10.5,8.6c-0.7-22.6-14.9-32.8-32.3-22.7c-6,3.5-11.6,8.9-16.4,15.5
		c-8.4-14.2-24-18-41.8-7.7c-26.8,15.5-48.5,57-48.5,92.7c0,0.1,0,0.2,0,0.4c-14.6,11.1-25.9,34.2-25.9,54.4
		c0,20.9,12.1,31.1,27.5,23.9v0.1l147.9-85.4c16.5-9.5,29.9-35.1,29.9-57.1C303.2,61.9,289.8,51.8,273.3,61.3z"/>
</g>
</svg>
