<?xml version="1.0" encoding="utf-8"?>
<!-- Generator: Adobe Illustrator 24.3.0, SVG Export Plug-In . SVG Version: 6.00 Build 0)  -->
<svg version="1.1" id="Layer_1" xmlns="http://www.w3.org/2000/svg" xmlns:xlink="http://www.w3.org/1999/xlink" x="0px" y="0px"
	 viewBox="0 0 100 100" style="enable-background:new 0 0 100 100;" xml:space="preserve">
<style type="text/css">
	.st0{fill:#F47C00;}
	.st1{fill:none;stroke:#002D6A;stroke-width:1.5;stroke-linecap:round;stroke-linejoin:round;}
</style>
<g>
	<g>
		<path class="st0" d="M42.6,60.3c0,0-1.2,1.2-1.4,2.8c-0.4,1.8,2.8,5.4,4.3,7c1.4,1.4,6.6,5.9,8.7,5.2c1.9-0.7,2.4-1.4,2.4-1.4
			l-4.1-4c0,0-0.8,1.2-1.4,0.5c-0.5-0.5-4.1-4.1-4.8-4.8c-0.5-0.5,0.6-1.4,0.6-1.4L42.6,60.3z"/>
		<path class="st0" d="M43.2,59.8l3.9,3.9c0.8-1.1,1.2-0.7-0.7-2.7C44.5,59.1,44.3,58.8,43.2,59.8z"/>
		<path class="st0" d="M52.8,69.5l3.9,4.1c0.8-1.2,1.2-0.8-0.7-2.8C54.2,68.8,54,68.4,52.8,69.5z"/>
	</g>
	<g>
		<path class="st0" d="M67.5,67.6c0,9.8-7.8,17.6-17.7,17.6c-9.6,0-17.5-8-17.5-17.7s8.1-17.7,17.7-17.6
			C59.8,50.1,67.5,57.9,67.5,67.6z M46,56.7c-0.1,0-0.1,0-0.1,0c-2.4,0.1-4.9,0.5-7.4,1.1c-0.8,0.2-1.7,0.6-2.5,1.1
			c-0.6,0.4-0.6,0.7,0,1.2c0.2,0.1,0.4,0.2,0.6,0.4c1,0.4,1.9,0.7,2.9,1c0.4,0.1,0.6,0.4,0.5,0.6c-0.1,0.4-0.4,0.5-0.7,0.4
			c-1.6-0.4-3-0.7-4.3-1.8c-1,2-1.4,4.2-1.6,6.5c0.1,0,0.2,0,0.4,0c2.3,0,4.6,0,6.9,0c0.1,0,0.4,0,0.4,0c0.1,0.1,0.4,0.4,0.4,0.5
			S41,67.9,40.9,68c-0.1,0.1-0.2,0-0.4,0c-2.3,0-4.6,0-6.8,0c-0.1,0-0.2,0-0.5,0c0.1,2.3,0.6,4.6,1.6,6.6c0.4-0.2,0.7-0.5,1.1-0.6
			c1.7-0.8,3.6-1.3,5.4-1.8c0.6-0.1,1.2-0.2,1.8-0.4c0.4,0,0.5,0.1,0.6,0.5c0,0.2-0.1,0.5-0.4,0.6c-0.1,0-0.2,0-0.2,0.1
			c-1.4,0.4-2.8,0.6-4.1,1.1c-1.1,0.4-2,0.8-3,1.3c-0.5,0.2-0.5,0.5,0,0.8c0.1,0.1,0.2,0.2,0.4,0.2c0.6,0.2,1.2,0.6,1.8,0.7
			c1.9,0.6,3.9,0.8,5.8,1.1c0.7,0.1,1.4,0.1,2.2,0.1c-0.1-0.8-0.2-1.7-0.4-2.5c-0.1-0.8-0.2-1.7-0.4-2.5c0-0.4,0.1-0.6,0.5-0.6
			s0.5,0.1,0.6,0.5c0,0.1,0,0.1,0,0.2c0.1,0.8,0.2,1.6,0.4,2.4c0.1,0.8,0.2,1.7,0.4,2.5c2.2,0,4.2,0,6.3,0c0.1-0.5,0.1-0.8,0.2-1.3
			c0.1-0.4,0.4-0.6,0.6-0.6c0.4,0.1,0.5,0.4,0.4,0.7c0,0.4-0.1,0.7-0.1,1.1c1.1-0.1,2-0.2,3.1-0.4c1.7-0.2,3.5-0.6,5.1-1.3
			c0.4-0.1,0.7-0.5,1.1-0.7c0.2-0.1,0.2-0.4,0-0.6s-0.5-0.6-0.7-0.8c-1.2-1.1-2.5-2-4.2-2.3c-0.5-0.1-0.6-0.5-0.4-0.8
			c0.1-0.1,0.5-0.2,0.7-0.2c0.8,0.2,1.7,0.6,2.5,1c1.2,0.6,2.3,1.6,3.1,2.8c1.1-2.2,1.7-4.5,1.7-6.9c-0.2,0-0.4,0-0.5,0
			c-3.5,0-7,0-10.6,0c-0.1,0-0.2,0-0.4,0c-0.4,0-0.5-0.2-0.5-0.5c0-0.4,0.2-0.5,0.5-0.5c0.1,0,0.2,0,0.2,0c3.5,0,7.1,0,10.6,0
			c0.1,0,0.2,0,0.5,0c-0.1-2.4-0.6-4.6-1.7-6.8c-0.4,0.2-0.6,0.5-1,0.6c-2.8,1.3-5.8,1.9-8.8,1.9c-0.4,0-0.6-0.2-0.6-0.5
			c0-0.4,0.2-0.5,0.6-0.5c0.8,0,1.7-0.1,2.4-0.2c2-0.2,4.1-0.7,5.9-1.7c0.4-0.1,0.6-0.4,1-0.6c-1.1-1.1-7.5-2.8-9.6-2.7
			c0,0.2,0.1,0.5,0.1,0.8c0,0.2,0.1,0.6,0.1,0.8c0.1,0.5-0.1,0.7-0.4,0.7c-0.4,0-0.5-0.2-0.6-0.6c-0.1-0.6-0.2-1.3-0.4-2
			c-2,0-4.1,0-6.1,0c-0.1,0-0.2,0.1-0.2,0.2c-0.1,0.5-0.2,1.1-0.4,1.7c-0.1,0.5-0.4,0.7-0.7,0.6c-0.4-0.1-0.5-0.4-0.4-0.7
			C45.7,57.8,45.8,57.2,46,56.7z M37.2,57.1c0.6-0.1,1.1-0.4,1.6-0.5c2.3-0.6,4.6-0.8,7-1c0.5,0,0.6-0.1,0.8-0.6
			c0.4-1.1,0.8-2.2,1.3-3.1c0.1-0.2,0.2-0.5,0.5-0.7C43.7,51.6,40.1,53.6,37.2,57.1z M48.2,84.1c-1-1.3-1.4-2.7-1.8-4.1
			c-0.1-0.4-0.2-0.5-0.6-0.5c-2-0.2-4.1-0.5-6.1-0.8c-0.8-0.1-1.7-0.4-2.5-0.6C40.1,81.5,43.7,83.5,48.2,84.1z M63,57.4
			c-1.7-2.9-8.1-6.5-10.6-6.1c0.8,1.2,1.3,2.5,1.7,3.9c0.1,0.4,0.4,0.5,0.7,0.5c1.8,0.4,3.7,0.6,5.5,1C61.3,56.8,62.1,57.2,63,57.4z
			 M62.8,77.9c-2.5,1-5.1,1.3-7.7,1.6c-0.8,0.1-0.8,0-1.2,1c0,0.1-0.1,0.2-0.1,0.4c-0.5,1.1-1,2.2-1.4,3.3
			C56.7,83.2,60.2,81.2,62.8,77.9z M47.4,55.5c1.9,0,3.9,0,5.8,0c-0.5-1.4-1-2.9-2-4.1c0,0-0.1,0-0.1-0.1c-0.6-0.5-1.1-0.5-1.6,0
			c-0.2,0.2-0.5,0.5-0.7,0.8C48.1,53.2,47.8,54.3,47.4,55.5z M47.3,79.6c0.2,0.7,0.5,1.4,0.8,2c0.4,0.6,0.7,1.3,1.1,1.8
			c0.6,0.7,1.2,0.7,1.9,0c1-1.1,1.4-2.5,1.9-4C51.1,79.6,49.3,79.6,47.3,79.6z"/>
	</g>
</g>
<path class="st1" d="M69.3,72.5h7c4.9,0,9.4-1.4,12.5-5.4c5.7-6.5,5-16.4-1.5-22.1c-2.5-2.2-5.7-3.5-9-3.8
	c3.9-8.4,0.3-18.4-8.1-22.3S51.8,18.6,47.9,27c-0.4,0.8-0.7,1.7-0.9,2.6c-5.7-6.8-15.9-7.7-22.7-2c-3.7,3.1-5.8,7.6-5.8,12.4
	c0,0.2,0,0.4,0,0.7c-8.6,3-12.9,12.5-9.7,21.1c2.4,6.4,8.5,10.7,15.4,10.7h7"/>
</svg>
