<?xml version="1.0" encoding="utf-8"?>
<!-- Generator: Adobe Illustrator 24.3.0, SVG Export Plug-In . SVG Version: 6.00 Build 0)  -->
<svg version="1.1" id="Artwork" xmlns="http://www.w3.org/2000/svg" xmlns:xlink="http://www.w3.org/1999/xlink" x="0px" y="0px"
	 viewBox="0 0 100 100" style="enable-background:new 0 0 100 100;" xml:space="preserve">
<style type="text/css">
	.st0{fill:none;stroke:#002D6A;stroke-width:1.5;stroke-linecap:round;stroke-linejoin:round;}
	.st1{fill:none;stroke:#F47C00;stroke-linecap:round;stroke-linejoin:round;stroke-miterlimit:10;}
	.st2{fill:none;stroke:#002D6A;stroke-linecap:round;stroke-linejoin:round;}
</style>
<path class="st0" d="M72.8,69.3h3.3c0.8,0,1.7,0,2.5-0.1c3.9-0.3,7.6-2.2,10-5.3c5.7-6.5,5-16.4-1.5-22.1c-2.5-2.2-5.7-3.5-9-3.8
	c3.9-8.4,0.3-18.4-8.1-22.3s-18.4-0.3-22.3,8.1c-0.4,0.8-0.7,1.7-0.9,2.5c-5.7-6.8-15.9-7.7-22.7-2c-3.7,3.1-5.8,7.6-5.8,12.4
	c0,0.2,0,0.4,0,0.7C9.7,40.5,5.4,50.1,8.6,58.6C11.1,65,17.2,69.3,24,69.3h3.4"/>
<g>
	<path class="st1" d="M37.1,84.3V46.3c0-1,0.8-1.8,1.8-1.8h22c1,0,1.8,0.8,1.8,1.8v37.9"/>
	<rect x="39.2" y="46.3" class="st1" width="21.6" height="30.7"/>
	<circle class="st2" cx="50.1" cy="62.4" r="6.8"/>
	<polygon class="st1" points="48.6,65.2 48.6,59.1 52.9,62.2 	"/>
	<rect x="32.4" y="84.4" class="st1" width="35.2" height="2.1"/>
</g>
</svg>
