<?xml version="1.0" encoding="UTF-8"?><svg id="Layer_1" xmlns="http://www.w3.org/2000/svg" viewBox="0 0 83.5 83.5"><defs><style>.cls-1{stroke:#f47c00;}.cls-1,.cls-2,.cls-3{stroke-linecap:round;stroke-linejoin:round;stroke-width:1.5px;}.cls-1,.cls-3{fill:none;}.cls-2{fill:#fff;}.cls-2,.cls-3{stroke:#002d6a;}</style></defs><path class="cls-3" d="m63.08,26.88h10.26c1.14,0,2.06.92,2.06,2.06v38.5c0,1.14-.92,2.06-2.06,2.06H10.21c-1.14,0-2.06-.92-2.06-2.06V28.93c0-1.14.92-2.06,2.06-2.06h53.89"/><path class="cls-3" d="m82.18,79.5l-7.32-7.17H8.64l-7.32,7.17c-1.21,1.19-.37,3.25,1.33,3.25h78.2c1.7,0,2.54-2.06,1.33-3.25Z"/><polyline class="cls-3" points="61.29 30.66 71.88 30.66 71.88 65.71 11.68 65.71 11.68 30.66 62.6 30.66"/><path class="cls-1" d="m51.34,49.78v-3.19h-1.78c-.2-1.04-.61-2.01-1.18-2.86l1.26-1.26-2.15-2.15-1.26,1.26c-.85-.57-1.82-.98-2.86-1.18v-1.78h-3.19v1.78c-1.04.2-2.01.61-2.86,1.18l-1.26-1.26-2.15,2.15,1.26,1.26c-.57.85-.98,1.82-1.18,2.86h-1.78v3.19h1.78c.2,1.04.61,2.01,1.18,2.86l-1.26,1.26,2.15,2.15,1.26-1.26c.85.57,1.82.98,2.86,1.18v1.78h3.19v-1.78c1.04-.2,2.01-.61,2.86-1.18l1.26,1.26,2.15-2.15-1.26-1.26c.57-.85.98-1.82,1.18-2.86h1.78Z"/><circle class="cls-1" cx="41.78" cy="48.19" r="5.32"/><path class="cls-2" d="m57.69,15.07c-.35,0-.69.02-1.03.06-.27-7.99-6.8-14.38-14.85-14.38-6.59,0-12.17,4.29-14.12,10.22-6.33.1-11.44,5.25-11.44,11.61s5.2,11.62,11.62,11.62c.47,0,.93-.04,1.39-.09v.09h28.44c5.28,0,9.56-4.28,9.56-9.56s-4.28-9.56-9.56-9.56Z"/></svg>