<svg xmlns="http://www.w3.org/2000/svg" viewBox="0 0 100 100"><defs><style>.cls-1,.cls-2{fill:none;stroke-linecap:round;stroke-linejoin:round;stroke-width:1.5px;}.cls-1{stroke:#002d6a;}.cls-2{stroke:#f47c00;}</style></defs><title>Artboard 25 copy 2</title><g id="Artwork"><circle class="cls-1" cx="31.39" cy="67.45" r="19.86"/><circle class="cls-2" cx="31.28" cy="61.76" r="8.26"/><path class="cls-2" d="M19.12,74.75a4.47,4.47,0,0,1,4.46-4.46H38.87a4.48,4.48,0,0,1,4.46,4.46"/><circle class="cls-1" cx="67.2" cy="31.64" r="19.86"/><circle class="cls-2" cx="67.09" cy="25.95" r="8.26"/><path class="cls-2" d="M54.92,39a4.48,4.48,0,0,1,4.47-4.47H74.68A4.48,4.48,0,0,1,79.14,39"/><path class="cls-1" d="M14.29,57.58a36.55,36.55,0,0,1,24.1-42"/><path class="cls-1" d="M85.19,40.5A36.55,36.55,0,0,1,61.45,84.77"/><polyline class="cls-1" points="32.43 11.09 40.05 15.36 36 23.17"/><polyline class="cls-1" points="68.59 88.91 60.97 84.64 65.02 76.83"/></g></svg>