<?xml version="1.0" encoding="UTF-8"?><svg id="Layer_1" xmlns="http://www.w3.org/2000/svg" viewBox="0 0 83.5 82.73"><defs><style>.cls-1{fill:#f47c00;stroke-width:0px;}.cls-2{fill:none;stroke:#002d6a;stroke-miterlimit:10;stroke-width:1.5px;}</style></defs><path class="cls-2" d="M50.5.93v45.29h10.39l-19.14,19.14-19.14-19.14h10.39V.93C14.56,4.94.75,21.35.75,40.98c0,22.64,18.36,41,41,41s41-18.36,41-41c0-19.64-13.81-36.04-32.25-40.05Z"/><path class="cls-1" d="M41.19,56.09v-1.66c-.95-.02-1.94-.31-2.52-.72l.39-1.1c.59.39,1.45.71,2.37.71,1.17,0,1.96-.67,1.96-1.61s-.64-1.46-1.86-1.96c-1.68-.66-2.71-1.42-2.71-2.85s.97-2.4,2.48-2.65v-1.66h1.02v1.6c.99.03,1.66.3,2.14.58l-.41,1.09c-.35-.2-1.02-.56-2.07-.56-1.27,0-1.74.76-1.74,1.42,0,.86.61,1.28,2.04,1.88,1.69.69,2.55,1.55,2.55,3.01,0,1.3-.9,2.52-2.6,2.8v1.71h-1.04Z"/></svg>