<?xml version="1.0" encoding="UTF-8"?><svg id="Layer_1" xmlns="http://www.w3.org/2000/svg" viewBox="0 0 83.5 78.47"><defs><style>.cls-1{stroke:#f98e2c;}.cls-1,.cls-2{fill:none;stroke-linecap:round;stroke-linejoin:round;stroke-width:1.5px;}.cls-2{stroke:#fff;}</style></defs><path class="cls-1" d="M74.96,58.92c-6.71,11.26-19.01,18.8-33.08,18.8-16.93,0-31.31-10.94-36.46-26.13"/><path class="cls-1" d="M4.66,29.4C9.01,12.91,24.03.75,41.88.75s31.42,11.02,36.52,26.3"/><polyline class="cls-1" points=".75 57.89 5.23 49.84 13.48 54.09"/><polyline class="cls-1" points="82.75 19.49 78.27 27.55 70.02 23.3"/><rect class="cls-2" x="34.77" y="25.72" width="13.96" height="34.02"/><polygon class="cls-2" points="48.73 25.72 34.77 25.72 36.31 18.73 47.19 18.73 48.73 25.72"/><line class="cls-2" x1="38.32" y1="31.19" x2="44.3" y2="31.19"/><line class="cls-2" x1="38.32" y1="35.8" x2="44.3" y2="35.8"/><line class="cls-2" x1="38.32" y1="40.42" x2="44.3" y2="40.42"/><line class="cls-2" x1="38.32" y1="45.03" x2="44.3" y2="45.03"/><line class="cls-2" x1="38.32" y1="49.65" x2="44.3" y2="49.65"/><line class="cls-2" x1="38.32" y1="54.26" x2="44.3" y2="54.26"/><rect class="cls-2" x="48.61" y="25.72" width="13.96" height="34.02"/><line class="cls-2" x1="52.16" y1="31.19" x2="58.15" y2="31.19"/><line class="cls-2" x1="52.16" y1="35.8" x2="58.15" y2="35.8"/><line class="cls-2" x1="52.16" y1="40.42" x2="58.15" y2="40.42"/><line class="cls-2" x1="52.16" y1="45.03" x2="58.15" y2="45.03"/><line class="cls-2" x1="52.16" y1="49.65" x2="58.15" y2="49.65"/><line class="cls-2" x1="52.16" y1="54.26" x2="58.15" y2="54.26"/><rect class="cls-2" x="20.92" y="25.72" width="13.96" height="34.02"/><line class="cls-2" x1="24.47" y1="31.19" x2="30.45" y2="31.19"/><line class="cls-2" x1="24.47" y1="35.8" x2="30.45" y2="35.8"/><line class="cls-2" x1="24.47" y1="40.42" x2="30.45" y2="40.42"/><line class="cls-2" x1="24.47" y1="45.03" x2="30.45" y2="45.03"/><line class="cls-2" x1="24.47" y1="49.65" x2="30.45" y2="49.65"/><line class="cls-2" x1="24.47" y1="54.26" x2="30.45" y2="54.26"/><polyline class="cls-2" points="34.89 25.72 20.92 25.72 22.46 20.79"/><line class="cls-2" x1="22.79" y1="20.79" x2="31.23" y2="20.79"/><polyline class="cls-2" points="48.61 25.72 62.58 25.72 61.04 20.79"/><line class="cls-2" x1="60.71" y1="20.79" x2="52.27" y2="20.79"/></svg>