<svg id="Artwork" xmlns="http://www.w3.org/2000/svg" viewBox="0 0 100 100"><defs><style>.cls-1,.cls-2{fill:none;stroke-miterlimit:10;stroke-width:1.5px;}.cls-1{stroke:#f47c00;}.cls-2{stroke:#002d6a;}</style></defs><title>Artboard 3</title><circle class="cls-1" cx="50" cy="84.32" r="5.12"/><line class="cls-2" x1="23.5" y1="30.73" x2="23.5" y2="23.84"/><line class="cls-2" x1="76.33" y1="30.76" x2="76.33" y2="23.88"/><line class="cls-2" x1="23.5" y1="51.21" x2="23.5" y2="44.33"/><line class="cls-2" x1="76.61" y1="51.25" x2="76.61" y2="44.36"/><rect class="cls-2" x="17.89" y="10.56" width="64.21" height="13.42"/><line class="cls-1" x1="23.91" y1="14.71" x2="23.91" y2="20.11"/><line class="cls-1" x1="31.11" y1="14.71" x2="31.11" y2="20.11"/><line class="cls-1" x1="38.03" y1="14.71" x2="38.03" y2="20.11"/><line class="cls-1" x1="50" y1="64.81" x2="50" y2="79.1"/><line class="cls-1" x1="54.95" y1="84.18" x2="68.44" y2="84.18"/><line class="cls-1" x1="31.18" y1="84.18" x2="44.98" y2="84.18"/><circle class="cls-1" cx="26.61" cy="84.32" r="5.12"/><circle class="cls-1" cx="73.39" cy="84.32" r="5.12"/><rect class="cls-2" x="17.89" y="30.9" width="64.21" height="13.42"/><line class="cls-1" x1="23.91" y1="35.05" x2="23.91" y2="40.45"/><line class="cls-1" x1="31.11" y1="35.05" x2="31.11" y2="40.45"/><line class="cls-1" x1="38.03" y1="35.05" x2="38.03" y2="40.45"/><rect class="cls-2" x="17.89" y="51.52" width="64.21" height="13.42"/><line class="cls-1" x1="23.91" y1="55.67" x2="23.91" y2="61.07"/><line class="cls-1" x1="31.11" y1="55.67" x2="31.11" y2="61.07"/><line class="cls-1" x1="38.03" y1="55.67" x2="38.03" y2="61.07"/></svg>