<?xml version="1.0" encoding="UTF-8"?><svg id="Layer_1" xmlns="http://www.w3.org/2000/svg" viewBox="0 0 83.5 83.5"><defs><style>.cls-1{stroke:#f47c00;}.cls-1,.cls-2,.cls-3{stroke-linecap:round;stroke-linejoin:round;stroke-width:1.5px;}.cls-1,.cls-3{fill:none;}.cls-2{fill:#fff;}.cls-2,.cls-3{stroke:#002d6a;}</style></defs><rect class="cls-3" x=".75" y=".75" width="82" height="82" rx="7.75" ry="7.75"/><line class="cls-1" x1="32.86" y1="59.94" x2="38.25" y2="52.15"/><line class="cls-1" x1="28.77" y1="20.85" x2="54.85" y2="59.25"/><circle class="cls-1" cx="25.54" cy="16.49" r="5.44"/><circle class="cls-1" cx="57.96" cy="63.7" r="5.44"/><circle class="cls-1" cx="28.77" cy="65.36" r="7.09"/><path class="cls-2" d="m56.68,35.36c-.33,0-.65.02-.96.05-.25-7.48-6.37-13.46-13.91-13.46-6.17,0-11.39,4.01-13.22,9.57-5.93.09-10.71,4.92-10.71,10.87s4.87,10.88,10.88,10.88c.44,0,.87-.03,1.3-.08v.08h26.63c4.94,0,8.95-4.01,8.95-8.95s-4.01-8.95-8.95-8.95Z"/></svg>