<?xml version="1.0" encoding="UTF-8"?><svg id="Layer_1" xmlns="http://www.w3.org/2000/svg" viewBox="0 0 86.52 83.5"><defs><style>.cls-1{stroke:#f47c00;}.cls-1,.cls-2{fill:none;stroke-linecap:round;stroke-linejoin:round;stroke-width:1.5px;}.cls-2{stroke:#002d6a;}</style></defs><line class="cls-1" x1="43" y1="55.33" x2="43" y2="32.63"/><line class="cls-1" x1="37.17" y1="38.15" x2="43" y2="32.32"/><line class="cls-1" x1="49.35" y1="38.15" x2="43.52" y2="32.32"/><path class="cls-2" d="M66.04,55.94h3.34c.78,0,1.68.01,2.51-.08,4.07-.28,7.65-2.29,10.02-5.31,2.4-2.76,3.86-6.35,3.86-10.29,0-8.25-6.36-15-14.44-15.66.99-2.14,1.56-4.52,1.56-7.04,0-9.28-7.52-16.8-16.8-16.8-7.68,0-14.14,5.16-16.14,12.19-2.95-3.53-7.39-5.78-12.35-5.78-8.89,0-16.1,7.21-16.1,16.1,0,.22.02.44.03.66C5.24,26.26.75,32.3.75,39.4c0,9.13,7.4,16.54,16.54,16.54h3.37"/><path class="cls-1" d="M54.36,51.83c3.6,1.23,5.88,3.03,5.88,5.05,0,3.7-7.68,6.7-17.15,6.7s-17.15-3-17.15-6.7c0-1.87,1.97-3.56,5.14-4.78"/><path class="cls-1" d="M60.24,56.88c0,3.7-7.68,6.7-17.15,6.7s-17.15-3-17.15-6.7"/><path class="cls-1" d="M60.24,63.96c0,3.7-7.68,6.7-17.15,6.7s-17.15-3-17.15-6.7"/><path class="cls-1" d="M60.24,70.98c0,3.7-7.68,6.7-17.15,6.7s-17.15-3-17.15-6.7"/><path class="cls-1" d="M25.94,57.7v18.35c0,3.7,7.68,6.7,17.15,6.7s17.15-3,17.15-6.7v-18.35"/></svg>