<svg id="Artwork" xmlns="http://www.w3.org/2000/svg" viewBox="0 0 100 100"><defs><style>.cls-1,.cls-3,.cls-4{fill:none;}.cls-1{stroke:#002d6a;}.cls-1,.cls-2,.cls-3,.cls-4{stroke-linecap:round;stroke-linejoin:round;}.cls-1,.cls-2{stroke-width:1.5px;}.cls-2{fill:#fff;}.cls-2,.cls-3,.cls-4{stroke:#f47c00;}.cls-3{stroke-width:1.41px;}.cls-4{stroke-width:1.41px;}</style></defs><title>Artboard 12</title><path class="cls-1" d="M69.09,69.28h7c4.88,0,9.41-1.43,12.53-5.4A15.69,15.69,0,0,0,78.07,37.93,16.79,16.79,0,1,0,46.69,26.29,16.1,16.1,0,0,0,18.23,36.6c0,.23,0,.44,0,.66a16.53,16.53,0,0,0,5.76,32h7"/><line class="cls-2" x1="39" y1="72.19" x2="39" y2="85.91"/><line class="cls-2" x1="39" y1="49.91" x2="39" y2="65.52"/><line class="cls-2" x1="52" y1="61.97" x2="52" y2="85.91"/><line class="cls-2" x1="52" y1="49.91" x2="52" y2="55.76"/><line class="cls-2" x1="64" y1="80.94" x2="64" y2="85.91"/><line class="cls-2" x1="64" y1="49.91" x2="64" y2="74.86"/><rect class="cls-3" x="49" y="55.91" width="6" height="6"/><rect class="cls-4" x="36" y="65.91" width="6" height="6"/><rect class="cls-4" x="61" y="74.91" width="6" height="6"/></svg>