<svg xmlns="http://www.w3.org/2000/svg" viewBox="0 0 100 100"><defs><style>.cls-1,.cls-2,.cls-3,.cls-4,.cls-5{fill:none;}.cls-1,.cls-2,.cls-3{stroke:#002d6a;}.cls-1,.cls-2{stroke-miterlimit:10;}.cls-1,.cls-3,.cls-4,.cls-5{stroke-width:1.5px;}.cls-2{stroke-width:1.48px;}.cls-3,.cls-4,.cls-5{stroke-linecap:round;stroke-linejoin:round;}.cls-4{stroke:#213366;}.cls-5{stroke:#f27d21;}</style></defs><title>Artboard 26 copy</title><g id="Artwork"><path class="cls-1" d="M72.12,29.38H83.19a2.17,2.17,0,0,1,2.17,2.17V72a2.17,2.17,0,0,1-2.17,2.17H16.81A2.17,2.17,0,0,1,14.64,72V31.55a2.17,2.17,0,0,1,2.17-2.17H28"/><polyline class="cls-2" points="72.02 33.29 82.04 33.29 82.04 70.3 18.47 70.3 18.47 33.29 28.17 33.29"/><path class="cls-1" d="M92.69,85.34,85,77.77H15L7.31,85.34a2,2,0,0,0,1.4,3.43H91.29A2,2,0,0,0,92.69,85.34Z"/><line class="cls-3" x1="13.6" y1="84.84" x2="86.11" y2="84.84"/><path class="cls-4" d="M71.72,35.09v-7h-4.1a18.12,18.12,0,0,0-2.72-6.59l2.9-2.89-4.95-5L60,16.57a17.83,17.83,0,0,0-6.58-2.72V9.74h-7v4.11a17.94,17.94,0,0,0-6.59,2.72l-2.9-2.9-4.94,5,2.9,2.89a18,18,0,0,0-2.73,6.59H28v7h4.1a18,18,0,0,0,2.73,6.59L32,44.57l4.94,5,2.9-2.9a18,18,0,0,0,6.59,2.73v4.1h7v-4.1A17.84,17.84,0,0,0,60,46.62l2.9,2.9,4.95-5-2.9-2.89a18.12,18.12,0,0,0,2.72-6.59Z"/><circle class="cls-5" cx="49.87" cy="31.6" r="11.21"/><circle class="cls-4" cx="49.87" cy="31.6" r="3.35"/></g></svg>