<?xml version="1.0" encoding="UTF-8"?><svg id="Layer_1" xmlns="http://www.w3.org/2000/svg" viewBox="0 0 83.5 83.5"><defs><style>.cls-1{stroke:#f47c00;}.cls-1,.cls-2{fill:none;stroke-linecap:round;stroke-linejoin:round;stroke-width:1.5px;}.cls-2{stroke:#002d6a;}</style></defs><path class="cls-2" d="m41.75.75c22.64,0,41,18.36,41,41s-18.36,41-41,41S.75,64.39.75,41.75"/><path class="cls-2" d="m41.75,74.04c-17.83,0-32.29-14.45-32.29-32.29S23.92,9.46,41.75,9.46s32.29,14.45,32.29,32.29"/><circle class="cls-2" cx="41.75" cy="41.75" r="5.13"/><polyline class="cls-1" points="25.04 50.82 32.68 50.82 32.68 58.46"/><line class="cls-1" x1="32.68" y1="50.82" x2="23.22" y2="60.28"/><polyline class="cls-1" points="58.46 32.68 50.82 32.68 50.82 25.04"/><line class="cls-1" x1="50.82" y1="32.68" x2="60.28" y2="23.22"/><polyline class="cls-1" points="32.68 25.04 32.68 32.68 25.04 32.68"/><line class="cls-1" x1="32.68" y1="32.68" x2="23.22" y2="23.22"/><polyline class="cls-1" points="50.82 58.46 50.82 50.82 58.46 50.82"/><line class="cls-1" x1="50.82" y1="50.82" x2="60.28" y2="60.28"/></svg>