<svg id="Artwork" xmlns="http://www.w3.org/2000/svg" viewBox="0 0 100 100"><defs><style>.cls-1,.cls-2{fill:none;stroke-linecap:round;stroke-linejoin:round;stroke-width:1.5px;}.cls-1{stroke:#f47c00;}.cls-2{stroke:#002d6a;}</style></defs><title>Artboard 27</title><polyline class="cls-1" points="16.75 50.71 17.93 50.71 33.31 50.71 41.44 28.92 44.21 62.29 50.95 39.81 54.58 54.86 59.77 33.24 63.57 60.04 67.03 50.02 82.07 50.02 83.86 50.02"/><path class="cls-2" d="M90.79,34a22.45,22.45,0,0,0-22.3-22.59A22.21,22.21,0,0,0,50,21.38a22.21,22.21,0,0,0-18.49-10A22.45,22.45,0,0,0,9.21,34c0,9.57,6.72,16.08,12.61,22.74L38.42,75.5,50,88.59,78.56,56.31C84.49,49.6,90.79,43.62,90.79,34Z"/></svg>