<?xml version="1.0" encoding="UTF-8"?><svg id="LOGO" xmlns="http://www.w3.org/2000/svg" viewBox="0 0 754.38 360"><defs><style>.cls-1{fill:#fff;}</style></defs><g><g><path class="cls-1" d="M549.85,210.23V109.89h33.43c10.19,0,18.26,2.12,24.21,6.37,5.95,4.25,8.93,9.77,8.93,16.58,0,5.69-1.69,10.64-5.07,14.83-3.38,4.2-8.06,7.18-14.03,8.96v.28c7.25,.79,13.04,3.35,17.38,7.66,4.34,4.32,6.5,9.92,6.5,16.83,0,8.58-3.55,15.53-10.65,20.85-7.1,5.32-16.07,7.98-26.89,7.98h-33.8Zm17.41-86.97v28.55h11.31c6.07,0,10.84-1.36,14.29-4.09,3.45-2.73,5.18-6.59,5.18-11.58,0-8.58-6.03-12.87-18.07-12.87h-12.71Zm0,41.91v31.77h14.91c6.51,0,11.55-1.43,15.1-4.3,3.55-2.87,5.33-6.82,5.33-11.86,0-10.4-7.57-15.6-22.7-15.6h-12.63Z"/><path class="cls-1" d="M655.95,210.23h-17.12V104.16h17.12v106.08Z"/><path class="cls-1" d="M743.74,210.23h-17.05v-11.34h-.29c-4.95,8.68-12.64,13.01-23.07,13.01-17.78,0-26.67-10.17-26.67-30.51v-42.82h17.05v41.14c0,12.87,5.22,19.31,15.65,19.31,5.05,0,9.2-1.77,12.45-5.32,3.26-3.54,4.89-8.19,4.89-13.92v-41.21h17.05v71.65Z"/></g><g><g><path class="cls-1" d="M506.23,273.02v-34.85h5.13c1.09,0,1.8,.51,2.14,1.53l.58,2.75c.7-.72,1.44-1.38,2.22-1.97,.78-.59,1.61-1.1,2.48-1.53,.87-.43,1.81-.76,2.8-.99,1-.23,2.08-.34,3.26-.34,1.9,0,3.59,.32,5.06,.97,1.47,.65,2.7,1.55,3.69,2.72,.98,1.17,1.73,2.56,2.24,4.18,.51,1.62,.76,3.4,.76,5.35v22.18h-8.39v-22.18c0-2.13-.49-3.78-1.48-4.94-.99-1.17-2.46-1.75-4.43-1.75-1.45,0-2.81,.33-4.08,.98-1.27,.66-2.47,1.55-3.6,2.68v25.2h-8.39Z"/><path class="cls-1" d="M557.89,237.63c2.2,0,4.22,.35,6.06,1.05,1.85,.7,3.44,1.73,4.77,3.07,1.34,1.35,2.38,3,3.12,4.96,.75,1.96,1.12,4.19,1.12,6.71,0,.63-.03,1.16-.08,1.58-.06,.42-.16,.75-.31,.99-.15,.24-.35,.41-.59,.51-.25,.1-.57,.15-.95,.15h-21.53c.25,3.58,1.21,6.2,2.89,7.88,1.68,1.68,3.89,2.51,6.66,2.51,1.36,0,2.53-.16,3.52-.48,.98-.32,1.85-.67,2.58-1.05,.74-.38,1.38-.74,1.94-1.05,.55-.32,1.09-.48,1.61-.48,.34,0,.63,.07,.88,.2,.25,.14,.46,.33,.65,.58l2.45,3.06c-.93,1.09-1.97,2-3.12,2.73-1.15,.74-2.36,1.32-3.62,1.77-1.26,.44-2.54,.75-3.84,.93-1.3,.18-2.56,.27-3.79,.27-2.42,0-4.68-.4-6.76-1.21-2.08-.8-3.89-1.99-5.43-3.57-1.54-1.57-2.75-3.52-3.63-5.84-.88-2.32-1.32-5.01-1.32-8.07,0-2.38,.38-4.61,1.15-6.71,.77-2.09,1.87-3.92,3.31-5.47,1.44-1.55,3.19-2.78,5.26-3.69,2.07-.91,4.41-1.36,7.01-1.36Zm.17,6.01c-2.45,0-4.36,.69-5.74,2.07-1.38,1.38-2.26,3.34-2.65,5.88h15.76c0-1.09-.15-2.11-.44-3.07-.29-.96-.75-1.81-1.36-2.53-.61-.72-1.38-1.3-2.31-1.72-.93-.42-2.02-.63-3.26-.63Z"/><path class="cls-1" d="M574.19,238.17h6.66c.63,0,1.17,.15,1.6,.44,.43,.29,.7,.67,.82,1.12l4.99,18.61c.27,1.02,.49,2.02,.66,2.99,.17,.97,.33,1.95,.49,2.92,.25-.97,.51-1.95,.8-2.92,.28-.97,.58-1.97,.9-2.99l5.77-18.68c.14-.45,.41-.83,.81-1.12,.41-.29,.88-.44,1.43-.44h3.7c.61,0,1.12,.15,1.53,.44,.41,.29,.68,.67,.82,1.12l5.71,19.02c.29,.97,.56,1.92,.8,2.84,.24,.92,.47,1.84,.7,2.77,.16-.97,.33-1.95,.53-2.92,.19-.97,.44-1.98,.73-3.02l5.16-18.61c.11-.45,.38-.83,.82-1.12,.43-.29,.93-.44,1.49-.44h6.35l-11.04,34.85h-6.76c-.72,0-1.25-.5-1.56-1.49l-6.28-20.14c-.2-.66-.39-1.32-.56-1.99-.17-.67-.31-1.33-.42-1.99-.14,.68-.28,1.35-.44,2.02-.16,.67-.34,1.34-.54,2.02l-6.35,20.07c-.32,1-.93,1.49-1.83,1.49h-6.42l-11.04-34.85Z"/><path class="cls-1" d="M652.88,237.63c2.2,0,4.22,.35,6.06,1.05,1.85,.7,3.44,1.73,4.77,3.07,1.34,1.35,2.38,3,3.12,4.96,.75,1.96,1.12,4.19,1.12,6.71,0,.63-.03,1.16-.08,1.58-.06,.42-.16,.75-.31,.99-.15,.24-.35,.41-.59,.51-.25,.1-.57,.15-.95,.15h-21.53c.25,3.58,1.21,6.2,2.89,7.88,1.68,1.68,3.89,2.51,6.66,2.51,1.36,0,2.53-.16,3.52-.48,.99-.32,1.84-.67,2.58-1.05,.74-.38,1.38-.74,1.94-1.05,.55-.32,1.09-.48,1.61-.48,.34,0,.63,.07,.88,.2,.25,.14,.46,.33,.65,.58l2.45,3.06c-.93,1.09-1.97,2-3.12,2.73-1.15,.74-2.36,1.32-3.62,1.77-1.26,.44-2.54,.75-3.84,.93-1.3,.18-2.56,.27-3.79,.27-2.42,0-4.68-.4-6.76-1.21-2.08-.8-3.89-1.99-5.43-3.57-1.54-1.57-2.75-3.52-3.63-5.84-.88-2.32-1.32-5.01-1.32-8.07,0-2.38,.38-4.61,1.15-6.71,.77-2.09,1.87-3.92,3.31-5.47,1.44-1.55,3.19-2.78,5.26-3.69,2.07-.91,4.41-1.36,7.01-1.36Zm.17,6.01c-2.44,0-4.36,.69-5.74,2.07s-2.26,3.34-2.65,5.88h15.76c0-1.09-.15-2.11-.44-3.07-.29-.96-.75-1.81-1.36-2.53-.61-.72-1.38-1.3-2.31-1.72-.93-.42-2.02-.63-3.26-.63Z"/><path class="cls-1" d="M673.43,273.02v-34.85h4.92c.86,0,1.46,.16,1.8,.48,.34,.32,.57,.86,.68,1.63l.51,4.21c1.25-2.15,2.71-3.85,4.38-5.09,1.67-1.25,3.55-1.87,5.64-1.87,1.72,0,3.15,.4,4.28,1.19l-1.09,6.28c-.07,.41-.22,.7-.44,.87-.23,.17-.53,.25-.92,.25-.34,0-.8-.08-1.39-.24-.59-.16-1.37-.24-2.34-.24-1.74,0-3.24,.48-4.48,1.44-1.25,.96-2.3,2.37-3.16,4.23v21.7h-8.39Z"/><path class="cls-1" d="M726.14,273.02h-3.77c-.79,0-1.42-.12-1.87-.36-.45-.24-.79-.72-1.02-1.44l-.75-2.48c-.88,.79-1.75,1.49-2.6,2.09-.85,.6-1.73,1.1-2.63,1.51-.91,.41-1.87,.71-2.89,.92-1.02,.2-2.15,.31-3.4,.31-1.47,0-2.83-.2-4.08-.59-1.25-.4-2.32-.99-3.21-1.78-.9-.79-1.59-1.78-2.09-2.95-.5-1.18-.75-2.55-.75-4.11,0-1.31,.34-2.61,1.04-3.89,.69-1.28,1.84-2.43,3.45-3.46,1.61-1.03,3.75-1.89,6.42-2.56,2.67-.68,5.99-1.06,9.95-1.15v-2.04c0-2.33-.49-4.06-1.48-5.18-.99-1.12-2.42-1.68-4.3-1.68-1.36,0-2.49,.16-3.4,.48-.91,.32-1.69,.67-2.36,1.07-.67,.4-1.29,.75-1.85,1.07-.57,.32-1.19,.48-1.87,.48-.57,0-1.05-.15-1.46-.44-.41-.29-.74-.66-.99-1.09l-1.53-2.68c4.01-3.67,8.84-5.5,14.5-5.5,2.04,0,3.86,.33,5.45,1,1.6,.67,2.95,1.6,4.06,2.79,1.11,1.19,1.95,2.61,2.53,4.26,.58,1.65,.87,3.46,.87,5.43v22.01Zm-16.3-5.23c.86,0,1.65-.08,2.38-.24,.72-.16,1.41-.4,2.05-.71,.65-.32,1.27-.71,1.87-1.17,.6-.46,1.21-1.01,1.82-1.65v-5.88c-2.45,.11-4.49,.32-6.13,.63-1.64,.31-2.96,.7-3.96,1.17-1,.48-1.7,1.03-2.12,1.66-.42,.63-.63,1.32-.63,2.07,0,1.47,.44,2.53,1.31,3.16,.87,.63,2.01,.95,3.41,.95Z"/><path class="cls-1" d="M733.75,268.4c0-.7,.13-1.37,.39-2,.26-.63,.62-1.18,1.09-1.63,.46-.45,1.01-.82,1.65-1.09,.63-.27,1.31-.41,2.04-.41s1.37,.14,2,.41c.63,.27,1.18,.63,1.63,1.09,.45,.45,.82,1,1.09,1.63,.27,.63,.41,1.3,.41,2s-.14,1.4-.41,2.02c-.27,.62-.63,1.16-1.09,1.61s-1,.81-1.63,1.07c-.63,.26-1.3,.39-2,.39s-1.4-.13-2.04-.39c-.63-.26-1.18-.62-1.65-1.07-.46-.45-.83-.99-1.09-1.61-.26-.62-.39-1.3-.39-2.02Z"/></g><g><path class="cls-1" d="M465.76,257.02h-.06v2.05h-2.27v-20.97h2.27v9.29h.06c1.12-1.88,2.75-2.82,4.9-2.82,1.82,0,3.24,.63,4.27,1.9s1.54,2.97,1.54,5.1c0,2.37-.58,4.27-1.73,5.69s-2.73,2.14-4.73,2.14c-1.87,0-3.29-.79-4.25-2.38Zm-.06-5.71v1.98c0,1.17,.38,2.16,1.14,2.98,.76,.82,1.73,1.22,2.9,1.22,1.37,0,2.45-.53,3.23-1.58,.78-1.05,1.17-2.51,1.17-4.38,0-1.58-.36-2.81-1.09-3.71s-1.72-1.34-2.96-1.34c-1.32,0-2.38,.46-3.18,1.38-.8,.92-1.2,2.07-1.2,3.45Z"/><path class="cls-1" d="M491.36,244.91l-6.51,16.43c-1.16,2.93-2.79,4.4-4.9,4.4-.59,0-1.08-.06-1.48-.18v-2.03c.49,.17,.94,.25,1.34,.25,1.14,0,2-.68,2.57-2.05l1.13-2.68-5.53-14.14h2.52l3.83,10.9c.05,.14,.14,.5,.29,1.08h.08c.05-.22,.14-.57,.28-1.05l4.03-10.93h2.35Z"/></g></g></g><path class="cls-1" d="M480.09,167.32c.93-6.24,3.39-11.29,7.36-15.15,3.98-3.86,8.81-5.8,14.51-5.8s10.49,1.84,13.81,5.52c3.31,3.68,5,8.82,5.04,15.43h-40.72Zm53.1,3.7c0-10.75-2.7-19.15-8.1-25.21-5.4-6.05-13.04-9.08-22.9-9.08s-18.13,3.5-24.78,10.51c-6.65,7.01-9.98,16.07-9.98,27.2,0,11.78,3.04,20.91,9.13,27.41,6.09,6.49,14.46,9.74,25.11,9.74s19.66-2.28,26.29-6.84v-10.75c-7.12,5.31-14.93,7.96-23.42,7.96-7.56,0-13.5-2.17-17.82-6.49-4.32-4.33-6.58-10.47-6.78-18.43h53.24v-6Zm-103.5,24.09c-4.25,4.56-9.76,6.84-16.53,6.84s-12.04-2.38-16.09-7.16c-4.05-4.77-6.08-11.14-6.08-19.1,0-9.26,2.11-16.47,6.33-21.61,4.22-5.14,10.06-7.72,17.53-7.72,6.04,0,11.08,2.02,15.13,6.07s6.08,8.91,6.08,14.59v10.54c0,7.12-2.12,12.96-6.37,17.53Zm18.45-56.7h-12.08v9.92h-.29c-4.91-7.73-12.45-11.59-22.61-11.59-10.7,0-19.14,3.58-25.3,10.75-6.16,7.17-9.24,16.83-9.24,28.98,0,10.71,2.86,19.24,8.58,25.59,5.72,6.35,13.27,9.53,22.65,9.53,11.54,0,20.18-4.56,25.92-13.69h.29v7.82c0,18.71-9.28,28.07-27.84,28.07-7.71,0-15.81-2.23-24.3-6.7v11.45c6.97,3.35,15.12,5.03,24.45,5.03,26.51,0,39.77-13.13,39.77-39.38v-65.77Zm-99.2,42.45c0,6.1-1.95,11.14-5.85,15.12-3.9,3.98-8.85,5.97-14.84,5.97-4.37,0-7.87-1.11-10.49-3.32-2.63-2.21-3.94-5.06-3.94-8.55,0-4.79,1.42-8.13,4.27-10.02,2.85-1.89,7.07-3.2,12.67-3.95l18.19-2.37v7.12Zm12.08-17.46c0-17.78-8.86-26.67-26.58-26.67-9.67,0-18.22,2.23-25.63,6.7v11.73c7.31-5.87,15.51-8.8,24.6-8.8,10.36,0,15.54,6.07,15.54,18.22l-22.61,3c-16.59,2.19-24.89,9.96-24.89,23.32,0,6.24,2.12,11.24,6.37,15.01,4.25,3.77,10.13,5.66,17.64,5.66,10.21,0,17.94-4.28,23.2-12.85h.29v11.17h12.08v-46.5Zm-76.74,2.79c0-9.54-2.19-16.84-6.55-21.89-4.37-5.05-10.68-7.58-18.93-7.58-10.8,0-19.05,4.52-24.74,13.55h-.29v-11.87h-12.08v71.5h12.08v-40.78c0-6.56,1.98-12,5.93-16.3,3.95-4.31,8.95-6.46,14.99-6.46,11.68,0,17.53,7.59,17.53,22.76v40.78h12.08v-43.71Zm-97.43,14.66c0,6.1-1.95,11.14-5.85,15.12-3.9,3.98-8.85,5.97-14.84,5.97-4.37,0-7.87-1.11-10.49-3.32-2.63-2.21-3.94-5.06-3.94-8.55,0-4.79,1.42-8.13,4.27-10.02,2.85-1.89,7.07-3.2,12.67-3.95l18.19-2.37v7.12Zm12.08-17.46c0-17.78-8.86-26.67-26.58-26.67-9.67,0-18.22,2.23-25.63,6.7v11.73c7.31-5.87,15.51-8.8,24.6-8.8,10.36,0,15.54,6.07,15.54,18.22l-22.61,3c-16.59,2.19-24.89,9.96-24.89,23.32,0,6.24,2.12,11.24,6.37,15.01,4.25,3.77,10.13,5.66,17.64,5.66,10.21,0,17.94-4.28,23.2-12.85h.29v11.17h12.08v-46.5Zm-80.12-53.62h-15.46l-33.07,69.54c-1.28,2.7-2.97,6.8-5.08,12.29h-.44c-.74-2.65-2.36-6.66-4.86-12.01L27.49,109.79H11.14v100.13h11.93v-67.03c0-9.08-.2-15.62-.59-19.62h.29c1.08,4.61,2.14,8.03,3.17,10.26l36.01,76.39h6.04l36.08-76.95c.93-1.96,1.99-5.19,3.17-9.71h.29c-.69,7.68-1.03,14.17-1.03,19.48v67.17h12.3V109.79Z"/><path class="cls-1" d="M415.03,102.78c-1.45-.81-3.27-.28-4.08,1.16l-8.3,14.94c-8.39-20.97-23.28-38.61-42.19-50.47,.73-2.54,1.14-5.23,1.14-8,0-7.95-3.23-15.17-8.44-20.37-5.2-5.21-12.43-8.44-20.37-8.44-7.95,0-15.17,3.23-20.37,8.44-3.39,3.39-5.93,7.63-7.3,12.37-.25-.07-.51-.11-.78-.11-12.7,0-24.88,2.25-36.17,6.35-.55-.7-1.12-1.39-1.75-2.01-3.85-3.85-9.2-6.24-15.07-6.24-5.88,0-11.22,2.39-15.07,6.24-3.85,3.85-6.24,9.2-6.24,15.07,0,3.38,.81,6.58,2.22,9.43-.47,.13-.92,.36-1.3,.72-13.78,13.25-23.98,30.21-29.01,49.27-.42,1.6,.53,3.24,2.14,3.67,1.6,.42,3.24-.53,3.67-2.14,4.73-17.97,14.36-33.97,27.36-46.48,.11-.11,.21-.23,.3-.35,.28,.32,.56,.65,.87,.95,3.85,3.85,9.2,6.24,15.07,6.24,5.88,0,11.22-2.39,15.07-6.24,3.85-3.85,6.24-9.2,6.24-15.07,0-2.73-.54-5.35-1.48-7.75,10.29-3.62,21.34-5.62,32.88-5.65-.05,.7-.09,1.4-.09,2.11,0,7.95,3.23,15.17,8.44,20.37,5.2,5.21,12.43,8.44,20.37,8.44,7.95,0,15.17-3.23,20.37-8.44,1.98-1.98,3.67-4.25,5.01-6.73,17.47,11.2,31.21,27.7,38.98,47.21l-16.24-8.35c-1.47-.76-3.28-.18-4.04,1.3s-.18,3.28,1.3,4.04l22.07,11.35c1.44,.74,3.21,.21,3.99-1.21l11.97-21.53c.81-1.45,.28-3.27-1.16-4.08Zm-152.86-20.25c-2.78,2.78-6.59,4.48-10.83,4.49-4.24,0-8.05-1.71-10.83-4.49-2.78-2.78-4.48-6.59-4.49-10.83,0-4.24,1.71-8.05,4.49-10.83,2.78-2.78,6.59-4.48,10.83-4.49,4.24,0,8.05,1.71,10.83,4.49,2.78,2.78,4.48,6.59,4.49,10.83,0,4.24-1.71,8.05-4.49,10.83Zm86.74-5.99c-4.14,4.13-9.82,6.68-16.13,6.68-6.31,0-11.99-2.55-16.13-6.68-4.13-4.14-6.68-9.82-6.68-16.13,0-6.31,2.55-11.99,6.68-16.13,4.14-4.13,9.82-6.68,16.13-6.68,6.31,0,11.99,2.55,16.13,6.68,4.13,4.14,6.68,9.82,6.68,16.13,0,6.31-2.55,11.99-6.68,16.13Z"/></svg>