<svg id="Artwork" xmlns="http://www.w3.org/2000/svg" viewBox="0 0 100 100"><defs><style>.cls-1,.cls-2{fill:none;stroke-linecap:round;stroke-linejoin:round;stroke-width:1.5px;}.cls-1{stroke:#f47c00;}.cls-2{stroke:#002d6a;}.cls-3{opacity:0.1;}</style></defs><title>Artboard 29</title><path class="cls-1" d="M44.33,60.6a4.64,4.64,0,0,1,1,2.88A4.7,4.7,0,0,1,37.48,67"/><path class="cls-1" d="M74.28,56.35h.91a2.62,2.62,0,0,0,2.72-2.53V34.38a2.62,2.62,0,0,0-2.72-2.53h-.91"/><path class="cls-2" d="M15.82,58.2l6.76,7L28,86.31H39.44a3.4,3.4,0,0,0,2.73-4.54L36.42,63.46s-1.42-2.7,2.77-4.15"/><path class="cls-2" d="M11.16,52.72H9.49A2.72,2.72,0,0,1,6.77,50V40a2.72,2.72,0,0,1,2.72-2.73h1.76"/><path class="cls-2" d="M11.3,37.23V34.57A2.72,2.72,0,0,1,14,31.85h1.82"/><path class="cls-2" d="M15.85,57.26H14a2.72,2.72,0,0,1-2.73-2.72V37.23"/><path class="cls-2" d="M68.49,15.79C55.78,28.4,33.09,30.94,33.09,30.94H15.84V58.17H33.09S55.78,61,68.49,73.6"/><path class="cls-2" d="M74.13,72.69a2.73,2.73,0,0,1-2.73,2.73h0a2.72,2.72,0,0,1-2.72-2.73V16.41a2.72,2.72,0,0,1,2.72-2.72h0a2.72,2.72,0,0,1,2.73,2.72Z"/><rect class="cls-3" x="15.84" y="30.94" width="0.91" height="27.23"/><line class="cls-2" x1="15.84" y1="44.55" x2="68.6" y2="44.55"/><line class="cls-1" x1="82" y1="44.23" x2="93.23" y2="44.23"/><line class="cls-1" x1="81.86" y1="38.25" x2="89.8" y2="30.3"/><line class="cls-1" x1="81.86" y1="49.84" x2="89.8" y2="57.78"/></svg>