<?xml version="1.0" encoding="UTF-8"?><svg xmlns="http://www.w3.org/2000/svg" xmlns:xlink="http://www.w3.org/1999/xlink" viewBox="0 0 77.38143 16.31738"><defs><style>.cls-1{fill:url(#linear-gradient);}.cls-2{fill:#213467;}.cls-3{fill:#0c2c65;}.cls-4{fill:#5dc5ea;}.cls-5{fill:url(#radial-gradient-2);}.cls-5,.cls-6{opacity:.5;}.cls-6{fill:url(#linear-gradient-2);mix-blend-mode:multiply;}.cls-7{fill:url(#radial-gradient);}.cls-8{isolation:isolate;}</style><linearGradient id="linear-gradient" x1="4.10962" y1="10.02693" x2="11.65625" y2="10.02693" gradientUnits="userSpaceOnUse"><stop offset="0" stop-color="#0c2c65" stop-opacity="0"/><stop offset=".03105" stop-color="#0c2c65" stop-opacity=".08"/><stop offset="1" stop-color="#0c2c65" stop-opacity=".5"/></linearGradient><linearGradient id="linear-gradient-2" x1="17.89537" y1="-1.40739" x2="6.43225" y2="11.19042" gradientUnits="userSpaceOnUse"><stop offset=".40155" stop-color="#0c2c65" stop-opacity="0"/><stop offset=".46839" stop-color="#0c2c65" stop-opacity=".03351"/><stop offset=".52552" stop-color="#0c2c65" stop-opacity=".13742"/><stop offset=".57908" stop-color="#0c2c65" stop-opacity=".31212"/><stop offset=".63047" stop-color="#0c2c65" stop-opacity=".55791"/><stop offset=".67987" stop-color="#0c2c65" stop-opacity=".87184"/><stop offset=".69709" stop-color="#0c2c65"/></linearGradient><radialGradient id="radial-gradient" cx="22.79887" cy="-1358.61568" fx="22.79887" fy="-1358.61568" r="10.3262" gradientTransform="translate(-13.08231 202.64671) scale(1.0488 .13844)" gradientUnits="userSpaceOnUse"><stop offset="0" stop-color="#0c2c65" stop-opacity=".3"/><stop offset=".2828" stop-color="#0c2c65" stop-opacity=".1444"/><stop offset=".61846" stop-color="#0c2c65" stop-opacity=".0356"/><stop offset=".98901" stop-color="#0c2c65" stop-opacity="0"/></radialGradient><radialGradient id="radial-gradient-2" cx="14.83201" cy="1.17345" fx="14.83201" fy="1.17345" r="1.81532" gradientTransform="translate(2.02126 -6.341) rotate(25.07361) scale(1 1.19338)" gradientUnits="userSpaceOnUse"><stop offset=".21579" stop-color="#0c2c65" stop-opacity="0"/><stop offset=".39317" stop-color="#0c2c65" stop-opacity=".03351"/><stop offset=".54475" stop-color="#0c2c65" stop-opacity=".13742"/><stop offset=".68687" stop-color="#0c2c65" stop-opacity=".31212"/><stop offset=".82323" stop-color="#0c2c65" stop-opacity=".55791"/><stop offset=".95431" stop-color="#0c2c65" stop-opacity=".87184"/><stop offset="1" stop-color="#0c2c65"/></radialGradient></defs><g class="cls-8"><g id="Layer_2"><g id="Layer_1-2"><path class="cls-1" d="m11.61482,9.40131c.01527-.02794.02851-.05597.04143-.08399-3.59992,1.19454-7.54664-.5986-7.54664-.5986,2.95659,3.82855,6.29227,2.91886,7.50521.68258Z"/><path class="cls-4" d="m20.0677.56919c-.83386,2.65341-3.08661,5.75916-3.98008,7.20203-.98553,1.59213-2.12265,3.79045-5.95112,4.2075-3.82857.41689-6.02689-3.26-6.02689-3.26,2.95659,3.82855,6.29227,2.91886,7.50521.68258.01527-.02794.02851-.05597.04143-.08399,1.01872-2.20437-4.94549-4.24529-6.0683-4.88176,10.9546,2.80507,14.47974-3.86636,14.47974-3.86636Z"/><path class="cls-6" d="m20.0677.56928c-.83386,2.65333-3.08661,5.75907-3.98008,7.20195-.98553,1.59213-2.12265,3.79045-5.95112,4.2075-3.82857.41689-6.02689-3.26-6.02689-3.26,2.95659,3.82855,6.29227,2.91886,7.50521.68258.01527-.02794.02851-.05589.04143-.08399,1.01872-2.20445-4.94549-4.24529-6.0683-4.88185,10.9546,2.80515,14.47974-3.8662,14.47974-3.8662Z"/><path class="cls-7" d="m21.65829,14.89017c0,.78822-4.84882,1.42721-10.82918,1.42721S0,15.6784,0,14.89017c0-.78839,4.84859-1.42721,10.82911-1.42721s10.82918.63882,10.82918,1.42721"/><path class="cls-2" d="m41.48883,13.35465h-1.06586v-.33107h2.4946v.33107h-1.06586v2.84375h-.36289v-2.84375Z"/><path class="cls-2" d="m43.58926,13.02358h2.29492v.32653h-1.93668v1.0839h1.73267v.32665h-1.73267v1.11119h1.95941v.32653h-2.31765v-3.17481Z"/><path class="cls-2" d="m46.48792,14.62007v-.00907c0-.89811.67123-1.64185,1.60547-1.64185.57612,0,.9207.20413,1.23825.50337l-.24493.26312c-.26766-.25403-.5669-.43542-.99777-.43542-.70306,0-1.22916.57146-1.22916,1.30169v.0091c0,.73476.53064,1.31076,1.22916,1.31076.4354,0,.72113-.16786,1.02493-.45815l.23583.2313c-.33107.33563-.69387.55792-1.26986.55792-.91616,0-1.59193-.72113-1.59193-1.63276Z"/><path class="cls-2" d="m49.97606,13.02358h.35824v1.41044h1.83232v-1.41044h.35836v3.17481h-.35836v-1.42863h-1.83232v1.42863h-.35824v-3.17481Z"/><path class="cls-2" d="m53.42355,13.02358h.3356l2.00009,2.54438v-2.54438h.34924v3.17481h-.28571l-2.04999-2.60335v2.60335h-.34924v-3.17481Z"/><path class="cls-2" d="m56.86657,14.62007v-.00907c0-.87536.6576-1.64185,1.62366-1.64185s1.61468.7574,1.61468,1.63276v.0091c0,.87536-.65772,1.64183-1.62378,1.64183s-1.61456-.7574-1.61456-1.63276Zm2.86635,0v-.00907c0-.72115-.5261-1.31078-1.25179-1.31078s-1.24267.58056-1.24267,1.30169v.0091c0,.72113.5261,1.31076,1.25177,1.31076s1.24269-.58056,1.24269-1.30169Z"/><path class="cls-2" d="m60.86276,13.02358h.35824v2.84375h1.78699v.33107h-2.14522v-3.17481Z"/><path class="cls-2" d="m63.3486,14.62007v-.00907c0-.87536.6576-1.64185,1.62366-1.64185s1.61468.7574,1.61468,1.63276v.0091c0,.87536-.65772,1.64183-1.62378,1.64183s-1.61456-.7574-1.61456-1.63276Zm2.86636,0v-.00907c0-.72115-.5261-1.31078-1.25179-1.31078s-1.24269.58056-1.24269,1.30169v.0091c0,.72113.52612,1.31076,1.25179,1.31076s1.24269-.58056,1.24269-1.30169Z"/><path class="cls-2" d="m67.20432,14.62007v-.00907c0-.87082.63943-1.64185,1.59195-1.64185.53519,0,.86626.15423,1.1837.42177l-.23127.2721c-.24493-.2131-.51703-.3628-.96606-.3628-.70296,0-1.20645.59419-1.20645,1.30169v.0091c0,.75737.48532,1.31986,1.25635,1.31986.36277,0,.6985-.14072.91616-.31756v-.78922h-.96606v-.32197h1.31076v1.26542c-.29483.263-.73932.4853-1.27452.4853-.99777,0-1.61456-.72567-1.61456-1.63276Z"/><path class="cls-2" d="m71.75843,14.94206l-1.31986-1.91849h.4354l1.07027,1.58742,1.07949-1.58742h.41735l-1.31964,1.91393v1.26089h-.36301v-1.25633Z"/><path class="cls-3" d="m23.63281,11.8419V3.96602h1.15909c.24564,0,.40687.11513.48363.3454l.1305.62178c.15855-.16368.3262-.31206.50282-.44517.17651-.13304.36329-.24817.5603-.3455.19701-.09715.4081-.1714.63334-.22263.22514-.05106.47078-.07675.73692-.07675.42988,0,.81107.07294,1.14378.21881.33256.14586.61024.3506.83287.61412.22262.26362.3915.57837.50663.94419.11515.36589.17272.76894.17272,1.20899v5.01262h-1.89609v-5.01262c0-.48095-.11122-.85327-.33386-1.11687-.22263-.26352-.55655-.39533-1.00174-.39533-.3276,0-.63462.07424-.92116.22254-.2867.14856-.55787.35062-.81375.6065v5.69579h-1.896Z"/><path class="cls-3" d="m35.3084,3.84316c.49632,0,.95303.07943,1.37016.238.41704.15871.77652.39028,1.07859.69472.30182.3045.53729.67812.70618,1.12069.16889.44274.25337.94808.25337,1.51611,0,.14336-.00651.26231-.0192.35696-.01284.09472-.03594.16889-.06911.22263-.03334.05367-.07805.09212-.13432.11513-.05643.02301-.12799.03455-.215.03455h-4.86673c.05627.80864.27368,1.40219.65251,1.78087.37866.37882.88011.56803,1.50449.56803.3071,0,.57194-.0357.79457-.10741.22254-.07164.41704-.15092.5834-.238.16619-.08701.31206-.16627.43752-.238.12531-.07156.24687-.10741.3646-.10741.07675,0,.14318.01529.19961.04601.05627.03074.10481.07424.14587.1305l.55266.69091c-.20994.24562-.44525.45159-.70626.61795-.26093.16636-.53347.29938-.8175.39907-.28401.09985-.57322.1701-.8674.21109-.29435.04096-.57958.06146-.85596.06146-.54761,0-1.05679-.09091-1.52757-.27255-.47088-.18149-.88026-.45015-1.22819-.80596-.34808-.35564-.62178-.7957-.82131-1.32031-.19963-.52453-.29939-1.13224-.29939-1.82313,0-.53739.08693-1.04265.26101-1.51611.17383-.47323.42339-.88522.74837-1.23584.32492-.35045.72163-.62813,1.18983-.83287.46826-.20466.99661-.3071,1.58522-.3071Zm.03838,1.3587c-.55276,0-.98524.1562-1.29732.46826-.31223.31223-.51184.75497-.59877,1.32804h3.5618c0-.24564-.03334-.47714-.09976-.69472-.06659-.21743-.16889-.40802-.30712-.57186-.13815-.16376-.31215-.29296-.52192-.38768-.20995-.09465-.45559-.14204-.73692-.14204Z"/><path class="cls-3" d="m38.99281,3.96602h1.50447c.14328,0,.26362.03334.36086.09976.09708.06659.15856.15099.18426.25337l1.12843,4.20658c.0613.23027.11122.45551.1496.67554.03838.22009.07545.44012.11139.66015.05627-.22003.11628-.44005.18034-.66015.06391-.22003.13174-.44527.20344-.67554l1.30503-4.22195c.03057-.10228.09205-.18677.18409-.25337.0922-.06643.1997-.09976.32247-.09976h.83668c.13823,0,.25337.03334.34542.09976.0922.06659.1535.15109.18424.25337l1.28974,4.29872c.06636.22009.12652.43371.18034.64097.05367.20726.10619.41583.15726.6256.03577-.21994.07545-.44005.11903-.66015.04343-.21994.09855-.4477.16506-.68318l1.16681-4.20658c.02553-.10238.08699-.18677.18424-.25337.09708-.06643.20979-.09976.33776-.09976h1.43545l-2.49475,7.87588h-1.52765c-.16376,0-.28151-.11254-.35305-.33776l-1.42018-4.55209c-.04601-.14831-.08829-.29799-.12667-.449-.03838-.1509-.07042-.30059-.09595-.44906-.03074.1535-.06406.3058-.09968.45671-.03594.151-.07692.30321-.12294.45672l-1.43545,4.53672c-.07172.22522-.20995.33776-.41453.33776h-1.45074l-2.49484-7.87588Z"/><path class="cls-3" d="m56.77838,3.84316c.49631,0,.95311.07943,1.37024.238.41712.15871.77652.39028,1.07849.69472.30199.3045.53747.67812.70626,1.12069.16897.44274.25337.94808.25337,1.51611,0,.14336-.00649.26231-.01918.35696-.01286.09472-.03594.16889-.06911.22263-.03334.05367-.07807.09212-.13433.11513-.05643.02301-.12797.03455-.21498.03455h-4.86675c.05627.80864.2737,1.40219.65244,1.78087.37874.37882.88009.56803,1.50456.56803.30704,0,.57194-.0357.79457-.10741.22263-.07164.41696-.15092.58333-.238.16636-.08701.31206-.16627.43761-.238.12538-.07156.24685-.10741.36459-.10741.07677,0,.14328.01529.19955.04601.05627.03074.10489.07424.14587.1305l.55274.69091c-.20995.24562-.44525.45159-.70626.61795-.26101.16636-.53339.29938-.8175.39907-.28411.09985-.57324.1701-.86742.21109-.29435.04096-.57958.06146-.85586.06146-.54771,0-1.05687-.09091-1.52767-.27255-.47078-.18149-.88026-.45015-1.22811-.80596-.34817-.35564-.62185-.7957-.82139-1.32031-.19969-.52453-.29938-1.13224-.29938-1.82313,0-.53739.08699-1.04265.26101-1.51611.17383-.47323.42329-.88522.74837-1.23584.32492-.35045.72155-.62813,1.18989-.83287.46818-.20466.99654-.3071,1.58507-.3071Zm.03837,1.3587c-.55257,0-.98515.1562-1.29722.46826-.31223.31223-.51178.75497-.59877,1.32804h3.56187c0-.24564-.03349-.47714-.09985-.69472-.06651-.21743-.16895-.40802-.30702-.57186-.13823-.16376-.31223-.29296-.52202-.38768-.20994-.09465-.45549-.14204-.737-.14204Z"/><path class="cls-3" d="m61.42234,11.8419V3.96602h1.11296c.1945,0,.33013.03585.40688.10749.07675.07172.12782.1945.15352.36842l.11514.9519c.28149-.48615.61146-.86994.99036-1.15143.37857-.28142.80334-.42225,1.27412-.42225.389,0,.7113.08961.96727.26865l-.24556,1.42016c-.01545.09212-.04879.15733-.09985.19572-.05122.03838-.12035.05757-.20734.05757-.07677,0-.18164-.01788-.31468-.05374-.13319-.0357-.30962-.05367-.52964-.05367-.39419,0-.73195.10871-1.0133.32622-.28149.21758-.5194.53616-.7139.95571v4.90513h-1.89599Z"/><path class="cls-3" d="m73.33608,11.8419h-.85213c-.17921,0-.31987-.02683-.42215-.08066-.10246-.05367-.17921-.16229-.23029-.32622l-.16895-.5603c-.19955.17913-.39533.33654-.58723.47201-.19188.13578-.39028.24945-.59486.34166-.20474.09204-.42217.16116-.65244.20719-.23044.04618-.48623.06911-.76774.06911-.33271,0-.63975-.04488-.92107-.13432-.28149-.08946-.52332-.22377-.72546-.40299-.20229-.17905-.35954-.40167-.47208-.66779-.1127-.26605-.1688-.57575-.1688-.9289,0-.29669.0779-.58974.23402-.87888.15612-.28905.41583-.55006.77911-.78301.36329-.2328.84692-.42607,1.4509-.57958.60381-.15352,1.35349-.24043,2.2492-.26101v-.46054c0-.52705-.11139-.91734-.33401-1.17063-.22264-.25337-.54625-.37996-.97101-.37996-.30702,0-.563.03585-.76757.10741-.20474.07172-.38264.15237-.53356.24181-.15107.08961-.29043.17019-.41842.24183-.12797.07171-.26863.10749-.42215.10749-.12799,0-.23791-.03325-.33012-.09985-.09205-.06643-.16637-.14831-.22264-.24564l-.3454-.60641c.90581-.82904,1.99845-1.24356,3.27778-1.24356.4607,0,.87132.07554,1.23217.22646.36069.15099.66643.36077.91718.62949.25077.26865.44152.58983.57194.96337.13059.37363.1958.78294.1958,1.22819v4.97424Zm-3.68466-1.18217c.1945,0,.37355-.0179.5373-.05375.16376-.03569.31858-.08944.46445-.16116.14586-.07162.28654-.15993.42215-.26482.13564-.10481.27255-.22897.41078-.37231v-1.32804c-.55274.02569-1.01459.07294-1.38569.14204-.3711.06911-.66901.15733-.89425.26482-.22522.10749-.38509.23297-.47972.37614-.09482.14336-.14198.29939-.14198.46826,0,.33273.09838.57073.29548.7139.19693.14336.45404.21492.77147.21492Z"/><path class="cls-4" d="m75.05547,10.79795c0-.15863.02942-.30962.08831-.45289.0587-.14326.14066-.26604.24556-.3685.10489-.10228.22897-.18424.3724-.24564.14311-.06138.29663-.09212.46054-.09212.15856,0,.30947.03074.45291.09212.14326.0614.26604.14336.36848.24564.1023.10246.18426.22524.24557.3685.06146.14328.0922.29426.0922.45289,0,.16384-.03074.31606-.0922.45672-.06132.14083-.14328.26231-.24557.3646-.10245.10245-.22522.18311-.36848.24181-.14344.05872-.29435.08831-.45291.08831-.16391,0-.31743-.02959-.46054-.08831-.14343-.0587-.2675-.13936-.3724-.24181-.10489-.1023-.18686-.22377-.24556-.3646-.05888-.14066-.08831-.29288-.08831-.45672Z"/><ellipse class="cls-4" cx="14.19371" cy="1.6909" rx="1.23224" ry="1.69233" transform="translate(-.07623 .86057) rotate(-3.46352)"/><ellipse class="cls-5" cx="14.19371" cy="1.6909" rx="1.23224" ry="1.69233" transform="translate(-.07623 .86057) rotate(-3.46352)"/></g></g></g></svg>