<?xml version="1.0" encoding="UTF-8"?><svg id="Layer_1" xmlns="http://www.w3.org/2000/svg" viewBox="0 0 83.5 83.5"><defs><style>.cls-1{stroke:#f47c00;}.cls-1,.cls-2{fill:none;stroke-linecap:round;stroke-linejoin:round;stroke-width:1.5px;}.cls-2{stroke:#002d6a;}</style></defs><path class="cls-2" d="m36.47,82.75H15.06c-1.06,0-1.82-.86-1.82-1.82v-6.05c0-1.06.86-1.82,1.82-1.82h21.41c1.06,0,1.82.86,1.82,1.82v6.05c.1.96-.77,1.82-1.82,1.82Z"/><line class="cls-2" x1=".75" y1="20.05" x2=".75" y2="48.57"/><line class="cls-2" x1="16.02" y1="72.96" x2=".75" y2="48.57"/><line class="cls-2" x1="6.7" y1="42.42" x2="6.7" y2="23.03"/><path class="cls-2" d="m.75,20.05h0c2.3-.67,4.7.48,5.67,2.59l.19.48"/><line class="cls-2" x1="13.14" y1="48.57" x2="13.14" y2="29.17"/><path class="cls-2" d="m7.18,26.1h0c2.3-.67,4.7.48,5.67,2.59l.19.48"/><path class="cls-2" d="m19.47,41.85l14.31,13.92s1.63,1.15,1.63,3.36v13.92"/><path class="cls-2" d="m18.99,41.85h0c-2.98,1.63-4.42,5.19-3.36,8.35l.29.77"/><line class="cls-2" x1="19.47" y1="41.85" x2="19.47" y2="36.18"/><path class="cls-2" d="m13.52,33.11h0c2.3-.67,4.7.48,5.67,2.59l.19.48"/><line class="cls-2" x1="6.7" y1="42.42" x2="22.55" y2="57.69"/><path class="cls-2" d="m47.03,82.75h21.41c1.06,0,1.82-.86,1.82-1.82v-6.05c0-1.06-.86-1.82-1.82-1.82h-21.41c-1.06,0-1.82.86-1.82,1.82v6.05c-.1.96.77,1.82,1.82,1.82Z"/><line class="cls-2" x1="82.75" y1="20.05" x2="82.75" y2="48.57"/><line class="cls-2" x1="67.48" y1="72.96" x2="82.75" y2="48.57"/><line class="cls-2" x1="76.8" y1="42.42" x2="76.8" y2="23.03"/><path class="cls-2" d="m82.75,20.05h0c-2.3-.67-4.7.48-5.67,2.59l-.19.48"/><line class="cls-2" x1="70.36" y1="48.57" x2="70.36" y2="29.17"/><path class="cls-2" d="m76.32,26.1h0c-2.3-.67-4.7.48-5.67,2.59l-.19.48"/><path class="cls-2" d="m64.03,41.85l-14.21,13.83s-1.63,1.15-1.63,3.36v13.92"/><path class="cls-2" d="m64.51,41.85h0c2.98,1.63,4.42,5.19,3.36,8.35l-.19.77"/><line class="cls-2" x1="64.03" y1="41.85" x2="64.03" y2="36.18"/><path class="cls-2" d="m69.98,33.11h0c-2.3-.67-4.7.48-5.67,2.59l-.19.48"/><line class="cls-2" x1="76.8" y1="42.42" x2="60.95" y2="57.69"/><polyline class="cls-1" points="39.16 37.96 39.16 44.43 43.76 44.43 43.76 37.96"/><polyline class="cls-1" points="43.76 33.35 43.76 26.88 39.16 26.88 39.16 33.35"/><polyline class="cls-1" points="39.16 33.35 32.69 33.35 32.69 37.96 39.16 37.96"/><polyline class="cls-1" points="43.76 37.96 50.23 37.96 50.23 33.35 43.76 33.35"/><path class="cls-1" d="m48.23,6.49c.05.33.08.67.08,1.02,0,3.73-3.03,6.76-6.76,6.76s-6.76-3.03-6.76-6.76,3.03-6.76,6.76-6.76c3.39,0,6.19,2.49,6.69,5.74"/><path class="cls-1" d="m31.56,19.32c0-2.06,1.67-3.74,3.74-3.75h12.88c2.07,0,3.75,1.68,3.75,3.75"/><path class="cls-1" d="m68.23,6.49c.05.33.08.67.08,1.02,0,3.73-3.03,6.76-6.76,6.76s-6.76-3.03-6.76-6.76,3.03-6.76,6.76-6.76c3.39,0,6.19,2.49,6.69,5.74"/><path class="cls-1" d="m51.57,19.32c0-2.06,1.67-3.74,3.74-3.75h12.88c2.07,0,3.75,1.68,3.75,3.75"/><path class="cls-1" d="m28.23,6.49c.05.33.08.67.08,1.02,0,3.73-3.03,6.76-6.76,6.76s-6.76-3.03-6.76-6.76S17.81.75,21.55.75c3.39,0,6.19,2.49,6.69,5.74"/><path class="cls-1" d="m11.57,19.32c0-2.06,1.67-3.74,3.74-3.75h12.88c2.07,0,3.75,1.68,3.75,3.75"/></svg>