<?xml version="1.0" encoding="UTF-8"?><svg id="Layer_1" xmlns="http://www.w3.org/2000/svg" viewBox="0 0 61.49 83.5"><defs><style>.cls-1{stroke:#f47c00;}.cls-1,.cls-2,.cls-3{stroke-linecap:round;stroke-linejoin:round;stroke-width:1.5px;}.cls-1,.cls-3{fill:none;}.cls-2{fill:#fff;}.cls-2,.cls-3{stroke:#002d6a;}</style></defs><path class="cls-1" d="m42.93,29.94v-5.03h-2.81c-.32-1.64-.96-3.17-1.87-4.51l1.98-1.98-3.39-3.39-1.98,1.98c-1.34-.9-2.87-1.54-4.51-1.87v-2.81h-5.03v2.81c-1.64.32-3.17.96-4.51,1.87l-1.98-1.98-3.39,3.39,1.98,1.98c-.9,1.34-1.54,2.87-1.87,4.51h-2.81v5.03h2.81c.32,1.64.96,3.17,1.87,4.51l-1.98,1.98,3.39,3.39,1.98-1.98c1.34.9,2.87,1.54,4.51,1.87v2.81h5.03v-2.81c1.64-.32,3.17-.96,4.51-1.87l1.98,1.98,3.39-3.39-1.98-1.98c.9-1.34,1.54-2.87,1.87-4.51h2.81Z"/><circle class="cls-1" cx="27.85" cy="27.43" r="8.39"/><path class="cls-1" d="m27.84.75C12.88.75.75,12.88.75,27.84c0,4.27,1.02,8.51,2.96,12.31,1.92,3.74,5.04,6.62,7.51,9.97,2.49,3.38,4.44,7.35,5.31,11.48.11.55.21,6.55.21,6.55h15.23s6.66,0,6.66,0c-.69-4.03.41-8.17,2.06-11.84.88-1.97,1.94-3.97,3.21-5.76,1.32-1.88,2.99-3.4,4.51-5.1,1.33-1.48,2.45-3.23,3.38-4.99,1.94-3.65,3.03-7.74,3.15-11.87,0-.25.01-.5.01-.75,0-14.96-12.13-27.09-27.09-27.09Z"/><line class="cls-3" x1="17.34" y1="75.2" x2="37.88" y2="75.2"/><line class="cls-3" x1="18.29" y1="82.75" x2="37.29" y2="82.75"/><polygon class="cls-3" points="27.85 23.29 29.19 26.01 32.2 26.45 30.02 28.57 30.54 31.57 27.85 30.15 25.16 31.57 25.67 28.57 23.5 26.45 26.5 26.01 27.85 23.29"/><path class="cls-2" d="m45.65,40.86l3.92,3.92,10.22,10.22c1.2,1.2,1.26,3.09.14,4.21h0c-1.12,1.12-3.02,1.05-4.21-.14l-10.22-10.22-3.92-3.92"/><path class="cls-3" d="m49.87,28.12c-.21,5.35-2.35,10.64-6.44,14.72-8.61,8.61-22.56,8.61-31.17,0-8.61-8.61-8.61-22.56,0-31.17,8.61-8.61,22.56-8.61,31.17,0,1.78,1.78,3.19,3.79,4.24,5.94"/></svg>