<?xml version="1.0" encoding="UTF-8"?><svg id="Layer_1" xmlns="http://www.w3.org/2000/svg" viewBox="0 0 72.01 83.5"><defs><style>.cls-1{stroke:#f47c00;}.cls-1,.cls-2{fill:none;stroke-linecap:round;stroke-linejoin:round;stroke-width:1.5px;}.cls-2{stroke:#002d6a;}</style></defs><path class="cls-1" d="m44.58,35.91c0,1.85-3.84,3.35-8.57,3.35s-8.57-1.5-8.57-3.35"/><path class="cls-1" d="m44.58,39.14c0,1.85-3.84,3.35-8.57,3.35s-8.57-1.5-8.57-3.35"/><path class="cls-1" d="m44.58,42.68c0,1.85-3.84,3.35-8.57,3.35s-8.57-1.5-8.57-3.35"/><path class="cls-1" d="m44.58,46.19c0,1.85-3.84,3.35-8.57,3.35s-8.57-1.5-8.57-3.35"/><path class="cls-1" d="m27.43,35.91v10.28c0,1.85,3.84,3.35,8.57,3.35s8.57-1.5,8.57-3.35v-10.28"/><ellipse class="cls-2" cx="35.69" cy="41.75" rx="14.92" ry="41"/><ellipse class="cls-2" cx="36" cy="41.46" rx="14.92" ry="41" transform="translate(-18.42 48.82) rotate(-56.73)"/><ellipse class="cls-2" cx="36" cy="41.46" rx="41" ry="14.92" transform="translate(-16.84 26.54) rotate(-33.27)"/><ellipse class="cls-1" cx="36" cy="35.91" rx="8.52" ry="3.23"/></svg>