<?xml version="1.0" encoding="UTF-8"?><svg id="Layer_1" xmlns="http://www.w3.org/2000/svg" viewBox="0 0 83.5 83.5"><defs><style>.cls-1{stroke:#f27d21;}.cls-1,.cls-2,.cls-3{stroke-linecap:round;stroke-linejoin:round;stroke-width:1.5px;}.cls-1,.cls-3{fill:none;}.cls-2{fill:#fff;stroke:#f47c00;}.cls-3{stroke:#002d6a;}</style></defs><path class="cls-1" d="M63.32,45.27v-7.16h-4c-.46-2.34-1.37-4.51-2.66-6.42l2.82-2.82-4.82-4.82-2.82,2.82c-1.91-1.28-4.08-2.2-6.42-2.66v-4h-7.16v4c-2.34.46-4.51,1.37-6.42,2.66l-2.82-2.82-4.82,4.82,2.82,2.82c-1.28,1.91-2.2,4.08-2.66,6.42h-4v7.16h4c.46,2.34,1.37,4.51,2.66,6.42l-2.82,2.82,4.82,4.82,2.82-2.82c1.91,1.28,4.08,2.2,6.42,2.66v4h7.16v-4c2.34-.46,4.51-1.37,6.42-2.66l2.82,2.82,4.82-4.82-2.82-2.82c1.28-1.91,2.2-4.08,2.66-6.42h4Z"/><circle class="cls-3" cx="41.85" cy="41.69" r="11.94"/><path class="cls-3" d="M36.64,74.78c-14.39-2.25-25.75-13.65-27.91-28.07"/><path class="cls-3" d="M74.95,46.82c-2.21,14.39-13.58,25.76-27.97,27.97"/><path class="cls-3" d="M46.75,8.56c14.5,2.13,25.99,13.55,28.2,28.03"/><path class="cls-3" d="M8.74,36.6c2.18-14.31,13.42-25.65,27.69-27.97"/><path class="cls-2" d="M15.65,42.99v-2.48h-1.39c-.16-.81-.48-1.57-.92-2.23l.98-.98-1.67-1.67-.98.98c-.66-.45-1.42-.76-2.23-.92v-1.39h-2.48v1.39c-.81.16-1.57.48-2.23.92l-.98-.98-1.67,1.67.98.98c-.45.66-.76,1.42-.92,2.23H.75v2.48h1.39c.16.81.48,1.57.92,2.23l-.98.98,1.67,1.67.98-.98c.66.45,1.42.76,2.23.92v1.39h2.48v-1.39c.81-.16,1.57-.48,2.23-.92l.98.98,1.67-1.67-.98-.98c.45-.66.76-1.42.92-2.23h1.39Z"/><path class="cls-2" d="M49.2,76.54v-2.48h-1.39c-.16-.81-.48-1.57-.92-2.23l.98-.98-1.67-1.67-.98.98c-.66-.45-1.42-.76-2.23-.92v-1.39h-2.48v1.39c-.81.16-1.57.48-2.23.92l-.98-.98-1.67,1.67.98.98c-.45.66-.76,1.42-.92,2.23h-1.39v2.48h1.39c.16.81.48,1.57.92,2.23l-.98.98,1.67,1.67.98-.98c.66.45,1.42.76,2.23.92v1.39h2.48v-1.39c.81-.16,1.57-.48,2.23-.92l.98.98,1.67-1.67-.98-.98c.45-.66.76-1.42.92-2.23h1.39Z"/><path class="cls-2" d="M82.75,42.99v-2.48h-1.39c-.16-.81-.48-1.57-.92-2.23l.98-.98-1.67-1.67-.98.98c-.66-.45-1.42-.76-2.23-.92v-1.39h-2.48v1.39c-.81.16-1.57.48-2.23.92l-.98-.98-1.67,1.67.98.98c-.45.66-.76,1.42-.92,2.23h-1.39v2.48h1.39c.16.81.48,1.57.92,2.23l-.98.98,1.67,1.67.98-.98c.66.45,1.42.76,2.23.92v1.39h2.48v-1.39c.81-.16,1.57-.48,2.23-.92l.98.98,1.67-1.67-.98-.98c.45-.66.76-1.42.92-2.23h1.39Z"/><path class="cls-2" d="M49.2,9.44v-2.48h-1.39c-.16-.81-.48-1.57-.92-2.23l.98-.98-1.67-1.67-.98.98c-.66-.45-1.42-.76-2.23-.92V.75h-2.48v1.39c-.81.16-1.57.48-2.23.92l-.98-.98-1.67,1.67.98.98c-.45.66-.76,1.42-.92,2.23h-1.39v2.48h1.39c.16.81.48,1.57.92,2.23l-.98.98,1.67,1.67.98-.98c.66.45,1.42.76,2.23.92v1.39h2.48v-1.39c.81-.16,1.57-.48,2.23-.92l.98.98,1.67-1.67-.98-.98c.45-.66.76-1.42.92-2.23h1.39Z"/></svg>