<svg id="Artwork" xmlns="http://www.w3.org/2000/svg" viewBox="0 0 100 100"><defs><style>.cls-1,.cls-2,.cls-3{fill:none;stroke-width:1.5px;}.cls-1{stroke:#f47c00;}.cls-1,.cls-3{stroke-miterlimit:10;}.cls-2,.cls-3{stroke:#002d6a;}.cls-2{stroke-linecap:round;stroke-linejoin:round;}</style></defs><title>Artboard 4</title><path class="cls-1" d="M34.28,31.43C37.09,17,43.07,7,50,7S62.9,17,65.71,31.38"/><path class="cls-1" d="M66.68,62.45C64.52,80.13,57.87,93,50,93S35.46,80.09,33.31,62.38"/><path class="cls-1" d="M29.3,52.87c-10.9-14-15.25-27.73-9.71-33.28,5-5,16.63-2,29.1,6.65"/><path class="cls-1" d="M71.77,48.53C81.88,62,85.77,75,80.41,80.41,75.88,84.93,65.91,82.87,54.8,76"/><path class="cls-1" d="M70.54,53.07C81.55,39,86,25.17,80.41,19.59c-5-5-16.58-2-29,6.59"/><path class="cls-1" d="M28.36,48.37c-10.2,13.55-14.15,26.65-8.77,32C24.09,84.9,34,82.89,45,76.16"/><path class="cls-1" d="M35.49,66.41C18.88,64,7,57.56,7,50c0-6.34,8.37-11.9,20.88-14.94"/><path class="cls-1" d="M72.08,35.05C84.61,38.09,93,43.65,93,50c0,7.62-12.06,14.09-28.86,16.46"/><path class="cls-2" d="M71.8,33.72,50,25.9v0H50v0L33.78,31.72l-5.58,2S23.06,64.09,50,79.07v0l0,0,0,0v0C76.94,64.09,71.8,33.72,71.8,33.72Z"/><line class="cls-3" x1="50.03" y1="25.9" x2="50.03" y2="79.07"/></svg>