<?xml version="1.0" encoding="UTF-8"?><svg id="Layer_1" xmlns="http://www.w3.org/2000/svg" viewBox="0 0 83.99 83.5"><defs><style>.cls-1,.cls-2,.cls-3{stroke:#f17e21;}.cls-1,.cls-2,.cls-3,.cls-4,.cls-5,.cls-6,.cls-7{stroke-width:1.5px;}.cls-1,.cls-2,.cls-3,.cls-4,.cls-6,.cls-7{stroke-linecap:round;}.cls-1,.cls-2,.cls-6,.cls-7{stroke-linejoin:round;}.cls-1,.cls-3,.cls-4,.cls-5,.cls-7{fill:none;}.cls-2,.cls-6{fill:#fff;}.cls-3,.cls-4,.cls-5{stroke-miterlimit:10;}.cls-4,.cls-5,.cls-7{stroke:#002d6a;}.cls-6{stroke:#f47c00;}</style></defs><path class="cls-4" d="M41.99.75v26c0,14.03-11.38,25.41-25.41,25.41h1.11"/><path class="cls-4" d="M41.99.75v26c0,14.03,11.38,25.41,25.41,25.41h-1.11"/><line class="cls-4" x1="41.99" y1=".75" x2="28.12" y2="14.62"/><line class="cls-4" x1="41.99" y1=".75" x2="55.86" y2="14.62"/><line class="cls-4" x1="41.99" y1="41.56" x2="41.99" y2="65.73"/><circle class="cls-6" cx="15.54" cy="53.16" r="14.79"/><circle class="cls-6" cx="68.44" cy="53.16" r="14.79"/><circle class="cls-6" cx="41.99" cy="67.96" r="14.79"/><circle class="cls-5" cx="15.54" cy="53.16" r="12.47"/><path class="cls-7" d="M10.91,48.58c.87-.88,1.98-1.51,3.24-1.79l-.42-4.01c-2.34.41-4.42,1.59-5.96,3.28l3.15,2.52Z"/><path class="cls-7" d="M9.03,53.24s0-.06,0-.09c0-1.24.35-2.41.95-3.4l-3.15-2.52c-1.15,1.69-1.82,3.72-1.82,5.92,0,.17,0,.34.01.51l4.01-.42Z"/><path class="cls-7" d="M15.63,46.65c1.32.02,2.55.43,3.57,1.12l2.65-3.05c-1.76-1.32-3.94-2.1-6.31-2.1-.11,0-.22,0-.33,0l.42,4.01Z"/><path class="cls-7" d="M9.22,54.73l-4.02.42c.43,2.25,1.58,4.25,3.2,5.75l2.67-3c-.89-.84-1.55-1.94-1.85-3.17Z"/><path class="cls-7" d="M22.98,45.71l-2.64,3.04c.55.6,1,1.31,1.29,2.09h0s4.18,0,4.18,0c-.44-1.98-1.45-3.74-2.83-5.13Z"/><path class="cls-6" d="M16.42,51.79h8.97c.7,0,1.26.57,1.26,1.26v.42c0,.7-.57,1.26-1.26,1.26h-8.97v-2.94h0Z"/><circle class="cls-6" cx="15.54" cy="53.16" r="1.75"/><path class="cls-7" d="M50.08,59.57c-.17,0-.34.02-.52.02-3.31,0-6.16-1.17-7.51-2.87l-.07-.02-.07.02c-1.35,1.7-4.2,2.87-7.51,2.87-.17,0-.34,0-.52-.02l-.2.07v9.97c0,3.93,2.44,7.44,6.13,8.81l2.16.8,2.16-.8c3.68-1.37,6.13-4.88,6.13-8.81v-9.97l-.2-.07Z"/><rect class="cls-2" x="38.5" y="67.75" width="6.99" height="4.75"/><path class="cls-1" d="M41.93,63.42h0c1.38,0,2.51,1.12,2.51,2.51v1.82h-5.01v-1.82c0-1.38,1.12-2.51,2.51-2.51Z"/><polyline class="cls-7" points="66.78 41.85 56.97 47.51 56.97 58.83 66.78 64.49 73.63 60.53"/><line class="cls-7" x1="66.78" y1="41.85" x2="73.63" y2="45.67"/><circle class="cls-3" cx="66.97" cy="52.76" r="3.64"/><circle class="cls-3" cx="73.63" cy="50.19" r="1.82"/><circle class="cls-3" cx="73.63" cy="56.29" r="1.82"/><circle class="cls-3" cx="78.09" cy="53.19" r="1.82"/><circle class="cls-3" cx="78.09" cy="59.29" r="1.82"/><circle class="cls-3" cx="78.09" cy="47.09" r="1.82"/></svg>