<svg xmlns="http://www.w3.org/2000/svg" viewBox="0 0 100 100"><defs><style>.cls-1,.cls-2{fill:none;stroke-linecap:round;stroke-linejoin:round;stroke-width:1.5px;}.cls-1{stroke:#002d6a;}.cls-2{stroke:#f47c00;}</style></defs><title>Artboard 29 copy</title><g id="Artwork"><circle class="cls-1" cx="50.35" cy="39" r="24.04"/><path class="cls-1" d="M73.19,30a6.43,6.43,0,1,1,1.59,10.25"/><path class="cls-1" d="M74.19,42.44h9.45a3.48,3.48,0,0,1,3.47,3.47"/><path class="cls-1" d="M70.26,25.52a15.46,15.46,0,1,1,.5,27.23"/><path class="cls-1" d="M26.81,30a6.43,6.43,0,1,0-1.59,10.25"/><path class="cls-1" d="M25.81,42.44H16.36a3.48,3.48,0,0,0-3.47,3.47"/><path class="cls-1" d="M29.74,25.52a15.46,15.46,0,1,0-.5,27.23"/><path class="cls-1" d="M65.43,74.94c14.37.8,24.47,2.67,24.47,4.85C89.9,82.69,72,85,50,85s-39.9-2.35-39.9-5.25c0-2.2,10.21-4.07,24.71-4.86"/><polygon class="cls-2" points="32.6 34.02 49.77 27.38 66.49 33.89 49.64 40.34 32.6 34.02"/><polyline class="cls-2" points="56.28 33.45 62.34 35.74 62.34 43.34"/><path class="cls-2" d="M40.06,36.83V47.3s8.11,1.08,9.45,4.66c0,0,2.87-4,9.64-4.53V37.15"/></g></svg>