<svg id="Artwork" xmlns="http://www.w3.org/2000/svg" viewBox="0 0 100 100"><defs><style>.cls-1,.cls-2{fill:none;stroke-linecap:round;stroke-linejoin:round;stroke-width:1.5px;}.cls-1{stroke:#002d6a;}.cls-2{stroke:#f47c00;}.cls-3{fill:#002d6a;}</style></defs><title>Artboard 7</title><path class="cls-1" d="M77.3,68.76c8.34-.7,15.21-6.81,15.21-15.61A15.72,15.72,0,0,0,78.07,37.49,16.79,16.79,0,1,0,46.69,25.85,16.1,16.1,0,0,0,18.23,36.17c0,.22,0,.43,0,.65A16.53,16.53,0,0,0,22,68.72"/><path class="cls-2" d="M73.85,64.83c0-10.86-10.74-19.66-24-19.66s-24,8.8-24,19.66,10.75,19.66,24,19.66a29.68,29.68,0,0,0,4-.28l10.18,2.13L61.3,82.11C68.78,78.78,73.85,72.29,73.85,64.83Z"/><path class="cls-3" d="M49.85,55.68c6.49,0,11.75,4.31,11.75,9.62s-5.26,9.63-11.75,9.63a14.16,14.16,0,0,1-2-.14l-5,1,1.36-2.07c-3.66-1.63-6.14-4.8-6.14-8.46,0-5.31,5.25-9.62,11.74-9.62m0-1.5c-7.3,0-13.24,5-13.24,11.12a10.65,10.65,0,0,0,5.48,9l-.45.69a1.5,1.5,0,0,0,1.25,2.32,1.55,1.55,0,0,0,.31,0l4.73-1a15.71,15.71,0,0,0,1.92.12c7.3,0,13.25-5,13.25-11.13s-6-11.12-13.25-11.12Z"/></svg>