<svg id="Layer_1" data-name="Layer 1" xmlns="http://www.w3.org/2000/svg" viewBox="0 0 400 400"><defs><style>.cls-1{fill:#2195f2;opacity:0.05;}.cls-11,.cls-12,.cls-2,.cls-6,.cls-7,.cls-8{fill:#fff;}.cls-12,.cls-14,.cls-2,.cls-5,.cls-6{stroke:#002d6a;}.cls-12,.cls-14,.cls-2,.cls-3,.cls-4,.cls-5,.cls-6,.cls-8,.cls-9{stroke-linecap:round;}.cls-11,.cls-12,.cls-14,.cls-2,.cls-3,.cls-4,.cls-5,.cls-6,.cls-8,.cls-9{stroke-linejoin:round;}.cls-10,.cls-13,.cls-14,.cls-3,.cls-4,.cls-5,.cls-9{fill:none;}.cls-3{stroke:#fff;}.cls-11,.cls-13,.cls-4,.cls-8,.cls-9{stroke:#4bc7e9;}.cls-6{stroke-width:1px;}.cls-9{stroke-width:1.32px;}.cls-10{stroke:#231f20;}.cls-10,.cls-13{stroke-miterlimit:10;}.cls-12,.cls-13{stroke-width:0.93px;}.cls-14{stroke-width:0.66px;stroke-dasharray:1.61;}</style></defs><circle class="cls-1" cx="200" cy="200" r="151.33"/><path class="cls-2" d="M268.76,41.46l-6.28-3.41a2.84,2.84,0,0,0-3,.25L81.32,141.94a9.14,9.14,0,0,0-4.11,7.15V308.87a2.87,2.87,0,0,0,1.25,2.69v0L84.9,315l-.37-5.62,175-100.88a9.07,9.07,0,0,0,4.12-7.13V44.66Z"/><path class="cls-2" d="M89.68,151.69v-7L82,141.56l-.67.38a9.14,9.14,0,0,0-4.11,7.15v3.55L83.46,155Z"/><path class="cls-2" d="M87.58,314.65,265.75,211.92a9.07,9.07,0,0,0,4.12-7.13V44.06c0-2.63-1.84-3.69-4.11-2.37L87.57,145.34a9.14,9.14,0,0,0-4.11,7.14V312.27C83.46,314.89,85.3,316,87.58,314.65Z"/><polygon class="cls-2" points="96.14 148.13 96.14 301.89 256.87 209.23 256.87 54.64 96.14 148.13"/><circle class="cls-2" cx="89.68" cy="225.28" r="1.15"/><ellipse class="cls-2" cx="263.05" cy="136.18" rx="3.49" ry="3.17" transform="translate(-21.31 219.14) rotate(-43.63)"/><line class="cls-3" x1="231.33" y1="137.47" x2="246.14" y2="128.81"/><ellipse class="cls-4" cx="127.3" cy="257.24" rx="5.55" ry="3.14" transform="translate(-154.8 204.35) rotate(-53.05)"/><ellipse class="cls-4" cx="141.57" cy="249.35" rx="5.55" ry="3.14" transform="translate(-142.81 212.6) rotate(-53.05)"/><ellipse class="cls-4" cx="154.56" cy="242.28" rx="5.55" ry="3.14" transform="translate(-131.97 220.16) rotate(-53.05)"/><ellipse class="cls-5" cx="167.08" cy="234.97" rx="5.55" ry="3.14" transform="translate(-121.14 227.26) rotate(-53.05)"/><line class="cls-2" x1="254.69" y1="55.86" x2="254.69" y2="208.03"/><line class="cls-6" x1="96.14" y1="299.44" x2="254.69" y2="208.42"/><polygon class="cls-7" points="56.31 94.83 69.33 104.21 76.03 95.97 120.08 35.66 138.84 28.19 124.1 19.57 73.54 53.27 56.31 94.83"/><path class="cls-8" d="M125.91,20.17c-7.58-2.25-18.36-.17-30.32,6.74C72.64,40.16,54,66.14,54,84.94a19.35,19.35,0,0,0,2.76,10.62"/><path class="cls-8" d="M149,44c0-18.8-18.6-23.3-41.55-10S65.91,73.16,65.91,92s18.6,23.3,41.55,10.05c2.38-1.38,4.72-2.9,7-4.53L132.07,91l-4.78-4.56C140.23,73.2,149,56.89,149,44Z"/><line class="cls-8" x1="70.03" y1="104.46" x2="56.88" y2="95.66"/><line class="cls-8" x1="142.29" y1="29.27" x2="126.2" y2="20.34"/><path class="cls-2" d="M97.07,79.26l.57-3.21c.83-4.76,5-11.18,9.33-15.73l.7,3.11a15.92,15.92,0,0,0-3.89,8.06l-.84,4.38ZM109,72.4l.58-3.21c.83-4.76,5-11.18,9.32-15.73l.71,3.11a16,16,0,0,0-3.9,8.06L114.83,69Z"/><polyline class="cls-9" points="157.3 184.14 181.18 170.36 181.18 211.49 107.67 253.93 107.67 212.8 130.81 199.44"/><ellipse class="cls-9" cx="144.06" cy="176.09" rx="26.85" ry="15.5" transform="translate(-80.67 211.58) rotate(-59.69)"/><path class="cls-9" d="M116,249.12V226.68c0-6.49,4.63-14.48,10.3-17.75l35.26-20.36c5.66-3.27,10.29-.63,10.29,5.87v22.43"/><line class="cls-10" x1="198.08" y1="240.91" x2="198.08" y2="89.83"/><line class="cls-10" x1="198.08" y1="170.36" x2="253.75" y2="138.85"/><ellipse class="cls-4" cx="227.02" cy="104.54" rx="14.83" ry="8.56" transform="translate(22.2 247.77) rotate(-59.69)"/><path class="cls-4" d="M242.38,127.06V114.67c0-3.59-2.56-5-5.69-3.24l-19.47,11.24a12.58,12.58,0,0,0-5.69,9.81v12.39Z"/><ellipse class="cls-4" cx="230.19" cy="176.04" rx="14.83" ry="8.56" transform="translate(-37.96 285.91) rotate(-59.69)"/><path class="cls-4" d="M245.54,198.56V186.17c0-3.59-2.56-5-5.69-3.24l-19.47,11.24a12.58,12.58,0,0,0-5.69,9.81v12.39Z"/><polyline class="cls-11" points="313.4 107.33 360.79 134.69 360.79 233.52 324.3 212.45 296.31 196.29 296.31 116.94"/><polygon class="cls-11" points="313.4 107.2 296.31 116.94 313.4 126.81 313.4 107.2"/><path class="cls-2" d="M346.5,177.84,334,156.35v8.17c-12.46-5.15-17.8,2-19.58,11.16,4.45-4.58,10.68-4.25,19.58.89v8.37Z"/><path class="cls-2" d="M216.93,365.34l65.25-117.56L272,241.72c-7.23-4.83-17.59-4.49-29.1,2.16C221,256.49,203.3,287,203.3,312.1c0,9,2.29,16,6.21,20.81l-6.21,24.58Z"/><path class="cls-12" d="M256.76,251.73C234.91,264.34,217.2,294.89,217.2,320c0,9,2.28,16,6.21,20.81l-6.21,24.57,17.53-17.8c6.3,1.22,13.87-.33,22-5,21.84-12.61,39.55-43.16,39.55-68.23S278.6,239.12,256.76,251.73Z"/><polygon class="cls-13" points="266.09 285.47 266.09 277.52 235.13 295.39 235.13 323.81 266.09 305.94 266.09 297.54 278.38 298.84 278.38 270.43 266.09 285.47"/><polyline class="cls-14" points="324.3 212.45 324.21 243.03 267.92 210.85"/></svg>