<svg xmlns="http://www.w3.org/2000/svg" viewBox="0 0 100 100"><defs><style>.cls-1,.cls-2,.cls-3{fill:none;}.cls-1{stroke:#002d6a;}.cls-1,.cls-3{stroke-linecap:round;stroke-linejoin:round;stroke-width:1.5px;}.cls-3{stroke:#f47c00;}</style></defs><title>Artboard 30 copy 3</title><g id="Artwork"><circle class="cls-1" cx="50.35" cy="39" r="24.04"/><circle class="cls-2" cx="49.24" cy="32.62" r="9.83"/><circle class="cls-3" cx="50.21" cy="32.12" r="9.99"/><path class="cls-3" d="M35.49,47.84a5.42,5.42,0,0,1,5.4-5.4H59.4a5.42,5.42,0,0,1,5.4,5.4"/><path class="cls-1" d="M73.19,30a6.43,6.43,0,1,1,1.59,10.25"/><path class="cls-1" d="M74.19,42.44h9.45a3.48,3.48,0,0,1,3.47,3.47"/><path class="cls-1" d="M70.26,25.52a15.46,15.46,0,1,1,.5,27.23"/><path class="cls-1" d="M26.81,30a6.43,6.43,0,1,0-1.59,10.25"/><path class="cls-1" d="M25.81,42.44H16.36a3.48,3.48,0,0,0-3.47,3.47"/><path class="cls-1" d="M29.74,25.52a15.46,15.46,0,1,0-.5,27.23"/><path class="cls-1" d="M65.43,74.94c14.37.8,24.47,2.67,24.47,4.85C89.9,82.69,72,85,50,85s-39.9-2.35-39.9-5.25c0-2.2,10.21-4.07,24.71-4.86"/></g></svg>